<svg width="181" height="202" viewBox="0 0 181 202" fill="none" xmlns="http://www.w3.org/2000/svg">
<rect x="0.875366" y="120.332" width="37.4927" height="37.4927" rx="18.7463" fill="white"/>
<g clip-path="url(#clip0_1744_1151)">
<path fill-rule="evenodd" clip-rule="evenodd" d="M13.3396 129.534H25.8336C27.552 129.534 28.9597 130.941 28.9597 132.66V145.154C28.9597 146.873 27.552 148.28 25.8336 148.28H13.3396C11.6209 148.28 10.2134 146.873 10.2134 145.154V132.66C10.2134 130.941 11.6209 129.534 13.3396 129.534Z" fill="url(#paint0_linear_1744_1151)"/>
<path fill-rule="evenodd" clip-rule="evenodd" d="M23.9452 138.906C23.9452 136.497 21.9927 134.544 19.583 134.544C17.1733 134.544 15.2209 136.497 15.2209 138.906C15.2209 141.316 17.1733 143.269 19.583 143.269C21.9927 143.269 23.9452 141.316 23.9452 138.906ZM23.8626 133.951C23.4732 133.951 23.1607 134.267 23.1607 134.653C23.1607 135.043 23.4732 135.355 23.8626 135.355C24.249 135.355 24.5645 135.043 24.5645 134.653C24.5646 134.267 24.2491 133.951 23.8626 133.951ZM16.0173 132.943H23.1489C24.4703 132.943 25.5467 134.022 25.5467 135.341V142.472C25.5467 143.794 24.4703 144.87 23.1489 144.87H16.0173C14.6989 144.87 13.6193 143.794 13.6193 142.472V135.341C13.6193 134.022 14.6989 132.943 16.0173 132.943ZM23.1489 132.143H16.0173C14.2593 132.143 12.8201 133.583 12.8201 135.341V142.472C12.8201 144.233 14.2593 145.669 16.0173 145.669H23.1489C24.9097 145.669 26.3459 144.233 26.3459 142.472V135.341C26.3459 133.583 24.9097 132.143 23.1489 132.143ZM16.1263 138.906C16.1263 136.998 17.6747 135.45 19.583 135.45C21.4913 135.45 23.0397 136.998 23.0397 138.906C23.0397 140.815 21.4913 142.363 19.583 142.363C17.6747 142.363 16.1263 140.815 16.1263 138.906Z" fill="white"/>
</g>
<rect x="128.336" y="136.366" width="37.4927" height="37.4927" rx="18.7463" transform="rotate(-34.006 128.336 136.366)" fill="white"/>
<path d="M153.176 143.492L156.896 148.452L162.363 148.452L156.226 140.267L161.332 134.392L159.262 134.392L155.266 138.989L151.819 134.392L146.351 134.392L152.217 142.215L146.796 148.452L148.866 148.452L153.176 143.492ZM157.677 146.889L149.475 135.954L151.038 135.954L159.239 146.889L157.677 146.889Z" fill="black"/>
<rect x="85.5703" y="170.344" width="37.4927" height="37.4927" rx="18.7463" transform="rotate(-34.006 85.5703 170.344)" fill="white"/>
<path d="M123.8 175.43C123.8 168.693 118.332 163.226 111.595 163.226C104.858 163.226 99.3904 168.693 99.3904 175.43C99.3904 181.337 103.589 186.256 109.154 187.391L109.154 179.092L106.713 179.092L106.713 175.43L109.154 175.43L109.154 172.379C109.154 170.024 111.07 168.107 113.426 168.107L116.477 168.107L116.477 171.769L114.036 171.769C113.365 171.769 112.815 172.318 112.815 172.989L112.815 175.43L116.477 175.43L116.477 179.092L112.815 179.092L112.815 187.574C118.979 186.964 123.8 181.764 123.8 175.43Z" fill="#1C9CFF"/>
<rect x="31.6742" y="170.344" width="37.4927" height="37.4927" rx="18.7463" transform="rotate(-34.006 31.6742 170.344)" fill="white"/>
<g clip-path="url(#clip1_1744_1151)">
<path d="M61.6867 172.776C62.8941 173.639 64.3732 174.147 65.9708 174.147L65.9708 171.074C65.6684 171.074 65.3669 171.043 65.0711 170.98L65.0711 173.398C63.4737 173.398 61.9947 172.891 60.7871 172.028L60.7871 178.298C60.7871 181.435 58.243 183.978 55.105 183.978C53.9341 183.978 52.8458 183.624 51.9418 183.017C52.9736 184.072 54.4125 184.726 56.0044 184.726C59.1427 184.726 61.6868 182.183 61.6868 179.046L61.6868 172.776L61.6867 172.776ZM62.7966 169.677C62.1795 169.003 61.7744 168.132 61.6867 167.169L61.6867 166.774L60.8341 166.774C61.0487 167.998 61.7808 169.043 62.7966 169.677ZM53.9266 180.61C53.5818 180.158 53.3954 179.606 53.3963 179.037C53.3963 177.603 54.5599 176.44 55.9956 176.44C56.2631 176.439 56.529 176.481 56.784 176.561L56.784 173.42C56.486 173.379 56.1853 173.362 55.8847 173.368L55.8847 175.813C55.6296 175.732 55.3635 175.691 55.0959 175.692C53.6603 175.692 52.4967 176.855 52.4967 178.289C52.4967 179.304 53.0783 180.182 53.9266 180.61Z" fill="#FF004F"/>
<path d="M60.7888 172.028C61.9965 172.891 63.4754 173.398 65.0728 173.398L65.0728 170.98C64.1811 170.79 63.3918 170.324 62.7983 169.677C61.7824 169.043 61.0505 167.998 60.8359 166.774L58.5965 166.774L58.5965 179.046C58.5914 180.477 57.4297 181.635 55.9972 181.635C55.1531 181.635 54.4031 181.233 53.9282 180.61C53.0801 180.182 52.4984 179.304 52.4984 178.29C52.4984 176.855 53.662 175.692 55.0976 175.692C55.3726 175.692 55.6377 175.735 55.8864 175.813L55.8864 173.368C52.8035 173.432 50.3241 175.95 50.3241 179.046C50.3241 180.592 50.9415 181.993 51.9436 183.017C52.8476 183.624 53.9359 183.978 55.1068 183.978C58.2449 183.978 60.7889 181.435 60.7889 178.298L60.7888 172.028Z" fill="black"/>
<path d="M65.0729 170.98L65.0729 170.326C64.2688 170.328 63.4806 170.102 62.7984 169.677C63.4023 170.338 64.1975 170.793 65.0729 170.98M60.8359 166.775C60.8155 166.658 60.7998 166.54 60.7888 166.422L60.7888 166.027L57.6967 166.027L57.6967 178.299C57.6918 179.729 56.5302 180.888 55.0976 180.888C54.6915 180.888 54.2909 180.793 53.9282 180.61C54.4031 181.233 55.1531 181.636 55.9972 181.636C57.4297 181.636 58.5915 180.477 58.5965 179.047L58.5965 166.775L60.8359 166.775ZM55.8866 173.369L55.8866 172.673C55.6282 172.637 55.3677 172.62 55.107 172.62C51.9686 172.62 49.4246 175.162 49.4246 178.299C49.4246 180.265 50.4244 181.998 51.9437 183.017C50.9417 181.994 50.3243 180.592 50.3243 179.047C50.3243 175.95 52.8036 173.432 55.8866 173.369Z" fill="#00F2EA"/>
</g>
<path d="M112.333 59.8356V37.6467C112.333 30.9483 109.725 24.6507 104.988 19.9143C100.251 15.1778 93.9539 12.5692 87.2556 12.5692C80.5572 12.5692 74.2596 15.1778 69.5232 19.9143C64.7865 24.6507 62.1781 30.9483 62.1781 37.6467V59.8356L50.1846 71.8291V37.6467C50.1846 32.6447 51.1656 27.7893 53.1001 23.2152C54.9676 18.8002 57.6396 14.8362 61.0424 11.4337C64.4449 8.0311 68.4089 5.35895 72.8239 3.49162C77.3982 1.55673 82.2536 0.575684 87.2556 0.575684C92.2575 0.575684 97.1129 1.55655 101.687 3.49144C106.102 5.35895 110.066 8.03091 113.469 11.4335C116.871 14.836 119.543 18.8 121.411 23.215C123.346 27.7892 124.327 32.6447 124.327 37.6465V71.8289L112.333 59.8356Z" fill="white"/>
<path d="M87.2545 44.0901C57.3718 44.0901 33.1477 68.314 33.1477 98.1969C33.1477 128.08 57.3716 152.304 87.2545 152.304C117.137 152.304 141.361 128.08 141.361 98.1969C141.361 68.314 117.137 44.0901 87.2545 44.0901ZM91.6208 102.058L92.5014 115.589C92.698 118.621 90.2934 121.188 87.2545 121.188C84.2156 121.188 81.8111 118.621 82.0077 115.589L82.8882 102.058C77.0269 100.205 72.7778 94.7253 72.7778 88.2513C72.7778 80.2563 79.2598 73.7745 87.2545 73.7745C95.2493 73.7745 101.731 80.2565 101.731 88.2513C101.731 94.7251 97.4822 100.205 91.6208 102.058Z" fill="#603CD0"/>
<defs>
<linearGradient id="paint0_linear_1744_1151" x1="25.8656" y1="144.595" x2="13.0379" y2="132.974" gradientUnits="userSpaceOnUse">
<stop stop-color="#FEC053"/>
<stop offset="0.3273" stop-color="#F2203E"/>
<stop offset="0.6485" stop-color="#B729A8"/>
<stop offset="1" stop-color="#5342D6"/>
</linearGradient>
<clipPath id="clip0_1744_1151">
<rect width="18.7463" height="18.7463" fill="white" transform="translate(10.2485 129.705)"/>
</clipPath>
<clipPath id="clip1_1744_1151">
<rect width="16.5485" height="18.7463" fill="white" transform="translate(49.4247 166.027)"/>
</clipPath>
</defs>
</svg>
