<svg width="266" height="128" viewBox="0 0 266 128" fill="none" xmlns="http://www.w3.org/2000/svg">
<path d="M47.8419 5.75891V17.8477" stroke="white" stroke-width="1.34329" stroke-miterlimit="10" stroke-linecap="round" stroke-linejoin="round"/>
<path d="M53.8863 11.8027H41.7975" stroke="white" stroke-width="1.34329" stroke-miterlimit="10" stroke-linecap="round" stroke-linejoin="round"/>
<path d="M203.998 7.27063V19.3595" stroke="white" stroke-width="1.34329" stroke-miterlimit="10" stroke-linecap="round" stroke-linejoin="round"/>
<path d="M210.042 13.3151H197.953" stroke="white" stroke-width="1.34329" stroke-miterlimit="10" stroke-linecap="round" stroke-linejoin="round"/>
<path d="M13.0573 78.1231C14.2379 79.3038 14.2379 81.2172 13.0573 82.397C11.8767 83.5776 9.96321 83.5776 8.78341 82.397C7.60279 81.2164 7.60279 79.3029 8.78341 78.1231C9.96321 76.9425 11.8767 76.9425 13.0573 78.1231Z" fill="white"/>
<path d="M19.9838 50.2536C20.7257 50.2536 21.3271 49.6522 21.3271 48.9103C21.3271 48.1684 20.7257 47.567 19.9838 47.567C19.2419 47.567 18.6405 48.1684 18.6405 48.9103C18.6405 49.6522 19.2419 50.2536 19.9838 50.2536Z" fill="white"/>
<path d="M3.19366 54.6194C3.19366 55.3613 2.59226 55.9627 1.85037 55.9627C1.10848 55.9627 0.50708 55.3613 0.50708 54.6194C0.50708 53.8775 1.10848 53.2761 1.85037 53.2761C2.59226 53.2761 3.19366 53.8775 3.19366 54.6194Z" fill="white"/>
<path d="M247.764 55.4439C247.764 57.0205 246.486 58.2981 244.909 58.2981C243.333 58.2981 242.055 57.0205 242.055 55.4439C242.055 53.8673 243.333 52.5897 244.909 52.5897C246.486 52.5897 247.764 53.8681 247.764 55.4439Z" fill="white"/>
<path d="M265.493 17.7386C265.493 19.3152 264.215 20.5928 262.639 20.5928C261.062 20.5928 259.785 19.3152 259.785 17.7386C259.785 16.162 261.062 14.8844 262.639 14.8844C264.215 14.8844 265.493 16.162 265.493 17.7386Z" fill="white"/>
<path d="M161.048 19.4634C159.784 18.9483 158.489 18.4693 157.197 18.0413L156.816 19.1915C158.082 19.6105 159.352 20.0796 160.59 20.5849L161.048 19.4634Z" fill="white"/>
<path d="M175.255 27.6227C174.172 26.7912 173.048 25.9861 171.915 25.2302L171.242 26.2391C172.352 26.9802 173.454 27.7697 174.517 28.5848L175.255 27.6227Z" fill="white"/>
<path d="M168.424 23.0654C167.24 22.3851 166.019 21.7377 164.796 21.1404L164.264 22.2298C165.464 22.8156 166.66 23.4499 167.821 24.117L168.424 23.0654Z" fill="white"/>
<path d="M153.251 16.8804C151.931 16.5394 150.581 16.2395 149.24 15.9873L149.016 17.1786C150.331 17.4251 151.654 17.72 152.948 18.0536L153.251 16.8804Z" fill="white"/>
<path d="M194.923 53.5083C194.414 52.2431 193.855 50.977 193.261 49.7446L192.169 50.2713C192.751 51.479 193.299 52.7204 193.798 53.9602L194.923 53.5083Z" fill="white"/>
<path d="M197.213 60.3846C196.94 59.3749 196.649 58.366 196.327 57.376L195.174 57.7514C195.457 58.6182 195.713 59.5006 195.957 60.3846H197.213Z" fill="white"/>
<path d="M145.177 15.366C143.822 15.2041 142.444 15.0866 141.082 15.016L141.019 16.2262C142.354 16.2952 143.705 16.4102 145.033 16.5688L145.177 15.366Z" fill="white"/>
<path d="M186.821 39.2418C185.996 38.1573 185.123 37.0843 184.225 36.0532L183.311 36.8493C184.191 37.8599 185.047 38.9115 185.857 39.9755L186.821 39.2418Z" fill="white"/>
<path d="M191.348 46.1017C190.674 44.9153 189.951 43.7355 189.199 42.5959L188.187 43.2639C188.925 44.3813 189.634 45.538 190.295 46.7014L191.348 46.1017Z" fill="white"/>
<path d="M181.422 33.0466C180.46 32.0796 179.453 31.1331 178.428 30.2318L177.628 31.143C178.632 32.0262 179.62 32.9546 180.563 33.9027L181.422 33.0466Z" fill="white"/>
<path d="M121.096 18.4975L120.76 17.3325C119.446 17.7121 118.129 18.1401 116.846 18.606L117.26 19.7455C118.517 19.2887 119.808 18.8689 121.096 18.4975Z" fill="white"/>
<path d="M93.9099 35.1363L93.0266 34.3065C92.0909 35.3015 91.1773 36.3399 90.3121 37.3916L91.2487 38.1622C92.0966 37.1303 92.9921 36.1124 93.9099 35.1363Z" fill="white"/>
<path d="M84.5505 48.1968L83.48 47.6283C82.8391 48.8344 82.2328 50.0758 81.6758 51.318L82.7825 51.8135C83.328 50.5967 83.9228 49.3799 84.5505 48.1968Z" fill="white"/>
<path d="M88.7893 41.3568L87.8034 40.6503C87.009 41.7602 86.2416 42.9096 85.5227 44.0681L86.553 44.7073C87.2571 43.5718 88.0097 42.4446 88.7893 41.3568Z" fill="white"/>
<path d="M136.995 16.1491L136.978 14.9373C135.61 14.9562 134.229 15.0202 132.874 15.1287L132.97 16.3372C134.3 16.2304 135.654 16.1672 136.995 16.1491Z" fill="white"/>
<path d="M81.2602 55.5393L80.1231 55.1195C79.6499 56.3995 79.2144 57.7124 78.8291 59.0204L79.9917 59.363C80.3696 58.0813 80.7968 56.7955 81.2602 55.5393Z" fill="white"/>
<path d="M113.521 21.2482L113.031 20.139C111.783 20.6895 110.537 21.2909 109.326 21.926L109.888 22.999C111.076 22.377 112.297 21.788 113.521 21.2482Z" fill="white"/>
<path d="M128.967 16.7913L128.791 15.5918C127.438 15.7914 126.078 16.0387 124.747 16.3271L125.004 17.5118C126.308 17.2284 127.641 16.9868 128.967 16.7913Z" fill="white"/>
<path d="M106.376 24.99L105.742 23.9564C104.58 24.6687 103.425 25.4312 102.31 26.2215L103.011 27.2099C104.104 26.4351 105.236 25.6883 106.376 24.99Z" fill="white"/>
<path d="M99.803 29.6479L99.0381 28.708C97.9782 29.5699 96.9356 30.4785 95.9382 31.4069L96.7639 32.2942C97.7416 31.3839 98.7645 30.4933 99.803 29.6479Z" fill="white"/>
<path d="M73.4208 105.34V70.6872H136.794C150.842 70.6872 160.009 84.4102 171.314 92.6367C180.441 82.9987 192.396 74.9693 204.05 67.6778C208.741 64.7422 214.857 65.3551 218.869 69.1468C218.912 69.1878 218.956 69.2289 218.998 69.27C222.374 72.4602 222.36 77.8129 218.928 80.9423C206.689 92.1002 195.508 104.118 183.811 115.942C180.598 119.189 177.373 122.502 173.46 124.885C169.546 127.268 164.795 128.656 160.306 127.672L73.4208 105.34Z" fill="#603CD0"/>
<path d="M138.015 91.944L168.394 111.491C171.746 113.648 176.199 113.019 178.802 110.022C181.554 106.856 181.32 102.121 178.272 99.2314L171.314 92.6374" stroke="#8E7CFE" stroke-width="1.56488" stroke-miterlimit="10" stroke-linecap="round" stroke-linejoin="round"/>
<path d="M86.0228 62.4219H62.1261V112.005H86.0228V62.4219Z" fill="#A7A7FC"/>
<path d="M177.138 103.066L171.921 109.532C171.584 109.949 170.963 110.018 170.541 109.686L166.685 106.657C166.261 106.325 166.192 105.712 166.528 105.295L171.745 98.8289C172.082 98.4116 172.703 98.3425 173.125 98.6745L176.981 101.704C177.405 102.036 177.474 102.648 177.138 103.066Z" stroke="#8E7CFE" stroke-width="1.31388" stroke-miterlimit="10" stroke-linecap="round" stroke-linejoin="round"/>
<path d="M78.9708 73.0869C78.9708 75.3126 77.1666 77.1168 74.9409 77.1168C72.7152 77.1168 70.911 75.3126 70.911 73.0869C70.911 70.8612 72.7152 69.057 74.9409 69.057C77.1666 69.057 78.9708 70.8612 78.9708 73.0869Z" stroke="#603CD0" stroke-width="1.00743" stroke-miterlimit="10" stroke-linecap="round" stroke-linejoin="round"/>
<path d="M139.315 52.6079C153.84 52.6079 165.615 40.8331 165.615 26.3081C165.615 11.7831 153.84 0.00830078 139.315 0.00830078C124.79 0.00830078 113.015 11.7831 113.015 26.3081C113.015 40.8331 124.79 52.6079 139.315 52.6079Z" fill="#FAC119"/>
<path d="M139.315 52.6079C153.84 52.6079 165.615 40.8331 165.615 26.3081C165.615 11.7831 153.84 0.00830078 139.315 0.00830078C124.79 0.00830078 113.015 11.7831 113.015 26.3081C113.015 40.8331 124.79 52.6079 139.315 52.6079Z" fill="#FAC119"/>
<path d="M139.314 45.6439C149.993 45.6439 158.65 36.9868 158.65 26.3078C158.65 15.6288 149.993 6.9718 139.314 6.9718C128.635 6.9718 119.978 15.6288 119.978 26.3078C119.978 36.9868 128.635 45.6439 139.314 45.6439Z" fill="#F9A41C"/>
<path d="M139.092 34.7805C137.85 34.7805 136.651 34.6394 135.494 34.3572C134.337 34.075 133.384 33.7082 132.636 33.2566L134.245 29.6162C134.95 30.0254 135.734 30.357 136.594 30.611C137.469 30.8508 138.316 30.9708 139.134 30.9708C139.614 30.9708 139.988 30.9426 140.256 30.8861C140.538 30.8156 140.743 30.7238 140.87 30.611C140.997 30.484 141.06 30.3358 141.06 30.1665C141.06 29.8984 140.912 29.6867 140.616 29.5315C140.319 29.3763 139.924 29.2493 139.43 29.1506C138.951 29.0377 138.422 28.9248 137.843 28.8119C137.265 28.6849 136.679 28.5226 136.086 28.3251C135.508 28.1276 134.972 27.8665 134.478 27.542C133.998 27.2174 133.61 26.7941 133.314 26.2721C133.017 25.7359 132.869 25.0727 132.869 24.2825C132.869 23.3653 133.123 22.5328 133.631 21.785C134.153 21.023 134.922 20.4163 135.938 19.9648C136.968 19.5132 138.245 19.2875 139.769 19.2875C140.771 19.2875 141.759 19.3933 142.732 19.605C143.706 19.8166 144.581 20.1412 145.357 20.5786L143.854 24.1979C143.12 23.831 142.408 23.5558 141.716 23.3724C141.039 23.189 140.376 23.0973 139.727 23.0973C139.247 23.0973 138.866 23.1396 138.584 23.2242C138.302 23.3089 138.097 23.4218 137.97 23.5629C137.857 23.704 137.801 23.8592 137.801 24.0285C137.801 24.2825 137.949 24.4871 138.245 24.6423C138.541 24.7834 138.93 24.9034 139.409 25.0021C139.903 25.1009 140.439 25.2067 141.018 25.3196C141.61 25.4325 142.196 25.5877 142.775 25.7853C143.353 25.9828 143.882 26.2438 144.362 26.5684C144.856 26.8929 145.251 27.3162 145.547 27.8383C145.844 28.3604 145.992 29.0094 145.992 29.7855C145.992 30.6886 145.731 31.5211 145.209 32.283C144.701 33.0309 143.939 33.6376 142.923 34.1032C141.907 34.5548 140.63 34.7805 139.092 34.7805ZM138.076 36.9817V34.2302H141.06V36.9817H138.076ZM138.076 19.8378V17.0863H141.06V19.8378H138.076Z" fill="#E56700"/>
<path d="M117.549 10.5885L123.293 15.1237" stroke="#E88900" stroke-width="1.81373" stroke-miterlimit="10" stroke-linecap="round" stroke-linejoin="round"/>
<path d="M123.325 4.82117L127.797 10.6133" stroke="#E88900" stroke-width="1.81373" stroke-miterlimit="10" stroke-linecap="round" stroke-linejoin="round"/>
<path d="M130.985 1.36975L134.039 8.01885" stroke="#E88900" stroke-width="1.81373" stroke-miterlimit="10" stroke-linecap="round" stroke-linejoin="round"/>
<path d="M159.3 43.5157L153.557 38.9806" stroke="#E88900" stroke-width="1.81373" stroke-miterlimit="10" stroke-linecap="round" stroke-linejoin="round"/>
<path d="M151.855 48.7926L147.695 42.7728" stroke="#E88900" stroke-width="1.81373" stroke-miterlimit="10" stroke-linecap="round" stroke-linejoin="round"/>
<path d="M144.344 52.1306L141.29 45.4807" stroke="#E88900" stroke-width="1.81373" stroke-miterlimit="10" stroke-linecap="round" stroke-linejoin="round"/>
<path d="M153.257 10.288L155.588 14.5495L159.85 16.8795L155.588 19.2104L153.257 23.472L150.927 19.2104L146.666 16.8795L150.927 14.5495L153.257 10.288Z" fill="white"/>
</svg>
