<svg width="181" height="200" viewBox="0 0 181 200" fill="none" xmlns="http://www.w3.org/2000/svg">
<path d="M141.762 200H40.8748C35.0673 200 30.3594 194.378 30.3594 187.443V12.5566C30.3594 5.62183 35.0673 0 40.8748 0H141.762C147.569 0 152.277 5.62183 152.277 12.5566V187.444C152.277 194.379 147.569 200 141.762 200Z" fill="white"/>
<path d="M141.322 3.4248H129.469C126.87 3.4248 124.763 5.98015 124.763 9.13245C124.763 12.5508 122.479 15.3215 119.661 15.3215H63.6639C60.8456 15.3215 58.5612 12.5508 58.5612 9.13245C58.5612 5.98015 56.4545 3.4248 53.8555 3.4248H42.0028C37.8428 3.4248 34.4697 7.51527 34.4697 12.5617V187.439C34.4697 192.485 37.8422 196.576 42.0028 196.576H141.32C145.481 196.576 148.853 192.485 148.853 187.439V12.5617C148.855 7.51527 145.482 3.4248 141.322 3.4248Z" fill="#603CD0"/>
<path opacity="0.4" d="M50.7697 77.9321H168.027C171.734 77.9321 174.738 80.937 174.738 84.643V90L180.36 95.6214L174.738 101.243V106.6C174.738 110.307 171.733 113.312 168.027 113.312H50.7697C47.0631 113.312 44.0588 110.307 44.0588 106.6V84.643C44.0588 80.9364 47.0637 77.9321 50.7697 77.9321Z" fill="#46438F"/>
<path opacity="0.4" d="M56.115 88.4692H135.743C136.686 88.4692 137.452 87.7043 137.452 86.7602C137.452 85.8166 136.687 85.0511 135.743 85.0511H56.115C55.1714 85.0511 54.406 85.816 54.406 86.7602C54.406 87.7043 55.1709 88.4692 56.115 88.4692Z" fill="#46438F"/>
<path opacity="0.4" d="M56.115 97.3309H135.743C136.686 97.3309 137.452 96.566 137.452 95.6219C137.452 94.6783 136.687 93.9128 135.743 93.9128H56.115C55.1714 93.9128 54.406 94.6777 54.406 95.6219C54.406 96.5654 55.1709 97.3309 56.115 97.3309Z" fill="#46438F"/>
<path opacity="0.4" d="M56.115 106.193H135.743C136.686 106.193 137.452 105.428 137.452 104.484C137.452 103.54 136.687 102.775 135.743 102.775H56.115C55.1714 102.775 54.406 103.539 54.406 104.484C54.406 105.427 55.1709 106.193 56.115 106.193Z" fill="#46438F"/>
<path d="M159.358 107.725C166.047 106.605 170.561 100.275 169.442 93.5862C168.322 86.8975 161.992 82.3828 155.303 83.5025C148.615 84.6221 144.1 90.9521 145.22 97.6408C146.339 104.33 152.669 108.844 159.358 107.725Z" fill="white"/>
<mask id="mask0_1744_1235" style="mask-type:luminance" maskUnits="userSpaceOnUse" x="145" y="83" width="25" height="25">
<path d="M159.357 107.726C166.046 106.606 170.56 100.276 169.44 93.5876C168.321 86.899 161.991 82.3845 155.302 83.5041C148.614 84.6237 144.099 90.9536 145.219 97.6421C146.339 104.331 152.668 108.845 159.357 107.726Z" fill="white"/>
</mask>
<g mask="url(#mask0_1744_1235)">
<path d="M153.745 100.816C152.966 101.229 151.936 101.105 151.276 100.52C150.615 99.9353 150.37 98.927 150.687 98.1035C150.851 97.6773 151.146 97.3093 151.298 96.8781C151.567 96.1087 151.303 95.1826 150.668 94.6713C150.122 94.2317 149.33 94.062 148.984 93.4521C148.666 92.8913 148.863 92.1788 149.167 91.6101C149.471 91.0419 149.882 90.5087 149.999 89.8752C150.17 88.9519 149.701 87.9063 150.189 87.1042C150.599 86.4324 151.494 86.2638 152.281 86.2565C153.067 86.2492 153.911 86.3219 154.583 85.9132C154.971 85.6771 155.271 85.2943 155.699 85.141C156.284 84.9313 156.921 85.2081 157.48 85.4792C158.4 85.9251 159.319 86.3704 160.239 86.8162C160.652 87.0163 161.115 86.894 161.536 87.0766C161.957 87.2592 162.338 87.5879 162.474 88.0264C162.719 88.8194 162.114 89.6677 162.28 90.4811C162.504 91.5757 164.003 92.1191 164.069 93.2351C164.129 94.2396 162.952 95.014 163.045 96.0162C163.111 96.7293 163.79 97.2146 164.096 97.8622C164.514 98.746 164.171 99.8271 163.563 100.592C162.365 102.099 160.312 102.679 158.388 102.672C157.579 102.67 156.761 102.577 156.006 102.287C155.25 101.997 154.164 101.508 153.745 100.816Z" fill="#7138A6"/>
<path d="M154.209 97.9239C151.56 98.6804 149.61 100.645 148.592 102.807C147.575 104.969 147.372 107.33 147.3 109.65C147.155 114.302 147.493 118.964 148.306 123.568C153.559 124.282 159.44 124.155 164.598 123.069C163.134 116.124 166.222 110.071 164.574 102.858C163.773 99.3494 158.125 96.8051 154.209 97.9239Z" fill="#009AD7"/>
<path d="M159.127 97.9515C162.659 98.0006 165.816 100.589 167.3 103.794C168.784 106.999 168.827 110.701 168.267 114.189C167.643 118.077 166.301 121.85 164.329 125.259C163.519 124.613 162.565 123.693 162.013 122.816C164.637 117.978 164.726 111.674 162.378 106.696C161.106 104 159.209 100.93 159.127 97.9515Z" fill="#009AD7"/>
<path d="M153.364 91.2986C153.272 91.1312 153.033 91.09 152.859 91.1689C152.685 91.2478 152.566 91.4141 152.481 91.5855C152.229 92.09 152.2 92.7004 152.402 93.2268C152.604 93.7533 153.034 94.1873 153.558 94.3936C153.86 93.3576 153.886 92.2433 153.364 91.2986Z" fill="#FFA57A"/>
<path opacity="0.1" d="M153.364 91.2986C153.272 91.1312 153.033 91.09 152.859 91.1689C152.685 91.2478 152.566 91.4141 152.481 91.5855C152.229 92.09 152.2 92.7004 152.402 93.2268C152.604 93.7533 153.034 94.1873 153.558 94.3936C153.86 93.3576 153.886 92.2433 153.364 91.2986Z" fill="black"/>
<path opacity="0.1" d="M162.563 101.947C163.093 101.826 163.591 101.593 164.033 101.279C163.794 101.046 163.552 100.816 163.305 100.592C161.23 98.3617 157.215 97.067 154.214 97.9243C153.248 98.2005 152.375 98.639 151.606 99.1874C151.582 99.3272 151.562 99.4676 151.557 99.6102C151.522 100.472 151.897 101.378 152.628 101.834C153.256 102.225 154.047 102.245 154.778 102.131C155.508 102.018 156.218 101.785 156.954 101.71C158.824 101.519 160.729 102.362 162.563 101.947Z" fill="black"/>
<path d="M154.843 94.5643C154.817 96.0614 154.791 97.559 154.766 99.0567C156.116 99.8982 157.976 99.8294 159.258 98.8864C159.205 97.3612 158.914 95.9002 158.637 94.3992C157.449 94.0542 156.021 94.1895 154.843 94.5643Z" fill="#FFA57A"/>
<path opacity="0.1" d="M159.135 97.3757C159.013 96.3809 158.824 95.3984 158.639 94.399C157.62 94.1031 156.425 94.1618 155.361 94.4216C155.181 94.5383 155.006 94.6662 154.841 94.8049C154.822 95.8854 154.804 96.9654 154.785 98.0459C155.057 98.2212 155.347 98.3616 155.662 98.4444C156.712 98.7223 157.849 98.3475 158.726 97.7072C158.869 97.6029 159.003 97.4913 159.135 97.3757Z" fill="black"/>
<path d="M152.686 90.667C152.549 91.6731 152.665 92.7125 153.02 93.6634C153.241 92.8201 153.564 91.9583 153.785 91.1151C153.84 90.9026 153.888 90.6506 153.745 90.4838C153.632 90.3519 153.432 90.3248 153.266 90.3722C153.099 90.4195 152.824 90.5616 152.686 90.667Z" fill="#7138A6"/>
<path d="M153.104 94.3745C153.434 95.712 154.402 96.9859 155.753 97.2542C156.601 97.4227 157.5 97.1725 158.21 96.6804C158.92 96.1883 159.454 95.4719 159.834 94.6958C160.552 93.2302 160.738 91.457 160.096 89.9565C159.454 88.4561 157.906 87.3192 156.276 87.3885C152.951 87.5294 152.492 91.8854 153.104 94.3745Z" fill="#FFA57A"/>
<path d="M154.589 93.977C154.53 94.0807 154.455 94.1765 154.411 94.2876C154.367 94.3986 154.359 94.5333 154.428 94.6309C154.523 94.7656 154.733 94.7723 154.874 94.6861C155.014 94.5998 155.1 94.4465 155.166 94.2955C155.261 94.079 155.333 93.8383 155.281 93.6078C155.25 93.4714 155.012 93.1005 154.813 93.2003C154.719 93.2476 154.672 93.8344 154.589 93.977Z" fill="url(#paint0_linear_1744_1235)"/>
<path d="M156.806 93.0556C156.806 93.218 156.674 93.3493 156.512 93.3493C156.35 93.3493 156.218 93.218 156.218 93.0556C156.218 92.8933 156.35 92.762 156.512 92.762C156.674 92.762 156.806 92.8939 156.806 93.0556Z" fill="#3B3B3B"/>
<path d="M153.917 93.3493C154.079 93.3493 154.211 93.2178 154.211 93.0556C154.211 92.8935 154.079 92.762 153.917 92.762C153.755 92.762 153.623 92.8935 153.623 93.0556C153.623 93.2178 153.755 93.3493 153.917 93.3493Z" fill="#3B3B3B"/>
<path d="M158.144 92.3C158.111 92.3 158.079 92.2898 158.051 92.2684C157.74 92.0311 157.354 91.8986 156.964 91.8958C156.587 91.8862 156.185 92.0193 155.871 92.252C155.804 92.3028 155.707 92.2887 155.657 92.2205C155.606 92.1523 155.62 92.0565 155.688 92.0057C156.055 91.7335 156.524 91.5903 156.966 91.5886C157.422 91.592 157.874 91.747 158.237 92.0249C158.305 92.0762 158.317 92.1726 158.266 92.2396C158.236 92.2791 158.19 92.3 158.144 92.3Z" fill="#3B3B3B"/>
<path d="M153.164 92.4478C153.121 92.4478 153.08 92.4309 153.05 92.397C152.993 92.3339 152.998 92.237 153.061 92.1806C153.289 91.9749 153.597 91.852 153.904 91.8424C154.211 91.8351 154.526 91.9382 154.766 92.1299C154.832 92.1828 154.843 92.2792 154.79 92.3457C154.738 92.4117 154.641 92.423 154.575 92.37C154.391 92.2229 154.157 92.144 153.914 92.1496C153.678 92.1564 153.443 92.251 153.267 92.4089C153.238 92.4342 153.2 92.4478 153.164 92.4478Z" fill="#3B3B3B"/>
<path d="M158.47 94.5495C158.47 94.9694 157.966 95.3098 157.344 95.3098C156.722 95.3098 156.218 94.9694 156.218 94.5495C156.218 94.1295 156.722 93.7891 157.344 93.7891C157.966 93.7891 158.47 94.1295 158.47 94.5495Z" fill="url(#paint1_linear_1744_1235)"/>
<path d="M153.014 93.7891C153.004 93.7891 152.994 93.7908 152.983 93.7913C153.016 93.9942 153.055 94.1898 153.101 94.3747C153.175 94.6763 153.283 94.9739 153.419 95.258C153.84 95.1481 154.14 94.8735 154.14 94.55C154.139 94.1295 153.636 93.7891 153.014 93.7891Z" fill="url(#paint2_linear_1744_1235)"/>
<path d="M151.475 93.8826C152.074 93.7045 152.521 93.2028 152.847 92.6702C153.173 92.1375 153.412 91.5519 153.778 91.0463C153.966 90.787 154.272 90.5277 154.572 90.6405C154.621 91.0192 155.131 91.2548 155.509 91.3028C155.888 91.3507 156.268 91.2537 156.648 91.2216C157.029 91.1895 157.451 91.2407 157.714 91.5181C158.334 92.173 157.565 93.4091 158.141 94.1024C158.348 94.3516 158.691 94.4666 158.873 94.7343C159.183 95.1909 158.883 95.7923 158.681 96.3063C158.413 96.9918 158.337 97.7673 158.561 98.4685C158.785 99.1697 159.33 99.7819 160.032 99.9994C160.735 100.217 161.577 99.9904 162.011 99.3957C162.438 98.8112 162.42 98.0193 162.313 97.3034C162.133 96.1074 161.754 94.9451 161.632 93.7423C161.538 92.8134 161.599 91.8749 161.524 90.9448C161.45 90.0142 161.221 89.0594 160.63 88.3368C160.091 87.6768 159.284 87.2658 158.446 87.1103C157.608 86.9541 156.738 87.0387 155.912 87.245C154.532 87.5894 153.207 88.3024 152.342 89.4325C151.479 90.5616 150.927 92.5704 151.475 93.8826Z" fill="#7138A6"/>
<path d="M153.632 89.8204C153.915 90.8958 154.966 91.7182 156.078 91.7346C156.575 91.7419 157.063 91.6055 157.558 91.5711C158.053 91.5367 158.6 91.6275 158.932 91.9967C158.812 90.8508 157.883 89.8046 156.782 89.4647C155.681 89.1248 154.498 89.2302 153.353 89.3548C153.498 89.5312 153.573 89.5989 153.632 89.8204Z" fill="#7138A6"/>
</g>
<path opacity="0.4" d="M131.709 24.7213H13.9706C10.2487 24.7213 7.23213 27.7385 7.23213 31.4597V36.8387L1.58716 42.4837L7.23213 48.1281V53.507C7.23213 57.2288 10.2493 60.246 13.9706 60.246H131.709C135.431 60.246 138.447 57.2288 138.447 53.507V31.4603C138.447 27.7385 135.43 24.7213 131.709 24.7213Z" fill="white"/>
<path opacity="0.4" d="M126.341 35.3017H46.3867C45.4392 35.3017 44.6707 34.5336 44.6707 33.5856C44.6707 32.6382 45.4387 31.8696 46.3867 31.8696H126.341C127.289 31.8696 128.057 32.6376 128.057 33.5856C128.057 34.5336 127.289 35.3017 126.341 35.3017Z" fill="#603CD0"/>
<path opacity="0.4" d="M126.341 44.1991H46.3867C45.4392 44.1991 44.6707 43.4311 44.6707 42.4831C44.6707 41.5357 45.4387 40.7671 46.3867 40.7671H126.341C127.289 40.7671 128.057 41.5351 128.057 42.4831C128.057 43.4311 127.289 44.1991 126.341 44.1991Z" fill="#603CD0"/>
<path opacity="0.4" d="M126.341 53.0977H46.3867C45.4392 53.0977 44.6707 52.3297 44.6707 51.3817C44.6707 50.4342 45.4387 49.6656 46.3867 49.6656H126.341C127.289 49.6656 128.057 50.4337 128.057 51.3817C128.057 52.3291 127.289 53.0977 126.341 53.0977Z" fill="#603CD0"/>
<path d="M37.0475 42.5585C37.0897 35.749 31.6037 30.1946 24.7943 30.1524C17.9848 30.1102 12.4304 35.5961 12.3882 42.4056C12.346 49.2151 17.8319 54.7695 24.6414 54.8117C31.4509 54.8539 37.0052 49.368 37.0475 42.5585Z" fill="white"/>
<mask id="mask1_1744_1235" style="mask-type:luminance" maskUnits="userSpaceOnUse" x="12" y="30" width="26" height="25">
<path d="M37.0401 42.5582C37.0824 35.7489 31.5965 30.1946 24.7872 30.1524C17.9779 30.1102 12.4236 35.596 12.3814 42.4053C12.3392 49.2147 17.825 54.769 24.6343 54.8112C31.4437 54.8534 36.9979 49.3676 37.0401 42.5582Z" fill="white"/>
</mask>
<g mask="url(#mask1_1744_1235)">
<path d="M23.635 42.8158C22.5115 42.7235 21.4883 42.0421 20.817 41.136C20.1458 40.2299 19.7977 39.1189 19.6398 38.0028C19.5577 37.4199 19.5272 36.8097 19.7332 36.2585C19.9398 35.7072 20.4327 35.229 21.0208 35.1984C21.2437 34.2821 22.2155 33.2713 23.0633 32.8581C23.9112 32.4456 24.918 32.3963 25.8196 32.6719C26.539 32.8921 27.1819 33.3024 27.8446 33.6584C28.5074 34.0144 29.2256 34.3251 29.9784 34.3155C30.7311 34.3059 31.5217 33.9018 31.7804 33.1949C32.566 34.521 32.4748 36.2568 31.6938 37.5857C30.9128 38.914 29.6365 39.8807 28.2974 40.6436C27.9352 40.1682 27.1842 39.7913 26.5922 39.8699C25.9996 39.9486 25.4619 40.2621 24.9973 40.6385C24.326 41.183 24.0176 42.0416 23.635 42.8158Z" fill="#7138A6"/>
<path d="M27.8326 44.7936C30.492 45.5531 32.4503 47.5255 33.4719 49.6966C34.4934 51.8676 34.6972 54.2385 34.7696 56.568C34.9145 61.2389 34.5761 65.92 33.7588 70.5429C28.4857 71.2605 22.5798 71.1332 17.4006 70.042C18.8704 63.0693 15.7695 56.9913 17.4244 49.7481C18.2292 46.2255 23.8996 43.6707 27.8326 44.7936Z" fill="#FF8058"/>
<path d="M22.892 44.8213C19.3456 44.8705 16.1762 47.4695 14.686 50.6875C13.1958 53.9056 13.1528 57.6235 13.7148 61.1251C14.3413 65.0298 15.6889 68.8178 17.6692 72.2408C18.4819 71.5916 19.4407 70.6685 19.9942 69.7879C17.3596 64.9301 17.2708 58.5992 19.628 53.6017C20.9048 50.8947 22.8099 47.8124 22.892 44.8213Z" fill="#FF8058"/>
<path d="M28.6834 38.1411C28.7762 37.973 29.0162 37.9317 29.1911 38.0109C29.366 38.0901 29.4848 38.2571 29.5709 38.4291C29.8233 38.9357 29.8527 39.5486 29.6501 40.0772C29.4475 40.6059 29.0151 41.0416 28.4887 41.2488C28.1859 40.2085 28.1599 39.0891 28.6834 38.1411Z" fill="#FFA57A"/>
<path opacity="0.1" d="M28.6834 38.1411C28.7762 37.973 29.0162 37.9317 29.1911 38.0109C29.366 38.0901 29.4848 38.2571 29.5709 38.4291C29.8233 38.9357 29.8527 39.5486 29.6501 40.0772C29.4475 40.6059 29.0151 41.0416 28.4887 41.2488C28.1859 40.2085 28.1599 39.0891 28.6834 38.1411Z" fill="black"/>
<path opacity="0.1" d="M19.4514 48.8324C18.9194 48.7119 18.4191 48.4775 17.9753 48.1617C18.2153 47.928 18.4581 47.6976 18.7066 47.4718C20.7899 45.2328 24.8213 43.9328 27.8345 44.7937C28.8052 45.071 29.6813 45.5113 30.4538 46.062C30.4782 46.2024 30.4974 46.3433 30.5031 46.487C30.5382 47.3524 30.1618 48.2625 29.4272 48.7203C28.7972 49.1126 28.002 49.1329 27.2686 49.0186C26.5351 48.9049 25.8219 48.6705 25.0839 48.5953C23.206 48.4028 21.2931 49.249 19.4514 48.8324Z" fill="black"/>
<path d="M27.1981 41.4208C27.2236 42.9246 27.2496 44.4278 27.2751 45.931C25.9196 46.776 24.0513 46.7069 22.7649 45.7601C22.8181 44.2286 23.1101 42.7616 23.388 41.255C24.5805 40.9086 26.0147 41.0444 27.1981 41.4208Z" fill="#FFA57A"/>
<path opacity="0.1" d="M22.8867 44.2435C23.0095 43.2446 23.1997 42.2581 23.3848 41.2546C24.408 40.9569 25.6085 41.0164 26.6764 41.2767C26.8575 41.3939 27.033 41.5223 27.1988 41.6616C27.2175 42.7465 27.2356 43.8309 27.2543 44.9153C26.9821 45.0919 26.69 45.2323 26.3742 45.3155C25.3198 45.5945 24.1783 45.2187 23.297 44.5752C23.1544 44.4716 23.0192 44.3595 22.8867 44.2435Z" fill="black"/>
<path d="M29.361 37.5071C29.4985 38.5174 29.3825 39.561 29.0253 40.5158C28.8035 39.6691 28.4792 38.8043 28.2573 37.9571C28.2013 37.7437 28.1537 37.4907 28.2969 37.3232C28.4101 37.1907 28.6111 37.1636 28.7786 37.2111C28.9467 37.2587 29.2234 37.4007 29.361 37.5071Z" fill="#7138A6"/>
<path d="M28.9425 41.2287C28.612 42.5718 27.6397 43.8509 26.283 44.1203C25.4318 44.2895 24.5291 44.0382 23.816 43.5441C23.1029 43.05 22.5669 42.3307 22.1854 41.5513C21.4644 40.0798 21.2782 38.2993 21.9228 36.7927C22.5674 35.2861 24.1216 34.1445 25.7584 34.2135C29.0976 34.3556 29.5572 38.7288 28.9425 41.2287Z" fill="#FFA57A"/>
<path d="M29.4011 37.7551C27.7179 38.0947 25.9526 38.0177 24.3056 37.5344C24.0764 38.0528 23.588 38.5107 23.0662 38.7308C23.103 39.2085 23.0277 40.212 22.9145 40.199C22.8228 39.9845 22.803 39.7405 22.7589 39.5113C22.7141 39.2821 22.5692 39.037 22.3372 39.0133C22.0916 38.9878 21.8878 39.2408 21.8737 39.4875C21.8595 39.7343 21.9789 39.9669 22.1001 40.1825C22.3559 40.6376 22.6332 41.0802 22.9315 41.508C22.9139 41.8363 22.8845 42.2466 22.7594 42.5506C21.1668 41.2477 20.4769 38.8978 21.2166 36.978C21.9563 35.0577 24.0046 33.726 26.0596 33.8279C27.0557 33.8771 28.0597 34.2557 28.7355 34.9887C29.4107 35.7221 29.7621 36.8258 29.4011 37.7551Z" fill="#7138A6"/>
<path d="M27.4502 40.83C27.5102 40.9341 27.5849 41.0304 27.629 41.1418C27.6732 41.2533 27.6817 41.3886 27.6121 41.4865C27.5164 41.6218 27.3053 41.6286 27.1638 41.542C27.0229 41.4548 26.938 41.3014 26.8712 41.1498C26.7756 40.9324 26.7031 40.6908 26.7557 40.4593C26.7869 40.3223 27.0263 39.9499 27.2255 40.0501C27.3206 40.0976 27.3676 40.6874 27.4502 40.83Z" fill="url(#paint3_linear_1744_1235)"/>
<path d="M25.2305 39.9055C25.2305 40.0685 25.3623 40.2003 25.5253 40.2003C25.6883 40.2003 25.8202 40.0685 25.8202 39.9055C25.8202 39.7425 25.6883 39.6106 25.5253 39.6106C25.3629 39.6106 25.2305 39.7425 25.2305 39.9055Z" fill="#3B3B3B"/>
<path d="M27.8333 39.9055C27.8333 40.0685 27.9651 40.2003 28.1281 40.2003C28.2911 40.2003 28.423 40.0685 28.423 39.9055C28.423 39.7425 28.2911 39.6106 28.1281 39.6106C27.9651 39.6106 27.8333 39.7425 27.8333 39.9055Z" fill="#3B3B3B"/>
<path d="M23.8822 39.1464C23.915 39.1464 23.9478 39.1362 23.9756 39.1147C24.2874 38.8764 24.6751 38.7434 25.0673 38.7406C25.446 38.731 25.8495 38.8645 26.1642 39.0983C26.2321 39.1492 26.3289 39.1351 26.3798 39.0666C26.4308 38.9981 26.416 38.9019 26.3481 38.8509C25.9797 38.5776 25.5088 38.4338 25.0651 38.4321C24.6066 38.4355 24.1533 38.5912 23.7888 38.8696C23.7209 38.9211 23.7085 39.0179 23.76 39.0858C23.7905 39.126 23.8358 39.1464 23.8822 39.1464Z" fill="#3B3B3B"/>
<path d="M28.8749 39.2949C28.9167 39.2949 28.9586 39.2779 28.9892 39.2439C29.0463 39.1805 29.0412 39.0832 28.9779 39.0266C28.7486 38.82 28.4402 38.6966 28.1312 38.687C27.8233 38.6797 27.5069 38.7832 27.2664 38.9757C27.1996 39.0289 27.1888 39.1256 27.242 39.1919C27.2947 39.2586 27.392 39.2694 27.4582 39.2162C27.6433 39.069 27.8776 38.9892 28.1221 38.9949C28.3587 39.0017 28.5953 39.0968 28.7713 39.2552C28.8007 39.2818 28.8381 39.2949 28.8749 39.2949Z" fill="#3B3B3B"/>
<path d="M23.5618 41.4051C23.5618 41.8267 24.0677 42.1686 24.692 42.1686C25.3163 42.1686 25.8223 41.8267 25.8223 41.4051C25.8223 40.9835 25.3163 40.6416 24.692 40.6416C24.0677 40.6416 23.5618 40.9835 23.5618 41.4051Z" fill="url(#paint4_linear_1744_1235)"/>
<path d="M29.0262 40.6416C29.037 40.6416 29.0466 40.6433 29.0574 40.6439C29.0245 40.8471 28.9855 41.044 28.9396 41.2296C28.8649 41.5324 28.7563 41.8313 28.6199 42.1165C28.1971 42.0062 27.896 41.7305 27.896 41.4057C27.8966 40.9835 28.4025 40.6416 29.0262 40.6416Z" fill="url(#paint5_linear_1744_1235)"/>
</g>
<path opacity="0.4" d="M132.976 134.835H13.47C9.69226 134.835 6.63036 137.898 6.63036 141.675V147.135L0.900635 152.864L6.63036 158.594V164.054C6.63036 167.831 9.69284 170.893 13.47 170.893H132.976C136.754 170.893 139.816 167.831 139.816 164.054V141.675C139.816 137.897 136.753 134.835 132.976 134.835Z" fill="#3B3B3B"/>
<path opacity="0.4" d="M127.528 145.574H46.3731C45.4115 145.574 44.6313 144.795 44.6313 143.833C44.6313 142.871 45.4109 142.091 46.3731 142.091H127.528C128.49 142.091 129.27 142.87 129.27 143.833C129.27 144.795 128.49 145.574 127.528 145.574Z" fill="#9C66FF"/>
<path opacity="0.4" d="M127.528 154.606H46.3731C45.4115 154.606 44.6313 153.827 44.6313 152.865C44.6313 151.903 45.4109 151.123 46.3731 151.123H127.528C128.49 151.123 129.27 151.902 129.27 152.865C129.27 153.826 128.49 154.606 127.528 154.606Z" fill="#9C66FF"/>
<path opacity="0.4" d="M127.528 163.637H46.3731C45.4115 163.637 44.6313 162.857 44.6313 161.895C44.6313 160.933 45.4109 160.153 46.3731 160.153H127.528C128.49 160.153 129.27 160.933 129.27 161.895C129.27 162.857 128.49 163.637 127.528 163.637Z" fill="#9C66FF"/>
<path d="M36.5272 155.893C38.1936 149.185 34.1067 142.397 27.3989 140.73C20.6911 139.064 13.9025 143.151 12.2361 149.858C10.5696 156.566 14.6565 163.355 21.3643 165.021C28.0721 166.688 34.8608 162.601 36.5272 155.893Z" fill="white"/>
<mask id="mask2_1744_1235" style="mask-type:luminance" maskUnits="userSpaceOnUse" x="11" y="140" width="26" height="26">
<path d="M36.5128 155.895C38.1792 149.187 34.0923 142.398 27.3845 140.732C20.6767 139.065 13.8881 143.152 12.2217 149.86C10.5552 156.568 14.6421 163.357 21.3499 165.023C28.0577 166.689 34.8464 162.602 36.5128 155.895Z" fill="white"/>
</mask>
<g mask="url(#mask2_1744_1235)">
<path d="M23.6717 152.938C22.841 153.377 21.7725 153.194 21.0142 152.638C20.2565 152.083 19.7791 151.211 19.5194 150.308C19.2753 149.458 19.2063 148.542 19.4419 147.689C19.678 146.836 20.241 146.056 21.0343 145.664C21.2451 145.059 21.5237 144.242 21.9006 143.724C22.2774 143.207 22.8467 142.791 23.4855 142.755C24.4679 142.699 25.2721 143.504 26.2097 143.804C27.242 144.135 28.3541 143.832 29.4341 143.735C30.5136 143.638 31.7906 143.863 32.299 144.821C32.7339 145.64 32.4145 146.663 31.9216 147.449C30.9277 149.032 29.2331 150.157 27.3885 150.458C26.733 150.337 26.4021 150.751 25.9517 151.242C25.5013 151.733 25.1601 152.325 24.6557 152.761C24.4799 152.913 24.2743 153.048 24.0428 153.062C23.8107 153.076 23.7073 153.167 23.6717 152.938Z" fill="#7138A6"/>
<path d="M27.5313 155.211C30.2307 155.982 32.2183 157.984 33.2552 160.188C34.2921 162.392 34.4989 164.798 34.5725 167.162C34.7195 171.904 34.376 176.655 33.5465 181.347C28.1942 182.076 22.1996 181.946 16.9427 180.839C18.4346 173.761 15.2871 167.592 16.9668 160.24C17.7837 156.664 23.5393 154.071 27.5313 155.211Z" fill="#FF830E"/>
<path d="M22.5186 155.24C18.919 155.29 15.702 157.928 14.1894 161.194C12.6769 164.46 12.6332 168.234 13.2037 171.788C13.8396 175.752 15.2074 179.596 17.2174 183.071C18.0424 182.412 19.0155 181.475 19.5773 180.581C16.9032 175.65 16.813 169.224 19.2057 164.152C20.5017 161.404 22.4353 158.276 22.5186 155.24Z" fill="#FF830E"/>
<path d="M28.3974 148.459C28.4916 148.288 28.7351 148.246 28.9127 148.327C29.0902 148.407 29.2108 148.577 29.2981 148.751C29.5543 149.266 29.5842 149.888 29.3785 150.424C29.1729 150.961 28.734 151.403 28.1997 151.613C27.8924 150.558 27.866 149.422 28.3974 148.459Z" fill="#FFA57A"/>
<path opacity="0.1" d="M28.3974 148.459C28.4916 148.288 28.7351 148.246 28.9127 148.327C29.0902 148.407 29.2108 148.577 29.2981 148.751C29.5543 149.266 29.5842 149.888 29.3785 150.424C29.1729 150.961 28.734 151.403 28.1997 151.613C27.8924 150.558 27.866 149.422 28.3974 148.459Z" fill="black"/>
<path opacity="0.1" d="M19.0241 159.311C18.4841 159.189 17.9763 158.951 17.5259 158.63C17.7695 158.393 18.0159 158.159 18.2681 157.93C20.3827 155.657 24.4746 154.338 27.5331 155.212C28.5183 155.493 29.4076 155.939 30.1917 156.499C30.2164 156.641 30.2359 156.785 30.2417 156.93C30.2773 157.808 29.8953 158.732 29.1496 159.197C28.5102 159.595 27.7031 159.615 26.9586 159.499C26.2141 159.384 25.4903 159.146 24.7412 159.07C22.8351 158.876 20.8934 159.734 19.0241 159.311Z" fill="black"/>
<path d="M26.886 151.788C26.9119 153.314 26.9383 154.84 26.9641 156.366C25.5883 157.224 23.692 157.154 22.3862 156.193C22.4402 154.638 22.7367 153.15 23.0187 151.62C24.2291 151.268 25.6848 151.406 26.886 151.788Z" fill="#FFA57A"/>
<path opacity="0.1" d="M22.5159 154.653C22.6405 153.639 22.8336 152.638 23.0214 151.619C24.06 151.318 25.2785 151.378 26.3625 151.642C26.5463 151.761 26.7244 151.891 26.8927 152.033C26.9117 153.134 26.9301 154.234 26.949 155.336C26.6727 155.515 26.3763 155.657 26.0557 155.742C24.9855 156.025 23.8268 155.643 22.9324 154.99C22.7876 154.885 22.6503 154.771 22.5159 154.653Z" fill="black"/>
<path d="M29.0859 147.815C29.2255 148.841 29.1077 149.9 28.7452 150.869C28.52 150.01 28.1909 149.132 27.9657 148.272C27.9088 148.056 27.8605 147.799 28.0059 147.629C28.1208 147.494 28.3247 147.467 28.4947 147.515C28.6654 147.563 28.9463 147.707 29.0859 147.815Z" fill="#7138A6"/>
<path d="M28.6554 151.593C28.3199 152.957 27.333 154.255 25.956 154.528C25.092 154.7 24.1757 154.445 23.4519 153.944C22.7281 153.442 22.184 152.712 21.7969 151.921C21.065 150.427 20.876 148.62 21.5303 147.091C22.1846 145.562 23.7621 144.403 25.4235 144.474C28.8128 144.617 29.2793 149.057 28.6554 151.593Z" fill="#FFA57A"/>
<path d="M29.1263 148.067C27.4178 148.411 25.6261 148.334 23.9544 147.843C23.7217 148.369 23.226 148.834 22.6963 149.057C22.7336 149.542 22.6572 150.561 22.5423 150.548C22.4493 150.331 22.4292 150.083 22.3844 149.85C22.339 149.618 22.1919 149.369 21.9564 149.345C21.7071 149.319 21.5002 149.576 21.4859 149.826C21.4715 150.077 21.5928 150.313 21.7157 150.532C21.9753 150.993 22.2568 151.443 22.5596 151.877C22.5418 152.21 22.5119 152.627 22.3849 152.935C20.7684 151.613 20.0681 149.228 20.8189 147.279C21.5698 145.33 23.6488 143.978 25.7347 144.081C26.7457 144.131 27.7648 144.516 28.4507 145.26C29.1361 146.004 29.4928 147.124 29.1263 148.067Z" fill="#7138A6"/>
<path d="M27.1411 151.188C27.202 151.293 27.2778 151.392 27.3226 151.505C27.3674 151.618 27.376 151.755 27.3054 151.855C27.2083 151.992 26.994 151.999 26.8504 151.911C26.7073 151.822 26.6212 151.667 26.5534 151.513C26.4563 151.292 26.3828 151.047 26.4362 150.812C26.4678 150.673 26.7108 150.295 26.913 150.397C27.0095 150.445 27.0572 151.043 27.1411 151.188Z" fill="url(#paint6_linear_1744_1235)"/>
<path d="M24.8948 150.249C24.8948 150.415 25.0286 150.549 25.1941 150.549C25.3595 150.549 25.4934 150.415 25.4934 150.249C25.4934 150.084 25.3595 149.95 25.1941 149.95C25.0292 149.95 24.8948 150.084 24.8948 150.249Z" fill="#3B3B3B"/>
<path d="M27.5291 150.249C27.5291 150.415 27.6629 150.549 27.8284 150.549C27.9938 150.549 28.1277 150.415 28.1277 150.249C28.1277 150.084 27.9938 149.95 27.8284 149.95C27.6629 149.95 27.5291 150.084 27.5291 150.249Z" fill="#3B3B3B"/>
<path d="M23.5276 149.48C23.5609 149.48 23.5942 149.469 23.6224 149.448C23.9389 149.206 24.3324 149.071 24.7305 149.068C25.1148 149.058 25.5244 149.194 25.8438 149.431C25.9128 149.483 26.011 149.468 26.0627 149.399C26.1144 149.329 26.0995 149.232 26.0305 149.18C25.6566 148.902 25.1786 148.756 24.7282 148.755C24.2629 148.758 23.8028 148.916 23.4328 149.199C23.3639 149.252 23.3512 149.35 23.4035 149.418C23.4345 149.458 23.4805 149.48 23.5276 149.48Z" fill="#3B3B3B"/>
<path d="M28.602 149.631C28.6445 149.631 28.6871 149.613 28.7181 149.579C28.7761 149.515 28.7709 149.416 28.7066 149.358C28.4739 149.149 28.1608 149.023 27.8472 149.014C27.5347 149.006 27.2135 149.111 26.9694 149.307C26.9016 149.361 26.8907 149.459 26.9447 149.526C26.9981 149.594 27.0969 149.605 27.1641 149.551C27.352 149.401 27.5898 149.32 27.838 149.326C28.0781 149.334 28.3182 149.43 28.4969 149.59C28.5268 149.617 28.5647 149.631 28.602 149.631Z" fill="#3B3B3B"/>
<path d="M23.199 151.773C23.199 152.201 23.7126 152.548 24.3462 152.548C24.9798 152.548 25.4934 152.201 25.4934 151.773C25.4934 151.345 24.9798 150.998 24.3462 150.998C23.7126 150.998 23.199 151.345 23.199 151.773Z" fill="url(#paint7_linear_1744_1235)"/>
<path d="M28.7471 150.998C28.758 150.998 28.7677 151 28.7787 151C28.7453 151.206 28.7057 151.406 28.6592 151.594C28.5833 151.901 28.473 152.205 28.3346 152.494C27.9055 152.382 27.5999 152.103 27.5999 151.773C27.6004 151.345 28.114 150.998 28.7471 150.998Z" fill="url(#paint8_linear_1744_1235)"/>
</g>
<path d="M13.6673 16.9695L14.5604 18.6844L16.4677 19.0036L15.1122 20.3828L15.398 22.2952L13.6673 21.4327L11.9371 22.2952L12.2224 20.3828L10.8674 19.0036L12.7747 18.6844L13.6673 16.9695Z" fill="#FFDB0E"/>
<path d="M20.3726 16.9695L21.2657 18.6844L23.173 19.0036L21.8175 20.3828L22.1033 22.2952L20.3726 21.4327L18.6424 22.2952L18.9277 20.3828L17.5728 19.0036L19.4801 18.6844L20.3726 16.9695Z" fill="#FFDB0E"/>
<path d="M27.0821 16.9695L27.9752 18.6844L29.8819 19.0036L28.527 20.3828L28.8128 22.2952L27.0821 21.4327L25.3519 22.2952L25.6372 20.3828L24.2822 19.0036L26.189 18.6844L27.0821 16.9695Z" fill="#FFDB0E"/>
<path d="M33.7952 16.9695L34.6883 18.6844L36.5951 19.0036L35.2401 20.3828L35.5259 22.2952L33.7952 21.4327L32.0651 22.2952L32.3503 20.3828L30.9954 19.0036L32.9021 18.6844L33.7952 16.9695Z" fill="#FFDB0E"/>
<path d="M40.5008 16.9695L41.3939 18.6844L43.3006 19.0036L41.9457 20.3828L42.2315 22.2952L40.5008 21.4327L38.7706 22.2952L39.0559 20.3828L37.7009 19.0036L39.6077 18.6844L40.5008 16.9695Z" fill="#FFDB0E"/>
<path d="M13.1649 125.882L14.0714 127.623L16.0073 127.947L14.6315 129.347L14.9216 131.288L13.1649 130.413L11.4087 131.288L11.6983 129.347L10.323 127.947L12.2589 127.623L13.1649 125.882Z" fill="#FFDB0E"/>
<path d="M19.9722 125.882L20.8788 127.623L22.8147 127.947L21.4389 129.347L21.729 131.288L19.9722 130.413L18.2161 131.288L18.5056 129.347L17.1304 127.947L19.0663 127.623L19.9722 125.882Z" fill="#FFDB0E"/>
<path d="M26.7838 125.882L27.6903 127.623L29.6257 127.947L28.2504 129.347L28.5405 131.288L26.7838 130.413L25.0276 131.288L25.3172 129.347L23.9419 127.947L25.8773 127.623L26.7838 125.882Z" fill="#FFDB0E"/>
<path d="M33.5951 125.882L34.5016 127.623L36.4369 127.947L35.0617 129.347L35.3518 131.288L33.5951 130.413L31.8389 131.288L32.1285 129.347L30.7532 127.947L32.6886 127.623L33.5951 125.882Z" fill="#FFDB0E"/>
<path d="M40.4027 125.882L41.3092 127.623L43.2446 127.947L41.8693 129.347L42.1594 131.288L40.4027 130.413L38.6465 131.288L38.9361 129.347L37.5608 127.947L39.4962 127.623L40.4027 125.882Z" fill="#FFDB0E"/>
<path d="M139.605 65.9973L140.548 67.808L142.561 68.145L141.13 69.6013L141.432 71.6205L139.605 70.7098L137.778 71.6205L138.079 69.6013L136.649 68.145L138.662 67.808L139.605 65.9973Z" fill="#FFDB0E"/>
<path d="M146.691 65.9973L147.634 67.808L149.647 68.145L148.217 69.6013L148.518 71.6205L146.691 70.7098L144.864 71.6205L145.165 69.6013L143.735 68.145L145.748 67.808L146.691 65.9973Z" fill="#FFDB0E"/>
<path d="M153.769 65.9973L154.712 67.808L156.726 68.145L155.295 69.6013L155.596 71.6205L153.769 70.7098L151.942 71.6205L152.244 69.6013L150.813 68.145L152.826 67.808L153.769 65.9973Z" fill="#FFDB0E"/>
<path d="M160.852 65.9973L161.795 67.808L163.808 68.145L162.377 69.6013L162.679 71.6205L160.852 70.7098L159.024 71.6205L159.326 69.6013L157.896 68.145L159.909 67.808L160.852 65.9973Z" fill="#FFDB0E"/>
<path d="M167.938 65.9973L168.881 67.808L170.895 68.145L169.464 69.6013L169.765 71.6205L167.938 70.7098L166.111 71.6205L166.413 69.6013L164.982 68.145L166.996 67.808L167.938 65.9973Z" fill="#FFDB0E"/>
<defs>
<linearGradient id="paint0_linear_1744_1235" x1="154.838" y1="94.7429" x2="154.838" y2="93.1835" gradientUnits="userSpaceOnUse">
<stop stop-color="#FF857A"/>
<stop offset="1" stop-color="#FFA57A"/>
</linearGradient>
<linearGradient id="paint1_linear_1744_1235" x1="156.219" y1="94.5494" x2="158.469" y2="94.5494" gradientUnits="userSpaceOnUse">
<stop stop-color="#FF857A"/>
<stop offset="1" stop-color="#FFA57A"/>
</linearGradient>
<linearGradient id="paint2_linear_1744_1235" x1="152.983" y1="94.5231" x2="154.14" y2="94.5231" gradientUnits="userSpaceOnUse">
<stop stop-color="#FF857A"/>
<stop offset="1" stop-color="#FFA57A"/>
</linearGradient>
<linearGradient id="paint3_linear_1744_1235" x1="27.2011" y1="41.5995" x2="27.2011" y2="40.0337" gradientUnits="userSpaceOnUse">
<stop stop-color="#FF857A"/>
<stop offset="1" stop-color="#FFA57A"/>
</linearGradient>
<linearGradient id="paint4_linear_1744_1235" x1="25.822" y1="41.405" x2="23.5619" y2="41.405" gradientUnits="userSpaceOnUse">
<stop stop-color="#FF857A"/>
<stop offset="1" stop-color="#FFA57A"/>
</linearGradient>
<linearGradient id="paint5_linear_1744_1235" x1="29.0576" y1="41.3786" x2="27.8963" y2="41.3786" gradientUnits="userSpaceOnUse">
<stop stop-color="#FF857A"/>
<stop offset="1" stop-color="#FFA57A"/>
</linearGradient>
<linearGradient id="paint6_linear_1744_1235" x1="26.8882" y1="151.969" x2="26.8882" y2="150.379" gradientUnits="userSpaceOnUse">
<stop stop-color="#FF857A"/>
<stop offset="1" stop-color="#FFA57A"/>
</linearGradient>
<linearGradient id="paint7_linear_1744_1235" x1="25.4932" y1="151.773" x2="23.1991" y2="151.773" gradientUnits="userSpaceOnUse">
<stop stop-color="#FF857A"/>
<stop offset="1" stop-color="#FFA57A"/>
</linearGradient>
<linearGradient id="paint8_linear_1744_1235" x1="28.7789" y1="151.746" x2="27.6002" y2="151.746" gradientUnits="userSpaceOnUse">
<stop stop-color="#FF857A"/>
<stop offset="1" stop-color="#FFA57A"/>
</linearGradient>
</defs>
</svg>
