<svg width="25" height="24" viewBox="0 0 25 24" fill="none" xmlns="http://www.w3.org/2000/svg">
<g opacity="0.5">
<path d="M22.2082 9.29019L18.2082 5.29019C18.1149 5.19695 18.0043 5.12299 17.8824 5.07253C17.7606 5.02207 17.63 4.99609 17.4982 4.99609C17.2319 4.99609 16.9765 5.10188 16.7882 5.29019C16.5999 5.47849 16.4941 5.73388 16.4941 6.00019C16.4941 6.26649 16.5999 6.52188 16.7882 6.71019L19.0882 9.00019H7.49819C7.23297 9.00019 6.97862 9.10554 6.79108 9.29308C6.60354 9.48062 6.49819 9.73497 6.49819 10.0002C6.49819 10.2654 6.60354 10.5198 6.79108 10.7073C6.97862 10.8948 7.23297 11.0002 7.49819 11.0002H21.4982C21.6956 10.9992 21.8883 10.9398 22.052 10.8295C22.2158 10.7191 22.3432 10.5628 22.4182 10.3802C22.4948 10.1981 22.5157 9.99736 22.4783 9.80337C22.4409 9.60938 22.3469 9.43081 22.2082 9.29019ZM17.4982 13.0002H3.49819C3.30076 13.0012 3.10804 13.0606 2.94432 13.1709C2.7806 13.2812 2.65321 13.4376 2.57819 13.6202C2.50161 13.8023 2.48068 14.003 2.51806 14.197C2.55543 14.391 2.64943 14.5696 2.78819 14.7102L6.78819 18.7102C6.88115 18.8039 6.99175 18.8783 7.11361 18.9291C7.23547 18.9798 7.36617 19.006 7.49819 19.006C7.6302 19.006 7.7609 18.9798 7.88276 18.9291C8.00462 18.8783 8.11522 18.8039 8.20819 18.7102C8.30192 18.6172 8.37631 18.5066 8.42708 18.3848C8.47785 18.2629 8.50398 18.1322 8.50398 18.0002C8.50398 17.8682 8.47785 17.7375 8.42708 17.6156C8.37631 17.4937 8.30192 17.3831 8.20819 17.2902L5.90819 15.0002H17.4982C17.7634 15.0002 18.0178 14.8948 18.2053 14.7073C18.3928 14.5198 18.4982 14.2654 18.4982 14.0002C18.4982 13.735 18.3928 13.4806 18.2053 13.2931C18.0178 13.1055 17.7634 13.0002 17.4982 13.0002Z" fill="white"/>
</g>
</svg>
