<svg width="9" height="20" viewBox="0 0 9 20" fill="none" xmlns="http://www.w3.org/2000/svg">
<g clip-path="url(#clip0_2151_3818)">
<path d="M1.39426 9.99993C1.39335 9.92499 1.40813 9.85068 1.43765 9.78179C1.46718 9.7129 1.51079 9.65095 1.56569 9.59993L6.70855 4.45707C6.93712 4.2285 7.29141 4.2285 7.51998 4.45707C7.74855 4.68564 7.74855 5.03993 7.51998 5.2685L2.77712 10.0114L7.50855 14.7428C7.73712 14.9714 7.73712 15.3256 7.50855 15.5542C7.27998 15.7828 6.92569 15.7828 6.69712 15.5542L1.55426 10.4114C1.43998 10.2971 1.38283 10.1485 1.38283 10.0114L1.39426 9.99993Z" fill="white"/>
</g>
<defs>
<clipPath id="clip0_2151_3818">
<rect width="18.2857" height="8" fill="white" transform="matrix(0 1 -1 0 8.82422 0.857178)"/>
</clipPath>
</defs>
</svg>
