<svg width="32" height="32" viewBox="0 0 32 32" fill="none" xmlns="http://www.w3.org/2000/svg">
<path d="M31.5214 19.8693C29.3836 28.4453 20.6948 33.6585 12.131 31.5206C3.55474 29.3829 -1.65852 20.6944 0.479358 12.1307C2.61711 3.55474 11.2934 -1.65852 19.8696 0.479359C28.4334 2.60461 33.6593 11.2931 31.5214 19.8693Z" fill="url(#paint0_linear_2137_4950)"/>
<path d="M23.275 13.7376C23.5875 11.6126 21.975 10.4626 19.75 9.7001L20.475 6.8126L18.725 6.3751L18.025 9.1876C17.5625 9.0751 17.0875 8.9626 16.6125 8.8626L17.3125 6.0376L15.5625 5.6001L14.85 8.4751C14.4625 8.3876 14.0875 8.3001 13.725 8.2126V8.2001L11.3 7.6001L10.8375 9.4751C10.8375 9.4751 12.1375 9.7751 12.1125 9.7876C12.825 9.9626 12.95 10.4376 12.925 10.8126L12.1 14.1001C12.15 14.1126 12.2125 14.1251 12.2875 14.1626C12.225 14.1501 12.1625 14.1376 12.1 14.1126L10.95 18.7126C10.8625 18.9251 10.6375 19.2501 10.15 19.1251C10.1625 19.1501 8.875 18.8126 8.875 18.8126L8 20.8251L10.2875 21.4001C10.7125 21.5126 11.125 21.6126 11.5375 21.7251L10.8125 24.6376L12.5625 25.0751L13.2875 22.1876C13.7625 22.3126 14.2375 22.4376 14.6875 22.5501L13.975 25.4251L15.725 25.8626L16.45 22.9501C19.45 23.5126 21.7 23.2876 22.6375 20.5751C23.4 18.4001 22.6 17.1376 21.025 16.3126C22.1875 16.0501 23.05 15.2876 23.275 13.7376ZM19.2625 19.3626C18.725 21.5376 15.05 20.3626 13.8625 20.0626L14.825 16.2001C16.0125 16.5001 19.8375 17.0876 19.2625 19.3626ZM19.8125 13.7001C19.3125 15.6876 16.2625 14.6751 15.275 14.4251L16.15 10.9251C17.1375 11.1751 20.325 11.6376 19.8125 13.7001Z" fill="white"/>
<defs>
<linearGradient id="paint0_linear_2137_4950" x1="1599.14" y1="-0.768" x2="1599.14" y2="3199.68" gradientUnits="userSpaceOnUse">
<stop stop-color="#F9AA4B"/>
<stop offset="1" stop-color="#F7931A"/>
</linearGradient>
</defs>
</svg>
