<svg width="166" height="165" viewBox="0 0 166 165" fill="none" xmlns="http://www.w3.org/2000/svg">
<path d="M150.433 144.495H145.039V149.885H150.433V144.495Z" fill="white"/>
<path d="M139.642 144.495H134.246V149.885H139.642V144.495Z" fill="white"/>
<path d="M123.458 144.495H118.062V149.885H123.458V144.495Z" fill="white"/>
<path d="M112.671 144.495H107.277V149.885H112.671V144.495Z" fill="white"/>
<path d="M107.278 144.495H101.883V149.885H107.278V144.495Z" fill="white"/>
<path d="M101.884 144.495H96.4883V149.885H101.884V144.495Z" fill="white"/>
<path d="M80.3018 144.495H74.9062V149.885H80.3018V144.495Z" fill="white"/>
<path d="M69.5127 144.495H64.1172V149.885H69.5127V144.495Z" fill="white"/>
<path d="M53.3291 144.495H47.9336V149.885H53.3291V144.495Z" fill="white"/>
<path d="M47.9329 144.495H42.5391V149.885H47.9329V144.495Z" fill="white"/>
<path d="M42.5362 144.495H37.1406V149.885H42.5362V144.495Z" fill="white"/>
<path d="M37.1495 144.495H31.7539V149.885H37.1495V144.495Z" fill="white"/>
<path d="M31.7471 144.495H26.3516V149.885H31.7471V144.495Z" fill="white"/>
<path d="M26.3526 144.495H20.957V149.885H26.3526V144.495Z" fill="white"/>
<path d="M20.958 144.495H15.5625V149.885H20.958V144.495Z" fill="white"/>
<path d="M150.434 133.713V128.322H145.04V133.713H150.434Z" fill="white"/>
<path d="M150.434 122.93V117.54H145.04V122.93H150.434Z" fill="white"/>
<path d="M150.434 117.541V112.149H145.04V117.541H150.434Z" fill="white"/>
<path d="M150.434 106.76V101.368H145.04V106.76H150.434Z" fill="white"/>
<path d="M150.434 85.1959V79.8042H145.04V85.1959H150.434Z" fill="white"/>
<path d="M150.434 69.024V63.6323H145.04V69.024H150.434Z" fill="white"/>
<path d="M150.434 63.6311V58.2412H145.04V63.6311H150.434Z" fill="white"/>
<path d="M150.434 52.8511V47.4595H145.04V52.8511H150.434Z" fill="white"/>
<path d="M150.434 47.46V42.0684H145.04V47.46H150.434Z" fill="white"/>
<path d="M150.434 42.0704V36.6787H145.04V42.0704H150.434Z" fill="white"/>
<path d="M150.434 36.6793V31.2876H145.04V36.6793H150.434Z" fill="white"/>
<path d="M150.434 31.2882V25.8965H145.04V31.2882H150.434Z" fill="white"/>
<path d="M150.434 25.8975V20.5059H145.04V25.8975H150.434Z" fill="white"/>
<path d="M150.434 20.5064V15.1147L145.04 15.1147V20.5064H150.434Z" fill="white"/>
<path d="M145.039 128.323V122.932H139.644V128.323H145.039Z" fill="white"/>
<path d="M145.039 122.931V117.541H139.644V122.931H145.039Z" fill="white"/>
<path d="M145.039 106.76V101.369H139.644V106.76H145.039Z" fill="white"/>
<path d="M145.039 101.37V95.978H139.644V101.37H145.039Z" fill="white"/>
<path d="M145.039 90.588V85.1963H139.644V90.588H145.039Z" fill="white"/>
<path d="M145.039 85.1968V79.8052H139.644V85.1968H145.039Z" fill="white"/>
<path d="M145.039 79.8057V74.4141H139.644V79.8057H145.039Z" fill="white"/>
<path d="M145.039 69.025V63.6333H139.644V69.025H145.039Z" fill="white"/>
<path d="M145.039 52.8521V47.4604H139.644V52.8521H145.039Z" fill="white"/>
<path d="M145.039 20.5074V15.1157L139.644 15.1157V20.5074H145.039Z" fill="white"/>
<path d="M139.645 139.105V133.713H134.249V139.105H139.645Z" fill="white"/>
<path d="M139.645 128.323V122.931H134.249V128.323H139.645Z" fill="white"/>
<path d="M139.645 117.541V112.149H134.249V117.541H139.645Z" fill="white"/>
<path d="M139.645 112.148V106.758H134.249V112.148H139.645Z" fill="white"/>
<path d="M139.645 101.369V95.9771H134.249V101.369H139.645Z" fill="white"/>
<path d="M139.645 90.587V85.1953H134.249V90.587H139.645Z" fill="white"/>
<path d="M139.645 79.8052V74.4136H134.249V79.8052H139.645Z" fill="white"/>
<path d="M139.645 74.4141V69.0225H134.249V74.4141H139.645Z" fill="white"/>
<path d="M139.645 69.023V63.6313H134.249V69.023H139.645Z" fill="white"/>
<path d="M139.645 63.6311V58.2412H134.249V63.6311H139.645Z" fill="white"/>
<path d="M139.645 52.8511V47.4595H134.249V52.8511H139.645Z" fill="white"/>
<path d="M139.645 42.0694V36.6777H134.249V42.0694H139.645Z" fill="white"/>
<path d="M139.645 36.6793V31.2876H134.249V36.6793H139.645Z" fill="white"/>
<path d="M139.645 31.2882V25.8965H134.249V31.2882H139.645Z" fill="white"/>
<path d="M139.645 20.5064V15.1147L134.249 15.1147V20.5064H139.645Z" fill="white"/>
<path d="M134.254 144.496V139.104H128.858V144.496H134.254Z" fill="white"/>
<path d="M134.246 139.106V133.714H128.851V139.106H134.246Z" fill="white"/>
<path d="M134.246 128.323V122.932H128.851V128.323H134.246Z" fill="white"/>
<path d="M134.254 122.931V117.541H128.858V122.931H134.254Z" fill="white"/>
<path d="M134.254 112.149V106.759H128.858V112.149H134.254Z" fill="white"/>
<path d="M134.246 106.76V101.369H128.851V106.76H134.246Z" fill="white"/>
<path d="M134.254 101.37V95.978H128.858V101.37H134.254Z" fill="white"/>
<path d="M134.246 95.9768V90.5869H128.851V95.9768H134.246Z" fill="white"/>
<path d="M134.254 90.588V85.1963H128.858V90.588H134.254Z" fill="white"/>
<path d="M134.246 85.1968V79.8052H128.851V85.1968H134.246Z" fill="white"/>
<path d="M134.254 79.8057V74.4141H128.858V79.8057H134.254Z" fill="white"/>
<path d="M134.246 52.8521V47.4604H128.851V52.8521H134.246Z" fill="white"/>
<path d="M134.246 42.0709V36.6792H128.851V42.0709H134.246Z" fill="white"/>
<path d="M134.254 36.6802V31.2886H128.858V36.6802H134.254Z" fill="white"/>
<path d="M134.246 31.2891V25.8975H128.851V31.2891H134.246Z" fill="white"/>
<path d="M134.246 20.5074V15.1157L128.851 15.1157V20.5074H134.246Z" fill="white"/>
<path d="M128.852 139.105V133.713H123.458V139.105H128.852Z" fill="white"/>
<path d="M128.852 128.323V122.931H123.458V128.323H128.852Z" fill="white"/>
<path d="M128.852 117.541V112.149H123.458V117.541H128.852Z" fill="white"/>
<path d="M128.852 106.76V101.368H123.458V106.76H128.852Z" fill="white"/>
<path d="M128.852 95.9759V90.5859H123.458V95.9759H128.852Z" fill="white"/>
<path d="M128.852 85.1958V79.8042H123.458V85.1958H128.852Z" fill="white"/>
<path d="M128.852 74.4151V69.0234H123.458V74.4151H128.852Z" fill="white"/>
<path d="M128.852 63.6311V58.2412H123.458V63.6311H128.852Z" fill="white"/>
<path d="M128.852 52.8511V47.4595H123.458V52.8511H128.852Z" fill="white"/>
<path d="M128.852 42.0703V36.6787H123.458V42.0703H128.852Z" fill="white"/>
<path d="M128.852 36.6792V31.2876H123.458V36.6792H128.852Z" fill="white"/>
<path d="M128.852 31.2881V25.8965H123.458V31.2881H128.852Z" fill="white"/>
<path d="M128.852 20.5064V15.1147L123.458 15.1147V20.5064H128.852Z" fill="white"/>
<path d="M123.457 144.495V139.104H118.061V144.495H123.457Z" fill="white"/>
<path d="M123.457 139.105V133.714H118.061V139.105H123.457Z" fill="white"/>
<path d="M123.457 128.323V122.932H118.061V128.323H123.457Z" fill="white"/>
<path d="M123.457 122.931V117.541H118.062V122.931H123.457Z" fill="white"/>
<path d="M123.457 117.542V112.15H118.062V117.542H123.457Z" fill="white"/>
<path d="M123.457 112.149V106.759H118.061V112.149H123.457Z" fill="white"/>
<path d="M123.457 101.37V95.978H118.061V101.37H123.457Z" fill="white"/>
<path d="M123.457 85.1968V79.8052H118.061V85.1968H123.457Z" fill="white"/>
<path d="M123.457 74.4151V69.0234H118.062V74.4151H123.457Z" fill="white"/>
<path d="M123.457 69.0249V63.6333H118.062V69.0249H123.457Z" fill="white"/>
<path d="M123.457 52.8521V47.4604H118.061V52.8521H123.457Z" fill="white"/>
<path d="M123.457 20.5073V15.1157L118.062 15.1157V20.5073H123.457Z" fill="white"/>
<path d="M118.062 144.495V139.104H112.667V144.495H118.062Z" fill="white"/>
<path d="M118.062 139.105V133.713H112.667V139.105H118.062Z" fill="white"/>
<path d="M118.062 122.93V117.54H112.667V122.93H118.062Z" fill="white"/>
<path d="M118.062 112.148V106.758H112.667V112.148H118.062Z" fill="white"/>
<path d="M118.062 106.76V101.368H112.667V106.76H118.062Z" fill="white"/>
<path d="M118.062 74.4151V69.0234H112.667V74.4151H118.062Z" fill="white"/>
<path d="M118.062 63.6311V58.2412H112.667V63.6311H118.062Z" fill="white"/>
<path d="M118.062 52.8511V47.4595H112.667V52.8511H118.062Z" fill="white"/>
<path d="M118.062 47.46V42.0684H112.667V47.46H118.062Z" fill="white"/>
<path d="M118.062 42.0704V36.6787H112.667V42.0704H118.062Z" fill="white"/>
<path d="M118.062 36.6793V31.2876H112.667V36.6793H118.062Z" fill="white"/>
<path d="M118.062 31.2882V25.8965H112.667V31.2882H118.062Z" fill="white"/>
<path d="M118.062 25.8975V20.5059H112.667V25.8975H118.062Z" fill="white"/>
<path d="M118.062 20.5064V15.1147L112.667 15.1147V20.5064H118.062Z" fill="white"/>
<path d="M112.668 139.106V133.714H107.274V139.106H112.668Z" fill="white"/>
<path d="M112.668 133.714V128.323H107.274V133.714H112.668Z" fill="white"/>
<path d="M112.668 128.323V122.932H107.274V128.323H112.668Z" fill="white"/>
<path d="M112.668 112.149V106.759H107.274V112.149H112.668Z" fill="white"/>
<path d="M112.668 106.76V101.369H107.274V106.76H112.668Z" fill="white"/>
<path d="M112.668 90.588V85.1963H107.274V90.588H112.668Z" fill="white"/>
<path d="M112.668 85.1968V79.8052H107.274V85.1968H112.668Z" fill="white"/>
<path d="M112.668 74.4156V69.0239H107.274V74.4156H112.668Z" fill="white"/>
<path d="M112.668 69.025V63.6333H107.274V69.025H112.668Z" fill="white"/>
<path d="M112.668 63.6321V58.2422H107.274V63.6321H112.668Z" fill="white"/>
<path d="M107.277 144.495V139.104H101.882V144.495H107.277Z" fill="white"/>
<path d="M107.277 139.105V133.713H101.882V139.105H107.277Z" fill="white"/>
<path d="M107.277 133.713V128.322H101.882V133.713H107.277Z" fill="white"/>
<path d="M107.277 128.323V122.931H101.882V128.323H107.277Z" fill="white"/>
<path d="M107.277 122.93V117.54H101.882V122.93H107.277Z" fill="white"/>
<path d="M107.277 112.148V106.758H101.882V112.148H107.277Z" fill="white"/>
<path d="M107.277 106.76V101.368H101.882V106.76H107.277Z" fill="white"/>
<path d="M107.277 95.9759V90.5859H101.882V95.9759H107.277Z" fill="white"/>
<path d="M107.277 85.1959V79.8042H101.882V85.1959H107.277Z" fill="white"/>
<path d="M107.277 74.4151V69.0234H101.882V74.4151H107.277Z" fill="white"/>
<path d="M107.277 58.2423V52.8506H101.882V58.2423H107.277Z" fill="white"/>
<path d="M107.277 52.8511V47.4595H101.882V52.8511H107.277Z" fill="white"/>
<path d="M107.277 42.0704V36.6787H101.882V42.0704H107.277Z" fill="white"/>
<path d="M107.277 36.6793V31.2876H101.882V36.6793H107.277Z" fill="white"/>
<path d="M107.277 20.5064V15.1147L101.882 15.1147V20.5064H107.277Z" fill="white"/>
<path d="M101.883 144.496V139.104H96.4873V144.496H101.883Z" fill="white"/>
<path d="M101.883 133.714V128.323H96.4873V133.714H101.883Z" fill="white"/>
<path d="M101.883 128.323V122.932H96.4873V128.323H101.883Z" fill="white"/>
<path d="M101.883 117.542V112.15H96.4873V117.542H101.883Z" fill="white"/>
<path d="M101.883 112.15V106.76H96.4873V112.15H101.883Z" fill="white"/>
<path d="M101.883 106.76V101.369H96.4873V106.76H101.883Z" fill="white"/>
<path d="M101.883 101.37V95.978H96.4873V101.37H101.883Z" fill="white"/>
<path d="M101.883 95.9768V90.5869H96.4873V95.9768H101.883Z" fill="white"/>
<path d="M101.883 90.588V85.1963H96.4873V90.588H101.883Z" fill="white"/>
<path d="M101.883 85.1968V79.8052H96.4873V85.1968H101.883Z" fill="white"/>
<path d="M101.883 79.8057V74.4141H96.4873V79.8057H101.883Z" fill="white"/>
<path d="M101.883 74.4156V69.0239H96.4873V74.4156H101.883Z" fill="white"/>
<path d="M101.883 69.025V63.6333H96.4873V69.025H101.883Z" fill="white"/>
<path d="M101.883 58.2427V52.8511H96.4873V58.2427H101.883Z" fill="white"/>
<path d="M101.883 52.8521V47.4604H96.4873V52.8521H101.883Z" fill="white"/>
<path d="M101.883 47.461V42.0693H96.4873V47.461H101.883Z" fill="white"/>
<path d="M101.883 31.2891V25.8975H96.4873V31.2891H101.883Z" fill="white"/>
<path d="M101.883 25.898V20.5063H96.4873V25.898H101.883Z" fill="white"/>
<path d="M96.4883 144.495V139.104H91.0945V144.495H96.4883Z" fill="white"/>
<path d="M96.4883 139.105V133.713H91.0945V139.105H96.4883Z" fill="white"/>
<path d="M96.4883 128.323V122.931H91.0945V128.323H96.4883Z" fill="white"/>
<path d="M96.4883 122.93V117.54H91.0945V122.93H96.4883Z" fill="white"/>
<path d="M96.4883 112.148V106.758H91.0945V112.148H96.4883Z" fill="white"/>
<path d="M96.4883 101.369V95.9771H91.0945V101.369H96.4883Z" fill="white"/>
<path d="M96.4883 79.8052V74.4136H91.0945V79.8052H96.4883Z" fill="white"/>
<path d="M96.4883 74.4151V69.0234H91.0945V74.4151H96.4883Z" fill="white"/>
<path d="M96.4883 63.6311V58.2412H91.0945V63.6311H96.4883Z" fill="white"/>
<path d="M96.4883 52.8511V47.4595H91.0945V52.8511H96.4883Z" fill="white"/>
<path d="M96.4883 36.6792V31.2876H91.0945V36.6792H96.4883Z" fill="white"/>
<path d="M96.4883 20.5064V15.1147L91.0945 15.1147V20.5064H96.4883Z" fill="white"/>
<path d="M91.0938 139.106V133.714H85.6982V139.106H91.0938Z" fill="white"/>
<path d="M91.0938 133.714V128.323H85.6982V133.714H91.0938Z" fill="white"/>
<path d="M91.0938 106.76V101.369H85.6982V106.76H91.0938Z" fill="white"/>
<path d="M91.0938 101.37V95.978H85.6982V101.37H91.0938Z" fill="white"/>
<path d="M91.0938 95.9768V90.5869H85.6982V95.9768H91.0938Z" fill="white"/>
<path d="M91.0938 90.5879V85.1963H85.6982V90.5879H91.0938Z" fill="white"/>
<path d="M91.0938 79.8057V74.4141H85.6982V79.8057H91.0938Z" fill="white"/>
<path d="M91.0938 74.4151V69.0234H85.6982V74.4151H91.0938Z" fill="white"/>
<path d="M91.0938 69.0249V63.6333H85.6982V69.0249H91.0938Z" fill="white"/>
<path d="M91.0938 63.6321V58.2422H85.6982V63.6321H91.0938Z" fill="white"/>
<path d="M91.0938 58.2427V52.8511H85.6982V58.2427H91.0938Z" fill="white"/>
<path d="M91.0938 52.8521V47.4604H85.6982V52.8521H91.0938Z" fill="white"/>
<path d="M91.0938 47.461V42.0693H85.6982V47.461H91.0938Z" fill="white"/>
<path d="M91.0938 42.0704V36.6787H85.6982V42.0704H91.0938Z" fill="white"/>
<path d="M91.0938 25.898V20.5063H85.6982V25.898H91.0938Z" fill="white"/>
<path d="M91.0938 20.5074V15.1157L85.6982 15.1157V20.5074H91.0938Z" fill="white"/>
<path d="M85.6992 144.495V139.104H80.3037V144.495H85.6992Z" fill="white"/>
<path d="M85.6992 139.105V133.713H80.3037V139.105H85.6992Z" fill="white"/>
<path d="M85.6992 122.93V117.54H80.3037V122.93H85.6992Z" fill="white"/>
<path d="M85.6992 117.541V112.149H80.3037V117.541H85.6992Z" fill="white"/>
<path d="M85.6992 112.148V106.758H80.3037V112.148H85.6992Z" fill="white"/>
<path d="M85.6992 95.9759V90.5859H80.3037V95.9759H85.6992Z" fill="white"/>
<path d="M85.6914 85.1959V79.8042H80.2959V85.1959H85.6914Z" fill="white"/>
<path d="M85.6992 63.6311V58.2412H80.3037V63.6311H85.6992Z" fill="white"/>
<path d="M85.6992 52.8511V47.4595H80.3037V52.8511H85.6992Z" fill="white"/>
<path d="M85.6914 42.0704V36.6787H80.2959V42.0704H85.6914Z" fill="white"/>
<path d="M85.6914 31.2882V25.8965H80.2959V31.2882H85.6914Z" fill="white"/>
<path d="M85.6992 25.8975V20.5059H80.3037V25.8975H85.6992Z" fill="white"/>
<path d="M80.3047 144.496V139.104H74.9091V144.496H80.3047Z" fill="white"/>
<path d="M80.2969 139.106V133.714H74.9013V139.106H80.2969Z" fill="white"/>
<path d="M80.3047 133.714V128.323H74.9092V133.714H80.3047Z" fill="white"/>
<path d="M80.2969 117.542V112.15H74.9013V117.542H80.2969Z" fill="white"/>
<path d="M80.2969 106.76V101.369H74.9013V106.76H80.2969Z" fill="white"/>
<path d="M80.3047 101.37V95.978H74.9091V101.37H80.3047Z" fill="white"/>
<path d="M80.2969 95.9768V90.5869H74.9013V95.9768H80.2969Z" fill="white"/>
<path d="M80.2969 85.1968V79.8052H74.9013V85.1968H80.2969Z" fill="white"/>
<path d="M80.2969 74.4156V69.0239H74.9013V74.4156H80.2969Z" fill="white"/>
<path d="M80.3047 69.025V63.6333H74.9092V69.025H80.3047Z" fill="white"/>
<path d="M80.2969 63.6321V58.2422H74.9013V63.6321H80.2969Z" fill="white"/>
<path d="M80.3047 58.2427V52.8511H74.9091V58.2427H80.3047Z" fill="white"/>
<path d="M80.3047 47.461V42.0693H74.9092V47.461H80.3047Z" fill="white"/>
<path d="M80.2969 42.0709V36.6792H74.9013V42.0709H80.2969Z" fill="white"/>
<path d="M80.2969 31.2891V25.8975H74.9013V31.2891H80.2969Z" fill="white"/>
<path d="M80.3047 25.898V20.5063H74.9092V25.898H80.3047Z" fill="white"/>
<path d="M74.9062 144.495V139.104H69.5124V144.495H74.9062Z" fill="white"/>
<path d="M74.9062 128.323V122.931H69.5124V128.323H74.9062Z" fill="white"/>
<path d="M74.9062 122.93V117.54H69.5124V122.93H74.9062Z" fill="white"/>
<path d="M74.9062 117.541V112.149H69.5124V117.541H74.9062Z" fill="white"/>
<path d="M74.9062 112.148V106.758H69.5124V112.148H74.9062Z" fill="white"/>
<path d="M74.9062 106.76V101.368H69.5125V106.76H74.9062Z" fill="white"/>
<path d="M74.9062 101.369V95.9771H69.5124V101.369H74.9062Z" fill="white"/>
<path d="M74.9062 90.587V85.1953H69.5125V90.587H74.9062Z" fill="white"/>
<path d="M74.9062 69.024V63.6323H69.5125V69.024H74.9062Z" fill="white"/>
<path d="M74.9062 63.6311V58.2412H69.5124V63.6311H74.9062Z" fill="white"/>
<path d="M74.9062 52.8511V47.4595H69.5124V52.8511H74.9062Z" fill="white"/>
<path d="M74.9062 42.0704V36.6787H69.5124V42.0704H74.9062Z" fill="white"/>
<path d="M74.9062 36.6792V31.2876H69.5124V36.6792H74.9062Z" fill="white"/>
<path d="M74.9062 31.2881V25.8965H69.5124V31.2881H74.9062Z" fill="white"/>
<path d="M74.9062 20.5064V15.1147L69.5124 15.1147V20.5064H74.9062Z" fill="white"/>
<path d="M69.5117 144.496V139.104H64.1162V144.496H69.5117Z" fill="white"/>
<path d="M69.5117 133.714V128.323H64.1162V133.714H69.5117Z" fill="white"/>
<path d="M69.5117 128.323V122.932H64.1162V128.323H69.5117Z" fill="white"/>
<path d="M69.5117 112.149V106.759H64.1162V112.149H69.5117Z" fill="white"/>
<path d="M69.5117 101.37V95.978H64.1162V101.37H69.5117Z" fill="white"/>
<path d="M69.5117 90.588V85.1963H64.1162V90.588H69.5117Z" fill="white"/>
<path d="M69.5117 85.1968V79.8052H64.1162V85.1968H69.5117Z" fill="white"/>
<path d="M69.5117 79.8057V74.4141H64.1162V79.8057H69.5117Z" fill="white"/>
<path d="M69.5117 74.4156V69.0239H64.1162V74.4156H69.5117Z" fill="white"/>
<path d="M69.5117 63.6321V58.2422H64.1162V63.6321H69.5117Z" fill="white"/>
<path d="M69.5117 58.2427V52.8511H64.1162V58.2427H69.5117Z" fill="white"/>
<path d="M69.5117 52.8521V47.4604H64.1162V52.8521H69.5117Z" fill="white"/>
<path d="M69.5117 42.0709V36.6792H64.1162V42.0709H69.5117Z" fill="white"/>
<path d="M69.5117 31.2891V25.8975H64.1162V31.2891H69.5117Z" fill="white"/>
<path d="M69.5117 25.898V20.5063H64.1162V25.898H69.5117Z" fill="white"/>
<path d="M64.1172 139.105V133.713H58.7234V139.105H64.1172Z" fill="white"/>
<path d="M64.1172 101.369V95.9771H58.7234V101.369H64.1172Z" fill="white"/>
<path d="M64.1172 95.9759V90.5859H58.7234V95.9759H64.1172Z" fill="white"/>
<path d="M64.1172 90.587V85.1953H58.7234V90.587H64.1172Z" fill="white"/>
<path d="M64.1172 79.8052V74.4136H58.7234V79.8052H64.1172Z" fill="white"/>
<path d="M64.1172 74.4151V69.0234H58.7234V74.4151H64.1172Z" fill="white"/>
<path d="M64.1172 69.024V63.6323H58.7234V69.024H64.1172Z" fill="white"/>
<path d="M64.1172 52.8511V47.4595H58.7234V52.8511H64.1172Z" fill="white"/>
<path d="M64.1172 47.46V42.0684H58.7234V47.46H64.1172Z" fill="white"/>
<path d="M64.1172 31.2881V25.8965H58.7234V31.2881H64.1172Z" fill="white"/>
<path d="M58.7227 106.76V101.369H53.3271V106.76H58.7227Z" fill="white"/>
<path d="M58.7227 90.5879V85.1963H53.3271V90.5879H58.7227Z" fill="white"/>
<path d="M58.7227 85.1968V79.8052H53.3271V85.1968H58.7227Z" fill="white"/>
<path d="M58.7227 69.0249V63.6333H53.3271V69.0249H58.7227Z" fill="white"/>
<path d="M53.3281 144.495V139.104H47.9326V144.495H53.3281Z" fill="white"/>
<path d="M53.3281 139.105V133.713H47.9326V139.105H53.3281Z" fill="white"/>
<path d="M53.3281 133.713V128.322H47.9326V133.713H53.3281Z" fill="white"/>
<path d="M53.3281 128.323V122.931H47.9326V128.323H53.3281Z" fill="white"/>
<path d="M53.3281 122.93V117.54H47.9326V122.93H53.3281Z" fill="white"/>
<path d="M53.3281 117.541V112.149H47.9326V117.541H53.3281Z" fill="white"/>
<path d="M53.3281 95.9758V90.5859H47.9326V95.9758H53.3281Z" fill="white"/>
<path d="M53.3281 90.587V85.1953H47.9326V90.587H53.3281Z" fill="white"/>
<path d="M53.3281 79.8052V74.4136H47.9326V79.8052H53.3281Z" fill="white"/>
<path d="M53.3281 69.024V63.6323H47.9326V69.024H53.3281Z" fill="white"/>
<path d="M53.3281 63.6311V58.2412H47.9326V63.6311H53.3281Z" fill="white"/>
<path d="M53.3281 52.8511V47.4595H47.9326V52.8511H53.3281Z" fill="white"/>
<path d="M53.3281 47.46V42.0684H47.9326V47.46H53.3281Z" fill="white"/>
<path d="M53.3281 42.0704V36.6787H47.9326V42.0704H53.3281Z" fill="white"/>
<path d="M53.3281 36.6792V31.2876H47.9326V36.6792H53.3281Z" fill="white"/>
<path d="M53.3281 31.2881V25.8965H47.9326V31.2881H53.3281Z" fill="white"/>
<path d="M53.3281 25.8975V20.5059H47.9326V25.8975H53.3281Z" fill="white"/>
<path d="M53.3281 20.5064V15.1147L47.9326 15.1147V20.5064H53.3281Z" fill="white"/>
<path d="M47.9336 117.542V112.15H42.5398V117.542H47.9336Z" fill="white"/>
<path d="M47.9336 101.37V95.978H42.5398V101.37H47.9336Z" fill="white"/>
<path d="M47.9336 90.5879V85.1963H42.5398V90.5879H47.9336Z" fill="white"/>
<path d="M47.9336 74.4156V69.0239H42.5398V74.4156H47.9336Z" fill="white"/>
<path d="M47.9336 52.8521V47.4604H42.5398V52.8521H47.9336Z" fill="white"/>
<path d="M47.9336 20.5074V15.1157L42.5398 15.1157V20.5074H47.9336Z" fill="white"/>
<path d="M42.5391 139.105V133.713H37.1435V139.105H42.5391Z" fill="white"/>
<path d="M42.5391 133.713V128.322H37.1435V133.713H42.5391Z" fill="white"/>
<path d="M42.5391 128.323V122.931H37.1435V128.323H42.5391Z" fill="white"/>
<path d="M42.5391 117.541V112.149H37.1435V117.541H42.5391Z" fill="white"/>
<path d="M42.5391 106.76V101.368H37.1435V106.76H42.5391Z" fill="white"/>
<path d="M42.5391 95.9759V90.5859H37.1435V95.9759H42.5391Z" fill="white"/>
<path d="M42.5391 90.587V85.1953H37.1435V90.587H42.5391Z" fill="white"/>
<path d="M42.5391 85.1959V79.8042H37.1435V85.1959H42.5391Z" fill="white"/>
<path d="M42.5391 79.8052V74.4136H37.1435V79.8052H42.5391Z" fill="white"/>
<path d="M42.5391 74.4151V69.0234H37.1435V74.4151H42.5391Z" fill="white"/>
<path d="M42.5391 52.8511V47.4595H37.1435V52.8511H42.5391Z" fill="white"/>
<path d="M42.5391 42.0704V36.6787H37.1435V42.0704H42.5391Z" fill="white"/>
<path d="M42.5391 36.6793V31.2876H37.1435V36.6793H42.5391Z" fill="white"/>
<path d="M42.5391 31.2882V25.8965H37.1435V31.2882H42.5391Z" fill="white"/>
<path d="M42.5391 20.5064V15.1147L37.1435 15.1147V20.5064H42.5391Z" fill="white"/>
<path d="M37.1484 139.106V133.714H31.7529V139.106H37.1484Z" fill="white"/>
<path d="M37.1484 133.714V128.323H31.7529V133.714H37.1484Z" fill="white"/>
<path d="M37.1484 128.323V122.932H31.7529V128.323H37.1484Z" fill="white"/>
<path d="M37.1484 117.542V112.15H31.7529V117.542H37.1484Z" fill="white"/>
<path d="M37.1484 85.1968V79.8052H31.7529V85.1968H37.1484Z" fill="white"/>
<path d="M37.1484 79.8057V74.4141H31.7529V79.8057H37.1484Z" fill="white"/>
<path d="M37.1484 63.6321V58.2422H31.7529V63.6321H37.1484Z" fill="white"/>
<path d="M37.1484 52.8521V47.4604H31.7529V52.8521H37.1484Z" fill="white"/>
<path d="M37.1484 42.0709V36.6792H31.7529V42.0709H37.1484Z" fill="white"/>
<path d="M37.1484 36.6802V31.2886H31.7529V36.6802H37.1484Z" fill="white"/>
<path d="M37.1484 31.2891V25.8975H31.7529V31.2891H37.1484Z" fill="white"/>
<path d="M37.1484 20.5074V15.1157L31.7529 15.1157V20.5074H37.1484Z" fill="white"/>
<path d="M31.7461 139.105V133.713H26.3505V139.105H31.7461Z" fill="white"/>
<path d="M31.7539 133.713V128.322H26.3584V133.713H31.7539Z" fill="white"/>
<path d="M31.7461 128.323V122.931H26.3505V128.323H31.7461Z" fill="white"/>
<path d="M31.7461 117.541V112.149H26.3506V117.541H31.7461Z" fill="white"/>
<path d="M31.7461 95.9759V90.5859H26.3505V95.9759H31.7461Z" fill="white"/>
<path d="M31.7539 79.8052V74.4136H26.3584V79.8052H31.7539Z" fill="white"/>
<path d="M31.7539 69.024V63.6323H26.3584V69.024H31.7539Z" fill="white"/>
<path d="M31.7461 52.8511V47.4595H26.3505V52.8511H31.7461Z" fill="white"/>
<path d="M31.7461 42.0704V36.6787H26.3505V42.0704H31.7461Z" fill="white"/>
<path d="M31.7539 36.6792V31.2876H26.3584V36.6792H31.7539Z" fill="white"/>
<path d="M31.7461 31.2881V25.8965H26.3506V31.2881H31.7461Z" fill="white"/>
<path d="M31.7461 20.5064V15.1147L26.3506 15.1147V20.5064H31.7461Z" fill="white"/>
<path d="M26.3516 117.542V112.15H20.956V117.542H26.3516Z" fill="white"/>
<path d="M26.3516 106.76V101.369H20.956V106.76H26.3516Z" fill="white"/>
<path d="M26.3516 90.588V85.1963H20.956V90.588H26.3516Z" fill="white"/>
<path d="M26.3516 85.1968V79.8052H20.956V85.1968H26.3516Z" fill="white"/>
<path d="M26.3516 79.8057V74.4141H20.956V79.8057H26.3516Z" fill="white"/>
<path d="M26.3516 74.4156V69.0239H20.956V74.4156H26.3516Z" fill="white"/>
<path d="M26.3516 63.6321V58.2422H20.956V63.6321H26.3516Z" fill="white"/>
<path d="M26.3516 52.8521V47.4604H20.956V52.8521H26.3516Z" fill="white"/>
<path d="M26.3516 20.5074V15.1157L20.956 15.1157V20.5074H26.3516Z" fill="white"/>
<path d="M20.957 144.495V139.104H15.5615V144.495H20.957Z" fill="white"/>
<path d="M20.957 139.105V133.713H15.5615V139.105H20.957Z" fill="white"/>
<path d="M20.957 133.713V128.322H15.5615V133.713H20.957Z" fill="white"/>
<path d="M20.957 128.323V122.931H15.5615V128.323H20.957Z" fill="white"/>
<path d="M20.957 122.93V117.54H15.5615V122.93H20.957Z" fill="white"/>
<path d="M20.957 117.541V112.149H15.5615V117.541H20.957Z" fill="white"/>
<path d="M20.957 101.369V95.9771H15.5615V101.369H20.957Z" fill="white"/>
<path d="M20.957 95.9759V90.5859H15.5615V95.9759H20.957Z" fill="white"/>
<path d="M20.957 74.4151V69.0234H15.5615V74.4151H20.957Z" fill="white"/>
<path d="M20.957 69.024V63.6323H15.5615V69.024H20.957Z" fill="white"/>
<path d="M20.957 52.8511V47.4595H15.5615V52.8511H20.957Z" fill="white"/>
<path d="M20.957 47.46V42.0684H15.5615V47.46H20.957Z" fill="white"/>
<path d="M20.957 42.0704V36.6787H15.5615V42.0704H20.957Z" fill="white"/>
<path d="M20.957 36.6792V31.2876H15.5615V36.6792H20.957Z" fill="white"/>
<path d="M20.957 31.2881V25.8965H15.5615V31.2881H20.957Z" fill="white"/>
<path d="M20.957 25.8975V20.5059H15.5615V25.8975H20.957Z" fill="white"/>
<path d="M20.957 20.5064V15.1147L15.5615 15.1147V20.5064H20.957Z" fill="white"/>
<path d="M165 21.3793V0.5H144.105" stroke="white" stroke-miterlimit="10" stroke-linecap="round" stroke-linejoin="round"/>
<path d="M165 143.621V164.5H144.105" stroke="white" stroke-miterlimit="10" stroke-linecap="round" stroke-linejoin="round"/>
<path d="M1 21.3793V0.5H21.8943" stroke="white" stroke-miterlimit="10" stroke-linecap="round" stroke-linejoin="round"/>
<path d="M1 143.621V164.5H21.8943" stroke="white" stroke-miterlimit="10" stroke-linecap="round" stroke-linejoin="round"/>
<path d="M94.641 85.4019C93.0377 91.8339 86.5211 95.7439 80.0982 94.1405C73.6661 92.5372 69.7561 86.0208 71.3595 79.5981C72.9628 73.1661 79.47 69.2561 85.9022 70.8595C92.325 72.4535 96.2444 78.9698 94.641 85.4019Z" fill="url(#paint0_linear_2320_3793)"/>
<path d="M88.4563 80.8028C88.6906 79.2091 87.4813 78.3466 85.8125 77.7747L86.3563 75.6091L85.0438 75.281L84.5188 77.3903C84.1719 77.306 83.8156 77.2216 83.4594 77.1466L83.9844 75.0278L82.6719 74.6997L82.1375 76.856C81.8469 76.7903 81.5656 76.7247 81.2938 76.6591V76.6497L79.475 76.1997L79.1281 77.606C79.1281 77.606 80.1031 77.831 80.0844 77.8403C80.6188 77.9716 80.7125 78.3278 80.6938 78.6091L80.075 81.0747C80.1125 81.0841 80.1594 81.0935 80.2156 81.1216C80.1688 81.1122 80.1219 81.1028 80.075 81.0841L79.2125 84.5341C79.1469 84.6935 78.9781 84.9372 78.6125 84.8435C78.6219 84.8622 77.6563 84.6091 77.6563 84.6091L77 86.1185L78.7156 86.5497C79.0344 86.6341 79.3438 86.7091 79.6531 86.7935L79.1094 88.9778L80.4219 89.306L80.9656 87.1403C81.3219 87.2341 81.6781 87.3278 82.0156 87.4122L81.4813 89.5685L82.7938 89.8966L83.3375 87.7122C85.5875 88.1341 87.275 87.9653 87.9781 85.931C88.55 84.2997 87.95 83.3528 86.7688 82.7341C87.6406 82.5372 88.2875 81.9653 88.4563 80.8028ZM85.4469 85.0216C85.0438 86.6528 82.2875 85.7716 81.3969 85.5466L82.1188 82.6497C83.0094 82.8747 85.8781 83.3153 85.4469 85.0216ZM85.8594 80.7747C85.4844 82.2653 83.1969 81.506 82.4563 81.3185L83.1125 78.6935C83.8531 78.881 86.2438 79.2278 85.8594 80.7747Z" fill="white"/>
<defs>
<linearGradient id="paint0_linear_2320_3793" x1="1270.35" y1="69.924" x2="1270.35" y2="2470.26" gradientUnits="userSpaceOnUse">
<stop stop-color="#F9AA4B"/>
<stop offset="1" stop-color="#F7931A"/>
</linearGradient>
</defs>
</svg>
