<svg width="16" height="16" viewBox="0 0 16 16" fill="none" xmlns="http://www.w3.org/2000/svg">
<path d="M15.7607 9.93462C14.6918 14.2226 10.3474 16.8293 6.0655 15.7603C1.77737 14.6914 -0.829259 10.3472 0.239679 6.06537C1.30855 1.77737 5.64668 -0.829259 9.93481 0.23968C14.2167 1.30231 16.8296 5.64656 15.7607 9.93462Z" fill="url(#paint0_linear_719_5788)"/>
<path d="M11.6375 6.86856C11.7938 5.80606 10.9875 5.23106 9.875 4.84981L10.2375 3.40606L9.3625 3.18731L9.0125 4.59356C8.78125 4.53731 8.54375 4.48106 8.30625 4.43106L8.65625 3.01855L7.78125 2.7998L7.425 4.23731C7.23125 4.19356 7.04375 4.14981 6.8625 4.10606V4.09981L5.65 3.79981L5.41875 4.73731C5.41875 4.73731 6.06875 4.88731 6.05625 4.89356C6.4125 4.98106 6.475 5.21856 6.4625 5.40606L6.05 7.04981C6.075 7.05606 6.10625 7.06231 6.14375 7.08106C6.1125 7.07481 6.08125 7.06856 6.05 7.05606L5.475 9.35606C5.43125 9.46231 5.31875 9.62481 5.075 9.56231C5.08125 9.57481 4.4375 9.40606 4.4375 9.40606L4 10.4123L5.14375 10.6998C5.35625 10.7561 5.5625 10.8061 5.76875 10.8623L5.40625 12.3186L6.28125 12.5373L6.64375 11.0936C6.88125 11.1561 7.11875 11.2186 7.34375 11.2748L6.9875 12.7123L7.8625 12.9311L8.225 11.4748C9.725 11.7561 10.85 11.6436 11.3188 10.2873C11.7 9.19981 11.3 8.56856 10.5125 8.15606C11.0938 8.02481 11.525 7.64356 11.6375 6.86856ZM9.63125 9.68106C9.3625 10.7686 7.525 10.1811 6.93125 10.0311L7.4125 8.09981C8.00625 8.24981 9.91875 8.54356 9.63125 9.68106ZM9.90625 6.84981C9.65625 7.84356 8.13125 7.33731 7.6375 7.21231L8.075 5.46231C8.56875 5.58731 10.1625 5.81856 9.90625 6.84981Z" fill="white"/>
<defs>
<linearGradient id="paint0_linear_719_5788" x1="799.568" y1="-0.384" x2="799.568" y2="1599.84" gradientUnits="userSpaceOnUse">
<stop stop-color="#F9AA4B"/>
<stop offset="1" stop-color="#F7931A"/>
</linearGradient>
</defs>
</svg>
