<svg width="25" height="24" viewBox="0 0 25 24" fill="none" xmlns="http://www.w3.org/2000/svg">
<g clip-path="url(#clip0_2147_7577)">
<path d="M1.5 10H2.5M10.5 1V2M18.5 10H19.5M4.1 3.6L4.8 4.3M16.9 3.6L16.2 4.3M8.2 15H12.8M7.5 14C6.66047 13.3704 6.04033 12.4925 5.72743 11.4908C5.41453 10.4892 5.42473 9.41442 5.75658 8.41886C6.08844 7.4233 6.72512 6.55739 7.57645 5.94379C8.42778 5.33019 9.45059 5 10.5 5C11.5494 5 12.5722 5.33019 13.4236 5.94379C14.2749 6.55739 14.9116 7.4233 15.2434 8.41886C15.5753 9.41442 15.5855 10.4892 15.2726 11.4908C14.9597 12.4925 14.3395 13.3704 13.5 14C13.1096 14.3865 12.8156 14.8594 12.6419 15.3806C12.4681 15.9018 12.4195 16.4566 12.5 17C12.5 17.5304 12.2893 18.0391 11.9142 18.4142C11.5391 18.7893 11.0304 19 10.5 19C9.96957 19 9.46086 18.7893 9.08579 18.4142C8.71071 18.0391 8.5 17.5304 8.5 17C8.58046 16.4566 8.53185 15.9018 8.35813 15.3806C8.1844 14.8594 7.89043 14.3865 7.5 14Z" stroke="white" stroke-linecap="round" stroke-linejoin="round"/>
</g>
<defs>
<clipPath id="clip0_2147_7577">
<rect width="24" height="24" fill="white" transform="translate(0.5)"/>
</clipPath>
</defs>
</svg>
