<svg width="80" height="80" viewBox="0 0 80 80" fill="none" xmlns="http://www.w3.org/2000/svg">
<rect width="80" height="80" rx="40" fill="#DCD0FF"/>
<path d="M53.1215 43.125H25.9379C25.7661 43.125 25.6254 43.2656 25.6254 43.4375V45.7812C25.6254 45.9531 25.7661 46.0938 25.9379 46.0938H49.5786L43.9418 53.2422C43.7817 53.4453 43.9262 53.75 44.1879 53.75H47.02C47.2114 53.75 47.391 53.6641 47.5121 53.5117L54.1059 45.1484C54.7504 44.3281 54.1684 43.125 53.1215 43.125ZM54.0629 33.9062H30.4223L36.059 26.7578C36.2192 26.5547 36.0746 26.25 35.8129 26.25H32.9809C32.7895 26.25 32.6098 26.3359 32.4887 26.4883L25.895 34.8516C25.2504 35.6719 25.8325 36.875 26.8754 36.875H54.0629C54.2348 36.875 54.3754 36.7344 54.3754 36.5625V34.2188C54.3754 34.0469 54.2348 33.9062 54.0629 33.9062Z" fill="#181818"/>
</svg>
