<svg width="40" height="40" viewBox="0 0 40 40" fill="none" xmlns="http://www.w3.org/2000/svg">
<rect width="40" height="40" rx="20" fill="#603CD0" fill-opacity="0.2"/>
<g clip-path="url(#clip0_2505_11072)">
<path d="M25.3333 12H14.6667C13.196 12 12 13.196 12 14.6667V22.6667C12 24.1373 13.196 25.3333 14.6667 25.3333H16.6153L19.1147 27.438C19.3693 27.664 19.6887 27.776 20.006 27.776C20.318 27.776 20.6267 27.6673 20.8673 27.4533L23.4327 25.3333H25.334C26.8047 25.3333 28.0007 24.1373 28.0007 22.6667V14.6667C28.0007 13.196 26.804 12 25.3333 12ZM16.6667 20C16.1147 20 15.6667 19.552 15.6667 19C15.6667 18.448 16.1147 18 16.6667 18C17.2187 18 17.6667 18.448 17.6667 19C17.6667 19.552 17.2187 20 16.6667 20ZM20 20C19.448 20 19 19.552 19 19C19 18.448 19.448 18 20 18C20.552 18 21 18.448 21 19C21 19.552 20.552 20 20 20ZM23.3333 20C22.7813 20 22.3333 19.552 22.3333 19C22.3333 18.448 22.7813 18 23.3333 18C23.8853 18 24.3333 18.448 24.3333 19C24.3333 19.552 23.8853 20 23.3333 20Z" fill="#603CD0"/>
</g>
<defs>
<clipPath id="clip0_2505_11072">
<rect width="16" height="16" fill="white" transform="translate(12 12)"/>
</clipPath>
</defs>
</svg>
