<svg width="16" height="16" viewBox="0 0 16 16" fill="none" xmlns="http://www.w3.org/2000/svg">
<g clip-path="url(#clip0_2506_12390)">
<path d="M12.25 0H3.75C1.67893 0 0 1.67893 0 3.75V12.25C0 14.3211 1.67893 16 3.75 16H12.25C14.3211 16 16 14.3211 16 12.25V3.75C16 1.67893 14.3211 0 12.25 0Z" fill="#5865F2"/>
<mask id="mask0_2506_12390" style="mask-type:luminance" maskUnits="userSpaceOnUse" x="1" y="3" width="14" height="10">
<path d="M1.75 3.1875H14.25V12.8706H1.75V3.1875Z" fill="white"/>
</mask>
<g mask="url(#mask0_2506_12390)">
<path d="M12.3317 4.05154C11.5213 3.67958 10.6661 3.4143 9.7874 3.26235C9.77942 3.26089 9.77118 3.26198 9.76384 3.26545C9.75651 3.26893 9.75045 3.27462 9.74652 3.28172C9.63665 3.4771 9.5149 3.7321 9.42971 3.93247C8.4689 3.7886 7.51309 3.7886 6.57202 3.93247C6.48677 3.7276 6.36065 3.4771 6.25027 3.28172C6.24621 3.27474 6.24012 3.26914 6.23281 3.26568C6.2255 3.26223 6.21732 3.26106 6.20934 3.26235C5.3306 3.41396 4.47532 3.67925 3.66502 4.05154C3.65813 4.05454 3.65229 4.05955 3.64827 4.06591C2.02777 6.48691 1.5839 8.84841 1.80165 11.1807C1.80298 11.1922 1.80882 11.2027 1.8179 11.2099C2.88702 11.9951 3.92271 12.4718 4.93915 12.7877C4.94706 12.7901 4.95549 12.7899 4.96333 12.7874C4.97116 12.7848 4.97803 12.7799 4.98302 12.7733C5.22346 12.445 5.43777 12.0988 5.62159 11.7347C5.62412 11.7297 5.62556 11.7243 5.62583 11.7187C5.62609 11.7131 5.62517 11.7075 5.62312 11.7023C5.62107 11.6971 5.61794 11.6924 5.61394 11.6885C5.60994 11.6846 5.60515 11.6816 5.5999 11.6797C5.2599 11.5507 4.93621 11.3935 4.62484 11.2149C4.61917 11.2116 4.6144 11.2069 4.61097 11.2013C4.60754 11.1957 4.60554 11.1893 4.60515 11.1827C4.60476 11.1761 4.60599 11.1696 4.60874 11.1636C4.61149 11.1576 4.61566 11.1524 4.6209 11.1484C4.68659 11.0993 4.75115 11.0487 4.81452 10.9967C4.82008 10.9921 4.8268 10.9891 4.83393 10.9882C4.84106 10.9872 4.84832 10.9882 4.8549 10.9912C6.90065 11.9252 9.11534 11.9252 11.1369 10.9912C11.1435 10.9881 11.1508 10.9869 11.1581 10.9878C11.1653 10.9886 11.1722 10.9916 11.1778 10.9962C11.2413 11.0485 11.306 11.0993 11.372 11.1484C11.3772 11.1524 11.3814 11.1575 11.3842 11.1635C11.387 11.1695 11.3883 11.176 11.3879 11.1826C11.3876 11.1891 11.3857 11.1955 11.3823 11.2012C11.3789 11.2068 11.3742 11.2115 11.3685 11.2149C11.057 11.3968 10.7306 11.5521 10.393 11.6792C10.3877 11.6812 10.383 11.6843 10.379 11.6883C10.3751 11.6922 10.372 11.697 10.37 11.7022C10.368 11.7075 10.3671 11.7131 10.3674 11.7187C10.3677 11.7243 10.3692 11.7297 10.3718 11.7347C10.5588 12.0959 10.772 12.4429 11.0098 12.7728C11.0146 12.7796 11.0215 12.7846 11.0293 12.7873C11.0372 12.79 11.0457 12.7901 11.0536 12.7877C12.075 12.4718 13.1107 11.9951 14.1799 11.2099C14.1845 11.2065 14.1883 11.2022 14.1911 11.1973C14.1939 11.1923 14.1956 11.1868 14.1961 11.1812C14.4568 8.48485 13.7596 6.14266 12.348 4.06641C12.3445 4.05965 12.3388 4.05436 12.3317 4.05154ZM5.92709 9.7606C5.31115 9.7606 4.80365 9.19516 4.80365 8.50072C4.80365 7.80629 5.30134 7.24085 5.92709 7.24085C6.55771 7.24085 7.06027 7.81129 7.0504 8.50072C7.0504 9.19516 6.55277 9.7606 5.92709 9.7606ZM10.0806 9.7606C9.46465 9.7606 8.95721 9.19516 8.95721 8.50072C8.95721 7.80629 9.45484 7.24085 10.0806 7.24085C10.7112 7.24085 11.2138 7.81129 11.204 8.50072C11.204 9.19516 10.7112 9.7606 10.0806 9.7606Z" fill="white"/>
</g>
</g>
<defs>
<clipPath id="clip0_2506_12390">
<rect width="16" height="16" fill="white"/>
</clipPath>
</defs>
</svg>
