<svg width="40" height="40" viewBox="0 0 40 40" fill="none" xmlns="http://www.w3.org/2000/svg">
<rect width="40" height="40" rx="20" fill="#603CD0" fill-opacity="0.2"/>
<path d="M26.4 14.5H13.6C12.72 14.5 12.008 15.175 12.008 16L12 25C12 25.825 12.72 26.5 13.6 26.5H26.4C27.28 26.5 28 25.825 28 25V16C28 15.175 27.28 14.5 26.4 14.5ZM26.08 17.6875L20.424 21.0025C20.168 21.1525 19.832 21.1525 19.576 21.0025L13.92 17.6875C13.8398 17.6453 13.7695 17.5882 13.7135 17.5198C13.6575 17.4514 13.6168 17.3731 13.5941 17.2895C13.5713 17.206 13.5668 17.119 13.5809 17.0337C13.595 16.9485 13.6275 16.8669 13.6762 16.7937C13.725 16.7206 13.7891 16.6575 13.8646 16.6082C13.9401 16.559 14.0255 16.5246 14.1156 16.5072C14.2057 16.4898 14.2986 16.4897 14.3888 16.507C14.4789 16.5242 14.5644 16.5584 14.64 16.6075L20 19.75L25.36 16.6075C25.4356 16.5584 25.5211 16.5242 25.6112 16.507C25.7014 16.4897 25.7943 16.4898 25.8844 16.5072C25.9745 16.5246 26.0599 16.559 26.1354 16.6082C26.2109 16.6575 26.275 16.7206 26.3238 16.7937C26.3725 16.8669 26.405 16.9485 26.4191 17.0337C26.4332 17.119 26.4287 17.206 26.4059 17.2895C26.3832 17.3731 26.3425 17.4514 26.2865 17.5198C26.2305 17.5882 26.1602 17.6453 26.08 17.6875Z" fill="#603CD0"/>
</svg>
