<svg width="32" height="32" viewBox="0 0 32 32" fill="none" xmlns="http://www.w3.org/2000/svg">
<path fill-rule="evenodd" clip-rule="evenodd" d="M32 16C32 20.2435 30.3143 24.3131 27.3137 27.3137C24.3131 30.3143 20.2435 32 16 32C11.7565 32 7.68687 30.3143 4.68629 27.3137C1.68571 24.3131 0 20.2435 0 16C0 11.7565 1.68571 7.68687 4.68629 4.68629C7.68687 1.68571 11.7565 0 16 0C20.2435 0 24.3131 1.68571 27.3137 4.68629C30.3143 7.68687 32 11.7565 32 16ZM16 5.71429C16.1675 5.71435 16.333 5.75124 16.4846 5.82233C16.6363 5.89343 16.7705 5.997 16.8777 6.12571L22.592 12.9829C22.6891 13.0996 22.7619 13.2346 22.8063 13.3798C22.8506 13.5251 22.8656 13.6777 22.8502 13.8288C22.8349 13.9799 22.7896 14.1264 22.717 14.2598C22.6444 14.3932 22.546 14.5108 22.4274 14.6057L16.7131 19.1771C16.5106 19.3389 16.2592 19.4269 16 19.4269C15.7408 19.4269 15.4894 19.3389 15.2869 19.1771L9.57257 14.6057C9.45401 14.5108 9.35556 14.3932 9.28296 14.2598C9.21036 14.1264 9.16508 13.9799 9.14976 13.8288C9.13444 13.6777 9.14938 13.5251 9.19372 13.3798C9.23806 13.2346 9.31091 13.0996 9.408 12.9829L15.1223 6.12571C15.2295 5.997 15.3637 5.89343 15.5154 5.82233C15.667 5.75124 15.8325 5.71435 16 5.71429ZM11.1771 19.456C11.0315 19.3319 10.8623 19.2384 10.6798 19.1809C10.4973 19.1235 10.3051 19.1033 10.1146 19.1215C9.9241 19.1398 9.73922 19.1961 9.57093 19.2872C9.40263 19.3783 9.25436 19.5022 9.13489 19.6517C9.01542 19.8012 8.92721 19.9732 8.87548 20.1574C8.82375 20.3416 8.80956 20.5344 8.83376 20.7242C8.85795 20.914 8.92003 21.097 9.01632 21.2624C9.11261 21.4278 9.24114 21.5721 9.39429 21.6869L15.1086 26.2583C15.3617 26.4604 15.676 26.5705 16 26.5705C16.324 26.5705 16.6383 26.4604 16.8914 26.2583L22.6057 21.6869C22.7589 21.5721 22.8874 21.4278 22.9837 21.2624C23.08 21.097 23.142 20.914 23.1662 20.7242C23.1904 20.5344 23.1763 20.3416 23.1245 20.1574C23.0728 19.9732 22.9846 19.8012 22.8651 19.6517C22.7456 19.5022 22.5974 19.3783 22.4291 19.2872C22.2608 19.1961 22.0759 19.1398 21.8854 19.1215C21.6949 19.1033 21.5027 19.1235 21.3202 19.1809C21.1377 19.2384 20.9685 19.3319 20.8229 19.456L16 23.3143L11.1771 19.456Z" fill="#00C8FF"/>
</svg>
