<svg width="17" height="16" viewBox="0 0 17 16" fill="none" xmlns="http://www.w3.org/2000/svg">
<g opacity="0.5">
<path d="M14.6232 6.19329L11.9565 3.52663C11.8943 3.46447 11.8205 3.41516 11.7393 3.38152C11.6581 3.34788 11.5711 3.33057 11.4832 3.33057C11.3056 3.33057 11.1354 3.40109 11.0098 3.52663C10.8843 3.65216 10.8138 3.82243 10.8138 3.99996C10.8138 4.1775 10.8843 4.34776 11.0098 4.47329L12.5432 5.99996H4.8165C4.63969 5.99996 4.47012 6.0702 4.34509 6.19522C4.22007 6.32025 4.14983 6.48982 4.14983 6.66663C4.14983 6.84344 4.22007 7.01301 4.34509 7.13803C4.47012 7.26306 4.63969 7.33329 4.8165 7.33329H14.1498C14.2814 7.33264 14.4099 7.29304 14.5191 7.21948C14.6282 7.14592 14.7132 7.04171 14.7632 6.91996C14.8142 6.79855 14.8282 6.66474 14.8033 6.53542C14.7783 6.40609 14.7157 6.28704 14.6232 6.19329ZM11.4832 8.66663H2.14983C2.01822 8.66728 1.88974 8.70689 1.78059 8.78044C1.67144 8.854 1.58651 8.95822 1.5365 9.07996C1.48545 9.20137 1.4715 9.33518 1.49641 9.4645C1.52133 9.59383 1.58399 9.71288 1.6765 9.80663L4.34317 12.4733C4.40514 12.5358 4.47888 12.5854 4.56011 12.6192C4.64135 12.6531 4.72849 12.6705 4.8165 12.6705C4.90451 12.6705 4.99164 12.6531 5.07288 12.6192C5.15412 12.5854 5.22786 12.5358 5.28983 12.4733C5.35232 12.4113 5.40191 12.3376 5.43576 12.2563C5.46961 12.1751 5.48703 12.088 5.48703 12C5.48703 11.912 5.46961 11.8248 5.43576 11.7436C5.40191 11.6623 5.35232 11.5886 5.28983 11.5266L3.7565 9.99996H11.4832C11.66 9.99996 11.8295 9.92972 11.9546 9.8047C12.0796 9.67968 12.1498 9.51011 12.1498 9.33329C12.1498 9.15648 12.0796 8.98691 11.9546 8.86189C11.8295 8.73687 11.66 8.66663 11.4832 8.66663Z" fill="white"/>
</g>
</svg>
