<svg width="18" height="16" viewBox="0 0 18 16" fill="none" xmlns="http://www.w3.org/2000/svg">
<path d="M17.0206 8.02005C17.0206 3.59298 13.4276 0 9.00052 0C4.57345 0 0.980469 3.59298 0.980469 8.02005C0.980469 11.9018 3.73937 15.1338 7.39651 15.8797L7.39651 10.4261L5.7925 10.4261V8.02005L7.39651 8.02005L7.39651 6.01504C7.39651 4.46717 8.65566 3.20802 10.2035 3.20802L12.2085 3.20802L12.2085 5.61404H10.6045C10.1634 5.61404 9.80252 5.97494 9.80252 6.41604V8.02005H12.2085V10.4261H9.80252L9.80252 16C13.8527 15.599 17.0206 12.1825 17.0206 8.02005Z" fill="#1C9CFF"/>
</svg>
