<svg width="40" height="41" viewBox="0 0 40 41" fill="none" xmlns="http://www.w3.org/2000/svg">
<rect y="0.625366" width="40" height="40" rx="20" fill="white"/>
<g clip-path="url(#clip0_1990_39159)">
<path fill-rule="evenodd" clip-rule="evenodd" d="M13.3001 10.4412L26.6296 10.4412C28.463 10.4412 29.9648 11.9428 29.9648 13.7764V27.106C29.9648 28.9394 28.463 30.4412 26.6296 30.4412H13.3001C11.4665 30.4412 9.96484 28.9394 9.96484 27.106L9.96484 13.7764C9.96484 11.9428 11.4665 10.4412 13.3001 10.4412Z" fill="url(#paint0_linear_1990_39159)"/>
<path fill-rule="evenodd" clip-rule="evenodd" d="M24.6172 20.4414C24.6172 17.8706 22.5341 15.7875 19.9633 15.7875C17.3925 15.7875 15.3094 17.8706 15.3094 20.4414C15.3094 23.0121 17.3925 25.0953 19.9633 25.0953C22.5341 25.0952 24.6172 23.0121 24.6172 20.4414ZM24.5291 15.155C24.1136 15.155 23.7802 15.4917 23.7802 15.9039C23.7802 16.3193 24.1136 16.6529 24.5291 16.6529C24.9413 16.6529 25.2779 16.3193 25.2779 15.9039C25.278 15.4917 24.9414 15.155 24.5291 15.155ZM16.159 14.0789H23.7676C25.1773 14.0789 26.3258 15.2305 26.3258 16.637V24.2455C26.3258 25.6553 25.1774 26.8039 23.7676 26.8039H16.159C14.7525 26.8039 13.6008 25.6553 13.6008 24.2455V16.637C13.6008 15.2305 14.7525 14.0789 16.159 14.0789ZM23.7676 13.2261H16.159C14.2836 13.2261 12.748 14.7616 12.748 16.637V24.2454C12.748 26.1241 14.2836 27.6566 16.159 27.6566H23.7676C25.6461 27.6566 27.1785 26.1241 27.1785 24.2454V16.637C27.1785 14.7616 25.6461 13.2261 23.7676 13.2261ZM16.2754 20.4414C16.2754 18.4054 17.9274 16.7534 19.9633 16.7534C21.9992 16.7534 23.6512 18.4054 23.6512 20.4414C23.6512 22.4773 21.9992 24.1291 19.9633 24.1291C17.9274 24.1291 16.2754 22.4773 16.2754 20.4414Z" fill="white"/>
</g>
<defs>
<linearGradient id="paint0_linear_1990_39159" x1="26.6638" y1="26.51" x2="12.9782" y2="14.1117" gradientUnits="userSpaceOnUse">
<stop stop-color="#FEC053"/>
<stop offset="0.3273" stop-color="#F2203E"/>
<stop offset="0.6485" stop-color="#B729A8"/>
<stop offset="1" stop-color="#5342D6"/>
</linearGradient>
<clipPath id="clip0_1990_39159">
<rect width="20" height="20" fill="white" transform="translate(10 10.6254)"/>
</clipPath>
</defs>
</svg>
