<svg width="340" height="124" viewBox="0 0 340 124" fill="none" xmlns="http://www.w3.org/2000/svg">
<g clip-path="url(#clip0_664_4414)">
<rect width="340" height="124" rx="10" fill="#181818"/>
<path d="M29.312 40.192C28.704 40.192 28.1227 40.128 27.568 40C27.0133 39.8613 26.5227 39.6533 26.096 39.376C25.6693 39.088 25.3333 38.736 25.088 38.32C24.8427 37.8933 24.72 37.392 24.72 36.816C24.72 36.752 24.72 36.688 24.72 36.624C24.7307 36.56 24.736 36.512 24.736 36.48H26.832C26.832 36.5013 26.8267 36.544 26.816 36.608C26.816 36.6613 26.816 36.7093 26.816 36.752C26.816 37.104 26.9173 37.408 27.12 37.664C27.3227 37.9093 27.616 38.1013 28 38.24C28.384 38.368 28.8373 38.432 29.36 38.432C29.712 38.432 30.0213 38.4107 30.288 38.368C30.5653 38.3253 30.8 38.2667 30.992 38.192C31.1947 38.1067 31.36 38.0107 31.488 37.904C31.616 37.7867 31.7067 37.6587 31.76 37.52C31.824 37.3813 31.856 37.232 31.856 37.072C31.856 36.7627 31.76 36.5067 31.568 36.304C31.376 36.1013 31.1147 35.9307 30.784 35.792C30.464 35.6533 30.096 35.5307 29.68 35.424C29.2747 35.3067 28.8533 35.1893 28.416 35.072C27.9893 34.9547 27.568 34.816 27.152 34.656C26.7467 34.4853 26.3787 34.2827 26.048 34.048C25.728 33.8133 25.472 33.52 25.28 33.168C25.088 32.8053 24.992 32.3733 24.992 31.872C24.992 31.36 25.0987 30.912 25.312 30.528C25.536 30.144 25.8453 29.8293 26.24 29.584C26.6453 29.328 27.1147 29.1413 27.648 29.024C28.1813 28.896 28.7627 28.832 29.392 28.832C29.9787 28.832 30.528 28.896 31.04 29.024C31.5627 29.1413 32.0213 29.3333 32.416 29.6C32.8107 29.856 33.12 30.1867 33.344 30.592C33.568 30.9867 33.68 31.4613 33.68 32.016V32.208H31.616V32.048C31.616 31.7387 31.52 31.4773 31.328 31.264C31.1467 31.0507 30.8853 30.8853 30.544 30.768C30.2133 30.6507 29.824 30.592 29.376 30.592C28.896 30.592 28.4853 30.64 28.144 30.736C27.8027 30.8213 27.5413 30.9547 27.36 31.136C27.1787 31.3067 27.088 31.52 27.088 31.776C27.088 32.0427 27.184 32.2667 27.376 32.448C27.568 32.6293 27.824 32.784 28.144 32.912C28.4747 33.04 28.8427 33.1573 29.248 33.264C29.664 33.3707 30.0853 33.488 30.512 33.616C30.9493 33.7333 31.3707 33.872 31.776 34.032C32.192 34.192 32.56 34.3947 32.88 34.64C33.2107 34.8747 33.472 35.168 33.664 35.52C33.856 35.872 33.952 36.2933 33.952 36.784C33.952 37.6053 33.7493 38.2667 33.344 38.768C32.9493 39.2693 32.4 39.632 31.696 39.856C31.0027 40.08 30.208 40.192 29.312 40.192ZM37.8719 40.192C37.6372 40.192 37.3652 40.16 37.0559 40.096C36.7572 40.0427 36.4639 39.936 36.1759 39.776C35.8985 39.616 35.6692 39.3813 35.4879 39.072C35.3065 38.752 35.2159 38.336 35.2159 37.824C35.2159 37.248 35.3439 36.7733 35.5999 36.4C35.8559 36.016 36.2132 35.7173 36.6719 35.504C37.1412 35.28 37.6959 35.1253 38.3359 35.04C38.9865 34.944 39.6959 34.896 40.4639 34.896V34.208C40.4639 33.9627 40.4265 33.744 40.3519 33.552C40.2772 33.36 40.1385 33.2107 39.9359 33.104C39.7439 32.9867 39.4505 32.928 39.0559 32.928C38.6612 32.928 38.3519 32.976 38.1279 33.072C37.9039 33.168 37.7492 33.2853 37.6639 33.424C37.5785 33.5627 37.5359 33.7067 37.5359 33.856V34.08H35.6479C35.6372 34.0267 35.6319 33.9733 35.6319 33.92C35.6319 33.8667 35.6319 33.8027 35.6319 33.728C35.6319 33.248 35.7759 32.832 36.0639 32.48C36.3519 32.128 36.7519 31.8613 37.2639 31.68C37.7759 31.488 38.3679 31.392 39.0399 31.392C39.8079 31.392 40.4372 31.4987 40.9279 31.712C41.4292 31.9253 41.8025 32.2293 42.0479 32.624C42.2932 33.0187 42.4159 33.4987 42.4159 34.064V38.032C42.4159 38.2347 42.4745 38.3787 42.5919 38.464C42.7092 38.5493 42.8372 38.592 42.9759 38.592H43.4879V39.936C43.3812 39.9787 43.2265 40.0267 43.0239 40.08C42.8212 40.144 42.5705 40.176 42.2719 40.176C41.9945 40.176 41.7439 40.128 41.5199 40.032C41.3065 39.9467 41.1252 39.8187 40.9759 39.648C40.8265 39.4773 40.7199 39.2747 40.6559 39.04H40.5599C40.3785 39.264 40.1599 39.4667 39.9039 39.648C39.6585 39.8187 39.3652 39.952 39.0239 40.048C38.6932 40.144 38.3092 40.192 37.8719 40.192ZM38.4639 38.592C38.7839 38.592 39.0665 38.544 39.3119 38.448C39.5679 38.352 39.7759 38.2187 39.9359 38.048C40.1065 37.8773 40.2345 37.6693 40.3199 37.424C40.4159 37.1787 40.4639 36.912 40.4639 36.624V36.24C39.8772 36.24 39.3332 36.2773 38.8319 36.352C38.3412 36.4267 37.9465 36.5653 37.6479 36.768C37.3599 36.9707 37.2159 37.2587 37.2159 37.632C37.2159 37.824 37.2585 37.9947 37.3439 38.144C37.4399 38.2827 37.5785 38.3947 37.7599 38.48C37.9519 38.5547 38.1865 38.592 38.4639 38.592ZM45.0025 40V33.184H43.7865V31.584H45.0025V30.512C45.0025 30.1387 45.0612 29.7867 45.1785 29.456C45.3065 29.1147 45.5252 28.8373 45.8345 28.624C46.1438 28.4107 46.5758 28.304 47.1305 28.304C47.2905 28.304 47.4505 28.3147 47.6105 28.336C47.7812 28.3573 47.9412 28.3893 48.0905 28.432C48.2398 28.464 48.3678 28.5013 48.4745 28.544V29.904H47.6745C47.4398 29.904 47.2585 29.968 47.1305 30.096C47.0132 30.2133 46.9545 30.3893 46.9545 30.624V31.584H48.4745V33.184H46.9545V40H45.0025ZM53.0466 40.192C52.1506 40.192 51.404 40.0373 50.8066 39.728C50.2093 39.408 49.7613 38.9227 49.4626 38.272C49.164 37.6213 49.0146 36.7947 49.0146 35.792C49.0146 34.7787 49.164 33.952 49.4626 33.312C49.7613 32.6613 50.2093 32.1813 50.8066 31.872C51.404 31.552 52.1506 31.392 53.0466 31.392C53.8573 31.392 54.5346 31.5467 55.0786 31.856C55.6333 32.1547 56.0493 32.6187 56.3266 33.248C56.604 33.8773 56.7426 34.6933 56.7426 35.696V36.272H51.0146C51.036 36.7947 51.116 37.2373 51.2546 37.6C51.3933 37.952 51.6066 38.2187 51.8946 38.4C52.1933 38.5707 52.5826 38.656 53.0626 38.656C53.308 38.656 53.5373 38.624 53.7506 38.56C53.964 38.496 54.1506 38.4 54.3106 38.272C54.4706 38.1333 54.5933 37.9627 54.6786 37.76C54.7746 37.5573 54.8226 37.3227 54.8226 37.056H56.7426C56.7426 37.5893 56.6466 38.0533 56.4546 38.448C56.2733 38.8427 56.012 39.168 55.6706 39.424C55.34 39.68 54.9506 39.872 54.5026 40C54.0546 40.128 53.5693 40.192 53.0466 40.192ZM51.0466 34.896H54.7106C54.7106 34.544 54.668 34.2453 54.5826 34C54.508 33.7547 54.396 33.552 54.2466 33.392C54.108 33.232 53.9373 33.12 53.7346 33.056C53.532 32.9813 53.3026 32.944 53.0466 32.944C52.6306 32.944 52.2786 33.0133 51.9906 33.152C51.7133 33.2907 51.5 33.504 51.3506 33.792C51.2013 34.08 51.1 34.448 51.0466 34.896ZM64.4665 40V30.816H60.9625V29.024H70.0665V30.816H66.5465V40H64.4665ZM70.3838 40V31.584H72.0158L72.1758 32.912H72.2878C72.3944 32.6453 72.5224 32.4 72.6718 32.176C72.8318 31.9413 73.0344 31.7547 73.2798 31.616C73.5251 31.4667 73.8238 31.392 74.1758 31.392C74.3464 31.392 74.5011 31.408 74.6398 31.44C74.7891 31.472 74.9011 31.504 74.9758 31.536V33.376H74.3838C74.0531 33.376 73.7598 33.424 73.5038 33.52C73.2478 33.6053 73.0291 33.744 72.8478 33.936C72.6771 34.128 72.5491 34.368 72.4638 34.656C72.3784 34.944 72.3358 35.28 72.3358 35.664V40H70.3838ZM78.1844 40.192C77.9497 40.192 77.6777 40.16 77.3684 40.096C77.0697 40.0427 76.7764 39.936 76.4884 39.776C76.211 39.616 75.9817 39.3813 75.8004 39.072C75.619 38.752 75.5284 38.336 75.5284 37.824C75.5284 37.248 75.6564 36.7733 75.9124 36.4C76.1684 36.016 76.5257 35.7173 76.9844 35.504C77.4537 35.28 78.0084 35.1253 78.6484 35.04C79.299 34.944 80.0084 34.896 80.7764 34.896V34.208C80.7764 33.9627 80.739 33.744 80.6644 33.552C80.5897 33.36 80.451 33.2107 80.2484 33.104C80.0564 32.9867 79.763 32.928 79.3684 32.928C78.9737 32.928 78.6644 32.976 78.4404 33.072C78.2164 33.168 78.0617 33.2853 77.9764 33.424C77.891 33.5627 77.8484 33.7067 77.8484 33.856V34.08H75.9604C75.9497 34.0267 75.9444 33.9733 75.9444 33.92C75.9444 33.8667 75.9444 33.8027 75.9444 33.728C75.9444 33.248 76.0884 32.832 76.3764 32.48C76.6644 32.128 77.0644 31.8613 77.5764 31.68C78.0884 31.488 78.6804 31.392 79.3524 31.392C80.1204 31.392 80.7497 31.4987 81.2404 31.712C81.7417 31.9253 82.115 32.2293 82.3604 32.624C82.6057 33.0187 82.7284 33.4987 82.7284 34.064V38.032C82.7284 38.2347 82.787 38.3787 82.9044 38.464C83.0217 38.5493 83.1497 38.592 83.2884 38.592H83.8004V39.936C83.6937 39.9787 83.539 40.0267 83.3364 40.08C83.1337 40.144 82.883 40.176 82.5844 40.176C82.307 40.176 82.0564 40.128 81.8324 40.032C81.619 39.9467 81.4377 39.8187 81.2884 39.648C81.139 39.4773 81.0324 39.2747 80.9684 39.04H80.8724C80.691 39.264 80.4724 39.4667 80.2164 39.648C79.971 39.8187 79.6777 39.952 79.3364 40.048C79.0057 40.144 78.6217 40.192 78.1844 40.192ZM78.7764 38.592C79.0964 38.592 79.379 38.544 79.6244 38.448C79.8804 38.352 80.0884 38.2187 80.2484 38.048C80.419 37.8773 80.547 37.6693 80.6324 37.424C80.7284 37.1787 80.7764 36.912 80.7764 36.624V36.24C80.1897 36.24 79.6457 36.2773 79.1444 36.352C78.6537 36.4267 78.259 36.5653 77.9604 36.768C77.6724 36.9707 77.5284 37.2587 77.5284 37.632C77.5284 37.824 77.571 37.9947 77.6564 38.144C77.7524 38.2827 77.891 38.3947 78.0724 38.48C78.2644 38.5547 78.499 38.592 78.7764 38.592ZM87.843 40.192C87.1603 40.192 86.5683 40.0373 86.067 39.728C85.5657 39.4187 85.1763 38.9387 84.899 38.288C84.6323 37.6373 84.499 36.8 84.499 35.776C84.499 34.7627 84.6377 33.936 84.915 33.296C85.1923 32.6453 85.5763 32.1653 86.067 31.856C86.5577 31.5467 87.1123 31.392 87.731 31.392C88.115 31.392 88.467 31.4347 88.787 31.52C89.107 31.6053 89.3897 31.7387 89.635 31.92C89.8803 32.0907 90.0883 32.304 90.259 32.56H90.355V28.432H92.307V40H90.691L90.531 38.88H90.419C90.1523 39.3173 89.7897 39.648 89.331 39.872C88.883 40.0853 88.387 40.192 87.843 40.192ZM88.451 38.512C88.899 38.512 89.2617 38.4107 89.539 38.208C89.8163 38.0053 90.019 37.712 90.147 37.328C90.2857 36.944 90.355 36.4747 90.355 35.92V35.712C90.355 35.296 90.3177 34.9227 90.243 34.592C90.1683 34.2613 90.051 33.984 89.891 33.76C89.7417 33.536 89.5443 33.3653 89.299 33.248C89.0643 33.1307 88.7817 33.072 88.451 33.072C87.971 33.072 87.587 33.168 87.299 33.36C87.0217 33.5413 86.819 33.8293 86.691 34.224C86.5737 34.608 86.515 35.0987 86.515 35.696V35.92C86.515 36.5067 86.5737 36.992 86.691 37.376C86.819 37.76 87.0217 38.048 87.299 38.24C87.587 38.4213 87.971 38.512 88.451 38.512ZM94.3838 30.288V28.432H96.3358V30.288H94.3838ZM94.3838 40V31.584H96.3358V40H94.3838ZM98.415 40V31.584H100.047L100.207 32.704H100.319C100.511 32.448 100.735 32.224 100.991 32.032C101.258 31.8293 101.556 31.6747 101.887 31.568C102.228 31.4507 102.602 31.392 103.007 31.392C103.54 31.392 104.01 31.488 104.415 31.68C104.831 31.872 105.156 32.1813 105.391 32.608C105.626 33.0347 105.743 33.6053 105.743 34.32V40H103.775V34.672C103.775 34.3733 103.738 34.128 103.663 33.936C103.599 33.7333 103.498 33.5733 103.359 33.456C103.231 33.328 103.071 33.2373 102.879 33.184C102.687 33.1307 102.474 33.104 102.239 33.104C101.887 33.104 101.567 33.1893 101.279 33.36C101.002 33.5307 100.778 33.7653 100.607 34.064C100.447 34.3627 100.367 34.7093 100.367 35.104V40H98.415ZM109.151 42.912C108.777 42.912 108.425 42.8373 108.095 42.688C107.764 42.5387 107.497 42.3147 107.295 42.016C107.092 41.728 106.991 41.3707 106.991 40.944C106.991 40.4747 107.124 40.1067 107.391 39.84C107.668 39.5627 107.972 39.3547 108.303 39.216C108.057 39.088 107.855 38.9173 107.695 38.704C107.545 38.4907 107.471 38.2347 107.471 37.936C107.471 37.5307 107.62 37.2107 107.919 36.976C108.217 36.7307 108.559 36.5707 108.943 36.496C108.548 36.2507 108.244 35.936 108.031 35.552C107.828 35.168 107.727 34.7307 107.727 34.24C107.727 33.6533 107.865 33.152 108.143 32.736C108.431 32.3093 108.847 31.9787 109.391 31.744C109.935 31.5093 110.591 31.392 111.359 31.392C111.668 31.392 111.967 31.4133 112.255 31.456C112.543 31.4987 112.804 31.5627 113.039 31.648C113.412 31.424 113.668 31.1733 113.807 30.896C113.945 30.608 114.02 30.3733 114.031 30.192H115.935C115.935 30.5653 115.86 30.896 115.711 31.184C115.572 31.472 115.375 31.712 115.119 31.904C114.863 32.0853 114.553 32.2187 114.191 32.304C114.457 32.5387 114.66 32.8213 114.799 33.152C114.937 33.4827 115.007 33.8453 115.007 34.24C115.007 34.8267 114.868 35.3333 114.591 35.76C114.324 36.1867 113.924 36.5173 113.391 36.752C112.868 36.9867 112.223 37.104 111.455 37.104H110.159C109.935 37.104 109.759 37.152 109.631 37.248C109.513 37.344 109.455 37.4773 109.455 37.648C109.455 37.7867 109.508 37.9093 109.615 38.016C109.732 38.1227 109.892 38.176 110.095 38.176H113.775C114.404 38.176 114.921 38.384 115.327 38.8C115.743 39.2053 115.951 39.728 115.951 40.368C115.951 40.848 115.823 41.28 115.567 41.664C115.321 42.048 114.975 42.352 114.527 42.576C114.079 42.8 113.556 42.912 112.959 42.912H109.151ZM109.855 41.504H112.943C113.145 41.504 113.321 41.4667 113.471 41.392C113.631 41.328 113.753 41.232 113.839 41.104C113.935 40.976 113.983 40.832 113.983 40.672C113.983 40.3947 113.892 40.1867 113.711 40.048C113.54 39.9093 113.327 39.84 113.071 39.84H109.855C109.599 39.84 109.385 39.9147 109.215 40.064C109.044 40.224 108.959 40.4267 108.959 40.672C108.959 40.9173 109.039 41.1147 109.199 41.264C109.369 41.424 109.588 41.504 109.855 41.504ZM111.375 35.728C111.94 35.728 112.361 35.6 112.639 35.344C112.927 35.0773 113.071 34.7093 113.071 34.24C113.071 33.7707 112.927 33.408 112.639 33.152C112.361 32.896 111.94 32.768 111.375 32.768C110.809 32.768 110.383 32.896 110.095 33.152C109.817 33.408 109.679 33.7707 109.679 34.24C109.679 34.5493 109.737 34.816 109.855 35.04C109.983 35.264 110.169 35.4347 110.415 35.552C110.671 35.6693 110.991 35.728 111.375 35.728Z" fill="white"/>
<path opacity="0.5" d="M25.376 71V60.024H31.04C31.6693 60.024 32.2133 60.136 32.672 60.36C33.1307 60.5733 33.4827 60.8773 33.728 61.272C33.984 61.6667 34.112 62.136 34.112 62.68C34.112 63.096 34.0373 63.48 33.888 63.832C33.7387 64.184 33.5307 64.4773 33.264 64.712C32.9973 64.9467 32.6933 65.1227 32.352 65.24V65.304C32.736 65.3893 33.0827 65.544 33.392 65.768C33.7013 65.992 33.9467 66.2907 34.128 66.664C34.32 67.0267 34.416 67.4747 34.416 68.008C34.416 68.7227 34.2667 69.2987 33.968 69.736C33.6693 70.1733 33.2693 70.4933 32.768 70.696C32.2667 70.8987 31.6907 71 31.04 71H25.376ZM26.896 69.688H31.024C31.568 69.688 32.0107 69.5493 32.352 69.272C32.6933 68.984 32.864 68.5093 32.864 67.848C32.864 67.4427 32.7893 67.1067 32.64 66.84C32.4907 66.5627 32.272 66.36 31.984 66.232C31.696 66.0933 31.3333 66.024 30.896 66.024H26.896V69.688ZM26.896 64.728H30.752C31.1147 64.728 31.4293 64.6587 31.696 64.52C31.9627 64.3707 32.1707 64.168 32.32 63.912C32.48 63.6453 32.56 63.3467 32.56 63.016C32.56 62.44 32.4053 62.0187 32.096 61.752C31.7867 61.4747 31.376 61.336 30.864 61.336H26.896V64.728ZM38.8839 71.192C38.0732 71.192 37.4225 70.984 36.9319 70.568C36.4412 70.152 36.1959 69.4267 36.1959 68.392V62.584H37.6039V68.2C37.6039 68.552 37.6465 68.84 37.7319 69.064C37.8172 69.288 37.9399 69.464 38.0999 69.592C38.2599 69.72 38.4465 69.8107 38.6599 69.864C38.8839 69.9173 39.1239 69.944 39.3799 69.944C39.7852 69.944 40.1585 69.848 40.4999 69.656C40.8412 69.464 41.1185 69.1867 41.3319 68.824C41.5559 68.4507 41.6679 68.0187 41.6679 67.528V62.584H43.0759V71H41.9399L41.8119 69.736H41.6999C41.4759 70.0773 41.2199 70.3547 40.9319 70.568C40.6545 70.7813 40.3399 70.936 39.9879 71.032C39.6465 71.1387 39.2785 71.192 38.8839 71.192ZM45.9803 73.912C45.7243 73.912 45.5003 73.8907 45.3083 73.848C45.1269 73.816 45.0043 73.7947 44.9403 73.784V72.76H45.6443C45.9003 72.76 46.1509 72.7067 46.3963 72.6C46.6416 72.4933 46.8709 72.312 47.0843 72.056C47.2976 71.8 47.4789 71.448 47.6283 71L44.3643 62.584H45.8363L47.5163 66.92C47.5909 67.1227 47.6763 67.3733 47.7723 67.672C47.8789 67.96 47.9803 68.2587 48.0763 68.568C48.1829 68.8773 48.2683 69.1493 48.3323 69.384H48.4283C48.4709 69.2133 48.5243 69.0213 48.5883 68.808C48.6523 68.5947 48.7163 68.376 48.7803 68.152C48.8549 67.9173 48.9243 67.6987 48.9883 67.496C49.0629 67.2827 49.1216 67.096 49.1643 66.936L50.5883 62.584H52.0123L49.1643 70.76C49.0043 71.2187 48.8283 71.64 48.6363 72.024C48.4443 72.4187 48.2309 72.7547 47.9963 73.032C47.7616 73.3093 47.4789 73.5227 47.1483 73.672C46.8176 73.832 46.4283 73.912 45.9803 73.912ZM58.7785 71.192C58.4692 71.192 58.1598 71.1547 57.8505 71.08C57.5412 71.0053 57.2532 70.8827 56.9865 70.712C56.7198 70.5413 56.5065 70.3067 56.3465 70.008C56.1865 69.6987 56.1065 69.3147 56.1065 68.856C56.1065 68.28 56.2452 67.8053 56.5225 67.432C56.7998 67.0587 57.1838 66.7707 57.6745 66.568C58.1758 66.3547 58.7678 66.2107 59.4505 66.136C60.1332 66.0507 60.8745 66.008 61.6745 66.008V65.048C61.6745 64.7387 61.6212 64.472 61.5145 64.248C61.4078 64.024 61.2158 63.8533 60.9385 63.736C60.6718 63.608 60.2878 63.544 59.7865 63.544C59.3065 63.544 58.9225 63.608 58.6345 63.736C58.3572 63.8533 58.1598 64.008 58.0425 64.2C57.9358 64.392 57.8825 64.6053 57.8825 64.84V65.08H56.5225C56.5118 65.0267 56.5065 64.9733 56.5065 64.92C56.5065 64.8667 56.5065 64.8027 56.5065 64.728C56.5065 64.216 56.6452 63.7893 56.9225 63.448C57.2105 63.096 57.6105 62.8347 58.1225 62.664C58.6345 62.4827 59.2212 62.392 59.8825 62.392C60.5865 62.392 61.1732 62.4933 61.6425 62.696C62.1225 62.8987 62.4798 63.1867 62.7145 63.56C62.9598 63.9333 63.0825 64.3813 63.0825 64.904V69.464C63.0825 69.6667 63.1305 69.8107 63.2265 69.896C63.3225 69.9707 63.4398 70.008 63.5785 70.008H64.2025V70.936C64.0532 71 63.8878 71.0533 63.7065 71.096C63.5252 71.1493 63.3172 71.176 63.0825 71.176C62.8052 71.176 62.5758 71.1173 62.3945 71C62.2132 70.8933 62.0745 70.744 61.9785 70.552C61.8825 70.3493 61.8185 70.1253 61.7865 69.88H61.6745C61.4825 70.1467 61.2372 70.3813 60.9385 70.584C60.6505 70.776 60.3252 70.9253 59.9625 71.032C59.5998 71.1387 59.2052 71.192 58.7785 71.192ZM59.1305 70.008C59.4718 70.008 59.7918 69.9547 60.0905 69.848C60.3998 69.7413 60.6718 69.592 60.9065 69.4C61.1412 69.1973 61.3278 68.9573 61.4665 68.68C61.6052 68.4027 61.6745 68.0987 61.6745 67.768V67.064C60.8105 67.064 60.0745 67.112 59.4665 67.208C58.8585 67.304 58.3892 67.4747 58.0585 67.72C57.7385 67.9653 57.5785 68.312 57.5785 68.76C57.5785 69.048 57.6425 69.2827 57.7705 69.464C57.8985 69.6453 58.0798 69.784 58.3145 69.88C58.5492 69.9653 58.8212 70.008 59.1305 70.008ZM65.3853 71V62.584H66.5213L66.6493 63.848H66.7613C66.9853 63.5067 67.2359 63.2293 67.5133 63.016C67.8013 62.8027 68.1159 62.648 68.4573 62.552C68.8093 62.4453 69.1826 62.392 69.5773 62.392C70.1106 62.392 70.5746 62.4827 70.9693 62.664C71.3746 62.8453 71.6893 63.1387 71.9133 63.544C72.1479 63.9493 72.2653 64.4987 72.2653 65.192V71H70.8573V65.384C70.8573 65.032 70.8093 64.744 70.7133 64.52C70.6279 64.296 70.5053 64.12 70.3453 63.992C70.1959 63.864 70.0093 63.7733 69.7853 63.72C69.5719 63.6667 69.3319 63.64 69.0653 63.64C68.6706 63.64 68.2973 63.736 67.9453 63.928C67.5933 64.12 67.3106 64.3973 67.0973 64.76C66.8946 65.1227 66.7933 65.5547 66.7933 66.056V71H65.3853ZM77.2649 71.192C76.5715 71.192 75.9742 71.0373 75.4729 70.728C74.9822 70.4187 74.5982 69.9387 74.3209 69.288C74.0542 68.6267 73.9209 67.7733 73.9209 66.728C73.9209 65.736 74.0595 64.92 74.3369 64.28C74.6142 63.64 74.9982 63.1653 75.4889 62.856C75.9795 62.5467 76.5502 62.392 77.2009 62.392C77.5742 62.392 77.9209 62.4347 78.2409 62.52C78.5609 62.6053 78.8435 62.7387 79.0889 62.92C79.3449 63.1013 79.5689 63.3413 79.7609 63.64H79.8569V59.432H81.2649V71H80.1289L80.0009 69.8H79.8889C79.6009 70.2693 79.2275 70.6213 78.7689 70.856C78.3102 71.08 77.8089 71.192 77.2649 71.192ZM77.6009 69.96C78.1342 69.96 78.5662 69.8427 78.8969 69.608C79.2275 69.3733 79.4675 69.032 79.6169 68.584C79.7769 68.136 79.8569 67.5813 79.8569 66.92V66.664C79.8569 66.088 79.7982 65.6027 79.6809 65.208C79.5635 64.8133 79.4035 64.4987 79.2009 64.264C78.9982 64.0293 78.7635 63.864 78.4969 63.768C78.2302 63.672 77.9475 63.624 77.6489 63.624C77.1262 63.624 76.6995 63.7307 76.3689 63.944C76.0382 64.1467 75.7929 64.472 75.6329 64.92C75.4729 65.3573 75.3929 65.928 75.3929 66.632V66.968C75.3929 67.6933 75.4782 68.28 75.6489 68.728C75.8195 69.1653 76.0649 69.48 76.3849 69.672C76.7155 69.864 77.1209 69.96 77.6009 69.96ZM89.7668 71.192C89.1908 71.192 88.6841 71.1333 88.2468 71.016C87.8094 70.8987 87.4468 70.728 87.1588 70.504C86.8708 70.28 86.6521 70.0133 86.5028 69.704C86.3534 69.3947 86.2788 69.0427 86.2788 68.648C86.2788 68.5947 86.2788 68.5467 86.2788 68.504C86.2788 68.4507 86.2841 68.408 86.2948 68.376H87.6868C87.6761 68.4187 87.6708 68.456 87.6708 68.488C87.6708 68.52 87.6708 68.552 87.6708 68.584C87.6814 68.9573 87.7774 69.2507 87.9588 69.464C88.1508 69.6773 88.4121 69.8267 88.7428 69.912C89.0734 69.9973 89.4414 70.04 89.8468 70.04C90.1988 70.04 90.5241 69.9973 90.8228 69.912C91.1214 69.816 91.3561 69.6773 91.5268 69.496C91.7081 69.304 91.7988 69.064 91.7988 68.776C91.7988 68.424 91.6814 68.1573 91.4468 67.976C91.2228 67.784 90.9241 67.6347 90.5508 67.528C90.1774 67.4213 89.7881 67.3093 89.3828 67.192C89.0414 67.096 88.7001 66.9893 88.3588 66.872C88.0174 66.7547 87.7081 66.6107 87.4308 66.44C87.1641 66.2693 86.9454 66.0507 86.7747 65.784C86.6148 65.5067 86.5348 65.16 86.5348 64.744C86.5348 64.3707 86.6094 64.04 86.7588 63.752C86.9188 63.464 87.1428 63.2187 87.4308 63.016C87.7188 62.8133 88.0654 62.664 88.4708 62.568C88.8868 62.4613 89.3454 62.408 89.8468 62.408C90.3801 62.408 90.8441 62.4667 91.2388 62.584C91.6441 62.7013 91.9801 62.8667 92.2468 63.08C92.5134 63.2933 92.7108 63.5387 92.8388 63.816C92.9668 64.0827 93.0308 64.3707 93.0308 64.68C93.0308 64.744 93.0308 64.808 93.0308 64.872C93.0308 64.9253 93.0254 64.968 93.0148 65H91.6388V64.824C91.6388 64.6107 91.5801 64.408 91.4628 64.216C91.3561 64.0133 91.1641 63.8533 90.8868 63.736C90.6201 63.608 90.2468 63.544 89.7668 63.544C89.4574 63.544 89.1908 63.5707 88.9668 63.624C88.7428 63.6667 88.5561 63.7413 88.4068 63.848C88.2574 63.944 88.1454 64.0613 88.0707 64.2C87.9961 64.328 87.9588 64.4773 87.9588 64.648C87.9588 64.9253 88.0494 65.1387 88.2308 65.288C88.4121 65.4373 88.6521 65.56 88.9508 65.656C89.2601 65.752 89.5908 65.8587 89.9427 65.976C90.3161 66.0827 90.6948 66.1947 91.0788 66.312C91.4734 66.4187 91.8308 66.5573 92.1508 66.728C92.4814 66.8987 92.7428 67.1333 92.9348 67.432C93.1374 67.72 93.2388 68.104 93.2388 68.584C93.2388 69.032 93.1534 69.4213 92.9828 69.752C92.8121 70.0827 92.5668 70.3547 92.2468 70.568C91.9374 70.7813 91.5694 70.936 91.1428 71.032C90.7268 71.1387 90.2681 71.192 89.7668 71.192ZM98.339 71.192C97.507 71.192 96.803 71.0373 96.227 70.728C95.6617 70.408 95.2297 69.9227 94.931 69.272C94.643 68.6213 94.499 67.7947 94.499 66.792C94.499 65.7787 94.643 64.952 94.931 64.312C95.2297 63.6613 95.667 63.1813 96.243 62.872C96.819 62.552 97.539 62.392 98.403 62.392C99.1923 62.392 99.8537 62.5467 100.387 62.856C100.92 63.1547 101.32 63.608 101.587 64.216C101.864 64.8133 102.003 65.5653 102.003 66.472V67.144H95.955C95.9763 67.816 96.0723 68.3707 96.243 68.808C96.4243 69.2347 96.691 69.5493 97.043 69.752C97.395 69.944 97.8377 70.04 98.371 70.04C98.7337 70.04 99.0483 69.9973 99.315 69.912C99.5923 69.816 99.8217 69.6827 100.003 69.512C100.195 69.3413 100.339 69.1387 100.435 68.904C100.531 68.6693 100.584 68.4133 100.595 68.136H101.971C101.96 68.584 101.875 69 101.715 69.384C101.555 69.7573 101.32 70.0773 101.011 70.344C100.702 70.6107 100.323 70.8187 99.875 70.968C99.427 71.1173 98.915 71.192 98.339 71.192ZM95.987 66.088H100.547C100.547 65.6187 100.494 65.224 100.387 64.904C100.28 64.584 100.126 64.3227 99.923 64.12C99.731 63.9173 99.5017 63.7733 99.235 63.688C98.979 63.592 98.6857 63.544 98.355 63.544C97.8643 63.544 97.4483 63.6347 97.107 63.816C96.7657 63.9973 96.5043 64.2747 96.323 64.648C96.1417 65.0213 96.0297 65.5013 95.987 66.088ZM103.745 71V59.432H105.153V71H103.745ZM107.338 71V59.432H108.746V71H107.338ZM115.892 71L113.348 62.584H114.804L116.084 67.208C116.148 67.432 116.207 67.6773 116.26 67.944C116.324 68.2 116.383 68.44 116.436 68.664C116.5 68.8773 116.543 69.0427 116.564 69.16H116.66C116.703 68.9573 116.751 68.728 116.804 68.472C116.868 68.216 116.921 67.9707 116.964 67.736C117.017 67.5013 117.06 67.32 117.092 67.192L118.244 62.584H119.764L120.932 67.192C120.975 67.3733 121.023 67.5867 121.076 67.832C121.129 68.0667 121.183 68.3013 121.236 68.536C121.3 68.7707 121.343 68.9787 121.364 69.16H121.46C121.503 68.9893 121.551 68.792 121.604 68.568C121.657 68.3333 121.716 68.0987 121.78 67.864C121.844 67.6187 121.903 67.4053 121.956 67.224L123.22 62.584H124.564L122.036 71H120.596L119.508 66.648C119.465 66.4453 119.412 66.2107 119.348 65.944C119.284 65.6667 119.22 65.3893 119.156 65.112C119.103 64.824 119.055 64.5733 119.012 64.36H118.916C118.895 64.52 118.857 64.7227 118.804 64.968C118.761 65.2133 118.708 65.4853 118.644 65.784C118.58 66.072 118.505 66.36 118.42 66.648L117.332 71H115.892ZM125.838 61V59.432H127.246V61H125.838ZM125.838 71V62.584H127.246V71H125.838ZM131.4 71.192C130.963 71.192 130.621 71.112 130.376 70.952C130.131 70.7813 129.955 70.5627 129.848 70.296C129.741 70.0187 129.688 69.7253 129.688 69.416V63.768H128.6V62.584H129.72L129.976 60.232H131.096V62.584H132.68V63.768H131.096V69.208C131.096 69.4747 131.144 69.6773 131.24 69.816C131.336 69.944 131.517 70.008 131.784 70.008H132.68V70.936C132.573 70.9893 132.445 71.032 132.296 71.064C132.147 71.096 131.992 71.1227 131.832 71.144C131.683 71.176 131.539 71.192 131.4 71.192ZM134.182 71V59.432H135.59V63.64H135.702C135.915 63.352 136.155 63.1173 136.422 62.936C136.689 62.7547 136.982 62.6213 137.302 62.536C137.633 62.44 137.99 62.392 138.374 62.392C138.907 62.392 139.371 62.4827 139.766 62.664C140.171 62.8453 140.486 63.1387 140.71 63.544C140.945 63.9493 141.062 64.4987 141.062 65.192V71H139.654V65.384C139.654 65.032 139.606 64.744 139.51 64.52C139.425 64.296 139.302 64.12 139.142 63.992C138.993 63.864 138.806 63.7733 138.582 63.72C138.369 63.6667 138.129 63.64 137.862 63.64C137.467 63.64 137.094 63.736 136.742 63.928C136.39 64.1093 136.107 64.3813 135.894 64.744C135.691 65.096 135.59 65.5333 135.59 66.056V71H134.182ZM28.304 94.192C27.4933 94.192 26.8107 94.0373 26.256 93.728C25.712 93.408 25.296 92.9227 25.008 92.272C24.7307 91.6107 24.592 90.784 24.592 89.792C24.592 88.8 24.7307 87.9787 25.008 87.328C25.296 86.6773 25.7173 86.192 26.272 85.872C26.8373 85.552 27.5307 85.392 28.352 85.392C28.928 85.392 29.424 85.4667 29.84 85.616C30.2667 85.7653 30.6187 85.984 30.896 86.272C31.1733 86.56 31.376 86.9067 31.504 87.312C31.6427 87.7173 31.712 88.1813 31.712 88.704H30.288C30.288 88.2133 30.2187 87.8133 30.08 87.504C29.952 87.184 29.744 86.9493 29.456 86.8C29.168 86.64 28.7893 86.56 28.32 86.56C27.8507 86.56 27.4453 86.6667 27.104 86.88C26.7627 87.0827 26.5013 87.408 26.32 87.856C26.1387 88.304 26.048 88.896 26.048 89.632V89.968C26.048 90.6613 26.1333 91.2373 26.304 91.696C26.4853 92.1547 26.7467 92.4907 27.088 92.704C27.4293 92.9173 27.8453 93.024 28.336 93.024C28.816 93.024 29.2 92.9387 29.488 92.768C29.7867 92.5973 30 92.352 30.128 92.032C30.2667 91.712 30.336 91.328 30.336 90.88H31.712C31.712 91.3493 31.6427 91.7867 31.504 92.192C31.376 92.5973 31.1733 92.9493 30.896 93.248C30.6187 93.5467 30.2667 93.7813 29.84 93.952C29.4133 94.112 28.9013 94.192 28.304 94.192ZM36.8569 94.192C36.0035 94.192 35.2835 94.0373 34.6969 93.728C34.1209 93.408 33.6782 92.9227 33.3689 92.272C33.0702 91.6213 32.9209 90.7947 32.9209 89.792C32.9209 88.7787 33.0702 87.952 33.3689 87.312C33.6782 86.6613 34.1209 86.1813 34.6969 85.872C35.2835 85.552 36.0035 85.392 36.8569 85.392C37.7102 85.392 38.4249 85.552 39.0009 85.872C39.5875 86.1813 40.0302 86.6613 40.3289 87.312C40.6275 87.952 40.7769 88.7787 40.7769 89.792C40.7769 90.7947 40.6275 91.6213 40.3289 92.272C40.0302 92.9227 39.5875 93.408 39.0009 93.728C38.4249 94.0373 37.7102 94.192 36.8569 94.192ZM36.8569 93.008C37.4009 93.008 37.8542 92.9013 38.2169 92.688C38.5795 92.4747 38.8515 92.144 39.0329 91.696C39.2249 91.2373 39.3209 90.6613 39.3209 89.968V89.616C39.3209 88.912 39.2249 88.336 39.0329 87.888C38.8515 87.44 38.5795 87.1093 38.2169 86.896C37.8542 86.6827 37.4009 86.576 36.8569 86.576C36.3129 86.576 35.8542 86.6827 35.4809 86.896C35.1182 87.1093 34.8462 87.44 34.6649 87.888C34.4835 88.336 34.3929 88.912 34.3929 89.616V89.968C34.3929 90.6613 34.4835 91.2373 34.6649 91.696C34.8462 92.144 35.1182 92.4747 35.4809 92.688C35.8542 92.9013 36.3129 93.008 36.8569 93.008ZM42.5259 94V85.584H43.6619L43.7899 86.848H43.9019C44.1259 86.5067 44.3765 86.2293 44.6539 86.016C44.9419 85.8027 45.2565 85.648 45.5979 85.552C45.9499 85.4453 46.3232 85.392 46.7179 85.392C47.2512 85.392 47.7152 85.4827 48.1099 85.664C48.5152 85.8453 48.8299 86.1387 49.0539 86.544C49.2885 86.9493 49.4059 87.4987 49.4059 88.192V94H47.9979V88.384C47.9979 88.032 47.9499 87.744 47.8539 87.52C47.7685 87.296 47.6459 87.12 47.4859 86.992C47.3365 86.864 47.1499 86.7733 46.9259 86.72C46.7125 86.6667 46.4725 86.64 46.2059 86.64C45.8112 86.64 45.4379 86.736 45.0859 86.928C44.7339 87.12 44.4512 87.3973 44.2379 87.76C44.0352 88.1227 43.9339 88.5547 43.9339 89.056V94H42.5259ZM51.8775 94V86.768H50.6295V85.584H51.8775V84.24C51.8775 83.9093 51.9255 83.6 52.0215 83.312C52.1175 83.0133 52.2988 82.7733 52.5655 82.592C52.8322 82.4 53.2055 82.304 53.6855 82.304C53.8348 82.304 53.9788 82.3147 54.1175 82.336C54.2668 82.3467 54.4055 82.368 54.5335 82.4C54.6722 82.4213 54.7948 82.448 54.9015 82.48V83.488H54.0535C53.7868 83.488 53.5895 83.5573 53.4615 83.696C53.3442 83.824 53.2855 84.0107 53.2855 84.256V85.584H54.9015V86.768H53.2855V94H51.8775ZM56.0215 84V82.432H57.4295V84H56.0215ZM56.0215 94V85.584H57.4295V94H56.0215ZM62.4993 94.192C61.8059 94.192 61.2086 94.0373 60.7073 93.728C60.2166 93.4187 59.8326 92.9387 59.5553 92.288C59.2886 91.6267 59.1553 90.7733 59.1553 89.728C59.1553 88.736 59.2939 87.92 59.5713 87.28C59.8486 86.64 60.2326 86.1653 60.7233 85.856C61.2139 85.5467 61.7846 85.392 62.4353 85.392C62.8086 85.392 63.1553 85.4347 63.4753 85.52C63.7953 85.6053 64.0779 85.7387 64.3233 85.92C64.5793 86.1013 64.8033 86.3413 64.9953 86.64H65.0913V82.432H66.4993V94H65.3633L65.2353 92.8H65.1233C64.8353 93.2693 64.4619 93.6213 64.0033 93.856C63.5446 94.08 63.0433 94.192 62.4993 94.192ZM62.8353 92.96C63.3686 92.96 63.8006 92.8427 64.1313 92.608C64.4619 92.3733 64.7019 92.032 64.8513 91.584C65.0113 91.136 65.0913 90.5813 65.0913 89.92V89.664C65.0913 89.088 65.0326 88.6027 64.9153 88.208C64.7979 87.8133 64.6379 87.4987 64.4353 87.264C64.2326 87.0293 63.9979 86.864 63.7313 86.768C63.4646 86.672 63.1819 86.624 62.8833 86.624C62.3606 86.624 61.9339 86.7307 61.6033 86.944C61.2726 87.1467 61.0273 87.472 60.8673 87.92C60.7073 88.3573 60.6273 88.928 60.6273 89.632V89.968C60.6273 90.6933 60.7126 91.28 60.8832 91.728C61.0539 92.1653 61.2993 92.48 61.6193 92.672C61.9499 92.864 62.3553 92.96 62.8353 92.96ZM72.0734 94.192C71.2414 94.192 70.5374 94.0373 69.9614 93.728C69.396 93.408 68.964 92.9227 68.6654 92.272C68.3774 91.6213 68.2334 90.7947 68.2334 89.792C68.2334 88.7787 68.3774 87.952 68.6654 87.312C68.964 86.6613 69.4014 86.1813 69.9774 85.872C70.5534 85.552 71.2734 85.392 72.1374 85.392C72.9267 85.392 73.588 85.5467 74.1214 85.856C74.6547 86.1547 75.0547 86.608 75.3214 87.216C75.5987 87.8133 75.7374 88.5653 75.7374 89.472V90.144H69.6894C69.7107 90.816 69.8067 91.3707 69.9774 91.808C70.1587 92.2347 70.4254 92.5493 70.7774 92.752C71.1294 92.944 71.572 93.04 72.1054 93.04C72.468 93.04 72.7827 92.9973 73.0494 92.912C73.3267 92.816 73.556 92.6827 73.7374 92.512C73.9294 92.3413 74.0734 92.1387 74.1694 91.904C74.2654 91.6693 74.3187 91.4133 74.3294 91.136H75.7054C75.6947 91.584 75.6094 92 75.4494 92.384C75.2894 92.7573 75.0547 93.0773 74.7454 93.344C74.436 93.6107 74.0574 93.8187 73.6094 93.968C73.1614 94.1173 72.6494 94.192 72.0734 94.192ZM69.7214 89.088H74.2814C74.2814 88.6187 74.228 88.224 74.1214 87.904C74.0147 87.584 73.86 87.3227 73.6574 87.12C73.4654 86.9173 73.236 86.7733 72.9694 86.688C72.7134 86.592 72.42 86.544 72.0894 86.544C71.5987 86.544 71.1827 86.6347 70.8414 86.816C70.5 86.9973 70.2387 87.2747 70.0574 87.648C69.876 88.0213 69.764 88.5013 69.7214 89.088ZM77.479 94V85.584H78.615L78.743 86.848H78.855C79.079 86.5067 79.3297 86.2293 79.607 86.016C79.895 85.8027 80.2097 85.648 80.551 85.552C80.903 85.4453 81.2763 85.392 81.671 85.392C82.2043 85.392 82.6683 85.4827 83.063 85.664C83.4683 85.8453 83.783 86.1387 84.007 86.544C84.2417 86.9493 84.359 87.4987 84.359 88.192V94H82.951V88.384C82.951 88.032 82.903 87.744 82.807 87.52C82.7217 87.296 82.599 87.12 82.439 86.992C82.2897 86.864 82.103 86.7733 81.879 86.72C81.6657 86.6667 81.4257 86.64 81.159 86.64C80.7643 86.64 80.391 86.736 80.039 86.928C79.687 87.12 79.4043 87.3973 79.191 87.76C78.9883 88.1227 78.887 88.5547 78.887 89.056V94H77.479ZM89.6946 94.192C88.884 94.192 88.2013 94.0373 87.6466 93.728C87.1026 93.408 86.6866 92.9227 86.3986 92.272C86.1213 91.6107 85.9826 90.784 85.9826 89.792C85.9826 88.8 86.1213 87.9787 86.3986 87.328C86.6866 86.6773 87.108 86.192 87.6626 85.872C88.228 85.552 88.9213 85.392 89.7426 85.392C90.3186 85.392 90.8146 85.4667 91.2306 85.616C91.6573 85.7653 92.0093 85.984 92.2866 86.272C92.564 86.56 92.7666 86.9067 92.8946 87.312C93.0333 87.7173 93.1026 88.1813 93.1026 88.704H91.6786C91.6786 88.2133 91.6093 87.8133 91.4706 87.504C91.3426 87.184 91.1346 86.9493 90.8466 86.8C90.5586 86.64 90.18 86.56 89.7106 86.56C89.2413 86.56 88.836 86.6667 88.4946 86.88C88.1533 87.0827 87.892 87.408 87.7106 87.856C87.5293 88.304 87.4386 88.896 87.4386 89.632V89.968C87.4386 90.6613 87.524 91.2373 87.6946 91.696C87.876 92.1547 88.1373 92.4907 88.4786 92.704C88.82 92.9173 89.236 93.024 89.7266 93.024C90.2066 93.024 90.5906 92.9387 90.8786 92.768C91.1773 92.5973 91.3906 92.352 91.5186 92.032C91.6573 91.712 91.7266 91.328 91.7266 90.88H93.1026C93.1026 91.3493 93.0333 91.7867 92.8946 92.192C92.7666 92.5973 92.564 92.9493 92.2866 93.248C92.0093 93.5467 91.6573 93.7813 91.2306 93.952C90.804 94.112 90.292 94.192 89.6946 94.192ZM98.1515 94.192C97.3195 94.192 96.6155 94.0373 96.0395 93.728C95.4742 93.408 95.0422 92.9227 94.7435 92.272C94.4555 91.6213 94.3115 90.7947 94.3115 89.792C94.3115 88.7787 94.4555 87.952 94.7435 87.312C95.0422 86.6613 95.4795 86.1813 96.0555 85.872C96.6315 85.552 97.3515 85.392 98.2155 85.392C99.0048 85.392 99.6662 85.5467 100.2 85.856C100.733 86.1547 101.133 86.608 101.4 87.216C101.677 87.8133 101.816 88.5653 101.816 89.472V90.144H95.7675C95.7888 90.816 95.8848 91.3707 96.0555 91.808C96.2368 92.2347 96.5035 92.5493 96.8555 92.752C97.2075 92.944 97.6502 93.04 98.1835 93.04C98.5462 93.04 98.8608 92.9973 99.1275 92.912C99.4048 92.816 99.6342 92.6827 99.8155 92.512C100.008 92.3413 100.152 92.1387 100.248 91.904C100.344 91.6693 100.397 91.4133 100.408 91.136H101.784C101.773 91.584 101.688 92 101.528 92.384C101.368 92.7573 101.133 93.0773 100.824 93.344C100.514 93.6107 100.136 93.8187 99.6875 93.968C99.2395 94.1173 98.7275 94.192 98.1515 94.192ZM95.7995 89.088H100.36C100.36 88.6187 100.306 88.224 100.2 87.904C100.093 87.584 99.9382 87.3227 99.7355 87.12C99.5435 86.9173 99.3142 86.7733 99.0475 86.688C98.7915 86.592 98.4982 86.544 98.1675 86.544C97.6768 86.544 97.2608 86.6347 96.9195 86.816C96.5782 86.9973 96.3168 87.2747 96.1355 87.648C95.9542 88.0213 95.8422 88.5013 95.7995 89.088ZM103.877 94V92.32H105.445V94H103.877Z" fill="white"/>
<path d="M154.377 141.634L190.882 94.0188L196.771 86.3378L197.139 85.8568L197.324 85.622L197.565 85.8064L198.525 86.5422L200.445 88.014L204.286 90.959L217.872 101.375L217.481 101.075L217.322 100.953L217.531 101.113L218.362 101.75L220.024 103.024L221.686 104.298C221.751 104.326 221.831 104.461 221.887 104.401L222.046 104.193L222.364 103.778L223.001 102.947L228.098 96.2993L244.157 75.3522L253.994 62.5198L259.771 54.9848L262.658 51.2184L264.102 49.3352L264.463 48.8649C264.523 48.7933 264.581 48.693 264.646 48.6439L264.882 48.825L265.825 49.5477L294.61 71.6153L301.709 77.0577L303.456 78.3977L303.895 78.7335C303.931 78.7596 303.968 78.7951 304.003 78.8117L304.087 78.7022L304.255 78.4832L304.925 77.6092L307.605 74.1134L322.075 55.2385L312.96 48.2503L329.496 46.0641L339.621 44.7266L340.958 54.8516L343.143 71.3876L334.027 64.3994L315.119 89.0635L308.926 97.1418L307.378 99.1603L306.991 99.6649L306.799 99.918C306.719 99.8785 306.632 99.7953 306.547 99.737L305.538 98.9633L301.499 95.8668L285.452 83.5646L267.945 70.143L267.537 69.8302L267.436 69.7528C267.408 69.7739 267.383 69.8177 267.356 69.8483L267.2 70.0523L266.574 70.8683L265.325 72.4981L262.826 75.7577L256.112 84.5145L239.067 106.748L227.289 122.112L225.817 124.032L225.081 124.991L224.712 125.471C224.585 125.607 224.402 125.297 224.25 125.232L220.409 122.287L211.553 115.498L203.129 109.04L201.467 107.766L200.636 107.129L200.22 106.812L200.117 106.733L200.038 106.834L199.878 107.042L197.33 110.366L166.335 150.796L154.377 141.634Z" fill="#DCD0FF"/>
</g>
<defs>
<clipPath id="clip0_664_4414">
<rect width="340" height="124" rx="10" fill="white"/>
</clipPath>
</defs>
</svg>
