<svg width="340" height="124" viewBox="0 0 340 124" fill="none" xmlns="http://www.w3.org/2000/svg">
<g clip-path="url(#clip0_664_4463)">
<rect width="340" height="124" rx="10" fill="#181818"/>
<path d="M25.216 40V29.024H33.776V30.8H27.296V33.504H33.072V35.28H27.296V38.224H33.872V40H25.216ZM37.95 40.192C37.7153 40.192 37.4433 40.16 37.134 40.096C36.8353 40.0427 36.542 39.936 36.254 39.776C35.9767 39.616 35.7473 39.3813 35.566 39.072C35.3847 38.752 35.294 38.336 35.294 37.824C35.294 37.248 35.422 36.7733 35.678 36.4C35.934 36.016 36.2913 35.7173 36.75 35.504C37.2193 35.28 37.774 35.1253 38.414 35.04C39.0647 34.944 39.774 34.896 40.542 34.896V34.208C40.542 33.9627 40.5047 33.744 40.43 33.552C40.3553 33.36 40.2167 33.2107 40.014 33.104C39.822 32.9867 39.5287 32.928 39.134 32.928C38.7393 32.928 38.43 32.976 38.206 33.072C37.982 33.168 37.8273 33.2853 37.742 33.424C37.6567 33.5627 37.614 33.7067 37.614 33.856V34.08H35.726C35.7153 34.0267 35.71 33.9733 35.71 33.92C35.71 33.8667 35.71 33.8027 35.71 33.728C35.71 33.248 35.854 32.832 36.142 32.48C36.43 32.128 36.83 31.8613 37.342 31.68C37.854 31.488 38.446 31.392 39.118 31.392C39.886 31.392 40.5153 31.4987 41.006 31.712C41.5073 31.9253 41.8807 32.2293 42.126 32.624C42.3713 33.0187 42.494 33.4987 42.494 34.064V38.032C42.494 38.2347 42.5527 38.3787 42.67 38.464C42.7873 38.5493 42.9153 38.592 43.054 38.592H43.566V39.936C43.4593 39.9787 43.3047 40.0267 43.102 40.08C42.8993 40.144 42.6487 40.176 42.35 40.176C42.0727 40.176 41.822 40.128 41.598 40.032C41.3847 39.9467 41.2033 39.8187 41.054 39.648C40.9047 39.4773 40.798 39.2747 40.734 39.04H40.638C40.4567 39.264 40.238 39.4667 39.982 39.648C39.7367 39.8187 39.4433 39.952 39.102 40.048C38.7713 40.144 38.3873 40.192 37.95 40.192ZM38.542 38.592C38.862 38.592 39.1447 38.544 39.39 38.448C39.646 38.352 39.854 38.2187 40.014 38.048C40.1847 37.8773 40.3127 37.6693 40.398 37.424C40.494 37.1787 40.542 36.912 40.542 36.624V36.24C39.9553 36.24 39.4113 36.2773 38.91 36.352C38.4193 36.4267 38.0247 36.5653 37.726 36.768C37.438 36.9707 37.294 37.2587 37.294 37.632C37.294 37.824 37.3367 37.9947 37.422 38.144C37.518 38.2827 37.6567 38.3947 37.838 38.48C38.03 38.5547 38.2647 38.592 38.542 38.592ZM47.9606 40.192C47.3526 40.192 46.8193 40.128 46.3606 40C45.902 39.8613 45.518 39.6747 45.2086 39.44C44.8993 39.2053 44.6646 38.9333 44.5046 38.624C44.3553 38.304 44.2806 37.9573 44.2806 37.584C44.2806 37.5307 44.2806 37.4827 44.2806 37.44C44.2913 37.3973 44.2966 37.3653 44.2966 37.344H46.2166C46.2166 37.3653 46.2166 37.3867 46.2166 37.408C46.2166 37.4293 46.2166 37.4507 46.2166 37.472C46.2273 37.76 46.318 37.9947 46.4886 38.176C46.6593 38.3467 46.8833 38.4693 47.1606 38.544C47.438 38.6187 47.7313 38.656 48.0406 38.656C48.318 38.656 48.5793 38.6293 48.8246 38.576C49.0806 38.512 49.2886 38.416 49.4486 38.288C49.6193 38.1493 49.7046 37.9733 49.7046 37.76C49.7046 37.4827 49.598 37.2693 49.3846 37.12C49.1713 36.9707 48.8886 36.848 48.5366 36.752C48.1953 36.656 47.8273 36.5547 47.4326 36.448C47.0806 36.352 46.7286 36.2453 46.3766 36.128C46.0246 36.0107 45.7046 35.8613 45.4166 35.68C45.1393 35.4987 44.91 35.264 44.7286 34.976C44.558 34.688 44.4726 34.3307 44.4726 33.904C44.4726 33.488 44.5633 33.1253 44.7446 32.816C44.926 32.5067 45.1766 32.2507 45.4966 32.048C45.8166 31.8347 46.1953 31.6747 46.6326 31.568C47.07 31.4613 47.5446 31.408 48.0566 31.408C48.558 31.408 49.0113 31.4613 49.4166 31.568C49.8326 31.6747 50.19 31.8293 50.4886 32.032C50.798 32.224 51.0326 32.464 51.1926 32.752C51.3633 33.0293 51.4486 33.3387 51.4486 33.68C51.4486 33.7547 51.4433 33.8293 51.4326 33.904C51.4326 33.9787 51.4326 34.0213 51.4326 34.032H49.5286V33.92C49.5286 33.7173 49.4646 33.5467 49.3366 33.408C49.2193 33.2587 49.0433 33.1413 48.8086 33.056C48.5846 32.9707 48.302 32.928 47.9606 32.928C47.7046 32.928 47.4806 32.9493 47.2886 32.992C47.0966 33.0347 46.9366 33.0933 46.8086 33.168C46.6913 33.2427 46.6006 33.328 46.5366 33.424C46.4726 33.52 46.4406 33.6267 46.4406 33.744C46.4406 33.9467 46.5206 34.1067 46.6806 34.224C46.8406 34.3413 47.054 34.4427 47.3206 34.528C47.598 34.6133 47.8966 34.704 48.2166 34.8C48.6006 34.9067 48.9953 35.0187 49.4006 35.136C49.806 35.2427 50.1793 35.3813 50.5206 35.552C50.8726 35.7227 51.1553 35.9627 51.3686 36.272C51.582 36.5813 51.6886 36.992 51.6886 37.504C51.6886 37.9947 51.5926 38.416 51.4006 38.768C51.2193 39.1093 50.958 39.3867 50.6166 39.6C50.286 39.8027 49.8913 39.952 49.4326 40.048C48.9846 40.144 48.494 40.192 47.9606 40.192ZM54.4569 42.912C54.0622 42.912 53.7422 42.88 53.4969 42.816C53.2515 42.7627 53.1129 42.7307 53.0809 42.72V41.328H53.9769C54.2009 41.328 54.4249 41.2693 54.6489 41.152C54.8729 41.0347 55.0755 40.8747 55.2569 40.672C55.4382 40.4693 55.5715 40.2453 55.6569 40L52.3769 31.584H54.4249L55.9929 35.616C56.0675 35.7973 56.1422 36.0267 56.2169 36.304C56.3022 36.5813 56.3875 36.8693 56.4729 37.168C56.5582 37.456 56.6275 37.7173 56.6809 37.952H56.7609C56.8035 37.792 56.8515 37.6107 56.9049 37.408C56.9582 37.2053 57.0115 36.9973 57.0649 36.784C57.1289 36.5707 57.1929 36.3627 57.2569 36.16C57.3209 35.9573 57.3742 35.7813 57.4169 35.632L58.6969 31.584H60.6809L57.8649 39.568C57.7049 40.016 57.5235 40.4427 57.3209 40.848C57.1289 41.2533 56.8995 41.6107 56.6329 41.92C56.3769 42.2293 56.0675 42.4693 55.7049 42.64C55.3529 42.8213 54.9369 42.912 54.4569 42.912ZM70.0168 40.192C68.8968 40.192 67.9368 39.9947 67.1368 39.6C66.3474 39.2053 65.7394 38.592 65.3128 37.76C64.8968 36.9173 64.6888 35.8347 64.6888 34.512C64.6888 32.5813 65.1581 31.152 66.0968 30.224C67.0354 29.296 68.3421 28.832 70.0168 28.832C70.9234 28.832 71.7394 28.9867 72.4648 29.296C73.2008 29.6053 73.7821 30.0747 74.2088 30.704C74.6461 31.3227 74.8648 32.112 74.8648 33.072H72.7368C72.7368 32.5387 72.6194 32.0907 72.3848 31.728C72.1608 31.3547 71.8461 31.072 71.4408 30.88C71.0354 30.688 70.5714 30.592 70.0488 30.592C69.3234 30.592 68.7208 30.736 68.2408 31.024C67.7608 31.3013 67.4034 31.7173 67.1688 32.272C66.9448 32.8267 66.8328 33.5147 66.8328 34.336V34.688C66.8328 35.52 66.9448 36.2133 67.1688 36.768C67.4034 37.3227 67.7554 37.7387 68.2248 38.016C68.7048 38.2933 69.3128 38.432 70.0488 38.432C70.6034 38.432 71.0888 38.3413 71.5048 38.16C71.9208 37.968 72.2408 37.6907 72.4648 37.328C72.6994 36.9547 72.8168 36.5013 72.8168 35.968H74.8648C74.8648 36.928 74.6514 37.7227 74.2248 38.352C73.7981 38.9707 73.2168 39.4347 72.4808 39.744C71.7554 40.0427 70.9341 40.192 70.0168 40.192ZM80.284 40.192C79.3667 40.192 78.5987 40.0373 77.98 39.728C77.3613 39.408 76.8973 38.9227 76.588 38.272C76.2787 37.6213 76.124 36.7947 76.124 35.792C76.124 34.7787 76.2787 33.952 76.588 33.312C76.8973 32.6613 77.3613 32.1813 77.98 31.872C78.5987 31.552 79.3667 31.392 80.284 31.392C81.212 31.392 81.98 31.552 82.588 31.872C83.2067 32.1813 83.6707 32.6613 83.98 33.312C84.2893 33.952 84.444 34.7787 84.444 35.792C84.444 36.7947 84.2893 37.6213 83.98 38.272C83.6707 38.9227 83.2067 39.408 82.588 39.728C81.98 40.0373 81.212 40.192 80.284 40.192ZM80.284 38.592C80.796 38.592 81.2067 38.496 81.516 38.304C81.836 38.1013 82.0653 37.8027 82.204 37.408C82.3533 37.0027 82.428 36.5013 82.428 35.904V35.68C82.428 35.0827 82.3533 34.5867 82.204 34.192C82.0653 33.7867 81.836 33.488 81.516 33.296C81.2067 33.0933 80.796 32.992 80.284 32.992C79.772 32.992 79.356 33.0933 79.036 33.296C78.7267 33.488 78.4973 33.7867 78.348 34.192C78.2093 34.5867 78.14 35.0827 78.14 35.68V35.904C78.14 36.5013 78.2093 37.0027 78.348 37.408C78.4973 37.8027 78.7267 38.1013 79.036 38.304C79.356 38.496 79.772 38.592 80.284 38.592ZM86.1025 40V31.584H87.7345L87.8945 32.704H88.0065C88.1878 32.448 88.3958 32.224 88.6305 32.032C88.8652 31.8293 89.1318 31.6747 89.4305 31.568C89.7398 31.4507 90.0758 31.392 90.4385 31.392C90.9292 31.392 91.3665 31.4933 91.7505 31.696C92.1345 31.8987 92.4332 32.2347 92.6465 32.704H92.7585C92.9398 32.448 93.1532 32.224 93.3985 32.032C93.6438 31.8293 93.9265 31.6747 94.2465 31.568C94.5665 31.4507 94.9132 31.392 95.2865 31.392C95.7878 31.392 96.2305 31.4827 96.6145 31.664C96.9985 31.8453 97.3025 32.144 97.5265 32.56C97.7505 32.976 97.8625 33.5307 97.8625 34.224V40H95.9105V34.624C95.9105 34.336 95.8785 34.096 95.8145 33.904C95.7505 33.7013 95.6598 33.5467 95.5425 33.44C95.4358 33.3227 95.2972 33.2373 95.1265 33.184C94.9665 33.1307 94.7905 33.104 94.5985 33.104C94.2892 33.104 94.0118 33.1893 93.7665 33.36C93.5212 33.5307 93.3238 33.7653 93.1745 34.064C93.0358 34.3627 92.9665 34.7093 92.9665 35.104V40H91.0145V34.624C91.0145 34.336 90.9825 34.096 90.9185 33.904C90.8545 33.7013 90.7638 33.5467 90.6465 33.44C90.5398 33.3227 90.4012 33.2373 90.2305 33.184C90.0705 33.1307 89.8945 33.104 89.7025 33.104C89.3932 33.104 89.1105 33.1893 88.8545 33.36C88.6092 33.5307 88.4118 33.7653 88.2625 34.064C88.1238 34.3627 88.0545 34.7093 88.0545 35.104V40H86.1025ZM99.8838 40V31.584H101.516L101.676 32.704H101.788C101.969 32.448 102.177 32.224 102.412 32.032C102.646 31.8293 102.913 31.6747 103.212 31.568C103.521 31.4507 103.857 31.392 104.22 31.392C104.71 31.392 105.148 31.4933 105.532 31.696C105.916 31.8987 106.214 32.2347 106.428 32.704H106.54C106.721 32.448 106.934 32.224 107.18 32.032C107.425 31.8293 107.708 31.6747 108.028 31.568C108.348 31.4507 108.694 31.392 109.068 31.392C109.569 31.392 110.012 31.4827 110.396 31.664C110.78 31.8453 111.084 32.144 111.308 32.56C111.532 32.976 111.644 33.5307 111.644 34.224V40H109.692V34.624C109.692 34.336 109.66 34.096 109.596 33.904C109.532 33.7013 109.441 33.5467 109.324 33.44C109.217 33.3227 109.078 33.2373 108.908 33.184C108.748 33.1307 108.572 33.104 108.38 33.104C108.07 33.104 107.793 33.1893 107.548 33.36C107.302 33.5307 107.105 33.7653 106.956 34.064C106.817 34.3627 106.748 34.7093 106.748 35.104V40H104.796V34.624C104.796 34.336 104.764 34.096 104.7 33.904C104.636 33.7013 104.545 33.5467 104.428 33.44C104.321 33.3227 104.182 33.2373 104.012 33.184C103.852 33.1307 103.676 33.104 103.484 33.104C103.174 33.104 102.892 33.1893 102.636 33.36C102.39 33.5307 102.193 33.7653 102.044 34.064C101.905 34.3627 101.836 34.7093 101.836 35.104V40H99.8838ZM116.337 40.192C115.526 40.192 114.865 39.9733 114.353 39.536C113.852 39.088 113.601 38.3307 113.601 37.264V31.584H115.553V36.912C115.553 37.2107 115.585 37.4613 115.649 37.664C115.724 37.856 115.825 38.016 115.953 38.144C116.092 38.2613 116.257 38.3467 116.449 38.4C116.641 38.4533 116.854 38.48 117.089 38.48C117.441 38.48 117.756 38.3947 118.033 38.224C118.321 38.0533 118.545 37.8187 118.705 37.52C118.876 37.2107 118.961 36.864 118.961 36.48V31.584H120.913V40H119.297L119.137 38.88H119.025C118.833 39.136 118.604 39.3653 118.337 39.568C118.081 39.76 117.782 39.9093 117.441 40.016C117.11 40.1333 116.742 40.192 116.337 40.192ZM122.993 40V31.584H124.625L124.785 32.704H124.897C125.089 32.448 125.313 32.224 125.569 32.032C125.836 31.8293 126.134 31.6747 126.465 31.568C126.806 31.4507 127.18 31.392 127.585 31.392C128.118 31.392 128.588 31.488 128.993 31.68C129.409 31.872 129.734 32.1813 129.969 32.608C130.204 33.0347 130.321 33.6053 130.321 34.32V40H128.353V34.672C128.353 34.3733 128.316 34.128 128.241 33.936C128.177 33.7333 128.076 33.5733 127.937 33.456C127.809 33.328 127.649 33.2373 127.457 33.184C127.265 33.1307 127.052 33.104 126.817 33.104C126.465 33.104 126.145 33.1893 125.857 33.36C125.58 33.5307 125.356 33.7653 125.185 34.064C125.025 34.3627 124.945 34.7093 124.945 35.104V40H122.993ZM132.337 30.288V28.432H134.289V30.288H132.337ZM132.337 40V31.584H134.289V40H132.337ZM139.872 40.192C138.997 40.192 138.267 40.0373 137.68 39.728C137.104 39.408 136.672 38.9227 136.384 38.272C136.096 37.6213 135.952 36.7947 135.952 35.792C135.952 34.7787 136.096 33.952 136.384 33.312C136.683 32.6613 137.12 32.1813 137.696 31.872C138.283 31.552 139.008 31.392 139.872 31.392C140.437 31.392 140.939 31.4613 141.376 31.6C141.813 31.7387 142.187 31.952 142.496 32.24C142.816 32.5173 143.056 32.864 143.216 33.28C143.376 33.696 143.456 34.1813 143.456 34.736H141.472C141.472 34.3413 141.413 34.016 141.296 33.76C141.179 33.504 140.997 33.312 140.752 33.184C140.517 33.0453 140.213 32.976 139.84 32.976C139.403 32.976 139.045 33.0773 138.768 33.28C138.491 33.4827 138.283 33.7867 138.144 34.192C138.016 34.5867 137.952 35.088 137.952 35.696V35.904C137.952 36.5013 138.016 37.0027 138.144 37.408C138.283 37.8133 138.496 38.1173 138.784 38.32C139.072 38.512 139.451 38.608 139.92 38.608C140.283 38.608 140.581 38.544 140.816 38.416C141.061 38.2773 141.248 38.0747 141.376 37.808C141.504 37.5413 141.568 37.2213 141.568 36.848H143.456C143.456 37.3707 143.376 37.84 143.216 38.256C143.056 38.672 142.821 39.024 142.512 39.312C142.203 39.6 141.824 39.8187 141.376 39.968C140.939 40.1173 140.437 40.192 139.872 40.192ZM147.278 40.192C147.043 40.192 146.771 40.16 146.462 40.096C146.163 40.0427 145.87 39.936 145.582 39.776C145.305 39.616 145.075 39.3813 144.894 39.072C144.713 38.752 144.622 38.336 144.622 37.824C144.622 37.248 144.75 36.7733 145.006 36.4C145.262 36.016 145.619 35.7173 146.078 35.504C146.547 35.28 147.102 35.1253 147.742 35.04C148.393 34.944 149.102 34.896 149.87 34.896V34.208C149.87 33.9627 149.833 33.744 149.758 33.552C149.683 33.36 149.545 33.2107 149.342 33.104C149.15 32.9867 148.857 32.928 148.462 32.928C148.067 32.928 147.758 32.976 147.534 33.072C147.31 33.168 147.155 33.2853 147.07 33.424C146.985 33.5627 146.942 33.7067 146.942 33.856V34.08H145.054C145.043 34.0267 145.038 33.9733 145.038 33.92C145.038 33.8667 145.038 33.8027 145.038 33.728C145.038 33.248 145.182 32.832 145.47 32.48C145.758 32.128 146.158 31.8613 146.67 31.68C147.182 31.488 147.774 31.392 148.446 31.392C149.214 31.392 149.843 31.4987 150.334 31.712C150.835 31.9253 151.209 32.2293 151.454 32.624C151.699 33.0187 151.822 33.4987 151.822 34.064V38.032C151.822 38.2347 151.881 38.3787 151.998 38.464C152.115 38.5493 152.243 38.592 152.382 38.592H152.894V39.936C152.787 39.9787 152.633 40.0267 152.43 40.08C152.227 40.144 151.977 40.176 151.678 40.176C151.401 40.176 151.15 40.128 150.926 40.032C150.713 39.9467 150.531 39.8187 150.382 39.648C150.233 39.4773 150.126 39.2747 150.062 39.04H149.966C149.785 39.264 149.566 39.4667 149.31 39.648C149.065 39.8187 148.771 39.952 148.43 40.048C148.099 40.144 147.715 40.192 147.278 40.192ZM147.87 38.592C148.19 38.592 148.473 38.544 148.718 38.448C148.974 38.352 149.182 38.2187 149.342 38.048C149.513 37.8773 149.641 37.6693 149.726 37.424C149.822 37.1787 149.87 36.912 149.87 36.624V36.24C149.283 36.24 148.739 36.2773 148.238 36.352C147.747 36.4267 147.353 36.5653 147.054 36.768C146.766 36.9707 146.622 37.2587 146.622 37.632C146.622 37.824 146.665 37.9947 146.75 38.144C146.846 38.2827 146.985 38.3947 147.166 38.48C147.358 38.5547 147.593 38.592 147.87 38.592ZM156.233 40.192C155.71 40.192 155.299 40.0907 155.001 39.888C154.702 39.6747 154.489 39.408 154.361 39.088C154.243 38.7573 154.185 38.4213 154.185 38.08V33.184H153.177V31.584H154.233L154.585 29.232H156.137V31.584H157.593V33.184H156.137V37.888C156.137 38.112 156.195 38.288 156.313 38.416C156.43 38.5333 156.606 38.592 156.841 38.592H157.593V39.936C157.486 39.9787 157.353 40.016 157.193 40.048C157.043 40.0907 156.883 40.1227 156.713 40.144C156.542 40.176 156.382 40.192 156.233 40.192ZM159.04 30.288V28.432H160.992V30.288H159.04ZM159.04 40V31.584H160.992V40H159.04ZM166.815 40.192C165.898 40.192 165.13 40.0373 164.511 39.728C163.893 39.408 163.429 38.9227 163.119 38.272C162.81 37.6213 162.655 36.7947 162.655 35.792C162.655 34.7787 162.81 33.952 163.119 33.312C163.429 32.6613 163.893 32.1813 164.511 31.872C165.13 31.552 165.898 31.392 166.815 31.392C167.743 31.392 168.511 31.552 169.119 31.872C169.738 32.1813 170.202 32.6613 170.511 33.312C170.821 33.952 170.975 34.7787 170.975 35.792C170.975 36.7947 170.821 37.6213 170.511 38.272C170.202 38.9227 169.738 39.408 169.119 39.728C168.511 40.0373 167.743 40.192 166.815 40.192ZM166.815 38.592C167.327 38.592 167.738 38.496 168.047 38.304C168.367 38.1013 168.597 37.8027 168.735 37.408C168.885 37.0027 168.959 36.5013 168.959 35.904V35.68C168.959 35.0827 168.885 34.5867 168.735 34.192C168.597 33.7867 168.367 33.488 168.047 33.296C167.738 33.0933 167.327 32.992 166.815 32.992C166.303 32.992 165.887 33.0933 165.567 33.296C165.258 33.488 165.029 33.7867 164.879 34.192C164.741 34.5867 164.671 35.0827 164.671 35.68V35.904C164.671 36.5013 164.741 37.0027 164.879 37.408C165.029 37.8027 165.258 38.1013 165.567 38.304C165.887 38.496 166.303 38.592 166.815 38.592ZM172.634 40V31.584H174.266L174.426 32.704H174.538C174.73 32.448 174.954 32.224 175.21 32.032C175.476 31.8293 175.775 31.6747 176.106 31.568C176.447 31.4507 176.82 31.392 177.226 31.392C177.759 31.392 178.228 31.488 178.634 31.68C179.05 31.872 179.375 32.1813 179.61 32.608C179.844 33.0347 179.962 33.6053 179.962 34.32V40H177.994V34.672C177.994 34.3733 177.956 34.128 177.882 33.936C177.818 33.7333 177.716 33.5733 177.578 33.456C177.45 33.328 177.29 33.2373 177.098 33.184C176.906 33.1307 176.692 33.104 176.458 33.104C176.106 33.104 175.786 33.1893 175.498 33.36C175.22 33.5307 174.996 33.7653 174.826 34.064C174.666 34.3627 174.586 34.7093 174.586 35.104V40H172.634Z" fill="white"/>
<path opacity="0.5" d="M30.064 71.192C28.944 71.192 27.9947 70.9893 27.216 70.584C26.4373 70.168 25.84 69.544 25.424 68.712C25.0187 67.8693 24.816 66.8027 24.816 65.512C24.816 63.6027 25.28 62.1787 26.208 61.24C27.136 60.3013 28.4267 59.832 30.08 59.832C31.0187 59.832 31.8507 59.9867 32.576 60.296C33.3013 60.5947 33.8667 61.0533 34.272 61.672C34.688 62.28 34.896 63.048 34.896 63.976H33.36C33.36 63.336 33.2213 62.808 32.944 62.392C32.6773 61.976 32.2987 61.6667 31.808 61.464C31.3173 61.2507 30.7413 61.144 30.08 61.144C29.312 61.144 28.6507 61.2933 28.096 61.592C27.5413 61.8907 27.12 62.3547 26.832 62.984C26.544 63.6027 26.4 64.4027 26.4 65.384V65.72C26.4 66.6907 26.544 67.4853 26.832 68.104C27.12 68.712 27.536 69.16 28.08 69.448C28.6347 69.736 29.3013 69.88 30.08 69.88C30.7627 69.88 31.3493 69.7787 31.84 69.576C32.3413 69.3733 32.7253 69.064 32.992 68.648C33.2693 68.2213 33.408 67.688 33.408 67.048H34.896C34.896 67.9973 34.6827 68.776 34.256 69.384C33.84 69.992 33.2693 70.4453 32.544 70.744C31.8187 71.0427 30.992 71.192 30.064 71.192ZM36.7446 71V59.432H38.1526V63.64H38.2646C38.478 63.352 38.718 63.1173 38.9846 62.936C39.2513 62.7547 39.5446 62.6213 39.8646 62.536C40.1953 62.44 40.5526 62.392 40.9366 62.392C41.47 62.392 41.934 62.4827 42.3286 62.664C42.734 62.8453 43.0486 63.1387 43.2726 63.544C43.5073 63.9493 43.6246 64.4987 43.6246 65.192V71H42.2166V65.384C42.2166 65.032 42.1686 64.744 42.0726 64.52C41.9873 64.296 41.8646 64.12 41.7046 63.992C41.5553 63.864 41.3686 63.7733 41.1446 63.72C40.9313 63.6667 40.6913 63.64 40.4246 63.64C40.03 63.64 39.6566 63.736 39.3046 63.928C38.9526 64.1093 38.67 64.3813 38.4566 64.744C38.254 65.096 38.1526 65.5333 38.1526 66.056V71H36.7446ZM47.8723 71.192C47.5629 71.192 47.2536 71.1547 46.9443 71.08C46.6349 71.0053 46.3469 70.8827 46.0803 70.712C45.8136 70.5413 45.6003 70.3067 45.4403 70.008C45.2803 69.6987 45.2003 69.3147 45.2003 68.856C45.2003 68.28 45.3389 67.8053 45.6163 67.432C45.8936 67.0587 46.2776 66.7707 46.7682 66.568C47.2696 66.3547 47.8616 66.2107 48.5443 66.136C49.2269 66.0507 49.9683 66.008 50.7683 66.008V65.048C50.7683 64.7387 50.7149 64.472 50.6083 64.248C50.5016 64.024 50.3096 63.8533 50.0323 63.736C49.7656 63.608 49.3816 63.544 48.8802 63.544C48.4003 63.544 48.0163 63.608 47.7283 63.736C47.4509 63.8533 47.2536 64.008 47.1363 64.2C47.0296 64.392 46.9763 64.6053 46.9763 64.84V65.08H45.6163C45.6056 65.0267 45.6003 64.9733 45.6003 64.92C45.6003 64.8667 45.6003 64.8027 45.6003 64.728C45.6003 64.216 45.7389 63.7893 46.0163 63.448C46.3043 63.096 46.7043 62.8347 47.2163 62.664C47.7283 62.4827 48.3149 62.392 48.9763 62.392C49.6803 62.392 50.2669 62.4933 50.7363 62.696C51.2163 62.8987 51.5736 63.1867 51.8083 63.56C52.0536 63.9333 52.1763 64.3813 52.1763 64.904V69.464C52.1763 69.6667 52.2243 69.8107 52.3203 69.896C52.4163 69.9707 52.5336 70.008 52.6723 70.008H53.2963V70.936C53.1469 71 52.9816 71.0533 52.8003 71.096C52.6189 71.1493 52.4109 71.176 52.1763 71.176C51.8989 71.176 51.6696 71.1173 51.4883 71C51.3069 70.8933 51.1683 70.744 51.0723 70.552C50.9763 70.3493 50.9123 70.1253 50.8803 69.88H50.7683C50.5763 70.1467 50.3309 70.3813 50.0323 70.584C49.7443 70.776 49.4189 70.9253 49.0563 71.032C48.6936 71.1387 48.2989 71.192 47.8723 71.192ZM48.2243 70.008C48.5656 70.008 48.8856 69.9547 49.1843 69.848C49.4936 69.7413 49.7656 69.592 50.0003 69.4C50.2349 69.1973 50.4216 68.9573 50.5603 68.68C50.6989 68.4027 50.7683 68.0987 50.7683 67.768V67.064C49.9043 67.064 49.1683 67.112 48.5603 67.208C47.9523 67.304 47.4829 67.4747 47.1523 67.72C46.8323 67.9653 46.6723 68.312 46.6723 68.76C46.6723 69.048 46.7363 69.2827 46.8643 69.464C46.9923 69.6453 47.1736 69.784 47.4083 69.88C47.6429 69.9653 47.9149 70.008 48.2243 70.008ZM56.447 71.192C56.0097 71.192 55.6683 71.112 55.423 70.952C55.1777 70.7813 55.0017 70.5627 54.895 70.296C54.7883 70.0187 54.735 69.7253 54.735 69.416V63.768H53.647V62.584H54.767L55.023 60.232H56.143V62.584H57.727V63.768H56.143V69.208C56.143 69.4747 56.191 69.6773 56.287 69.816C56.383 69.944 56.5643 70.008 56.831 70.008H57.727V70.936C57.6203 70.9893 57.4923 71.032 57.343 71.064C57.1937 71.096 57.039 71.1227 56.879 71.144C56.7297 71.176 56.5857 71.192 56.447 71.192ZM66.5728 71.192C66.0074 71.192 65.5008 71.08 65.0528 70.856C64.6048 70.6213 64.2368 70.2693 63.9488 69.8H63.8368L63.6928 71H62.5728V59.432H63.9808V63.64H64.0768C64.2688 63.3413 64.4928 63.1013 64.7488 62.92C65.0048 62.7387 65.2928 62.6053 65.6128 62.52C65.9328 62.4347 66.2741 62.392 66.6368 62.392C67.2874 62.392 67.8581 62.5467 68.3488 62.856C68.8394 63.1653 69.2181 63.64 69.4848 64.28C69.7621 64.92 69.9008 65.736 69.9008 66.728C69.9008 67.7733 69.7674 68.6267 69.5008 69.288C69.2341 69.9387 68.8554 70.4187 68.3648 70.728C67.8741 71.0373 67.2768 71.192 66.5728 71.192ZM66.2368 69.96C66.7168 69.96 67.1168 69.864 67.4368 69.672C67.7674 69.48 68.0181 69.1653 68.1888 68.728C68.3594 68.28 68.4448 67.6933 68.4448 66.968V66.632C68.4448 65.928 68.3648 65.3573 68.2048 64.92C68.0448 64.472 67.7994 64.1467 67.4688 63.944C67.1381 63.7307 66.7114 63.624 66.1888 63.624C65.8901 63.624 65.6074 63.672 65.3408 63.768C65.0741 63.864 64.8341 64.0293 64.6208 64.264C64.4181 64.4987 64.2581 64.8133 64.1408 65.208C64.0341 65.6027 63.9808 66.088 63.9808 66.664V66.92C63.9808 67.5813 64.0554 68.136 64.2048 68.584C64.3648 69.032 64.6101 69.3733 64.9408 69.608C65.2821 69.8427 65.7141 69.96 66.2368 69.96ZM74.2589 71.192C73.4482 71.192 72.7975 70.984 72.3069 70.568C71.8162 70.152 71.5709 69.4267 71.5709 68.392V62.584H72.9789V68.2C72.9789 68.552 73.0215 68.84 73.1069 69.064C73.1922 69.288 73.3149 69.464 73.4749 69.592C73.6349 69.72 73.8215 69.8107 74.0349 69.864C74.2589 69.9173 74.4989 69.944 74.7549 69.944C75.1602 69.944 75.5335 69.848 75.8749 69.656C76.2162 69.464 76.4935 69.1867 76.7069 68.824C76.9309 68.4507 77.0429 68.0187 77.0429 67.528V62.584H78.4509V71H77.3149L77.1869 69.736H77.0749C76.8509 70.0773 76.5949 70.3547 76.3069 70.568C76.0295 70.7813 75.7149 70.936 75.3629 71.032C75.0215 71.1387 74.6535 71.192 74.2589 71.192ZM81.3553 73.912C81.0993 73.912 80.8753 73.8907 80.6833 73.848C80.5019 73.816 80.3793 73.7947 80.3153 73.784V72.76H81.0193C81.2753 72.76 81.5259 72.7067 81.7713 72.6C82.0166 72.4933 82.2459 72.312 82.4593 72.056C82.6726 71.8 82.8539 71.448 83.0033 71L79.7393 62.584H81.2113L82.8913 66.92C82.9659 67.1227 83.0513 67.3733 83.1473 67.672C83.2539 67.96 83.3553 68.2587 83.4513 68.568C83.5579 68.8773 83.6433 69.1493 83.7073 69.384H83.8033C83.8459 69.2133 83.8993 69.0213 83.9633 68.808C84.0273 68.5947 84.0913 68.376 84.1553 68.152C84.2299 67.9173 84.2993 67.6987 84.3633 67.496C84.4379 67.2827 84.4966 67.096 84.5393 66.936L85.9633 62.584H87.3873L84.5393 70.76C84.3793 71.2187 84.2033 71.64 84.0113 72.024C83.8193 72.4187 83.6059 72.7547 83.3713 73.032C83.1366 73.3093 82.8539 73.5227 82.5233 73.672C82.1926 73.832 81.8033 73.912 81.3553 73.912ZM91.9796 71.192C91.1476 71.192 90.4436 71.0373 89.8676 70.728C89.3023 70.408 88.8703 69.9227 88.5716 69.272C88.2836 68.6213 88.1396 67.7947 88.1396 66.792C88.1396 65.7787 88.2836 64.952 88.5716 64.312C88.8703 63.6613 89.3076 63.1813 89.8836 62.872C90.4596 62.552 91.1796 62.392 92.0436 62.392C92.833 62.392 93.4943 62.5467 94.0276 62.856C94.561 63.1547 94.961 63.608 95.2276 64.216C95.505 64.8133 95.6436 65.5653 95.6436 66.472V67.144H89.5956C89.617 67.816 89.713 68.3707 89.8836 68.808C90.065 69.2347 90.3316 69.5493 90.6836 69.752C91.0356 69.944 91.4783 70.04 92.0116 70.04C92.3743 70.04 92.689 69.9973 92.9556 69.912C93.233 69.816 93.4623 69.6827 93.6436 69.512C93.8356 69.3413 93.9796 69.1387 94.0756 68.904C94.1716 68.6693 94.225 68.4133 94.2356 68.136H95.6116C95.601 68.584 95.5156 69 95.3556 69.384C95.1956 69.7573 94.961 70.0773 94.6516 70.344C94.3423 70.6107 93.9636 70.8187 93.5156 70.968C93.0676 71.1173 92.5556 71.192 91.9796 71.192ZM89.6276 66.088H94.1876C94.1876 65.6187 94.1343 65.224 94.0276 64.904C93.921 64.584 93.7663 64.3227 93.5636 64.12C93.3716 63.9173 93.1423 63.7733 92.8756 63.688C92.6196 63.592 92.3263 63.544 91.9956 63.544C91.505 63.544 91.089 63.6347 90.7476 63.816C90.4063 63.9973 90.145 64.2747 89.9636 64.648C89.7823 65.0213 89.6703 65.5013 89.6276 66.088ZM97.3853 71V62.584H98.5213L98.6493 63.976H98.7613C98.8466 63.7093 98.9639 63.4587 99.1133 63.224C99.2626 62.9787 99.4653 62.7813 99.7213 62.632C99.9773 62.472 100.292 62.392 100.665 62.392C100.825 62.392 100.969 62.408 101.097 62.44C101.236 62.4613 101.337 62.488 101.401 62.52V63.816H100.873C100.511 63.816 100.196 63.88 99.9293 64.008C99.6733 64.1253 99.4599 64.296 99.2893 64.52C99.1186 64.744 98.9906 65.0107 98.9053 65.32C98.8306 65.6293 98.7933 65.96 98.7933 66.312V71H97.3853ZM105.642 71.192C105.066 71.192 104.559 71.1333 104.122 71.016C103.684 70.8987 103.322 70.728 103.034 70.504C102.746 70.28 102.527 70.0133 102.378 69.704C102.228 69.3947 102.154 69.0427 102.154 68.648C102.154 68.5947 102.154 68.5467 102.154 68.504C102.154 68.4507 102.159 68.408 102.17 68.376H103.562C103.551 68.4187 103.546 68.456 103.546 68.488C103.546 68.52 103.546 68.552 103.546 68.584C103.556 68.9573 103.652 69.2507 103.834 69.464C104.026 69.6773 104.287 69.8267 104.618 69.912C104.948 69.9973 105.316 70.04 105.722 70.04C106.074 70.04 106.399 69.9973 106.698 69.912C106.996 69.816 107.231 69.6773 107.402 69.496C107.583 69.304 107.674 69.064 107.674 68.776C107.674 68.424 107.556 68.1573 107.322 67.976C107.098 67.784 106.799 67.6347 106.426 67.528C106.052 67.4213 105.663 67.3093 105.258 67.192C104.916 67.096 104.575 66.9893 104.234 66.872C103.892 66.7547 103.583 66.6107 103.306 66.44C103.039 66.2693 102.82 66.0507 102.65 65.784C102.49 65.5067 102.41 65.16 102.41 64.744C102.41 64.3707 102.484 64.04 102.634 63.752C102.794 63.464 103.018 63.2187 103.306 63.016C103.594 62.8133 103.94 62.664 104.346 62.568C104.762 62.4613 105.22 62.408 105.722 62.408C106.255 62.408 106.719 62.4667 107.114 62.584C107.519 62.7013 107.855 62.8667 108.122 63.08C108.388 63.2933 108.586 63.5387 108.714 63.816C108.842 64.0827 108.906 64.3707 108.906 64.68C108.906 64.744 108.906 64.808 108.906 64.872C108.906 64.9253 108.9 64.968 108.89 65H107.514V64.824C107.514 64.6107 107.455 64.408 107.338 64.216C107.231 64.0133 107.039 63.8533 106.762 63.736C106.495 63.608 106.122 63.544 105.642 63.544C105.332 63.544 105.066 63.5707 104.842 63.624C104.618 63.6667 104.431 63.7413 104.282 63.848C104.132 63.944 104.02 64.0613 103.946 64.2C103.871 64.328 103.834 64.4773 103.834 64.648C103.834 64.9253 103.924 65.1387 104.106 65.288C104.287 65.4373 104.527 65.56 104.826 65.656C105.135 65.752 105.466 65.8587 105.818 65.976C106.191 66.0827 106.57 66.1947 106.954 66.312C107.348 66.4187 107.706 66.5573 108.026 66.728C108.356 66.8987 108.618 67.1333 108.81 67.432C109.012 67.72 109.114 68.104 109.114 68.584C109.114 69.032 109.028 69.4213 108.858 69.752C108.687 70.0827 108.442 70.3547 108.122 70.568C107.812 70.7813 107.444 70.936 107.018 71.032C106.602 71.1387 106.143 71.192 105.642 71.192ZM109.75 71.784L113.318 59.24H114.454L110.886 71.784H109.75ZM118.501 71.192C117.925 71.192 117.418 71.1333 116.981 71.016C116.544 70.8987 116.181 70.728 115.893 70.504C115.605 70.28 115.386 70.0133 115.237 69.704C115.088 69.3947 115.013 69.0427 115.013 68.648C115.013 68.5947 115.013 68.5467 115.013 68.504C115.013 68.4507 115.018 68.408 115.029 68.376H116.421C116.41 68.4187 116.405 68.456 116.405 68.488C116.405 68.52 116.405 68.552 116.405 68.584C116.416 68.9573 116.512 69.2507 116.693 69.464C116.885 69.6773 117.146 69.8267 117.477 69.912C117.808 69.9973 118.176 70.04 118.581 70.04C118.933 70.04 119.258 69.9973 119.557 69.912C119.856 69.816 120.09 69.6773 120.261 69.496C120.442 69.304 120.533 69.064 120.533 68.776C120.533 68.424 120.416 68.1573 120.181 67.976C119.957 67.784 119.658 67.6347 119.285 67.528C118.912 67.4213 118.522 67.3093 118.117 67.192C117.776 67.096 117.434 66.9893 117.093 66.872C116.752 66.7547 116.442 66.6107 116.165 66.44C115.898 66.2693 115.68 66.0507 115.509 65.784C115.349 65.5067 115.269 65.16 115.269 64.744C115.269 64.3707 115.344 64.04 115.493 63.752C115.653 63.464 115.877 63.2187 116.165 63.016C116.453 62.8133 116.8 62.664 117.205 62.568C117.621 62.4613 118.08 62.408 118.581 62.408C119.114 62.408 119.578 62.4667 119.973 62.584C120.378 62.7013 120.714 62.8667 120.981 63.08C121.248 63.2933 121.445 63.5387 121.573 63.816C121.701 64.0827 121.765 64.3707 121.765 64.68C121.765 64.744 121.765 64.808 121.765 64.872C121.765 64.9253 121.76 64.968 121.749 65H120.373V64.824C120.373 64.6107 120.314 64.408 120.197 64.216C120.09 64.0133 119.898 63.8533 119.621 63.736C119.354 63.608 118.981 63.544 118.501 63.544C118.192 63.544 117.925 63.5707 117.701 63.624C117.477 63.6667 117.29 63.7413 117.141 63.848C116.992 63.944 116.88 64.0613 116.805 64.2C116.73 64.328 116.693 64.4773 116.693 64.648C116.693 64.9253 116.784 65.1387 116.965 65.288C117.146 65.4373 117.386 65.56 117.685 65.656C117.994 65.752 118.325 65.8587 118.677 65.976C119.05 66.0827 119.429 66.1947 119.813 66.312C120.208 66.4187 120.565 66.5573 120.885 66.728C121.216 66.8987 121.477 67.1333 121.669 67.432C121.872 67.72 121.973 68.104 121.973 68.584C121.973 69.032 121.888 69.4213 121.717 69.752C121.546 70.0827 121.301 70.3547 120.981 70.568C120.672 70.7813 120.304 70.936 119.877 71.032C119.461 71.1387 119.002 71.192 118.501 71.192ZM127.073 71.192C126.241 71.192 125.537 71.0373 124.961 70.728C124.396 70.408 123.964 69.9227 123.665 69.272C123.377 68.6213 123.233 67.7947 123.233 66.792C123.233 65.7787 123.377 64.952 123.665 64.312C123.964 63.6613 124.401 63.1813 124.977 62.872C125.553 62.552 126.273 62.392 127.137 62.392C127.927 62.392 128.588 62.5467 129.121 62.856C129.655 63.1547 130.055 63.608 130.321 64.216C130.599 64.8133 130.737 65.5653 130.737 66.472V67.144H124.689C124.711 67.816 124.807 68.3707 124.977 68.808C125.159 69.2347 125.425 69.5493 125.777 69.752C126.129 69.944 126.572 70.04 127.105 70.04C127.468 70.04 127.783 69.9973 128.049 69.912C128.327 69.816 128.556 69.6827 128.737 69.512C128.929 69.3413 129.073 69.1387 129.169 68.904C129.265 68.6693 129.319 68.4133 129.329 68.136H130.705C130.695 68.584 130.609 69 130.449 69.384C130.289 69.7573 130.055 70.0773 129.745 70.344C129.436 70.6107 129.057 70.8187 128.609 70.968C128.161 71.1173 127.649 71.192 127.073 71.192ZM124.721 66.088H129.281C129.281 65.6187 129.228 65.224 129.121 64.904C129.015 64.584 128.86 64.3227 128.657 64.12C128.465 63.9173 128.236 63.7733 127.969 63.688C127.713 63.592 127.42 63.544 127.089 63.544C126.599 63.544 126.183 63.6347 125.841 63.816C125.5 63.9973 125.239 64.2747 125.057 64.648C124.876 65.0213 124.764 65.5013 124.721 66.088ZM132.479 71V59.432H133.887V71H132.479ZM136.073 71V59.432H137.481V71H136.073ZM143.027 71.192C142.195 71.192 141.491 71.0373 140.914 70.728C140.349 70.408 139.917 69.9227 139.618 69.272C139.331 68.6213 139.187 67.7947 139.187 66.792C139.187 65.7787 139.331 64.952 139.618 64.312C139.917 63.6613 140.355 63.1813 140.931 62.872C141.507 62.552 142.227 62.392 143.091 62.392C143.88 62.392 144.541 62.5467 145.075 62.856C145.608 63.1547 146.008 63.608 146.275 64.216C146.552 64.8133 146.691 65.5653 146.691 66.472V67.144H140.643C140.664 67.816 140.76 68.3707 140.931 68.808C141.112 69.2347 141.379 69.5493 141.731 69.752C142.083 69.944 142.525 70.04 143.059 70.04C143.421 70.04 143.736 69.9973 144.003 69.912C144.28 69.816 144.509 69.6827 144.691 69.512C144.883 69.3413 145.027 69.1387 145.123 68.904C145.219 68.6693 145.272 68.4133 145.283 68.136H146.659C146.648 68.584 146.562 69 146.403 69.384C146.243 69.7573 146.008 70.0773 145.699 70.344C145.389 70.6107 145.011 70.8187 144.563 70.968C144.115 71.1173 143.603 71.192 143.027 71.192ZM140.674 66.088H145.235C145.235 65.6187 145.181 65.224 145.075 64.904C144.968 64.584 144.813 64.3227 144.611 64.12C144.419 63.9173 144.189 63.7733 143.923 63.688C143.667 63.592 143.373 63.544 143.043 63.544C142.552 63.544 142.136 63.6347 141.795 63.816C141.453 63.9973 141.192 64.2747 141.011 64.648C140.829 65.0213 140.717 65.5013 140.674 66.088ZM148.432 71V62.584H149.568L149.696 63.976H149.808C149.893 63.7093 150.011 63.4587 150.16 63.224C150.309 62.9787 150.512 62.7813 150.768 62.632C151.024 62.472 151.339 62.392 151.712 62.392C151.872 62.392 152.016 62.408 152.144 62.44C152.283 62.4613 152.384 62.488 152.448 62.52V63.816H151.92C151.557 63.816 151.243 63.88 150.976 64.008C150.72 64.1253 150.507 64.296 150.336 64.52C150.165 64.744 150.037 65.0107 149.952 65.32C149.877 65.6293 149.84 65.96 149.84 66.312V71H148.432ZM156.689 71.192C156.113 71.192 155.606 71.1333 155.169 71.016C154.731 70.8987 154.369 70.728 154.081 70.504C153.793 70.28 153.574 70.0133 153.425 69.704C153.275 69.3947 153.201 69.0427 153.201 68.648C153.201 68.5947 153.201 68.5467 153.201 68.504C153.201 68.4507 153.206 68.408 153.217 68.376H154.609C154.598 68.4187 154.593 68.456 154.593 68.488C154.593 68.52 154.593 68.552 154.593 68.584C154.603 68.9573 154.699 69.2507 154.881 69.464C155.073 69.6773 155.334 69.8267 155.665 69.912C155.995 69.9973 156.363 70.04 156.769 70.04C157.121 70.04 157.446 69.9973 157.745 69.912C158.043 69.816 158.278 69.6773 158.449 69.496C158.63 69.304 158.721 69.064 158.721 68.776C158.721 68.424 158.603 68.1573 158.369 67.976C158.145 67.784 157.846 67.6347 157.473 67.528C157.099 67.4213 156.71 67.3093 156.305 67.192C155.963 67.096 155.622 66.9893 155.281 66.872C154.939 66.7547 154.63 66.6107 154.353 66.44C154.086 66.2693 153.867 66.0507 153.697 65.784C153.537 65.5067 153.457 65.16 153.457 64.744C153.457 64.3707 153.531 64.04 153.681 63.752C153.841 63.464 154.065 63.2187 154.353 63.016C154.641 62.8133 154.987 62.664 155.393 62.568C155.809 62.4613 156.267 62.408 156.769 62.408C157.302 62.408 157.766 62.4667 158.161 62.584C158.566 62.7013 158.902 62.8667 159.169 63.08C159.435 63.2933 159.633 63.5387 159.761 63.816C159.889 64.0827 159.953 64.3707 159.953 64.68C159.953 64.744 159.953 64.808 159.953 64.872C159.953 64.9253 159.947 64.968 159.937 65H158.561V64.824C158.561 64.6107 158.502 64.408 158.385 64.216C158.278 64.0133 158.086 63.8533 157.809 63.736C157.542 63.608 157.169 63.544 156.689 63.544C156.379 63.544 156.113 63.5707 155.889 63.624C155.665 63.6667 155.478 63.7413 155.329 63.848C155.179 63.944 155.067 64.0613 154.993 64.2C154.918 64.328 154.881 64.4773 154.881 64.648C154.881 64.9253 154.971 65.1387 155.153 65.288C155.334 65.4373 155.574 65.56 155.873 65.656C156.182 65.752 156.513 65.8587 156.865 65.976C157.238 66.0827 157.617 66.1947 158.001 66.312C158.395 66.4187 158.753 66.5573 159.073 66.728C159.403 66.8987 159.665 67.1333 159.857 67.432C160.059 67.72 160.161 68.104 160.161 68.584C160.161 69.032 160.075 69.4213 159.905 69.752C159.734 70.0827 159.489 70.3547 159.169 70.568C158.859 70.7813 158.491 70.936 158.065 71.032C157.649 71.1387 157.19 71.192 156.689 71.192ZM167.213 71.192C166.775 71.192 166.434 71.112 166.189 70.952C165.943 70.7813 165.767 70.5627 165.661 70.296C165.554 70.0187 165.501 69.7253 165.501 69.416V63.768H164.413V62.584H165.533L165.789 60.232H166.909V62.584H168.493V63.768H166.909V69.208C166.909 69.4747 166.957 69.6773 167.053 69.816C167.149 69.944 167.33 70.008 167.597 70.008H168.493V70.936C168.386 70.9893 168.258 71.032 168.109 71.064C167.959 71.096 167.805 71.1227 167.645 71.144C167.495 71.176 167.351 71.192 167.213 71.192ZM173.451 71.192C172.597 71.192 171.877 71.0373 171.291 70.728C170.715 70.408 170.272 69.9227 169.963 69.272C169.664 68.6213 169.515 67.7947 169.515 66.792C169.515 65.7787 169.664 64.952 169.963 64.312C170.272 63.6613 170.715 63.1813 171.291 62.872C171.877 62.552 172.597 62.392 173.451 62.392C174.304 62.392 175.019 62.552 175.595 62.872C176.181 63.1813 176.624 63.6613 176.923 64.312C177.221 64.952 177.371 65.7787 177.371 66.792C177.371 67.7947 177.221 68.6213 176.923 69.272C176.624 69.9227 176.181 70.408 175.595 70.728C175.019 71.0373 174.304 71.192 173.451 71.192ZM173.451 70.008C173.995 70.008 174.448 69.9013 174.811 69.688C175.173 69.4747 175.445 69.144 175.627 68.696C175.819 68.2373 175.915 67.6613 175.915 66.968V66.616C175.915 65.912 175.819 65.336 175.627 64.888C175.445 64.44 175.173 64.1093 174.811 63.896C174.448 63.6827 173.995 63.576 173.451 63.576C172.907 63.576 172.448 63.6827 172.075 63.896C171.712 64.1093 171.44 64.44 171.259 64.888C171.077 65.336 170.987 65.912 170.987 66.616V66.968C170.987 67.6613 171.077 68.2373 171.259 68.696C171.44 69.144 171.712 69.4747 172.075 69.688C172.448 69.9013 172.907 70.008 173.451 70.008ZM25.44 94V86.768H24.192V85.584H25.44V84.24C25.44 83.9093 25.488 83.6 25.584 83.312C25.68 83.0133 25.8613 82.7733 26.128 82.592C26.3947 82.4 26.768 82.304 27.248 82.304C27.3973 82.304 27.5413 82.3147 27.68 82.336C27.8293 82.3467 27.968 82.368 28.096 82.4C28.2347 82.4213 28.3573 82.448 28.464 82.48V83.488H27.616C27.3493 83.488 27.152 83.5573 27.024 83.696C26.9067 83.824 26.848 84.0107 26.848 84.256V85.584H28.464V86.768H26.848V94H25.44ZM29.584 84V82.432H30.992V84H29.584ZM29.584 94V85.584H30.992V94H29.584ZM33.1978 94V85.584H34.3338L34.4618 86.848H34.5738C34.7978 86.5067 35.0484 86.2293 35.3258 86.016C35.6138 85.8027 35.9284 85.648 36.2698 85.552C36.6218 85.4453 36.9951 85.392 37.3898 85.392C37.9231 85.392 38.3871 85.4827 38.7818 85.664C39.1871 85.8453 39.5018 86.1387 39.7258 86.544C39.9604 86.9493 40.0778 87.4987 40.0778 88.192V94H38.6698V88.384C38.6698 88.032 38.6218 87.744 38.5258 87.52C38.4404 87.296 38.3178 87.12 38.1578 86.992C38.0084 86.864 37.8218 86.7733 37.5978 86.72C37.3844 86.6667 37.1444 86.64 36.8778 86.64C36.4831 86.64 36.1098 86.736 35.7578 86.928C35.4058 87.12 35.1231 87.3973 34.9098 87.76C34.7071 88.1227 34.6058 88.5547 34.6058 89.056V94H33.1978ZM44.3254 94.192C44.016 94.192 43.7067 94.1547 43.3974 94.08C43.088 94.0053 42.8 93.8827 42.5334 93.712C42.2667 93.5413 42.0534 93.3067 41.8934 93.008C41.7334 92.6987 41.6534 92.3147 41.6534 91.856C41.6534 91.28 41.792 90.8053 42.0694 90.432C42.3467 90.0587 42.7307 89.7707 43.2214 89.568C43.7227 89.3547 44.3147 89.2107 44.9974 89.136C45.68 89.0507 46.4214 89.008 47.2214 89.008V88.048C47.2214 87.7387 47.168 87.472 47.0614 87.248C46.9547 87.024 46.7627 86.8533 46.4854 86.736C46.2187 86.608 45.8347 86.544 45.3334 86.544C44.8534 86.544 44.4694 86.608 44.1814 86.736C43.904 86.8533 43.7067 87.008 43.5894 87.2C43.4827 87.392 43.4294 87.6053 43.4294 87.84V88.08H42.0694C42.0587 88.0267 42.0534 87.9733 42.0534 87.92C42.0534 87.8667 42.0534 87.8027 42.0534 87.728C42.0534 87.216 42.192 86.7893 42.4694 86.448C42.7574 86.096 43.1574 85.8347 43.6694 85.664C44.1814 85.4827 44.768 85.392 45.4294 85.392C46.1334 85.392 46.72 85.4933 47.1894 85.696C47.6694 85.8987 48.0267 86.1867 48.2614 86.56C48.5067 86.9333 48.6294 87.3813 48.6294 87.904V92.464C48.6294 92.6667 48.6774 92.8107 48.7734 92.896C48.8694 92.9707 48.9867 93.008 49.1254 93.008H49.7494V93.936C49.6 94 49.4347 94.0533 49.2534 94.096C49.072 94.1493 48.864 94.176 48.6294 94.176C48.352 94.176 48.1227 94.1173 47.9414 94C47.76 93.8933 47.6214 93.744 47.5254 93.552C47.4294 93.3493 47.3654 93.1253 47.3334 92.88H47.2214C47.0294 93.1467 46.784 93.3813 46.4854 93.584C46.1974 93.776 45.872 93.9253 45.5094 94.032C45.1467 94.1387 44.752 94.192 44.3254 94.192ZM44.6774 93.008C45.0187 93.008 45.3387 92.9547 45.6374 92.848C45.9467 92.7413 46.2187 92.592 46.4534 92.4C46.688 92.1973 46.8747 91.9573 47.0134 91.68C47.152 91.4027 47.2214 91.0987 47.2214 90.768V90.064C46.3574 90.064 45.6214 90.112 45.0134 90.208C44.4054 90.304 43.936 90.4747 43.6054 90.72C43.2854 90.9653 43.1254 91.312 43.1254 91.76C43.1254 92.048 43.1894 92.2827 43.3174 92.464C43.4454 92.6453 43.6267 92.784 43.8614 92.88C44.096 92.9653 44.368 93.008 44.6774 93.008ZM50.9321 94V82.432H52.3401V94H50.9321ZM54.5259 84V82.432H55.9339V84H54.5259ZM54.5259 94V85.584H55.9339V94H54.5259ZM57.5116 94V93.248L62.1996 86.768H57.8476V85.584H64.2156V86.32L59.5116 92.816H64.4716V94H57.5116ZM69.1359 94.192C68.3039 94.192 67.5999 94.0373 67.0239 93.728C66.4585 93.408 66.0265 92.9227 65.7279 92.272C65.4399 91.6213 65.2959 90.7947 65.2959 89.792C65.2959 88.7787 65.4399 87.952 65.7279 87.312C66.0265 86.6613 66.4639 86.1813 67.0399 85.872C67.6159 85.552 68.3359 85.392 69.1999 85.392C69.9892 85.392 70.6505 85.5467 71.1839 85.856C71.7172 86.1547 72.1172 86.608 72.3839 87.216C72.6612 87.8133 72.7999 88.5653 72.7999 89.472V90.144H66.7519C66.7732 90.816 66.8692 91.3707 67.0399 91.808C67.2212 92.2347 67.4879 92.5493 67.8399 92.752C68.1919 92.944 68.6345 93.04 69.1679 93.04C69.5305 93.04 69.8452 92.9973 70.1119 92.912C70.3892 92.816 70.6185 92.6827 70.7999 92.512C70.9919 92.3413 71.1359 92.1387 71.2319 91.904C71.3279 91.6693 71.3812 91.4133 71.3919 91.136H72.7679C72.7572 91.584 72.6719 92 72.5119 92.384C72.3519 92.7573 72.1172 93.0773 71.8079 93.344C71.4985 93.6107 71.1199 93.8187 70.6719 93.968C70.2239 94.1173 69.7119 94.192 69.1359 94.192ZM66.7839 89.088H71.3439C71.3439 88.6187 71.2905 88.224 71.1839 87.904C71.0772 87.584 70.9225 87.3227 70.7199 87.12C70.5279 86.9173 70.2985 86.7733 70.0319 86.688C69.7759 86.592 69.4825 86.544 69.1519 86.544C68.6612 86.544 68.2452 86.6347 67.9039 86.816C67.5625 86.9973 67.3012 87.2747 67.1199 87.648C66.9385 88.0213 66.8265 88.5013 66.7839 89.088ZM80.7493 94.192C80.0559 94.192 79.4586 94.0373 78.9573 93.728C78.4666 93.4187 78.0826 92.9387 77.8053 92.288C77.5386 91.6267 77.4053 90.7733 77.4053 89.728C77.4053 88.736 77.5439 87.92 77.8213 87.28C78.0986 86.64 78.4826 86.1653 78.9733 85.856C79.4639 85.5467 80.0346 85.392 80.6853 85.392C81.0586 85.392 81.4053 85.4347 81.7253 85.52C82.0453 85.6053 82.3279 85.7387 82.5733 85.92C82.8293 86.1013 83.0533 86.3413 83.2453 86.64H83.3413V82.432H84.7493V94H83.6133L83.4853 92.8H83.3733C83.0853 93.2693 82.7119 93.6213 82.2533 93.856C81.7946 94.08 81.2933 94.192 80.7493 94.192ZM81.0853 92.96C81.6186 92.96 82.0506 92.8427 82.3813 92.608C82.7119 92.3733 82.9519 92.032 83.1013 91.584C83.2613 91.136 83.3413 90.5813 83.3413 89.92V89.664C83.3413 89.088 83.2826 88.6027 83.1653 88.208C83.0479 87.8133 82.8879 87.4987 82.6853 87.264C82.4826 87.0293 82.2479 86.864 81.9813 86.768C81.7146 86.672 81.4319 86.624 81.1333 86.624C80.6106 86.624 80.1839 86.7307 79.8533 86.944C79.5226 87.1467 79.2773 87.472 79.1173 87.92C78.9573 88.3573 78.8773 88.928 78.8773 89.632V89.968C78.8773 90.6933 78.9626 91.28 79.1332 91.728C79.3039 92.1653 79.5493 92.48 79.8693 92.672C80.1999 92.864 80.6053 92.96 81.0853 92.96ZM90.3234 94.192C89.4914 94.192 88.7874 94.0373 88.2114 93.728C87.646 93.408 87.214 92.9227 86.9154 92.272C86.6274 91.6213 86.4834 90.7947 86.4834 89.792C86.4834 88.7787 86.6274 87.952 86.9154 87.312C87.214 86.6613 87.6514 86.1813 88.2274 85.872C88.8034 85.552 89.5234 85.392 90.3874 85.392C91.1767 85.392 91.838 85.5467 92.3714 85.856C92.9047 86.1547 93.3047 86.608 93.5714 87.216C93.8487 87.8133 93.9874 88.5653 93.9874 89.472V90.144H87.9394C87.9607 90.816 88.0567 91.3707 88.2274 91.808C88.4087 92.2347 88.6754 92.5493 89.0274 92.752C89.3794 92.944 89.822 93.04 90.3554 93.04C90.718 93.04 91.0327 92.9973 91.2994 92.912C91.5767 92.816 91.806 92.6827 91.9874 92.512C92.1794 92.3413 92.3234 92.1387 92.4194 91.904C92.5154 91.6693 92.5687 91.4133 92.5794 91.136H93.9554C93.9447 91.584 93.8594 92 93.6994 92.384C93.5394 92.7573 93.3047 93.0773 92.9954 93.344C92.686 93.6107 92.3074 93.8187 91.8594 93.968C91.4114 94.1173 90.8994 94.192 90.3234 94.192ZM87.9714 89.088H92.5314C92.5314 88.6187 92.478 88.224 92.3714 87.904C92.2647 87.584 92.11 87.3227 91.9074 87.12C91.7154 86.9173 91.486 86.7733 91.2194 86.688C90.9634 86.592 90.67 86.544 90.3394 86.544C89.8487 86.544 89.4327 86.6347 89.0914 86.816C88.75 86.9973 88.4887 87.2747 88.3074 87.648C88.126 88.0213 88.014 88.5013 87.9714 89.088ZM97.841 94.192C97.5317 94.192 97.2223 94.1547 96.913 94.08C96.6037 94.0053 96.3157 93.8827 96.049 93.712C95.7823 93.5413 95.569 93.3067 95.409 93.008C95.249 92.6987 95.169 92.3147 95.169 91.856C95.169 91.28 95.3077 90.8053 95.585 90.432C95.8623 90.0587 96.2463 89.7707 96.737 89.568C97.2383 89.3547 97.8303 89.2107 98.513 89.136C99.1957 89.0507 99.937 89.008 100.737 89.008V88.048C100.737 87.7387 100.684 87.472 100.577 87.248C100.47 87.024 100.278 86.8533 100.001 86.736C99.7343 86.608 99.3503 86.544 98.849 86.544C98.369 86.544 97.985 86.608 97.697 86.736C97.4197 86.8533 97.2223 87.008 97.105 87.2C96.9983 87.392 96.945 87.6053 96.945 87.84V88.08H95.585C95.5743 88.0267 95.569 87.9733 95.569 87.92C95.569 87.8667 95.569 87.8027 95.569 87.728C95.569 87.216 95.7077 86.7893 95.985 86.448C96.273 86.096 96.673 85.8347 97.185 85.664C97.697 85.4827 98.2837 85.392 98.945 85.392C99.649 85.392 100.236 85.4933 100.705 85.696C101.185 85.8987 101.542 86.1867 101.777 86.56C102.022 86.9333 102.145 87.3813 102.145 87.904V92.464C102.145 92.6667 102.193 92.8107 102.289 92.896C102.385 92.9707 102.502 93.008 102.641 93.008H103.265V93.936C103.116 94 102.95 94.0533 102.769 94.096C102.588 94.1493 102.38 94.176 102.145 94.176C101.868 94.176 101.638 94.1173 101.457 94C101.276 93.8933 101.137 93.744 101.041 93.552C100.945 93.3493 100.881 93.1253 100.849 92.88H100.737C100.545 93.1467 100.3 93.3813 100.001 93.584C99.713 93.776 99.3877 93.9253 99.025 94.032C98.6623 94.1387 98.2677 94.192 97.841 94.192ZM98.193 93.008C98.5343 93.008 98.8543 92.9547 99.153 92.848C99.4623 92.7413 99.7343 92.592 99.969 92.4C100.204 92.1973 100.39 91.9573 100.529 91.68C100.668 91.4027 100.737 91.0987 100.737 90.768V90.064C99.873 90.064 99.137 90.112 98.529 90.208C97.921 90.304 97.4517 90.4747 97.121 90.72C96.801 90.9653 96.641 91.312 96.641 91.76C96.641 92.048 96.705 92.2827 96.833 92.464C96.961 92.6453 97.1423 92.784 97.377 92.88C97.6117 92.9653 97.8837 93.008 98.193 93.008ZM104.448 94V82.432H105.856V94H104.448ZM110.986 94.192C110.41 94.192 109.903 94.1333 109.466 94.016C109.028 93.8987 108.666 93.728 108.378 93.504C108.09 93.28 107.871 93.0133 107.722 92.704C107.572 92.3947 107.498 92.0427 107.498 91.648C107.498 91.5947 107.498 91.5467 107.498 91.504C107.498 91.4507 107.503 91.408 107.514 91.376H108.906C108.895 91.4187 108.89 91.456 108.89 91.488C108.89 91.52 108.89 91.552 108.89 91.584C108.9 91.9573 108.996 92.2507 109.178 92.464C109.37 92.6773 109.631 92.8267 109.962 92.912C110.292 92.9973 110.66 93.04 111.066 93.04C111.418 93.04 111.743 92.9973 112.042 92.912C112.34 92.816 112.575 92.6773 112.746 92.496C112.927 92.304 113.018 92.064 113.018 91.776C113.018 91.424 112.9 91.1573 112.666 90.976C112.442 90.784 112.143 90.6347 111.77 90.528C111.396 90.4213 111.007 90.3093 110.602 90.192C110.26 90.096 109.919 89.9893 109.578 89.872C109.236 89.7547 108.927 89.6107 108.65 89.44C108.383 89.2693 108.164 89.0507 107.993 88.784C107.834 88.5067 107.754 88.16 107.754 87.744C107.754 87.3707 107.828 87.04 107.978 86.752C108.138 86.464 108.362 86.2187 108.65 86.016C108.938 85.8133 109.284 85.664 109.69 85.568C110.106 85.4613 110.564 85.408 111.066 85.408C111.599 85.408 112.063 85.4667 112.458 85.584C112.863 85.7013 113.199 85.8667 113.466 86.08C113.732 86.2933 113.93 86.5387 114.058 86.816C114.186 87.0827 114.25 87.3707 114.25 87.68C114.25 87.744 114.25 87.808 114.25 87.872C114.25 87.9253 114.244 87.968 114.234 88H112.858V87.824C112.858 87.6107 112.799 87.408 112.682 87.216C112.575 87.0133 112.383 86.8533 112.106 86.736C111.839 86.608 111.466 86.544 110.986 86.544C110.676 86.544 110.41 86.5707 110.186 86.624C109.962 86.6667 109.775 86.7413 109.626 86.848C109.476 86.944 109.364 87.0613 109.289 87.2C109.215 87.328 109.178 87.4773 109.178 87.648C109.178 87.9253 109.268 88.1387 109.45 88.288C109.631 88.4373 109.871 88.56 110.17 88.656C110.479 88.752 110.81 88.8587 111.161 88.976C111.535 89.0827 111.914 89.1947 112.298 89.312C112.692 89.4187 113.05 89.5573 113.37 89.728C113.7 89.8987 113.962 90.1333 114.154 90.432C114.356 90.72 114.458 91.104 114.458 91.584C114.458 92.032 114.372 92.4213 114.202 92.752C114.031 93.0827 113.786 93.3547 113.466 93.568C113.156 93.7813 112.788 93.936 112.362 94.032C111.946 94.1387 111.487 94.192 110.986 94.192ZM116.518 94V92.32H118.086V94H116.518Z" fill="white"/>
<path d="M307.164 86.5118L283.669 56.3505L304.155 16.8248L307.164 86.5118Z" fill="#DCD0FF"/>
<path d="M244.542 54.1231L282.731 55.9314L303.217 16.406L244.542 54.1231Z" fill="#DCD0FF"/>
<path d="M213.954 140.717C213.915 140.736 213.872 140.744 213.827 140.739C213.679 140.723 213.533 140.705 213.387 140.685C213.26 140.668 213.171 140.552 213.188 140.425C213.205 140.299 213.321 140.209 213.448 140.226C213.591 140.245 213.734 140.263 213.878 140.279C214.005 140.293 214.096 140.407 214.083 140.534C214.073 140.616 214.022 140.683 213.954 140.717ZM210.804 140.099C210.754 140.123 210.696 140.13 210.639 140.114C209.748 139.86 208.861 139.536 208.003 139.152C207.886 139.1 207.834 138.963 207.886 138.846C207.938 138.729 208.075 138.677 208.192 138.73C209.03 139.105 209.896 139.421 210.766 139.669C210.889 139.704 210.96 139.832 210.925 139.955C210.906 140.021 210.861 140.072 210.804 140.099ZM205.75 137.845C205.681 137.879 205.596 137.877 205.526 137.834C204.749 137.352 203.98 136.807 203.239 136.213C203.14 136.133 203.124 135.987 203.204 135.887C203.284 135.788 203.429 135.772 203.529 135.852C204.255 136.434 205.009 136.969 205.77 137.441C205.879 137.508 205.912 137.651 205.845 137.76C205.821 137.798 205.788 137.827 205.75 137.845ZM201.417 134.389C201.331 134.431 201.224 134.416 201.153 134.345C200.508 133.706 199.872 133.011 199.261 132.282C199.179 132.184 199.192 132.038 199.29 131.956C199.386 131.875 199.534 131.887 199.616 131.985C200.218 132.704 200.844 133.387 201.479 134.016C201.569 134.107 201.57 134.253 201.48 134.344C201.461 134.363 201.44 134.378 201.417 134.389ZM197.845 130.141C197.745 130.189 197.622 130.16 197.555 130.066C197.029 129.325 196.513 128.539 196.022 127.73C195.955 127.621 195.99 127.478 196.099 127.412C196.21 127.345 196.351 127.38 196.417 127.489C196.903 128.289 197.413 129.066 197.933 129.799C198.007 129.903 197.982 130.047 197.878 130.121C197.868 130.129 197.856 130.135 197.845 130.141ZM194.955 125.398C194.842 125.452 194.706 125.408 194.648 125.297C194.442 124.904 194.24 124.503 194.046 124.107C193.836 123.675 193.627 123.231 193.427 122.787C193.374 122.67 193.43 122.531 193.543 122.48C193.659 122.428 193.796 122.48 193.849 122.596C194.048 123.037 194.254 123.477 194.462 123.904C194.654 124.296 194.854 124.693 195.058 125.082C195.118 125.196 195.074 125.335 194.96 125.395C194.959 125.396 194.956 125.397 194.955 125.398ZM192.662 120.34C192.657 120.342 192.651 120.345 192.644 120.347C192.525 120.394 192.391 120.335 192.345 120.215C192.011 119.356 191.704 118.467 191.433 117.574C191.396 117.452 191.464 117.323 191.587 117.286C191.71 117.248 191.839 117.317 191.876 117.44C192.143 118.321 192.447 119.199 192.776 120.048C192.82 120.161 192.769 120.288 192.662 120.34ZM191.049 115.03C191.033 115.038 191.016 115.044 190.998 115.048C190.873 115.076 190.749 114.997 190.721 114.873C190.519 113.971 190.346 113.048 190.207 112.127C190.188 112 190.274 111.882 190.402 111.863C190.528 111.844 190.646 111.931 190.665 112.058C190.802 112.968 190.973 113.881 191.173 114.771C191.197 114.878 191.143 114.984 191.049 115.03ZM269.613 72.3044C269.498 72.3602 269.36 72.3132 269.304 72.1991C269.247 72.0846 269.294 71.9458 269.409 71.889C269.643 71.773 269.879 71.6486 270.111 71.5191C270.672 71.2061 271.225 70.8552 271.753 70.4764C271.857 70.4011 272.001 70.4254 272.075 70.5296C272.15 70.6333 272.127 70.7778 272.023 70.8525C271.481 71.2416 270.914 71.602 270.337 71.9233C270.098 72.0562 269.855 72.1843 269.614 72.3037C269.614 72.304 269.613 72.3042 269.613 72.3044ZM267.034 73.3082C267.022 73.314 267.009 73.3188 266.996 73.3227C266.108 73.5778 265.179 73.7548 264.235 73.8483C264.108 73.8609 263.995 73.7681 263.982 73.6409C263.969 73.5138 264.063 73.4001 264.189 73.3878C265.106 73.2969 266.007 73.1253 266.868 72.878C266.991 72.8427 267.119 72.9135 267.155 73.0363C267.186 73.1458 267.133 73.2597 267.034 73.3082ZM274.111 69.0849C274.024 69.1274 273.916 69.112 273.845 69.0389C273.755 68.9476 273.757 68.8011 273.848 68.7115C274.486 68.0863 275.098 67.3951 275.666 66.6575C275.744 66.5564 275.89 66.5374 275.991 66.6156C276.092 66.6935 276.111 66.8389 276.033 66.94C275.451 67.6945 274.825 68.4018 274.172 69.0422C274.154 69.0601 274.133 69.0743 274.111 69.0849ZM190.222 109.541C190.196 109.553 190.168 109.562 190.139 109.564C190.011 109.574 189.9 109.479 189.89 109.351C189.817 108.429 189.775 107.49 189.767 106.561C189.766 106.433 189.868 106.328 189.996 106.327C190.124 106.326 190.228 106.428 190.23 106.556C190.238 107.475 190.279 108.403 190.351 109.315C190.359 109.413 190.305 109.501 190.222 109.541ZM261.544 73.877C261.51 73.8938 261.471 73.9022 261.43 73.9C260.545 73.8507 259.635 73.7444 258.648 73.5754C258.522 73.5537 258.438 73.4342 258.459 73.3082C258.481 73.1825 258.6 73.0977 258.726 73.1191C259.695 73.2851 260.588 73.3895 261.456 73.4378C261.583 73.4451 261.681 73.5543 261.674 73.6818C261.669 73.7687 261.617 73.8415 261.544 73.877ZM256.074 72.9759C256.027 72.9989 255.972 73.006 255.917 72.9925C255.112 72.7915 254.233 72.5498 253.23 72.2541C253.107 72.2178 253.037 72.0893 253.073 71.9666C253.109 71.8439 253.239 71.7738 253.361 71.8101C254.358 72.1043 255.231 72.344 256.029 72.5433C256.153 72.5742 256.229 72.6999 256.198 72.824C256.18 72.893 256.134 72.9469 256.074 72.9759ZM190.169 103.991C190.134 104.008 190.095 104.016 190.054 104.014C189.926 104.006 189.829 103.897 189.836 103.769C189.891 102.844 189.98 101.909 190.099 100.989C190.116 100.862 190.231 100.772 190.358 100.789C190.485 100.805 190.574 100.921 190.558 101.048C190.44 101.957 190.353 102.882 190.298 103.796C190.293 103.883 190.241 103.955 190.169 103.991ZM250.741 71.4275C250.689 71.4526 250.629 71.4588 250.57 71.4405L249.929 71.2396C249.268 71.0324 248.598 70.8226 247.92 70.614C247.798 70.5765 247.729 70.447 247.766 70.3249C247.804 70.2025 247.934 70.1342 248.056 70.1716C248.735 70.3806 249.405 70.5905 250.067 70.7978L250.708 70.9987C250.83 71.0368 250.898 71.1666 250.86 71.2887C250.841 71.3516 250.796 71.4005 250.741 71.4275ZM190.882 98.4863C190.837 98.5078 190.786 98.5155 190.735 98.5052C190.61 98.48 190.528 98.3578 190.553 98.2326C190.737 97.3212 190.954 96.4069 191.2 95.5153C191.234 95.392 191.362 95.3197 191.484 95.3538C191.608 95.3876 191.68 95.5151 191.646 95.6383C191.403 96.5195 191.188 97.423 191.007 98.3238C190.992 98.3975 190.944 98.4559 190.882 98.4863ZM245.427 69.8098C245.378 69.8339 245.32 69.8407 245.263 69.8244C244.311 69.5545 243.436 69.3219 242.587 69.1135C242.463 69.083 242.387 68.9577 242.417 68.8337C242.448 68.7096 242.573 68.6337 242.697 68.6642C243.552 68.8739 244.432 69.1079 245.389 69.3794C245.512 69.4143 245.583 69.5423 245.548 69.6651C245.53 69.7308 245.484 69.782 245.427 69.8098ZM192.358 93.1362C192.304 93.1625 192.24 93.168 192.179 93.1463C192.059 93.1036 191.996 92.9713 192.039 92.8508C192.35 91.9735 192.696 91.0999 193.069 90.254C193.12 90.1369 193.257 90.0842 193.374 90.1353C193.491 90.187 193.544 90.3235 193.492 90.4404C193.124 91.2759 192.782 92.1389 192.475 93.0055C192.454 93.0651 192.411 93.1105 192.358 93.1362ZM240.032 68.4976C239.989 68.5189 239.938 68.5266 239.886 68.5166C238.966 68.3368 238.049 68.1845 237.161 68.0636C237.035 68.0464 236.946 67.9298 236.963 67.8031C236.981 67.6762 237.097 67.5878 237.224 67.6051C238.12 67.7273 239.046 67.8811 239.975 68.0626C240.101 68.0872 240.182 68.2087 240.158 68.3342C240.144 68.4079 240.095 68.4668 240.032 68.4976ZM194.594 88.0579C194.53 88.0894 194.452 88.0906 194.384 88.0541C194.271 87.994 194.228 87.8538 194.288 87.7411C194.727 86.9188 195.201 86.1069 195.698 85.3279C195.766 85.2199 195.909 85.1885 196.017 85.2572C196.125 85.3259 196.157 85.469 196.088 85.5767C195.598 86.3455 195.13 87.1471 194.697 87.9589C194.673 88.0035 194.637 88.0372 194.594 88.0579ZM234.533 67.7558C234.498 67.7731 234.458 67.7816 234.416 67.7785C233.981 67.7478 233.543 67.724 233.113 67.7074C232.979 67.7023 232.478 67.687 231.658 67.7033C231.53 67.7059 231.424 67.6043 231.422 67.4764C231.419 67.3488 231.52 67.2432 231.649 67.2403C232.481 67.224 232.993 67.2397 233.13 67.2449C233.565 67.2616 234.009 67.2857 234.448 67.3167C234.576 67.3258 234.672 67.4362 234.662 67.5639C234.657 67.6495 234.605 67.7207 234.533 67.7558ZM197.578 83.3794C197.503 83.4163 197.409 83.4104 197.337 83.3562C197.235 83.2793 197.215 83.1342 197.292 83.0322C197.362 82.9392 197.433 82.8463 197.504 82.7538C198 82.1102 198.525 81.4766 199.064 80.8704C199.149 80.7754 199.296 80.7662 199.391 80.8513C199.487 80.9363 199.495 81.0825 199.41 81.1781C198.878 81.776 198.36 82.4012 197.871 83.0363C197.8 83.1275 197.731 83.219 197.661 83.311C197.638 83.341 197.61 83.3639 197.578 83.3794ZM228.979 67.8207C228.953 67.8331 228.925 67.8411 228.895 67.8433C227.989 67.9152 227.063 68.0129 226.144 68.1336C226.017 68.1504 225.9 68.0612 225.884 67.9343C225.867 67.8074 225.957 67.6913 226.083 67.6746C227.01 67.5527 227.944 67.4543 228.859 67.3817C228.986 67.3715 229.098 67.4667 229.108 67.5942C229.116 67.6921 229.062 67.7802 228.979 67.8207ZM223.47 68.5437C223.452 68.5528 223.431 68.5596 223.41 68.5635C222.502 68.73 221.591 68.9212 220.703 69.132C220.579 69.1616 220.454 69.0847 220.424 68.9603C220.395 68.836 220.472 68.7113 220.596 68.6817C221.492 68.4691 222.411 68.2763 223.327 68.1083C223.452 68.0854 223.573 68.1685 223.596 68.2942C223.616 68.3984 223.561 68.4994 223.47 68.5437ZM201.266 79.2339C201.177 79.2769 201.068 79.2604 200.997 79.1858C200.908 79.0935 200.912 78.947 201.004 78.8586C201.671 78.2199 202.375 77.5969 203.097 77.007C203.196 76.9262 203.342 76.9407 203.423 77.0397C203.504 77.1388 203.489 77.2845 203.39 77.3654C202.678 77.9477 201.983 78.5626 201.324 79.193C201.306 79.2102 201.287 79.2236 201.266 79.2339ZM218.067 69.8281C218.055 69.8337 218.043 69.8383 218.03 69.8421C217.142 70.1045 216.257 70.3929 215.402 70.6991C215.282 70.7423 215.149 70.6796 215.106 70.5593C215.063 70.4392 215.126 70.3068 215.246 70.2635C216.11 69.9541 217.002 69.6629 217.899 69.3983C218.022 69.3621 218.151 69.4322 218.187 69.5546C218.219 69.6648 218.166 69.7795 218.067 69.8281ZM205.559 75.7209C205.458 75.77 205.334 75.74 205.268 75.6453C205.195 75.5404 205.221 75.3963 205.325 75.3231C206.079 74.7968 206.868 74.2873 207.671 73.8088C207.782 73.7425 207.923 73.7794 207.988 73.8892C208.054 73.9988 208.018 74.141 207.908 74.2065C207.114 74.6795 206.335 75.1826 205.59 75.7026C205.58 75.7095 205.57 75.7156 205.559 75.7209ZM212.841 71.7038C212.837 71.7055 212.834 71.7072 212.83 71.7088C211.979 72.0732 211.145 72.4618 210.326 72.8765C210.216 72.9331 210.073 72.8886 210.015 72.7747C209.958 72.6607 210.003 72.5213 210.117 72.4636C210.945 72.0444 211.787 71.6519 212.648 71.2832C212.765 71.2329 212.901 71.2874 212.951 71.4048C213 71.5186 212.951 71.6501 212.841 71.7038Z" fill="#603CD0"/>
</g>
<defs>
<clipPath id="clip0_664_4463">
<rect width="340" height="124" rx="10" fill="white"/>
</clipPath>
</defs>
</svg>
