<svg width="40" height="41" viewBox="0 0 40 41" fill="none" xmlns="http://www.w3.org/2000/svg">
<rect y="0.625366" width="40" height="40" rx="20" fill="white"/>
<g clip-path="url(#clip0_1990_39169)">
<path d="M24.256 17.8268C25.5441 18.7471 27.1222 19.2887 28.8265 19.2887V16.0107C28.504 16.0108 28.1823 15.9772 27.8667 15.9103V18.4905C26.1625 18.4905 24.5846 17.9491 23.2962 17.0288V23.7182C23.2962 27.0646 20.582 29.7771 17.2341 29.7771C15.985 29.7771 14.8239 29.3997 13.8594 28.7523C14.9602 29.8773 16.4954 30.5752 18.1937 30.5752C21.5419 30.5752 24.2561 27.8626 24.2561 24.5161V17.8268H24.256ZM25.4401 14.5198C24.7818 13.8009 24.3495 12.872 24.256 11.8449V11.4233H23.3464C23.5754 12.7287 24.3564 13.8438 25.4401 14.5198ZM15.9769 26.1844C15.6091 25.7025 15.4102 25.1128 15.4112 24.5065C15.4112 22.976 16.6526 21.7351 18.1843 21.7351C18.4697 21.7349 18.7534 21.7787 19.0254 21.8649V18.5137C18.7075 18.4702 18.3867 18.4516 18.066 18.4584V21.0669C17.7938 20.9806 17.5099 20.9368 17.2244 20.9371C15.6928 20.9371 14.4514 22.1779 14.4514 23.7086C14.4514 24.7909 15.0719 25.728 15.9769 26.1844Z" fill="#FF004F"/>
<path d="M23.2954 17.0287C24.5839 17.949 26.1616 18.4904 27.8659 18.4904V15.9102C26.9146 15.7077 26.0724 15.2109 25.4393 14.5198C24.3555 13.8438 23.5746 12.7286 23.3456 11.4233H20.9564V24.516C20.951 26.0423 19.7117 27.2782 18.1833 27.2782C17.2828 27.2782 16.4827 26.8491 15.976 26.1844C15.0711 25.728 14.4506 24.7909 14.4506 23.7087C14.4506 22.1781 15.692 20.9371 17.2235 20.9371C17.517 20.9371 17.7998 20.9828 18.0651 21.0669V18.4585C14.776 18.5264 12.1309 21.2125 12.1309 24.516C12.1309 26.1651 12.7895 27.6601 13.8587 28.7524C14.8231 29.3997 15.9842 29.7773 17.2334 29.7773C20.5813 29.7773 23.2955 27.0645 23.2955 23.7182L23.2954 17.0287Z" fill="#0D0D0D"/>
<path d="M27.8667 15.9102V15.2127C27.0088 15.2139 26.1679 14.9738 25.4401 14.5198C26.0844 15.2248 26.9327 15.7109 27.8667 15.9103M23.3464 11.4233C23.3245 11.2986 23.3078 11.173 23.2962 11.047V10.6254H19.9973V23.7181C19.992 25.2443 18.7527 26.4802 17.2243 26.4802C16.791 26.4808 16.3636 26.3796 15.9767 26.1845C16.4834 26.8492 17.2835 27.2781 18.1841 27.2781C19.7124 27.2781 20.9518 26.0424 20.9572 24.5161V11.4234L23.3464 11.4233ZM18.0661 18.4585V17.7158C17.7904 17.6781 17.5125 17.6593 17.2343 17.6594C13.886 17.6594 11.1719 20.3721 11.1719 23.7181C11.1719 25.816 12.2386 27.6648 13.8595 28.7523C12.7904 27.6601 12.1317 26.165 12.1317 24.516C12.1317 21.2125 14.7768 18.5264 18.0661 18.4585Z" fill="#00F2EA"/>
</g>
<defs>
<clipPath id="clip0_1990_39169">
<rect width="17.6552" height="20" fill="white" transform="translate(11.1719 10.6254)"/>
</clipPath>
</defs>
</svg>
