<svg width="340" height="124" viewBox="0 0 340 124" fill="none" xmlns="http://www.w3.org/2000/svg">
<g clip-path="url(#clip0_664_4420)">
<rect width="340" height="124" rx="10" fill="#181818"/>
<path d="M29.312 40.192C28.704 40.192 28.1227 40.128 27.568 40C27.0133 39.8613 26.5227 39.6533 26.096 39.376C25.6693 39.088 25.3333 38.736 25.088 38.32C24.8427 37.8933 24.72 37.392 24.72 36.816C24.72 36.752 24.72 36.688 24.72 36.624C24.7307 36.56 24.736 36.512 24.736 36.48H26.832C26.832 36.5013 26.8267 36.544 26.816 36.608C26.816 36.6613 26.816 36.7093 26.816 36.752C26.816 37.104 26.9173 37.408 27.12 37.664C27.3227 37.9093 27.616 38.1013 28 38.24C28.384 38.368 28.8373 38.432 29.36 38.432C29.712 38.432 30.0213 38.4107 30.288 38.368C30.5653 38.3253 30.8 38.2667 30.992 38.192C31.1947 38.1067 31.36 38.0107 31.488 37.904C31.616 37.7867 31.7067 37.6587 31.76 37.52C31.824 37.3813 31.856 37.232 31.856 37.072C31.856 36.7627 31.76 36.5067 31.568 36.304C31.376 36.1013 31.1147 35.9307 30.784 35.792C30.464 35.6533 30.096 35.5307 29.68 35.424C29.2747 35.3067 28.8533 35.1893 28.416 35.072C27.9893 34.9547 27.568 34.816 27.152 34.656C26.7467 34.4853 26.3787 34.2827 26.048 34.048C25.728 33.8133 25.472 33.52 25.28 33.168C25.088 32.8053 24.992 32.3733 24.992 31.872C24.992 31.36 25.0987 30.912 25.312 30.528C25.536 30.144 25.8453 29.8293 26.24 29.584C26.6453 29.328 27.1147 29.1413 27.648 29.024C28.1813 28.896 28.7627 28.832 29.392 28.832C29.9787 28.832 30.528 28.896 31.04 29.024C31.5627 29.1413 32.0213 29.3333 32.416 29.6C32.8107 29.856 33.12 30.1867 33.344 30.592C33.568 30.9867 33.68 31.4613 33.68 32.016V32.208H31.616V32.048C31.616 31.7387 31.52 31.4773 31.328 31.264C31.1467 31.0507 30.8853 30.8853 30.544 30.768C30.2133 30.6507 29.824 30.592 29.376 30.592C28.896 30.592 28.4853 30.64 28.144 30.736C27.8027 30.8213 27.5413 30.9547 27.36 31.136C27.1787 31.3067 27.088 31.52 27.088 31.776C27.088 32.0427 27.184 32.2667 27.376 32.448C27.568 32.6293 27.824 32.784 28.144 32.912C28.4747 33.04 28.8427 33.1573 29.248 33.264C29.664 33.3707 30.0853 33.488 30.512 33.616C30.9493 33.7333 31.3707 33.872 31.776 34.032C32.192 34.192 32.56 34.3947 32.88 34.64C33.2107 34.8747 33.472 35.168 33.664 35.52C33.856 35.872 33.952 36.2933 33.952 36.784C33.952 37.6053 33.7493 38.2667 33.344 38.768C32.9493 39.2693 32.4 39.632 31.696 39.856C31.0027 40.08 30.208 40.192 29.312 40.192ZM39.3279 40.192C38.4319 40.192 37.6852 40.0373 37.0879 39.728C36.4905 39.408 36.0425 38.9227 35.7439 38.272C35.4452 37.6213 35.2959 36.7947 35.2959 35.792C35.2959 34.7787 35.4452 33.952 35.7439 33.312C36.0425 32.6613 36.4905 32.1813 37.0879 31.872C37.6852 31.552 38.4319 31.392 39.3279 31.392C40.1385 31.392 40.8159 31.5467 41.3599 31.856C41.9145 32.1547 42.3305 32.6187 42.6079 33.248C42.8852 33.8773 43.0239 34.6933 43.0239 35.696V36.272H37.2959C37.3172 36.7947 37.3972 37.2373 37.5359 37.6C37.6745 37.952 37.8879 38.2187 38.1759 38.4C38.4745 38.5707 38.8639 38.656 39.3439 38.656C39.5892 38.656 39.8185 38.624 40.0319 38.56C40.2452 38.496 40.4319 38.4 40.5919 38.272C40.7519 38.1333 40.8745 37.9627 40.9599 37.76C41.0559 37.5573 41.1039 37.3227 41.1039 37.056H43.0239C43.0239 37.5893 42.9279 38.0533 42.7359 38.448C42.5545 38.8427 42.2932 39.168 41.9519 39.424C41.6212 39.68 41.2319 39.872 40.7839 40C40.3359 40.128 39.8505 40.192 39.3279 40.192ZM37.3279 34.896H40.9919C40.9919 34.544 40.9492 34.2453 40.8639 34C40.7892 33.7547 40.6772 33.552 40.5279 33.392C40.3892 33.232 40.2185 33.12 40.0159 33.056C39.8132 32.9813 39.5839 32.944 39.3279 32.944C38.9119 32.944 38.5599 33.0133 38.2719 33.152C37.9945 33.2907 37.7812 33.504 37.6319 33.792C37.4825 34.08 37.3812 34.448 37.3279 34.896ZM48.1846 40.192C47.31 40.192 46.5793 40.0373 45.9926 39.728C45.4166 39.408 44.9846 38.9227 44.6966 38.272C44.4086 37.6213 44.2646 36.7947 44.2646 35.792C44.2646 34.7787 44.4086 33.952 44.6966 33.312C44.9953 32.6613 45.4326 32.1813 46.0086 31.872C46.5953 31.552 47.3206 31.392 48.1846 31.392C48.75 31.392 49.2513 31.4613 49.6886 31.6C50.126 31.7387 50.4993 31.952 50.8086 32.24C51.1286 32.5173 51.3686 32.864 51.5286 33.28C51.6886 33.696 51.7686 34.1813 51.7686 34.736H49.7846C49.7846 34.3413 49.726 34.016 49.6086 33.76C49.4913 33.504 49.31 33.312 49.0646 33.184C48.83 33.0453 48.526 32.976 48.1526 32.976C47.7153 32.976 47.358 33.0773 47.0806 33.28C46.8033 33.4827 46.5953 33.7867 46.4566 34.192C46.3286 34.5867 46.2646 35.088 46.2646 35.696V35.904C46.2646 36.5013 46.3286 37.0027 46.4566 37.408C46.5953 37.8133 46.8086 38.1173 47.0966 38.32C47.3846 38.512 47.7633 38.608 48.2326 38.608C48.5953 38.608 48.894 38.544 49.1286 38.416C49.374 38.2773 49.5606 38.0747 49.6886 37.808C49.8166 37.5413 49.8806 37.2213 49.8806 36.848H51.7686C51.7686 37.3707 51.6886 37.84 51.5286 38.256C51.3686 38.672 51.134 39.024 50.8246 39.312C50.5153 39.6 50.1366 39.8187 49.6886 39.968C49.2513 40.1173 48.75 40.192 48.1846 40.192ZM56.1026 40.192C55.292 40.192 54.6306 39.9733 54.1186 39.536C53.6173 39.088 53.3666 38.3307 53.3666 37.264V31.584H55.3186V36.912C55.3186 37.2107 55.3506 37.4613 55.4146 37.664C55.4893 37.856 55.5906 38.016 55.7186 38.144C55.8573 38.2613 56.0226 38.3467 56.2146 38.4C56.4066 38.4533 56.62 38.48 56.8546 38.48C57.2066 38.48 57.5213 38.3947 57.7986 38.224C58.0866 38.0533 58.3106 37.8187 58.4706 37.52C58.6413 37.2107 58.7266 36.864 58.7266 36.48V31.584H60.6786V40H59.0626L58.9026 38.88H58.7906C58.5986 39.136 58.3693 39.3653 58.1026 39.568C57.8466 39.76 57.548 39.9093 57.2066 40.016C56.876 40.1333 56.508 40.192 56.1026 40.192ZM62.7588 40V31.584H64.3908L64.5508 32.912H64.6628C64.7694 32.6453 64.8974 32.4 65.0468 32.176C65.2068 31.9413 65.4094 31.7547 65.6548 31.616C65.9001 31.4667 66.1988 31.392 66.5508 31.392C66.7214 31.392 66.8761 31.408 67.0148 31.44C67.1641 31.472 67.2761 31.504 67.3508 31.536V33.376H66.7588C66.4281 33.376 66.1348 33.424 65.8788 33.52C65.6228 33.6053 65.4041 33.744 65.2228 33.936C65.0521 34.128 64.9241 34.368 64.8388 34.656C64.7534 34.944 64.7108 35.28 64.7108 35.664V40H62.7588ZM72.0154 40.192C71.1194 40.192 70.3727 40.0373 69.7754 39.728C69.178 39.408 68.73 38.9227 68.4314 38.272C68.1327 37.6213 67.9834 36.7947 67.9834 35.792C67.9834 34.7787 68.1327 33.952 68.4314 33.312C68.73 32.6613 69.178 32.1813 69.7754 31.872C70.3727 31.552 71.1194 31.392 72.0154 31.392C72.826 31.392 73.5034 31.5467 74.0474 31.856C74.602 32.1547 75.018 32.6187 75.2954 33.248C75.5727 33.8773 75.7114 34.6933 75.7114 35.696V36.272H69.9834C70.0047 36.7947 70.0847 37.2373 70.2234 37.6C70.362 37.952 70.5754 38.2187 70.8634 38.4C71.162 38.5707 71.5514 38.656 72.0314 38.656C72.2767 38.656 72.506 38.624 72.7194 38.56C72.9327 38.496 73.1194 38.4 73.2794 38.272C73.4394 38.1333 73.562 37.9627 73.6474 37.76C73.7434 37.5573 73.7914 37.3227 73.7914 37.056H75.7114C75.7114 37.5893 75.6154 38.0533 75.4234 38.448C75.242 38.8427 74.9807 39.168 74.6394 39.424C74.3087 39.68 73.9194 39.872 73.4714 40C73.0234 40.128 72.538 40.192 72.0154 40.192ZM70.0154 34.896H73.6794C73.6794 34.544 73.6367 34.2453 73.5514 34C73.4767 33.7547 73.3647 33.552 73.2154 33.392C73.0767 33.232 72.906 33.12 72.7034 33.056C72.5007 32.9813 72.2714 32.944 72.0154 32.944C71.5994 32.944 71.2474 33.0133 70.9594 33.152C70.682 33.2907 70.4687 33.504 70.3194 33.792C70.17 34.08 70.0687 34.448 70.0154 34.896ZM80.7473 40V29.024H86.2513C87.0619 29.024 87.7286 29.168 88.2513 29.456C88.7846 29.744 89.1846 30.1493 89.4513 30.672C89.7179 31.1947 89.8513 31.8187 89.8513 32.544C89.8513 33.2587 89.7126 33.8827 89.4353 34.416C89.1579 34.9493 88.7419 35.3653 88.1873 35.664C87.6433 35.952 86.9606 36.096 86.1393 36.096H82.8273V40H80.7473ZM82.8273 34.32H86.0753C86.6086 34.32 87.0193 34.1653 87.3073 33.856C87.6059 33.536 87.7552 33.0987 87.7552 32.544C87.7552 32.1707 87.6913 31.856 87.5633 31.6C87.4353 31.344 87.2486 31.1467 87.0033 31.008C86.7579 30.8693 86.4486 30.8 86.0753 30.8H82.8273V34.32ZM93.2938 40.192C93.0591 40.192 92.7871 40.16 92.4778 40.096C92.1791 40.0427 91.8858 39.936 91.5978 39.776C91.3204 39.616 91.0911 39.3813 90.9098 39.072C90.7284 38.752 90.6378 38.336 90.6378 37.824C90.6378 37.248 90.7658 36.7733 91.0218 36.4C91.2778 36.016 91.6351 35.7173 92.0938 35.504C92.5631 35.28 93.1178 35.1253 93.7578 35.04C94.4084 34.944 95.1178 34.896 95.8858 34.896V34.208C95.8858 33.9627 95.8484 33.744 95.7738 33.552C95.6991 33.36 95.5604 33.2107 95.3578 33.104C95.1658 32.9867 94.8724 32.928 94.4778 32.928C94.0831 32.928 93.7738 32.976 93.5498 33.072C93.3258 33.168 93.1711 33.2853 93.0858 33.424C93.0004 33.5627 92.9578 33.7067 92.9578 33.856V34.08H91.0698C91.0591 34.0267 91.0538 33.9733 91.0538 33.92C91.0538 33.8667 91.0538 33.8027 91.0538 33.728C91.0538 33.248 91.1978 32.832 91.4858 32.48C91.7738 32.128 92.1738 31.8613 92.6858 31.68C93.1978 31.488 93.7898 31.392 94.4618 31.392C95.2298 31.392 95.8591 31.4987 96.3498 31.712C96.8511 31.9253 97.2244 32.2293 97.4698 32.624C97.7151 33.0187 97.8378 33.4987 97.8378 34.064V38.032C97.8378 38.2347 97.8964 38.3787 98.0138 38.464C98.1311 38.5493 98.2591 38.592 98.3978 38.592H98.9097V39.936C98.8031 39.9787 98.6484 40.0267 98.4458 40.08C98.2431 40.144 97.9924 40.176 97.6938 40.176C97.4164 40.176 97.1658 40.128 96.9418 40.032C96.7284 39.9467 96.5471 39.8187 96.3978 39.648C96.2484 39.4773 96.1418 39.2747 96.0778 39.04H95.9818C95.8004 39.264 95.5818 39.4667 95.3258 39.648C95.0804 39.8187 94.7871 39.952 94.4458 40.048C94.1151 40.144 93.7311 40.192 93.2938 40.192ZM93.8858 38.592C94.2058 38.592 94.4884 38.544 94.7338 38.448C94.9898 38.352 95.1978 38.2187 95.3578 38.048C95.5284 37.8773 95.6564 37.6693 95.7418 37.424C95.8378 37.1787 95.8858 36.912 95.8858 36.624V36.24C95.2991 36.24 94.7551 36.2773 94.2538 36.352C93.7631 36.4267 93.3684 36.5653 93.0698 36.768C92.7818 36.9707 92.6378 37.2587 92.6378 37.632C92.6378 37.824 92.6804 37.9947 92.7658 38.144C92.8618 38.2827 93.0004 38.3947 93.1818 38.48C93.3738 38.5547 93.6084 38.592 93.8858 38.592ZM101.144 42.912C100.75 42.912 100.43 42.88 100.184 42.816C99.939 42.7627 99.8004 42.7307 99.7684 42.72V41.328H100.664C100.888 41.328 101.112 41.2693 101.336 41.152C101.56 41.0347 101.763 40.8747 101.944 40.672C102.126 40.4693 102.259 40.2453 102.344 40L99.0644 31.584H101.112L102.68 35.616C102.755 35.7973 102.83 36.0267 102.904 36.304C102.99 36.5813 103.075 36.8693 103.16 37.168C103.246 37.456 103.315 37.7173 103.368 37.952H103.448C103.491 37.792 103.539 37.6107 103.592 37.408C103.646 37.2053 103.699 36.9973 103.752 36.784C103.816 36.5707 103.88 36.3627 103.944 36.16C104.008 35.9573 104.062 35.7813 104.104 35.632L105.384 31.584H107.368L104.552 39.568C104.392 40.016 104.211 40.4427 104.008 40.848C103.816 41.2533 103.587 41.6107 103.32 41.92C103.064 42.2293 102.755 42.4693 102.392 42.64C102.04 42.8213 101.624 42.912 101.144 42.912ZM108.493 40V31.584H110.125L110.285 32.704H110.397C110.578 32.448 110.786 32.224 111.021 32.032C111.256 31.8293 111.522 31.6747 111.821 31.568C112.13 31.4507 112.466 31.392 112.829 31.392C113.32 31.392 113.757 31.4933 114.141 31.696C114.525 31.8987 114.824 32.2347 115.037 32.704H115.149C115.33 32.448 115.544 32.224 115.789 32.032C116.034 31.8293 116.317 31.6747 116.637 31.568C116.957 31.4507 117.304 31.392 117.677 31.392C118.178 31.392 118.621 31.4827 119.005 31.664C119.389 31.8453 119.693 32.144 119.917 32.56C120.141 32.976 120.253 33.5307 120.253 34.224V40H118.301V34.624C118.301 34.336 118.269 34.096 118.205 33.904C118.141 33.7013 118.05 33.5467 117.933 33.44C117.826 33.3227 117.688 33.2373 117.517 33.184C117.357 33.1307 117.181 33.104 116.989 33.104C116.68 33.104 116.402 33.1893 116.157 33.36C115.912 33.5307 115.714 33.7653 115.565 34.064C115.426 34.3627 115.357 34.7093 115.357 35.104V40H113.405V34.624C113.405 34.336 113.373 34.096 113.309 33.904C113.245 33.7013 113.154 33.5467 113.037 33.44C112.93 33.3227 112.792 33.2373 112.621 33.184C112.461 33.1307 112.285 33.104 112.093 33.104C111.784 33.104 111.501 33.1893 111.245 33.36C111 33.5307 110.802 33.7653 110.653 34.064C110.514 34.3627 110.445 34.7093 110.445 35.104V40H108.493ZM125.89 40.192C124.994 40.192 124.248 40.0373 123.65 39.728C123.053 39.408 122.605 38.9227 122.306 38.272C122.008 37.6213 121.858 36.7947 121.858 35.792C121.858 34.7787 122.008 33.952 122.306 33.312C122.605 32.6613 123.053 32.1813 123.65 31.872C124.248 31.552 124.994 31.392 125.89 31.392C126.701 31.392 127.378 31.5467 127.922 31.856C128.477 32.1547 128.893 32.6187 129.17 33.248C129.448 33.8773 129.586 34.6933 129.586 35.696V36.272H123.858C123.88 36.7947 123.96 37.2373 124.098 37.6C124.237 37.952 124.45 38.2187 124.738 38.4C125.037 38.5707 125.426 38.656 125.906 38.656C126.152 38.656 126.381 38.624 126.594 38.56C126.808 38.496 126.994 38.4 127.154 38.272C127.314 38.1333 127.437 37.9627 127.522 37.76C127.618 37.5573 127.666 37.3227 127.666 37.056H129.586C129.586 37.5893 129.49 38.0533 129.298 38.448C129.117 38.8427 128.856 39.168 128.514 39.424C128.184 39.68 127.794 39.872 127.346 40C126.898 40.128 126.413 40.192 125.89 40.192ZM123.89 34.896H127.554C127.554 34.544 127.512 34.2453 127.426 34C127.352 33.7547 127.24 33.552 127.09 33.392C126.952 33.232 126.781 33.12 126.578 33.056C126.376 32.9813 126.146 32.944 125.89 32.944C125.474 32.944 125.122 33.0133 124.834 33.152C124.557 33.2907 124.344 33.504 124.194 33.792C124.045 34.08 123.944 34.448 123.89 34.896ZM131.243 40V31.584H132.875L133.035 32.704H133.147C133.339 32.448 133.563 32.224 133.819 32.032C134.086 31.8293 134.384 31.6747 134.715 31.568C135.056 31.4507 135.43 31.392 135.835 31.392C136.368 31.392 136.838 31.488 137.243 31.68C137.659 31.872 137.984 32.1813 138.219 32.608C138.454 33.0347 138.571 33.6053 138.571 34.32V40H136.603V34.672C136.603 34.3733 136.566 34.128 136.491 33.936C136.427 33.7333 136.326 33.5733 136.187 33.456C136.059 33.328 135.899 33.2373 135.707 33.184C135.515 33.1307 135.302 33.104 135.067 33.104C134.715 33.104 134.395 33.1893 134.107 33.36C133.83 33.5307 133.606 33.7653 133.435 34.064C133.275 34.3627 133.195 34.7093 133.195 35.104V40H131.243ZM142.811 40.192C142.288 40.192 141.878 40.0907 141.579 39.888C141.28 39.6747 141.067 39.408 140.939 39.088C140.822 38.7573 140.763 38.4213 140.763 38.08V33.184H139.755V31.584H140.811L141.163 29.232H142.715V31.584H144.171V33.184H142.715V37.888C142.715 38.112 142.774 38.288 142.891 38.416C143.008 38.5333 143.184 38.592 143.419 38.592H144.171V39.936C144.064 39.9787 143.931 40.016 143.771 40.048C143.622 40.0907 143.462 40.1227 143.291 40.144C143.12 40.176 142.96 40.192 142.811 40.192ZM148.898 40.192C148.29 40.192 147.757 40.128 147.298 40C146.839 39.8613 146.455 39.6747 146.146 39.44C145.837 39.2053 145.602 38.9333 145.442 38.624C145.293 38.304 145.218 37.9573 145.218 37.584C145.218 37.5307 145.218 37.4827 145.218 37.44C145.229 37.3973 145.234 37.3653 145.234 37.344H147.154C147.154 37.3653 147.154 37.3867 147.154 37.408C147.154 37.4293 147.154 37.4507 147.154 37.472C147.165 37.76 147.255 37.9947 147.426 38.176C147.597 38.3467 147.821 38.4693 148.098 38.544C148.375 38.6187 148.669 38.656 148.978 38.656C149.255 38.656 149.517 38.6293 149.762 38.576C150.018 38.512 150.226 38.416 150.386 38.288C150.557 38.1493 150.642 37.9733 150.642 37.76C150.642 37.4827 150.535 37.2693 150.322 37.12C150.109 36.9707 149.826 36.848 149.474 36.752C149.133 36.656 148.765 36.5547 148.37 36.448C148.018 36.352 147.666 36.2453 147.314 36.128C146.962 36.0107 146.642 35.8613 146.354 35.68C146.077 35.4987 145.847 35.264 145.666 34.976C145.495 34.688 145.41 34.3307 145.41 33.904C145.41 33.488 145.501 33.1253 145.682 32.816C145.863 32.5067 146.114 32.2507 146.434 32.048C146.754 31.8347 147.133 31.6747 147.57 31.568C148.007 31.4613 148.482 31.408 148.994 31.408C149.495 31.408 149.949 31.4613 150.354 31.568C150.77 31.6747 151.127 31.8293 151.426 32.032C151.735 32.224 151.97 32.464 152.13 32.752C152.301 33.0293 152.386 33.3387 152.386 33.68C152.386 33.7547 152.381 33.8293 152.37 33.904C152.37 33.9787 152.37 34.0213 152.37 34.032H150.466V33.92C150.466 33.7173 150.402 33.5467 150.274 33.408C150.157 33.2587 149.981 33.1413 149.746 33.056C149.522 32.9707 149.239 32.928 148.898 32.928C148.642 32.928 148.418 32.9493 148.226 32.992C148.034 33.0347 147.874 33.0933 147.746 33.168C147.629 33.2427 147.538 33.328 147.474 33.424C147.41 33.52 147.378 33.6267 147.378 33.744C147.378 33.9467 147.458 34.1067 147.618 34.224C147.778 34.3413 147.991 34.4427 148.258 34.528C148.535 34.6133 148.834 34.704 149.154 34.8C149.538 34.9067 149.933 35.0187 150.338 35.136C150.743 35.2427 151.117 35.3813 151.458 35.552C151.81 35.7227 152.093 35.9627 152.306 36.272C152.519 36.5813 152.626 36.992 152.626 37.504C152.626 37.9947 152.53 38.416 152.338 38.768C152.157 39.1093 151.895 39.3867 151.554 39.6C151.223 39.8027 150.829 39.952 150.37 40.048C149.922 40.144 149.431 40.192 148.898 40.192Z" fill="white"/>
<path opacity="0.5" d="M25.376 71V60.024H33.152V61.336H26.896V64.856H32.592V66.152H26.896V71H25.376ZM37.5089 71.192C36.6982 71.192 36.0475 70.984 35.5569 70.568C35.0662 70.152 34.8209 69.4267 34.8209 68.392V62.584H36.2289V68.2C36.2289 68.552 36.2715 68.84 36.3569 69.064C36.4422 69.288 36.5649 69.464 36.7249 69.592C36.8849 69.72 37.0715 69.8107 37.2849 69.864C37.5089 69.9173 37.7489 69.944 38.0049 69.944C38.4102 69.944 38.7835 69.848 39.1249 69.656C39.4662 69.464 39.7435 69.1867 39.9569 68.824C40.1809 68.4507 40.2929 68.0187 40.2929 67.528V62.584H41.7009V71H40.5649L40.4369 69.736H40.3249C40.1009 70.0773 39.8449 70.3547 39.5569 70.568C39.2795 70.7813 38.9649 70.936 38.6129 71.032C38.2715 71.1387 37.9035 71.192 37.5089 71.192ZM43.8853 71V62.584H45.0213L45.1493 63.848H45.2613C45.4853 63.5067 45.7359 63.2293 46.0133 63.016C46.3013 62.8027 46.6159 62.648 46.9573 62.552C47.3093 62.4453 47.6826 62.392 48.0773 62.392C48.6106 62.392 49.0746 62.4827 49.4693 62.664C49.8746 62.8453 50.1893 63.1387 50.4133 63.544C50.6479 63.9493 50.7653 64.4987 50.7653 65.192V71H49.3573V65.384C49.3573 65.032 49.3093 64.744 49.2133 64.52C49.1279 64.296 49.0053 64.12 48.8453 63.992C48.6959 63.864 48.5093 63.7733 48.2853 63.72C48.0719 63.6667 47.8319 63.64 47.5653 63.64C47.1706 63.64 46.7973 63.736 46.4453 63.928C46.0933 64.12 45.8106 64.3973 45.5973 64.76C45.3946 65.1227 45.2933 65.5547 45.2933 66.056V71H43.8853ZM55.7649 71.192C55.0715 71.192 54.4742 71.0373 53.9729 70.728C53.4822 70.4187 53.0982 69.9387 52.8209 69.288C52.5542 68.6267 52.4209 67.7733 52.4209 66.728C52.4209 65.736 52.5595 64.92 52.8369 64.28C53.1142 63.64 53.4982 63.1653 53.9889 62.856C54.4795 62.5467 55.0502 62.392 55.7009 62.392C56.0742 62.392 56.4209 62.4347 56.7409 62.52C57.0609 62.6053 57.3435 62.7387 57.5889 62.92C57.8449 63.1013 58.0689 63.3413 58.2609 63.64H58.3569V59.432H59.7649V71H58.6289L58.5009 69.8H58.3889C58.1009 70.2693 57.7275 70.6213 57.2689 70.856C56.8102 71.08 56.3089 71.192 55.7649 71.192ZM56.1009 69.96C56.6342 69.96 57.0662 69.8427 57.3969 69.608C57.7275 69.3733 57.9675 69.032 58.1169 68.584C58.2769 68.136 58.3569 67.5813 58.3569 66.92V66.664C58.3569 66.088 58.2982 65.6027 58.1809 65.208C58.0635 64.8133 57.9035 64.4987 57.7009 64.264C57.4982 64.0293 57.2635 63.864 56.9969 63.768C56.7302 63.672 56.4475 63.624 56.1489 63.624C55.6262 63.624 55.1995 63.7307 54.8689 63.944C54.5382 64.1467 54.2929 64.472 54.1329 64.92C53.9729 65.3573 53.8929 65.928 53.8929 66.632V66.968C53.8929 67.6933 53.9782 68.28 54.1489 68.728C54.3195 69.1653 54.5649 69.48 54.8849 69.672C55.2155 69.864 55.6209 69.96 56.1009 69.96ZM64.923 71.192C64.347 71.192 63.8403 71.1333 63.403 71.016C62.9657 70.8987 62.603 70.728 62.315 70.504C62.027 70.28 61.8083 70.0133 61.659 69.704C61.5097 69.3947 61.435 69.0427 61.435 68.648C61.435 68.5947 61.435 68.5467 61.435 68.504C61.435 68.4507 61.4403 68.408 61.451 68.376H62.843C62.8323 68.4187 62.827 68.456 62.827 68.488C62.827 68.52 62.827 68.552 62.827 68.584C62.8377 68.9573 62.9337 69.2507 63.115 69.464C63.307 69.6773 63.5683 69.8267 63.899 69.912C64.2297 69.9973 64.5977 70.04 65.003 70.04C65.355 70.04 65.6803 69.9973 65.979 69.912C66.2777 69.816 66.5123 69.6773 66.683 69.496C66.8643 69.304 66.955 69.064 66.955 68.776C66.955 68.424 66.8377 68.1573 66.603 67.976C66.379 67.784 66.0803 67.6347 65.707 67.528C65.3337 67.4213 64.9443 67.3093 64.539 67.192C64.1977 67.096 63.8563 66.9893 63.515 66.872C63.1737 66.7547 62.8643 66.6107 62.587 66.44C62.3203 66.2693 62.1017 66.0507 61.931 65.784C61.771 65.5067 61.691 65.16 61.691 64.744C61.691 64.3707 61.7657 64.04 61.915 63.752C62.075 63.464 62.299 63.2187 62.587 63.016C62.875 62.8133 63.2217 62.664 63.627 62.568C64.043 62.4613 64.5017 62.408 65.003 62.408C65.5363 62.408 66.0003 62.4667 66.395 62.584C66.8003 62.7013 67.1363 62.8667 67.403 63.08C67.6697 63.2933 67.867 63.5387 67.995 63.816C68.123 64.0827 68.187 64.3707 68.187 64.68C68.187 64.744 68.187 64.808 68.187 64.872C68.187 64.9253 68.1817 64.968 68.171 65H66.795V64.824C66.795 64.6107 66.7363 64.408 66.619 64.216C66.5123 64.0133 66.3203 63.8533 66.043 63.736C65.7763 63.608 65.403 63.544 64.923 63.544C64.6137 63.544 64.347 63.5707 64.123 63.624C63.899 63.6667 63.7123 63.7413 63.563 63.848C63.4137 63.944 63.3017 64.0613 63.227 64.2C63.1523 64.328 63.115 64.4773 63.115 64.648C63.115 64.9253 63.2057 65.1387 63.387 65.288C63.5683 65.4373 63.8083 65.56 64.107 65.656C64.4163 65.752 64.747 65.8587 65.099 65.976C65.4723 66.0827 65.851 66.1947 66.235 66.312C66.6297 66.4187 66.987 66.5573 67.307 66.728C67.6377 66.8987 67.899 67.1333 68.091 67.432C68.2937 67.72 68.395 68.104 68.395 68.584C68.395 69.032 68.3097 69.4213 68.139 69.752C67.9683 70.0827 67.723 70.3547 67.403 70.568C67.0937 70.7813 66.7257 70.936 66.299 71.032C65.883 71.1387 65.4243 71.192 64.923 71.192ZM73.479 71V62.584H74.615L74.743 63.976H74.855C74.9403 63.7093 75.0577 63.4587 75.207 63.224C75.3563 62.9787 75.559 62.7813 75.815 62.632C76.071 62.472 76.3857 62.392 76.759 62.392C76.919 62.392 77.063 62.408 77.191 62.44C77.3297 62.4613 77.431 62.488 77.495 62.52V63.816H76.967C76.6043 63.816 76.2897 63.88 76.023 64.008C75.767 64.1253 75.5537 64.296 75.383 64.52C75.2123 64.744 75.0843 65.0107 74.999 65.32C74.9243 65.6293 74.887 65.96 74.887 66.312V71H73.479ZM81.9953 71.192C81.1633 71.192 80.4593 71.0373 79.8832 70.728C79.3179 70.408 78.8859 69.9227 78.5872 69.272C78.2993 68.6213 78.1553 67.7947 78.1553 66.792C78.1553 65.7787 78.2993 64.952 78.5872 64.312C78.8859 63.6613 79.3233 63.1813 79.8993 62.872C80.4753 62.552 81.1953 62.392 82.0593 62.392C82.8486 62.392 83.5099 62.5467 84.0433 62.856C84.5766 63.1547 84.9766 63.608 85.2433 64.216C85.5206 64.8133 85.6593 65.5653 85.6593 66.472V67.144H79.6113C79.6326 67.816 79.7286 68.3707 79.8993 68.808C80.0806 69.2347 80.3473 69.5493 80.6993 69.752C81.0513 69.944 81.4939 70.04 82.0273 70.04C82.3899 70.04 82.7046 69.9973 82.9713 69.912C83.2486 69.816 83.4779 69.6827 83.6593 69.512C83.8513 69.3413 83.9953 69.1387 84.0913 68.904C84.1873 68.6693 84.2406 68.4133 84.2513 68.136H85.6273C85.6166 68.584 85.5312 69 85.3713 69.384C85.2113 69.7573 84.9766 70.0773 84.6673 70.344C84.3579 70.6107 83.9793 70.8187 83.5313 70.968C83.0833 71.1173 82.5713 71.192 81.9953 71.192ZM79.6432 66.088H84.2033C84.2033 65.6187 84.1499 65.224 84.0433 64.904C83.9366 64.584 83.7819 64.3227 83.5793 64.12C83.3873 63.9173 83.1579 63.7733 82.8913 63.688C82.6353 63.592 82.3419 63.544 82.0113 63.544C81.5206 63.544 81.1046 63.6347 80.7633 63.816C80.4219 63.9973 80.1606 64.2747 79.9793 64.648C79.7979 65.0213 79.6859 65.5013 79.6432 66.088ZM87.4009 71V59.432H88.8089V71H87.4009ZM94.3546 71.192C93.5226 71.192 92.8186 71.0373 92.2426 70.728C91.6773 70.408 91.2453 69.9227 90.9466 69.272C90.6586 68.6213 90.5146 67.7947 90.5146 66.792C90.5146 65.7787 90.6586 64.952 90.9466 64.312C91.2453 63.6613 91.6826 63.1813 92.2586 62.872C92.8346 62.552 93.5546 62.392 94.4186 62.392C95.208 62.392 95.8693 62.5467 96.4026 62.856C96.936 63.1547 97.336 63.608 97.6026 64.216C97.88 64.8133 98.0186 65.5653 98.0186 66.472V67.144H91.9706C91.992 67.816 92.088 68.3707 92.2586 68.808C92.44 69.2347 92.7066 69.5493 93.0586 69.752C93.4106 69.944 93.8533 70.04 94.3866 70.04C94.7493 70.04 95.064 69.9973 95.3306 69.912C95.608 69.816 95.8373 69.6827 96.0186 69.512C96.2106 69.3413 96.3546 69.1387 96.4506 68.904C96.5466 68.6693 96.6 68.4133 96.6106 68.136H97.9866C97.976 68.584 97.8906 69 97.7306 69.384C97.5706 69.7573 97.336 70.0773 97.0266 70.344C96.7173 70.6107 96.3386 70.8187 95.8906 70.968C95.4426 71.1173 94.9306 71.192 94.3546 71.192ZM92.0026 66.088H96.5626C96.5626 65.6187 96.5093 65.224 96.4026 64.904C96.296 64.584 96.1413 64.3227 95.9386 64.12C95.7466 63.9173 95.5173 63.7733 95.2506 63.688C94.9946 63.592 94.7013 63.544 94.3706 63.544C93.88 63.544 93.464 63.6347 93.1226 63.816C92.7813 63.9973 92.52 64.2747 92.3386 64.648C92.1573 65.0213 92.0453 65.5013 92.0026 66.088ZM101.872 71.192C101.563 71.192 101.254 71.1547 100.944 71.08C100.635 71.0053 100.347 70.8827 100.08 70.712C99.8136 70.5413 99.6003 70.3067 99.4403 70.008C99.2803 69.6987 99.2003 69.3147 99.2003 68.856C99.2003 68.28 99.3389 67.8053 99.6163 67.432C99.8936 67.0587 100.278 66.7707 100.768 66.568C101.27 66.3547 101.862 66.2107 102.544 66.136C103.227 66.0507 103.968 66.008 104.768 66.008V65.048C104.768 64.7387 104.715 64.472 104.608 64.248C104.502 64.024 104.31 63.8533 104.032 63.736C103.766 63.608 103.382 63.544 102.88 63.544C102.4 63.544 102.016 63.608 101.728 63.736C101.451 63.8533 101.254 64.008 101.136 64.2C101.03 64.392 100.976 64.6053 100.976 64.84V65.08H99.6163C99.6056 65.0267 99.6003 64.9733 99.6003 64.92C99.6003 64.8667 99.6003 64.8027 99.6003 64.728C99.6003 64.216 99.7389 63.7893 100.016 63.448C100.304 63.096 100.704 62.8347 101.216 62.664C101.728 62.4827 102.315 62.392 102.976 62.392C103.68 62.392 104.267 62.4933 104.736 62.696C105.216 62.8987 105.574 63.1867 105.808 63.56C106.054 63.9333 106.176 64.3813 106.176 64.904V69.464C106.176 69.6667 106.224 69.8107 106.32 69.896C106.416 69.9707 106.534 70.008 106.672 70.008H107.296V70.936C107.147 71 106.982 71.0533 106.8 71.096C106.619 71.1493 106.411 71.176 106.176 71.176C105.899 71.176 105.67 71.1173 105.488 71C105.307 70.8933 105.168 70.744 105.072 70.552C104.976 70.3493 104.912 70.1253 104.88 69.88H104.768C104.576 70.1467 104.331 70.3813 104.032 70.584C103.744 70.776 103.419 70.9253 103.056 71.032C102.694 71.1387 102.299 71.192 101.872 71.192ZM102.224 70.008C102.566 70.008 102.886 69.9547 103.184 69.848C103.494 69.7413 103.766 69.592 104 69.4C104.235 69.1973 104.422 68.9573 104.56 68.68C104.699 68.4027 104.768 68.0987 104.768 67.768V67.064C103.904 67.064 103.168 67.112 102.56 67.208C101.952 67.304 101.483 67.4747 101.152 67.72C100.832 67.9653 100.672 68.312 100.672 68.76C100.672 69.048 100.736 69.2827 100.864 69.464C100.992 69.6453 101.174 69.784 101.408 69.88C101.643 69.9653 101.915 70.008 102.224 70.008ZM111.423 71.192C110.847 71.192 110.34 71.1333 109.903 71.016C109.466 70.8987 109.103 70.728 108.815 70.504C108.527 70.28 108.308 70.0133 108.159 69.704C108.01 69.3947 107.935 69.0427 107.935 68.648C107.935 68.5947 107.935 68.5467 107.935 68.504C107.935 68.4507 107.94 68.408 107.951 68.376H109.343C109.332 68.4187 109.327 68.456 109.327 68.488C109.327 68.52 109.327 68.552 109.327 68.584C109.338 68.9573 109.434 69.2507 109.615 69.464C109.807 69.6773 110.068 69.8267 110.399 69.912C110.73 69.9973 111.098 70.04 111.503 70.04C111.855 70.04 112.18 69.9973 112.479 69.912C112.778 69.816 113.012 69.6773 113.183 69.496C113.364 69.304 113.455 69.064 113.455 68.776C113.455 68.424 113.338 68.1573 113.103 67.976C112.879 67.784 112.58 67.6347 112.207 67.528C111.834 67.4213 111.444 67.3093 111.039 67.192C110.698 67.096 110.356 66.9893 110.015 66.872C109.674 66.7547 109.364 66.6107 109.087 66.44C108.82 66.2693 108.602 66.0507 108.431 65.784C108.271 65.5067 108.191 65.16 108.191 64.744C108.191 64.3707 108.266 64.04 108.415 63.752C108.575 63.464 108.799 63.2187 109.087 63.016C109.375 62.8133 109.722 62.664 110.127 62.568C110.543 62.4613 111.002 62.408 111.503 62.408C112.036 62.408 112.5 62.4667 112.895 62.584C113.3 62.7013 113.636 62.8667 113.903 63.08C114.17 63.2933 114.367 63.5387 114.495 63.816C114.623 64.0827 114.687 64.3707 114.687 64.68C114.687 64.744 114.687 64.808 114.687 64.872C114.687 64.9253 114.682 64.968 114.671 65H113.295V64.824C113.295 64.6107 113.236 64.408 113.119 64.216C113.012 64.0133 112.82 63.8533 112.543 63.736C112.276 63.608 111.903 63.544 111.423 63.544C111.114 63.544 110.847 63.5707 110.623 63.624C110.399 63.6667 110.212 63.7413 110.063 63.848C109.914 63.944 109.802 64.0613 109.727 64.2C109.652 64.328 109.615 64.4773 109.615 64.648C109.615 64.9253 109.706 65.1387 109.887 65.288C110.068 65.4373 110.308 65.56 110.607 65.656C110.916 65.752 111.247 65.8587 111.599 65.976C111.972 66.0827 112.351 66.1947 112.735 66.312C113.13 66.4187 113.487 66.5573 113.807 66.728C114.138 66.8987 114.399 67.1333 114.591 67.432C114.794 67.72 114.895 68.104 114.895 68.584C114.895 69.032 114.81 69.4213 114.639 69.752C114.468 70.0827 114.223 70.3547 113.903 70.568C113.594 70.7813 113.226 70.936 112.799 71.032C112.383 71.1387 111.924 71.192 111.423 71.192ZM119.995 71.192C119.163 71.192 118.459 71.0373 117.883 70.728C117.318 70.408 116.886 69.9227 116.587 69.272C116.299 68.6213 116.155 67.7947 116.155 66.792C116.155 65.7787 116.299 64.952 116.587 64.312C116.886 63.6613 117.323 63.1813 117.899 62.872C118.475 62.552 119.195 62.392 120.059 62.392C120.849 62.392 121.51 62.5467 122.043 62.856C122.577 63.1547 122.977 63.608 123.243 64.216C123.521 64.8133 123.659 65.5653 123.659 66.472V67.144H117.611C117.633 67.816 117.729 68.3707 117.899 68.808C118.081 69.2347 118.347 69.5493 118.699 69.752C119.051 69.944 119.494 70.04 120.027 70.04C120.39 70.04 120.705 69.9973 120.971 69.912C121.249 69.816 121.478 69.6827 121.659 69.512C121.851 69.3413 121.995 69.1387 122.091 68.904C122.187 68.6693 122.241 68.4133 122.251 68.136H123.627C123.617 68.584 123.531 69 123.371 69.384C123.211 69.7573 122.977 70.0773 122.667 70.344C122.358 70.6107 121.979 70.8187 121.531 70.968C121.083 71.1173 120.571 71.192 119.995 71.192ZM117.643 66.088H122.203C122.203 65.6187 122.15 65.224 122.043 64.904C121.937 64.584 121.782 64.3227 121.579 64.12C121.387 63.9173 121.158 63.7733 120.891 63.688C120.635 63.592 120.342 63.544 120.011 63.544C119.521 63.544 119.105 63.6347 118.763 63.816C118.422 63.9973 118.161 64.2747 117.979 64.648C117.798 65.0213 117.686 65.5013 117.643 66.088ZM128.265 71.192C127.572 71.192 126.974 71.0373 126.473 70.728C125.982 70.4187 125.598 69.9387 125.321 69.288C125.054 68.6267 124.921 67.7733 124.921 66.728C124.921 65.736 125.06 64.92 125.337 64.28C125.614 63.64 125.998 63.1653 126.489 62.856C126.98 62.5467 127.55 62.392 128.201 62.392C128.574 62.392 128.921 62.4347 129.241 62.52C129.561 62.6053 129.844 62.7387 130.089 62.92C130.345 63.1013 130.569 63.3413 130.761 63.64H130.857V59.432H132.265V71H131.129L131.001 69.8H130.889C130.601 70.2693 130.228 70.6213 129.769 70.856C129.31 71.08 128.809 71.192 128.265 71.192ZM128.601 69.96C129.134 69.96 129.566 69.8427 129.897 69.608C130.228 69.3733 130.468 69.032 130.617 68.584C130.777 68.136 130.857 67.5813 130.857 66.92V66.664C130.857 66.088 130.798 65.6027 130.681 65.208C130.564 64.8133 130.404 64.4987 130.201 64.264C129.998 64.0293 129.764 63.864 129.497 63.768C129.23 63.672 128.948 63.624 128.649 63.624C128.126 63.624 127.7 63.7307 127.369 63.944C127.038 64.1467 126.793 64.472 126.633 64.92C126.473 65.3573 126.393 65.928 126.393 66.632V66.968C126.393 67.6933 126.478 68.28 126.649 68.728C126.82 69.1653 127.065 69.48 127.385 69.672C127.716 69.864 128.121 69.96 128.601 69.96ZM141.279 71.192C140.425 71.192 139.705 71.0373 139.119 70.728C138.543 70.408 138.1 69.9227 137.791 69.272C137.492 68.6213 137.343 67.7947 137.343 66.792C137.343 65.7787 137.492 64.952 137.791 64.312C138.1 63.6613 138.543 63.1813 139.119 62.872C139.705 62.552 140.425 62.392 141.279 62.392C142.132 62.392 142.847 62.552 143.423 62.872C144.009 63.1813 144.452 63.6613 144.751 64.312C145.049 64.952 145.199 65.7787 145.199 66.792C145.199 67.7947 145.049 68.6213 144.751 69.272C144.452 69.9227 144.009 70.408 143.423 70.728C142.847 71.0373 142.132 71.192 141.279 71.192ZM141.279 70.008C141.823 70.008 142.276 69.9013 142.639 69.688C143.001 69.4747 143.273 69.144 143.455 68.696C143.647 68.2373 143.743 67.6613 143.743 66.968V66.616C143.743 65.912 143.647 65.336 143.455 64.888C143.273 64.44 143.001 64.1093 142.639 63.896C142.276 63.6827 141.823 63.576 141.279 63.576C140.735 63.576 140.276 63.6827 139.903 63.896C139.54 64.1093 139.268 64.44 139.087 64.888C138.905 65.336 138.815 65.912 138.815 66.616V66.968C138.815 67.6613 138.905 68.2373 139.087 68.696C139.268 69.144 139.54 69.4747 139.903 69.688C140.276 69.9013 140.735 70.008 141.279 70.008ZM146.948 71V62.584H148.084L148.212 63.848H148.324C148.548 63.5067 148.798 63.2293 149.076 63.016C149.364 62.8027 149.678 62.648 150.02 62.552C150.372 62.4453 150.745 62.392 151.14 62.392C151.673 62.392 152.137 62.4827 152.532 62.664C152.937 62.8453 153.252 63.1387 153.476 63.544C153.71 63.9493 153.828 64.4987 153.828 65.192V71H152.42V65.384C152.42 65.032 152.372 64.744 152.276 64.52C152.19 64.296 152.068 64.12 151.908 63.992C151.758 63.864 151.572 63.7733 151.348 63.72C151.134 63.6667 150.894 63.64 150.628 63.64C150.233 63.64 149.86 63.736 149.508 63.928C149.156 64.12 148.873 64.3973 148.66 64.76C148.457 65.1227 148.356 65.5547 148.356 66.056V71H146.948ZM28.048 94.192C27.472 94.192 26.9653 94.1333 26.528 94.016C26.0907 93.8987 25.728 93.728 25.44 93.504C25.152 93.28 24.9333 93.0133 24.784 92.704C24.6347 92.3947 24.56 92.0427 24.56 91.648C24.56 91.5947 24.56 91.5467 24.56 91.504C24.56 91.4507 24.5653 91.408 24.576 91.376H25.968C25.9573 91.4187 25.952 91.456 25.952 91.488C25.952 91.52 25.952 91.552 25.952 91.584C25.9627 91.9573 26.0587 92.2507 26.24 92.464C26.432 92.6773 26.6933 92.8267 27.024 92.912C27.3547 92.9973 27.7227 93.04 28.128 93.04C28.48 93.04 28.8053 92.9973 29.104 92.912C29.4027 92.816 29.6373 92.6773 29.808 92.496C29.9893 92.304 30.08 92.064 30.08 91.776C30.08 91.424 29.9627 91.1573 29.728 90.976C29.504 90.784 29.2053 90.6347 28.832 90.528C28.4587 90.4213 28.0693 90.3093 27.664 90.192C27.3227 90.096 26.9813 89.9893 26.64 89.872C26.2987 89.7547 25.9893 89.6107 25.712 89.44C25.4453 89.2693 25.2267 89.0507 25.056 88.784C24.896 88.5067 24.816 88.16 24.816 87.744C24.816 87.3707 24.8907 87.04 25.04 86.752C25.2 86.464 25.424 86.2187 25.712 86.016C26 85.8133 26.3467 85.664 26.752 85.568C27.168 85.4613 27.6267 85.408 28.128 85.408C28.6613 85.408 29.1253 85.4667 29.52 85.584C29.9253 85.7013 30.2613 85.8667 30.528 86.08C30.7947 86.2933 30.992 86.5387 31.12 86.816C31.248 87.0827 31.312 87.3707 31.312 87.68C31.312 87.744 31.312 87.808 31.312 87.872C31.312 87.9253 31.3067 87.968 31.296 88H29.92V87.824C29.92 87.6107 29.8613 87.408 29.744 87.216C29.6373 87.0133 29.4453 86.8533 29.168 86.736C28.9013 86.608 28.528 86.544 28.048 86.544C27.7387 86.544 27.472 86.5707 27.248 86.624C27.024 86.6667 26.8373 86.7413 26.688 86.848C26.5387 86.944 26.4267 87.0613 26.352 87.2C26.2773 87.328 26.24 87.4773 26.24 87.648C26.24 87.9253 26.3307 88.1387 26.512 88.288C26.6933 88.4373 26.9333 88.56 27.232 88.656C27.5413 88.752 27.872 88.8587 28.224 88.976C28.5973 89.0827 28.976 89.1947 29.36 89.312C29.7547 89.4187 30.112 89.5573 30.432 89.728C30.7627 89.8987 31.024 90.1333 31.216 90.432C31.4187 90.72 31.52 91.104 31.52 91.584C31.52 92.032 31.4347 92.4213 31.264 92.752C31.0933 93.0827 30.848 93.3547 30.528 93.568C30.2187 93.7813 29.8507 93.936 29.424 94.032C29.008 94.1387 28.5493 94.192 28.048 94.192ZM35.3723 94.192C35.0629 94.192 34.7536 94.1547 34.4443 94.08C34.1349 94.0053 33.8469 93.8827 33.5803 93.712C33.3136 93.5413 33.1003 93.3067 32.9403 93.008C32.7803 92.6987 32.7003 92.3147 32.7003 91.856C32.7003 91.28 32.8389 90.8053 33.1163 90.432C33.3936 90.0587 33.7776 89.7707 34.2682 89.568C34.7696 89.3547 35.3616 89.2107 36.0443 89.136C36.7269 89.0507 37.4683 89.008 38.2683 89.008V88.048C38.2683 87.7387 38.2149 87.472 38.1083 87.248C38.0016 87.024 37.8096 86.8533 37.5323 86.736C37.2656 86.608 36.8816 86.544 36.3802 86.544C35.9003 86.544 35.5163 86.608 35.2283 86.736C34.9509 86.8533 34.7536 87.008 34.6363 87.2C34.5296 87.392 34.4763 87.6053 34.4763 87.84V88.08H33.1163C33.1056 88.0267 33.1003 87.9733 33.1003 87.92C33.1003 87.8667 33.1003 87.8027 33.1003 87.728C33.1003 87.216 33.2389 86.7893 33.5163 86.448C33.8043 86.096 34.2043 85.8347 34.7163 85.664C35.2283 85.4827 35.8149 85.392 36.4763 85.392C37.1803 85.392 37.7669 85.4933 38.2363 85.696C38.7163 85.8987 39.0736 86.1867 39.3083 86.56C39.5536 86.9333 39.6763 87.3813 39.6763 87.904V92.464C39.6763 92.6667 39.7243 92.8107 39.8203 92.896C39.9163 92.9707 40.0336 93.008 40.1723 93.008H40.7963V93.936C40.6469 94 40.4816 94.0533 40.3003 94.096C40.1189 94.1493 39.9109 94.176 39.6763 94.176C39.3989 94.176 39.1696 94.1173 38.9883 94C38.8069 93.8933 38.6683 93.744 38.5723 93.552C38.4763 93.3493 38.4123 93.1253 38.3803 92.88H38.2683C38.0763 93.1467 37.8309 93.3813 37.5323 93.584C37.2443 93.776 36.9189 93.9253 36.5563 94.032C36.1936 94.1387 35.7989 94.192 35.3723 94.192ZM35.7243 93.008C36.0656 93.008 36.3856 92.9547 36.6843 92.848C36.9936 92.7413 37.2656 92.592 37.5003 92.4C37.7349 92.1973 37.9216 91.9573 38.0603 91.68C38.1989 91.4027 38.2683 91.0987 38.2683 90.768V90.064C37.4043 90.064 36.6683 90.112 36.0603 90.208C35.4523 90.304 34.9829 90.4747 34.6523 90.72C34.3323 90.9653 34.1723 91.312 34.1723 91.76C34.1723 92.048 34.2363 92.2827 34.3643 92.464C34.4923 92.6453 34.6736 92.784 34.9083 92.88C35.1429 92.9653 35.4149 93.008 35.7243 93.008ZM43.947 94.192C43.5097 94.192 43.1683 94.112 42.923 93.952C42.6777 93.7813 42.5017 93.5627 42.395 93.296C42.2883 93.0187 42.235 92.7253 42.235 92.416V86.768H41.147V85.584H42.267L42.523 83.232H43.643V85.584H45.227V86.768H43.643V92.208C43.643 92.4747 43.691 92.6773 43.787 92.816C43.883 92.944 44.0643 93.008 44.331 93.008H45.227V93.936C45.1203 93.9893 44.9923 94.032 44.843 94.064C44.6937 94.096 44.539 94.1227 44.379 94.144C44.2297 94.176 44.0857 94.192 43.947 94.192ZM46.729 84V82.432H48.137V84H46.729ZM46.729 94V85.584H48.137V94H46.729ZM53.2668 94.192C52.6908 94.192 52.1841 94.1333 51.7468 94.016C51.3094 93.8987 50.9468 93.728 50.6588 93.504C50.3708 93.28 50.1521 93.0133 50.0028 92.704C49.8534 92.3947 49.7788 92.0427 49.7788 91.648C49.7788 91.5947 49.7788 91.5467 49.7788 91.504C49.7788 91.4507 49.7841 91.408 49.7948 91.376H51.1868C51.1761 91.4187 51.1708 91.456 51.1708 91.488C51.1708 91.52 51.1708 91.552 51.1708 91.584C51.1814 91.9573 51.2774 92.2507 51.4588 92.464C51.6508 92.6773 51.9121 92.8267 52.2428 92.912C52.5734 92.9973 52.9414 93.04 53.3468 93.04C53.6988 93.04 54.0241 92.9973 54.3228 92.912C54.6214 92.816 54.8561 92.6773 55.0268 92.496C55.2081 92.304 55.2988 92.064 55.2988 91.776C55.2988 91.424 55.1814 91.1573 54.9468 90.976C54.7228 90.784 54.4241 90.6347 54.0508 90.528C53.6774 90.4213 53.2881 90.3093 52.8828 90.192C52.5414 90.096 52.2001 89.9893 51.8588 89.872C51.5174 89.7547 51.2081 89.6107 50.9308 89.44C50.6641 89.2693 50.4454 89.0507 50.2747 88.784C50.1148 88.5067 50.0348 88.16 50.0348 87.744C50.0348 87.3707 50.1094 87.04 50.2588 86.752C50.4188 86.464 50.6428 86.2187 50.9308 86.016C51.2188 85.8133 51.5654 85.664 51.9708 85.568C52.3868 85.4613 52.8454 85.408 53.3468 85.408C53.8801 85.408 54.3441 85.4667 54.7388 85.584C55.1441 85.7013 55.4801 85.8667 55.7468 86.08C56.0134 86.2933 56.2108 86.5387 56.3388 86.816C56.4668 87.0827 56.5308 87.3707 56.5308 87.68C56.5308 87.744 56.5308 87.808 56.5308 87.872C56.5308 87.9253 56.5254 87.968 56.5148 88H55.1388V87.824C55.1388 87.6107 55.0801 87.408 54.9628 87.216C54.8561 87.0133 54.6641 86.8533 54.3868 86.736C54.1201 86.608 53.7468 86.544 53.2668 86.544C52.9574 86.544 52.6908 86.5707 52.4668 86.624C52.2428 86.6667 52.0561 86.7413 51.9068 86.848C51.7574 86.944 51.6454 87.0613 51.5707 87.2C51.4961 87.328 51.4588 87.4773 51.4588 87.648C51.4588 87.9253 51.5494 88.1387 51.7308 88.288C51.9121 88.4373 52.1521 88.56 52.4508 88.656C52.7601 88.752 53.0908 88.8587 53.4427 88.976C53.8161 89.0827 54.1948 89.1947 54.5788 89.312C54.9734 89.4187 55.3308 89.5573 55.6508 89.728C55.9814 89.8987 56.2428 90.1333 56.4348 90.432C56.6374 90.72 56.7388 91.104 56.7388 91.584C56.7388 92.032 56.6534 92.4213 56.4828 92.752C56.3121 93.0827 56.0668 93.3547 55.7468 93.568C55.4374 93.7813 55.0694 93.936 54.6428 94.032C54.2268 94.1387 53.7681 94.192 53.2668 94.192ZM58.815 94V86.768H57.567V85.584H58.815V84.24C58.815 83.9093 58.863 83.6 58.959 83.312C59.055 83.0133 59.2363 82.7733 59.503 82.592C59.7697 82.4 60.143 82.304 60.623 82.304C60.7723 82.304 60.9163 82.3147 61.055 82.336C61.2043 82.3467 61.343 82.368 61.471 82.4C61.6097 82.4213 61.7323 82.448 61.839 82.48V83.488H60.991C60.7243 83.488 60.527 83.5573 60.399 83.696C60.2817 83.824 60.223 84.0107 60.223 84.256V85.584H61.839V86.768H60.223V94H58.815ZM64.9973 94.192C64.6879 94.192 64.3786 94.1547 64.0693 94.08C63.7599 94.0053 63.4719 93.8827 63.2053 93.712C62.9386 93.5413 62.7253 93.3067 62.5653 93.008C62.4053 92.6987 62.3253 92.3147 62.3253 91.856C62.3253 91.28 62.4639 90.8053 62.7413 90.432C63.0186 90.0587 63.4026 89.7707 63.8932 89.568C64.3946 89.3547 64.9866 89.2107 65.6693 89.136C66.3519 89.0507 67.0933 89.008 67.8933 89.008V88.048C67.8933 87.7387 67.8399 87.472 67.7333 87.248C67.6266 87.024 67.4346 86.8533 67.1573 86.736C66.8906 86.608 66.5066 86.544 66.0052 86.544C65.5253 86.544 65.1413 86.608 64.8533 86.736C64.5759 86.8533 64.3786 87.008 64.2613 87.2C64.1546 87.392 64.1013 87.6053 64.1013 87.84V88.08H62.7413C62.7306 88.0267 62.7253 87.9733 62.7253 87.92C62.7253 87.8667 62.7253 87.8027 62.7253 87.728C62.7253 87.216 62.8639 86.7893 63.1413 86.448C63.4293 86.096 63.8293 85.8347 64.3413 85.664C64.8533 85.4827 65.4399 85.392 66.1013 85.392C66.8053 85.392 67.3919 85.4933 67.8613 85.696C68.3413 85.8987 68.6986 86.1867 68.9333 86.56C69.1786 86.9333 69.3013 87.3813 69.3013 87.904V92.464C69.3013 92.6667 69.3493 92.8107 69.4453 92.896C69.5413 92.9707 69.6586 93.008 69.7973 93.008H70.4213V93.936C70.2719 94 70.1066 94.0533 69.9253 94.096C69.7439 94.1493 69.5359 94.176 69.3013 94.176C69.0239 94.176 68.7946 94.1173 68.6133 94C68.4319 93.8933 68.2933 93.744 68.1973 93.552C68.1013 93.3493 68.0373 93.1253 68.0053 92.88H67.8933C67.7013 93.1467 67.4559 93.3813 67.1573 93.584C66.8693 93.776 66.5439 93.9253 66.1813 94.032C65.8186 94.1387 65.4239 94.192 64.9973 94.192ZM65.3493 93.008C65.6906 93.008 66.0106 92.9547 66.3093 92.848C66.6186 92.7413 66.8906 92.592 67.1253 92.4C67.3599 92.1973 67.5466 91.9573 67.6853 91.68C67.8239 91.4027 67.8933 91.0987 67.8933 90.768V90.064C67.0293 90.064 66.2933 90.112 65.6853 90.208C65.0773 90.304 64.6079 90.4747 64.2773 90.72C63.9573 90.9653 63.7973 91.312 63.7973 91.76C63.7973 92.048 63.8613 92.2827 63.9893 92.464C64.1173 92.6453 64.2986 92.784 64.5333 92.88C64.7679 92.9653 65.0399 93.008 65.3493 93.008ZM74.804 94.192C73.9933 94.192 73.3107 94.0373 72.756 93.728C72.212 93.408 71.796 92.9227 71.508 92.272C71.2307 91.6107 71.092 90.784 71.092 89.792C71.092 88.8 71.2307 87.9787 71.508 87.328C71.796 86.6773 72.2173 86.192 72.772 85.872C73.3373 85.552 74.0307 85.392 74.852 85.392C75.428 85.392 75.924 85.4667 76.34 85.616C76.7667 85.7653 77.1187 85.984 77.396 86.272C77.6733 86.56 77.876 86.9067 78.004 87.312C78.1427 87.7173 78.212 88.1813 78.212 88.704H76.788C76.788 88.2133 76.7187 87.8133 76.58 87.504C76.452 87.184 76.244 86.9493 75.956 86.8C75.668 86.64 75.2893 86.56 74.82 86.56C74.3507 86.56 73.9453 86.6667 73.604 86.88C73.2627 87.0827 73.0013 87.408 72.82 87.856C72.6387 88.304 72.548 88.896 72.548 89.632V89.968C72.548 90.6613 72.6333 91.2373 72.804 91.696C72.9853 92.1547 73.2467 92.4907 73.588 92.704C73.9293 92.9173 74.3453 93.024 74.836 93.024C75.316 93.024 75.7 92.9387 75.988 92.768C76.2867 92.5973 76.5 92.352 76.628 92.032C76.7667 91.712 76.836 91.328 76.836 90.88H78.212C78.212 91.3493 78.1427 91.7867 78.004 92.192C77.876 92.5973 77.6733 92.9493 77.396 93.248C77.1187 93.5467 76.7667 93.7813 76.34 93.952C75.9133 94.112 75.4013 94.192 74.804 94.192ZM81.8689 94.192C81.4315 94.192 81.0902 94.112 80.8449 93.952C80.5995 93.7813 80.4235 93.5627 80.3169 93.296C80.2102 93.0187 80.1569 92.7253 80.1569 92.416V86.768H79.0689V85.584H80.1889L80.4449 83.232H81.5649V85.584H83.1489V86.768H81.5649V92.208C81.5649 92.4747 81.6129 92.6773 81.7089 92.816C81.8049 92.944 81.9862 93.008 82.2529 93.008H83.1489V93.936C83.0422 93.9893 82.9142 94.032 82.7649 94.064C82.6155 94.096 82.4609 94.1227 82.3009 94.144C82.1515 94.176 82.0075 94.192 81.8689 94.192ZM84.6509 84V82.432H86.0589V84H84.6509ZM84.6509 94V85.584H86.0589V94H84.6509ZM91.7006 94.192C90.8473 94.192 90.1273 94.0373 89.5406 93.728C88.9646 93.408 88.522 92.9227 88.2126 92.272C87.914 91.6213 87.7646 90.7947 87.7646 89.792C87.7646 88.7787 87.914 87.952 88.2126 87.312C88.522 86.6613 88.9646 86.1813 89.5406 85.872C90.1273 85.552 90.8473 85.392 91.7006 85.392C92.554 85.392 93.2686 85.552 93.8446 85.872C94.4313 86.1813 94.874 86.6613 95.1726 87.312C95.4713 87.952 95.6206 88.7787 95.6206 89.792C95.6206 90.7947 95.4713 91.6213 95.1726 92.272C94.874 92.9227 94.4313 93.408 93.8446 93.728C93.2686 94.0373 92.554 94.192 91.7006 94.192ZM91.7006 93.008C92.2446 93.008 92.698 92.9013 93.0606 92.688C93.4233 92.4747 93.6953 92.144 93.8766 91.696C94.0686 91.2373 94.1646 90.6613 94.1646 89.968V89.616C94.1646 88.912 94.0686 88.336 93.8766 87.888C93.6953 87.44 93.4233 87.1093 93.0606 86.896C92.698 86.6827 92.2446 86.576 91.7006 86.576C91.1566 86.576 90.698 86.6827 90.3246 86.896C89.962 87.1093 89.69 87.44 89.5086 87.888C89.3273 88.336 89.2366 88.912 89.2366 89.616V89.968C89.2366 90.6613 89.3273 91.2373 89.5086 91.696C89.69 92.144 89.962 92.4747 90.3246 92.688C90.698 92.9013 91.1566 93.008 91.7006 93.008ZM97.3696 94V85.584H98.5056L98.6336 86.848H98.7456C98.9696 86.5067 99.2203 86.2293 99.4976 86.016C99.7856 85.8027 100.1 85.648 100.442 85.552C100.794 85.4453 101.167 85.392 101.562 85.392C102.095 85.392 102.559 85.4827 102.954 85.664C103.359 85.8453 103.674 86.1387 103.898 86.544C104.132 86.9493 104.25 87.4987 104.25 88.192V94H102.842V88.384C102.842 88.032 102.794 87.744 102.698 87.52C102.612 87.296 102.49 87.12 102.33 86.992C102.18 86.864 101.994 86.7733 101.77 86.72C101.556 86.6667 101.316 86.64 101.05 86.64C100.655 86.64 100.282 86.736 99.9296 86.928C99.5776 87.12 99.295 87.3973 99.0816 87.76C98.879 88.1227 98.7776 88.5547 98.7776 89.056V94H97.3696ZM106.705 94V92.32H108.273V94H106.705Z" fill="white"/>
<path d="M292.436 71.6118C292.436 71.6118 296.484 39.4147 313.282 32.3453L291.386 16C291.386 16 270.102 32.9228 271.299 58.5554L292.436 71.6118Z" fill="#AFB600"/>
<path d="M291.529 19.5684C288.545 22.3549 282.072 29.1042 277.913 38.5883C275.265 44.6265 273.965 50.8133 274.042 57L290.354 67.0761C291.201 62.67 292.916 55.4271 296.004 48.3841C299.318 40.8262 303.408 35.3402 308.198 32.0115L291.529 19.5684Z" fill="#82960D"/>
<path d="M283.854 59.8074L280 57.4265C280.025 57.3743 280.054 57.3251 280.077 57.2714C281.227 54.6504 280.006 51.6055 277.35 50.4709C277.338 50.4654 277.325 50.4624 277.312 50.4575C277.872 46.838 278.922 43.233 280.479 39.6837C282.713 34.5883 285.679 30.3044 288.314 27.0895C288.716 27.4394 289.177 27.7351 289.696 27.9567C291.959 28.9233 294.529 28.1873 295.952 26.3276L299.053 28.6425C298.806 28.965 298.59 29.3174 298.42 29.7045C297.43 31.9633 298.203 34.5326 300.133 35.9271C297.637 39.0476 295.395 42.833 293.441 47.2893C291.975 50.6304 290.81 54.0028 289.888 57.1447C287.513 56.511 284.978 57.6034 283.854 59.8074Z" fill="#AFB600"/>
<path d="M286.02 45.8946C288.191 46.8219 290.712 45.8364 291.651 43.6945C292.591 41.5521 291.593 39.0637 289.422 38.1364C287.252 37.2091 284.731 38.1946 283.791 40.337C282.851 42.4784 283.849 44.9672 286.02 45.8946Z" fill="#82960D"/>
<path opacity="0.5" d="M293.943 45.4731L293.943 45.4711C292.543 38.7566 287.531 33.0057 280.402 30.9368C279.93 30.7996 279.456 30.6873 278.981 30.5869C274.56 37.781 270.775 47.3338 271.299 58.5558L283.866 66.3185C288.394 63.9981 291.996 59.9354 293.549 54.7232C294.122 52.7999 294.374 50.8588 294.338 48.9554V48.9534C294.316 47.7736 294.181 46.6097 293.943 45.4731Z" fill="#637C15"/>
<path d="M288.383 51.9699C292.726 42.2954 288.301 30.9778 278.499 26.6913C268.697 22.4048 257.23 26.7727 252.887 36.4472C248.544 46.1216 252.97 57.4392 262.772 61.7257C272.574 66.0122 284.04 61.6444 288.383 51.9699Z" fill="#FFA840"/>
<path d="M289.651 40.3594L257.062 57.9059C257.903 58.7189 258.823 59.4619 259.816 60.1193L290.046 43.8431C290.023 42.6628 289.888 41.4974 289.651 40.3594Z" fill="#FFC943"/>
<path d="M288.981 37.9689C287.437 33.5578 284.286 29.7555 280.005 27.4302L251.264 42.9048C250.928 47.7164 252.462 52.3899 255.384 56.0586L288.981 37.9689Z" fill="#FFC943"/>
<path d="M282.795 54.1814C288.377 47.5527 287.457 37.713 280.741 32.2038C274.025 26.6946 264.056 27.6022 258.474 34.231C252.892 40.8597 253.812 50.6995 260.528 56.2086C267.244 61.7178 277.213 60.8102 282.795 54.1814Z" fill="#FFC943"/>
<path d="M271.1 59.0321C279.392 58.7725 285.901 51.9273 285.638 43.7429C285.375 35.5585 278.44 29.1342 270.147 29.3938C261.855 29.6533 255.346 36.4985 255.609 44.6829C255.872 52.8673 262.807 59.2917 271.1 59.0321Z" fill="#FF833E"/>
<path d="M285.159 40.5049L259.609 54.262C259.87 54.5413 260.141 54.8106 260.425 55.0701L285.407 41.6186C285.339 41.2429 285.256 40.8721 285.159 40.5049Z" fill="#FFA840"/>
<path d="M280.959 33.4585L255.875 46.9646C256.294 49.1374 257.202 51.1799 258.514 52.9516L284.632 38.8894C283.832 36.8419 282.584 34.9827 280.959 33.4585Z" fill="#FFA840"/>
<path d="M276.641 47.1809C276.381 46.6686 276.011 46.2054 275.543 45.7864C275.991 45.6875 276.404 45.5439 276.764 45.3347C277.592 44.8512 278.149 44.129 278.436 43.1659C278.662 42.411 278.679 41.6681 278.489 40.937C278.299 40.2065 277.903 39.553 277.301 38.976C276.915 38.6062 276.433 38.3001 275.876 38.0457L276.694 35.2974L273.949 34.5008L273.154 37.1685L272.795 37.0641L272.187 36.8877L272.982 34.2195L270.237 33.4229L269.442 36.0911L268.05 35.687L265.491 34.9446L264.684 37.654L267.243 38.3965L264.186 48.6564L261.627 47.914L260.82 50.6234L263.379 51.3659L264.771 51.7699L264.35 53.1823L267.095 53.979L267.516 52.5666L268.483 52.8474L268.062 54.2598L270.807 55.0564L271.251 53.5675C271.951 53.6733 272.611 53.6818 273.222 53.5715C274.143 53.404 274.92 53.0387 275.553 52.4742C276.186 51.9096 276.63 51.1984 276.886 50.3397C277.22 49.2155 277.139 48.162 276.641 47.1809ZM273.386 40.1801C273.971 40.3501 274.4 40.6314 274.674 41.0245C274.949 41.4176 274.999 41.9031 274.827 42.4801C274.65 43.073 274.34 43.4611 273.894 43.645C273.448 43.8294 272.932 43.8363 272.347 43.6669L269.692 42.8961L270.731 39.4098L273.386 40.1801ZM272.42 50.3953C271.911 50.6816 271.311 50.7248 270.621 50.5245L268.931 50.034L267.674 49.6693L268.905 45.539L271.852 46.3942C272.317 46.5289 272.684 46.7322 272.954 47.0035C273.224 47.2749 273.402 47.5919 273.489 47.9552C273.576 48.318 273.561 48.6997 273.442 49.0997C273.269 49.6767 272.929 50.1086 272.42 50.3953Z" fill="#AD4825"/>
<path d="M268.479 85.0798C268.479 85.0798 270.536 56.6567 237.628 52.7033L234.82 30.8496C234.82 30.8496 267.324 36.028 273.605 73.4831L268.479 85.0798Z" fill="#AFB600"/>
<path d="M238.242 34.6968C243.417 36.3591 252.785 40.4363 260.226 49.5845C265.447 56.0043 268.936 63.9205 270.601 73.1244L270.015 74.4498C268.961 70.7663 267.132 66.5982 263.971 62.7119C258.539 56.0346 250.56 51.8228 240.231 50.1749L238.242 34.6968Z" fill="#82960D"/>
<path d="M268.173 66.4092C261.062 49.7752 250.391 42.255 244.501 39.2017C244.346 39.7573 244.026 40.2731 243.535 40.6618C242.773 41.2661 241.794 41.4211 240.922 41.1697L241.839 46.0901C243.05 45.3999 244.618 45.6553 245.521 46.764C246.171 47.5642 246.303 48.6023 245.977 49.5023C261.414 53.5665 267.704 66.8475 267.704 66.8475L268.173 66.4092Z" fill="#AFB600"/>
<path d="M258.483 53.197C257.843 53.9156 256.063 53.4042 254.506 52.0544C252.95 50.7047 252.207 49.0279 252.847 48.3093C253.487 47.5907 255.267 48.102 256.824 49.4518C258.38 50.8016 259.123 52.4784 258.483 53.197Z" fill="#82960D"/>
<path d="M291.405 73.6601L298.468 63.4614C301.413 59.2083 298.327 53.4375 293.108 53.4375H272.117H251.127C245.908 53.4375 242.822 59.2083 245.767 63.4614L252.906 73.769C254.818 76.5316 254.254 80.2778 251.613 82.3765C239.326 92.1409 228 108.199 228 123.36C228 147.343 247.699 154.58 271.999 154.58C296.299 154.58 315.998 147.343 315.998 123.36C315.998 108.145 305 92.0251 292.701 82.2706C290.057 80.1734 289.49 76.4248 291.405 73.6601Z" fill="#603CD0"/>
<path opacity="0.25" d="M301.418 106.924C304.086 97.9691 295.865 87.6961 283.056 83.9789C270.248 80.2616 257.702 84.5078 255.034 93.463C252.366 102.418 260.587 112.691 273.395 116.408C286.204 120.126 298.75 115.879 301.418 106.924Z" fill="#DCD0FF"/>
<path d="M291.406 73.6603L292.013 72.7852C280.976 75.7675 264.992 76.0955 250.891 70.8579L252.907 73.7696C253.634 74.8197 254.001 76.011 254.035 77.2007C272.365 76.8459 285.333 79.7631 292.28 81.902C290.006 79.7551 289.599 76.2699 291.406 73.6603Z" fill="#5B40BF"/>
<path d="M252.577 79.3475C251.607 79.3475 250.759 78.6463 250.615 77.6718C250.456 76.6013 251.207 75.6068 252.291 75.4498C252.967 75.3519 269.105 73.0832 291.735 75.4399C292.825 75.5537 293.617 76.5178 293.501 77.5937C293.386 78.6697 292.41 79.4509 291.319 79.3366C269.219 77.0351 253.026 79.3033 252.866 79.3267C252.769 79.3406 252.672 79.3475 252.577 79.3475Z" fill="#FFC943"/>
<path d="M250.609 77.6377C250.611 77.6492 250.611 77.6601 250.612 77.6715C250.757 78.6461 251.605 79.3473 252.574 79.3473C252.669 79.3473 252.766 79.3403 252.863 79.3264C253.024 79.3031 269.217 77.0349 291.316 79.3364C292.39 79.4492 293.352 78.6923 293.491 77.6417C269.758 75.1797 252.575 77.3679 250.609 77.6377Z" fill="#FFA840"/>
<path d="M283.889 114.643C283.224 113.94 282.406 113.368 281.452 112.912C282.127 112.543 282.723 112.119 283.201 111.614C284.302 110.448 284.853 109.025 284.853 107.341C284.853 106.021 284.525 104.816 283.87 103.728C283.213 102.641 282.261 101.774 281.016 101.126C280.217 100.711 279.295 100.444 278.274 100.295V95.4878H273.473V100.155H272.845H271.782V95.4878H266.98V100.155H264.545H260.07V104.894H264.545V122.84H260.07V127.579H264.545H266.98V130.049H271.782V127.579H273.473V130.049H278.274V127.445C279.452 127.288 280.518 126.994 281.449 126.53C282.852 125.831 283.928 124.879 284.676 123.675C285.424 122.471 285.798 121.118 285.798 119.616C285.797 117.648 285.161 115.991 283.889 114.643ZM275.289 104.894C276.313 104.894 277.139 105.147 277.769 105.651C278.398 106.156 278.713 106.914 278.713 107.923C278.713 108.96 278.398 109.73 277.769 110.235C277.139 110.74 276.313 110.992 275.289 110.992H270.645V104.894H275.289ZM278.634 121.791C277.952 122.49 277.008 122.84 275.8 122.84H272.844H270.645V115.615H275.8C276.612 115.615 277.302 115.77 277.866 116.081C278.43 116.392 278.87 116.819 279.185 117.363C279.5 117.907 279.657 118.528 279.657 119.228C279.658 120.237 279.316 121.092 278.634 121.791Z" fill="#FFA840"/>
<path d="M260.07 122.84V125.651L262.918 122.84H260.07Z" fill="#FFC943"/>
<path d="M284.06 104.067L272.359 115.615H275.802C276.071 115.615 276.321 115.638 276.563 115.672L284.848 107.494C284.849 107.443 284.855 107.393 284.855 107.34C284.854 106.156 284.587 105.065 284.06 104.067Z" fill="#FFC943"/>
<path d="M270.644 117.305L260.234 127.579H264.496L270.644 121.512V117.305Z" fill="#FFC943"/>
<path d="M281.017 101.125C280.218 100.71 279.296 100.443 278.276 100.294V95.4868H277.109L273.474 99.0739V100.154H272.846H272.381L264.547 107.886V121.233L274.924 110.992H270.648V104.893H275.292C276.316 104.893 277.141 105.146 277.771 105.651C278.263 106.045 278.56 106.595 278.668 107.297L283.205 102.819C282.619 102.147 281.893 101.581 281.017 101.125Z" fill="#FFC943"/>
<path d="M309.92 142.194C313.78 137.559 315.998 131.402 315.998 123.36C315.998 119.704 315.358 115.996 314.222 112.335C308.865 128.755 291.991 137.402 271.999 137.402C252.046 137.402 235.197 128.788 229.807 112.429C228.654 116.059 228 119.735 228 123.361C228 131.455 230.246 137.639 234.154 142.284C231.264 142.845 229.084 145.357 229.084 148.373C229.084 151.802 231.9 154.581 235.373 154.581H309.335C312.808 154.581 315.624 151.801 315.624 148.373C315.624 145.139 313.119 142.486 309.92 142.194Z" fill="#5B40BF"/>
</g>
<defs>
<clipPath id="clip0_664_4420">
<rect width="340" height="124" rx="10" fill="white"/>
</clipPath>
</defs>
</svg>
