<svg width="9" height="20" viewBox="0 0 9 20" fill="none" xmlns="http://www.w3.org/2000/svg">
<g opacity="0.5" clip-path="url(#clip0_2151_3878)">
<path d="M7.60964 9.99993C7.61056 9.92499 7.59578 9.85068 7.56625 9.78179C7.53673 9.7129 7.49311 9.65095 7.43821 9.59993L2.29536 4.45707C2.06679 4.2285 1.7125 4.2285 1.48393 4.45707C1.25536 4.68564 1.25536 5.03993 1.48393 5.2685L6.22679 10.0114L1.49536 14.7428C1.26679 14.9714 1.26679 15.3256 1.49536 15.5542C1.72393 15.7828 2.07821 15.7828 2.30679 15.5542L7.44964 10.4114C7.56393 10.2971 7.62107 10.1485 7.62107 10.0114L7.60964 9.99993Z" fill="white"/>
</g>
<defs>
<clipPath id="clip0_2151_3878">
<rect width="18.2857" height="8" fill="white" transform="matrix(0 1 1 0 0.179688 0.857178)"/>
</clipPath>
</defs>
</svg>
