<svg width="17" height="24" viewBox="0 0 17 24" fill="none" xmlns="http://www.w3.org/2000/svg">
<path d="M2.06641 3V20C2.06641 20.2652 2.13893 20.5196 2.26802 20.7071C2.39711 20.8946 2.57219 21 2.75475 21H14.4566V19H3.4431V3H2.06641Z" fill="#05B51C"/>
<path d="M10.5263 14.707C10.6554 14.8944 10.8304 14.9998 11.013 14.9998C11.1955 14.9998 11.3705 14.8944 11.4996 14.707L14.9414 9.70697L13.968 8.29297L11.013 12.586L9.43459 10.293C9.3055 10.1055 9.13045 10.0002 8.94793 10.0002C8.7654 10.0002 8.59035 10.1055 8.46127 10.293L5.01953 15.293L5.99285 16.707L8.94793 12.414L10.5263 14.707Z" fill="#05B51C"/>
</svg>
