<svg width="16" height="17" viewBox="0 0 16 17" fill="none" xmlns="http://www.w3.org/2000/svg">
<path fill-rule="evenodd" clip-rule="evenodd" d="M1 11.497C1.19891 11.497 1.38968 11.576 1.53033 11.7167C1.67098 11.8573 1.75 12.0481 1.75 12.247V14.5C1.75 14.638 1.862 14.75 2 14.75H14C14.0663 14.75 14.1299 14.7237 14.1768 14.6768C14.2237 14.6299 14.25 14.5663 14.25 14.5V12.247C14.25 12.0481 14.329 11.8573 14.4697 11.7167C14.6103 11.576 14.8011 11.497 15 11.497C15.1989 11.497 15.3897 11.576 15.5303 11.7167C15.671 11.8573 15.75 12.0481 15.75 12.247V14.5C15.75 14.9641 15.5656 15.4092 15.2374 15.7374C14.9092 16.0656 14.4641 16.25 14 16.25H2C1.53587 16.25 1.09075 16.0656 0.762563 15.7374C0.434375 15.4092 0.25 14.9641 0.25 14.5V12.247C0.25 12.0481 0.329018 11.8573 0.46967 11.7167C0.610322 11.576 0.801088 11.497 1 11.497ZM8.202 0.75C8.40091 0.75 8.59168 0.829018 8.73233 0.96967C8.87298 1.11032 8.952 1.30109 8.952 1.5V9.586C8.952 9.78491 8.87298 9.97568 8.73233 10.1163C8.59168 10.257 8.40091 10.336 8.202 10.336C8.00309 10.336 7.81232 10.257 7.67167 10.1163C7.53102 9.97568 7.452 9.78491 7.452 9.586V1.5C7.452 1.30109 7.53102 1.11032 7.67167 0.96967C7.81232 0.829018 8.00309 0.75 8.202 0.75Z" fill="white"/>
<path fill-rule="evenodd" clip-rule="evenodd" d="M4.32278 7.12602C4.46168 6.98383 4.65134 6.90259 4.85009 6.90015C5.04885 6.89771 5.24044 6.97427 5.38278 7.11301L8.20278 9.86801L11.0228 7.11301C11.0929 7.04273 11.1763 6.98708 11.2682 6.94928C11.36 6.91148 11.4584 6.8923 11.5577 6.89283C11.657 6.89337 11.7552 6.91362 11.8466 6.9524C11.938 6.99119 12.0208 7.04774 12.0902 7.11878C12.1596 7.18982 12.2141 7.27392 12.2508 7.36622C12.2874 7.45852 12.3053 7.55717 12.3035 7.65645C12.3017 7.75573 12.2802 7.85367 12.2403 7.94457C12.2003 8.03548 12.1427 8.11755 12.0708 8.18601L8.72678 11.453C8.58668 11.5898 8.39861 11.6664 8.20278 11.6664C8.00695 11.6664 7.81889 11.5898 7.67878 11.453L4.33478 8.18601C4.19273 8.04699 4.11167 7.85725 4.10942 7.6585C4.10717 7.45974 4.18391 7.26822 4.32278 7.12602Z" fill="white"/>
</svg>
