<svg width="23" height="21" viewBox="0 0 23 21" fill="none" xmlns="http://www.w3.org/2000/svg">
<path d="M18.4345 12.445L17.7645 8.797C17.4745 7.221 17.3295 6.433 16.7565 5.967C16.1835 5.501 15.3595 5.5 13.7125 5.5H9.28651C7.63951 5.5 6.81651 5.5 6.24251 5.967C5.66951 6.433 5.52451 7.221 5.23451 8.797L4.56451 12.445C3.96451 15.716 3.66351 17.352 4.58851 18.425C5.51351 19.5 7.22351 19.5 10.6415 19.5H12.3575C15.7755 19.5 17.4855 19.5 18.4105 18.426C19.3355 17.352 19.0355 15.716 18.4345 12.446" stroke="white" stroke-width="1.5" stroke-linecap="round" stroke-linejoin="round"/>
<path d="M11.5 9V15.5M9 13.5L11.5 16L14 13.5M20.5 9.5C20.6545 9.42292 20.7946 9.31974 20.914 9.195C21.5 8.589 21.5 7.61 21.5 5.652C21.5 3.694 21.5 2.716 20.914 2.108C20.328 1.5 19.386 1.5 17.5 1.5H5.5C3.614 1.5 2.672 1.5 2.086 2.108C1.5 2.716 1.5 3.695 1.5 5.652C1.5 7.609 1.5 8.588 2.086 9.195C2.206 9.32033 2.344 9.422 2.5 9.5" stroke="white" stroke-width="1.5" stroke-linecap="round" stroke-linejoin="round"/>
</svg>
