<svg width="16" height="17" viewBox="0 0 16 17" fill="none" xmlns="http://www.w3.org/2000/svg">
<g clip-path="url(#clip0_1826_64116)">
<path d="M15 12H12.5V9.5H11.5V12H9V13H11.5V15.5H12.5V13H15V12Z" fill="white"/>
<path d="M12.0636 6.42L12.6541 6.5265C13.1325 6.60447 13.5838 6.80113 13.9666 7.0985C14.3231 7.3817 14.6026 7.75019 14.7791 8.16992C14.9556 8.58964 15.0235 9.04708 14.9766 9.5H15.9916C16.0536 8.57969 15.7743 7.66881 15.207 6.94149C14.6397 6.21417 13.8243 5.72144 12.9166 5.5575C12.727 4.57532 12.2474 3.67249 11.5398 2.96548C10.8322 2.25847 9.92893 1.77972 8.94659 1.59099C8.30134 1.46638 7.63787 1.47014 6.99408 1.60206C6.35029 1.73399 5.73882 1.9915 5.1946 2.35987C4.65038 2.72823 4.1841 3.20024 3.82239 3.74891C3.46069 4.29758 3.21065 4.91215 3.08659 5.5575C2.14397 5.72809 1.30227 6.25268 0.73392 7.02378C0.165565 7.79488 -0.0864203 8.75412 0.0295864 9.705C0.16241 10.6291 0.627151 11.4732 1.33697 12.0796C2.04679 12.6859 2.95311 13.0131 3.88659 13H7.00009V12H3.84909C3.19409 12.0105 2.55593 11.7922 2.04456 11.3828C1.53318 10.9734 1.18061 10.3984 1.04759 9.757C0.980902 9.40022 0.985424 9.03378 1.06089 8.67876C1.13636 8.32373 1.28129 7.98714 1.48734 7.68834C1.69338 7.38954 1.95648 7.13443 2.26149 6.9377C2.5665 6.74096 2.90741 6.60648 3.26459 6.542L3.93909 6.4195L4.04609 5.8645C4.19658 5.03074 4.60136 4.26397 5.2049 3.66938C5.80844 3.07479 6.58117 2.68151 7.41709 2.54349C7.919 2.46939 8.43042 2.49145 8.92409 2.60849C9.68548 2.79696 10.3762 3.20142 10.9131 3.77321C11.4501 4.345 11.8103 5.05976 11.9506 5.8315L12.0636 6.42Z" fill="white"/>
</g>
<defs>
<clipPath id="clip0_1826_64116">
<rect width="16" height="16" fill="white" transform="translate(0 0.5)"/>
</clipPath>
</defs>
</svg>
