<svg width="16" height="12" viewBox="0 0 16 12" fill="none" xmlns="http://www.w3.org/2000/svg">
<path d="M8.00039 12.1C7.59815 12.1001 7.21063 11.9487 6.91501 11.6759C6.61939 11.4031 6.43737 11.029 6.40519 10.628C5.33814 10.2503 4.43883 9.50782 3.86601 8.53154C3.29319 7.55525 3.08369 6.40799 3.27449 5.29226C3.46529 4.17653 4.04413 3.16409 4.90882 2.43363C5.77352 1.70318 6.86847 1.3017 8.00039 1.30005C9.20431 1.29987 10.3643 1.75212 11.2504 2.56711C12.1366 3.3821 12.6841 4.50032 12.7844 5.70005C12.7877 5.75209 12.7802 5.80425 12.7623 5.85323C12.7444 5.90221 12.7165 5.94693 12.6804 5.98454C12.6443 6.02216 12.6007 6.05186 12.5525 6.07174C12.5043 6.09163 12.4525 6.10127 12.4004 6.10005C12.2932 6.09736 12.1909 6.05494 12.1133 5.98101C12.0357 5.90709 11.9883 5.80695 11.9804 5.70005C11.9091 4.99272 11.6507 4.31715 11.2316 3.74291C10.8125 3.16866 10.2479 2.71648 9.59601 2.43292C8.9441 2.14936 8.2284 2.04466 7.52258 2.1296C6.81676 2.21455 6.14633 2.48607 5.58032 2.91621C5.0143 3.34635 4.57315 3.91957 4.30227 4.57685C4.0314 5.23413 3.94059 5.95173 4.0392 6.65577C4.13781 7.35981 4.42227 8.02485 4.86329 8.58243C5.30432 9.14 5.88598 9.56996 6.54839 9.82805C6.66892 9.56761 6.85728 9.34438 7.09373 9.18176C7.33018 9.01913 7.60602 8.92309 7.89234 8.9037C8.17866 8.88432 8.46492 8.94229 8.72114 9.07156C8.97735 9.20083 9.19408 9.39663 9.34862 9.63844C9.50316 9.88025 9.58982 10.1592 9.59952 10.446C9.60921 10.7328 9.54159 11.0169 9.40373 11.2686C9.26588 11.5203 9.06286 11.7303 8.81596 11.8766C8.56906 12.0229 8.28737 12.1001 8.00039 12.1ZM4.00759 10.1H4.08039C4.39239 10.4048 4.73879 10.6736 5.11399 10.9H4.00759C3.55879 10.9 3.20039 11.2576 3.20039 11.7C3.20039 12.7472 3.69799 13.5272 4.53879 14.0624C5.39479 14.6088 6.61239 14.9 8.00039 14.9C9.38839 14.9 10.606 14.6088 11.462 14.0624C12.302 13.5264 12.8004 12.748 12.8004 11.7C12.8004 11.4879 12.7161 11.2844 12.5661 11.1344C12.416 10.9843 12.2126 10.9 12.0004 10.9H10.3676C10.4123 10.6353 10.4123 10.3648 10.3676 10.1H12.0004C12.4247 10.1 12.8317 10.2686 13.1318 10.5687C13.4318 10.8687 13.6004 11.2757 13.6004 11.7C13.6004 13.0528 12.934 14.0728 11.8924 14.7376C10.8668 15.3912 9.48439 15.7 8.00039 15.7C6.51639 15.7 5.13399 15.3912 4.10839 14.7376C3.06679 14.0736 2.40039 13.052 2.40039 11.7C2.40039 10.8096 3.12279 10.1 4.00759 10.1ZM11.2004 6.10005C11.2006 6.64136 11.0634 7.17387 10.8018 7.64775C10.5401 8.12163 10.1626 8.5214 9.70439 8.80965C9.49082 8.5943 9.23836 8.42138 8.96039 8.30005C9.46574 8.0795 9.87973 7.69167 10.1328 7.20178C10.3858 6.71189 10.4624 6.14982 10.3498 5.61007C10.2371 5.07032 9.94205 4.58583 9.51419 4.23805C9.08633 3.89026 8.55177 3.70041 8.00039 3.70041C7.44901 3.70041 6.91445 3.89026 6.48659 4.23805C6.05873 4.58583 5.76367 5.07032 5.65102 5.61007C5.53836 6.14982 5.615 6.71189 5.86802 7.20178C6.12105 7.69167 6.53505 8.0795 7.04039 8.30005C6.76039 8.42245 6.50839 8.59605 6.29639 8.80965C5.68873 8.42751 5.2272 7.85215 4.98599 7.17605C4.86294 6.83066 4.80016 6.4667 4.80039 6.10005C4.80039 5.25136 5.13753 4.43742 5.73765 3.83731C6.33777 3.23719 7.1517 2.90005 8.00039 2.90005C8.84908 2.90005 9.66302 3.23719 10.2631 3.83731C10.8632 4.43742 11.2004 5.25136 11.2004 6.10005Z" fill="white"/>
</svg>
