<svg width="16" height="17" viewBox="0 0 16 17" fill="none" xmlns="http://www.w3.org/2000/svg">
<path d="M12.6673 8.50004C12.6673 8.67685 12.5971 8.84642 12.4721 8.97145C12.347 9.09647 12.1775 9.16671 12.0007 9.16671C11.8238 9.16671 11.6543 9.09647 11.5292 8.97145C11.4042 8.84642 11.334 8.67685 11.334 8.50004C11.334 8.32323 11.4042 8.15366 11.5292 8.02864C11.6543 7.90361 11.8238 7.83337 12.0007 7.83337C12.1775 7.83337 12.347 7.90361 12.4721 8.02864C12.5971 8.15366 12.6673 8.32323 12.6673 8.50004Z" fill="white"/>
<path fill-rule="evenodd" clip-rule="evenodd" d="M6.62998 2.66663H8.70465C9.92998 2.66663 10.9007 2.66663 11.66 2.76863C12.4413 2.87396 13.074 3.09529 13.5733 3.59396C14.1893 4.21063 14.386 5.03596 14.4573 6.10729C14.842 6.27596 15.1327 6.63396 15.164 7.08729C15.1673 7.12796 15.1673 7.17129 15.1673 7.21129V9.78863C15.1673 9.82863 15.1673 9.87196 15.1646 9.91196C15.1327 10.3653 14.842 10.724 14.4573 10.8933C14.386 11.964 14.1893 12.7893 13.5733 13.406C13.074 13.9046 12.4413 14.126 11.66 14.2313C10.9 14.3333 9.92998 14.3333 8.70465 14.3333H6.62998C5.40465 14.3333 4.43398 14.3333 3.67465 14.2313C2.89332 14.126 2.26065 13.9046 1.76132 13.406C1.26265 12.9066 1.04132 12.274 0.935984 11.4926C0.833984 10.7326 0.833984 9.76263 0.833984 8.53729V8.46263C0.833984 7.23729 0.833984 6.26663 0.935984 5.50729C1.04132 4.72596 1.26265 4.09329 1.76132 3.59396C2.26065 3.09529 2.89332 2.87396 3.67465 2.76863C4.43465 2.66663 5.40465 2.66663 6.62998 2.66663ZM13.446 11H12.154C10.724 11 9.49998 9.91463 9.49998 8.49996C9.49998 7.08529 10.724 5.99996 12.1533 5.99996H13.4453C13.3693 5.10596 13.198 4.63329 12.8653 4.30129C12.5833 4.01929 12.1967 3.84996 11.526 3.75996C10.8413 3.66796 9.93798 3.66663 8.66665 3.66663H6.66665C5.39532 3.66663 4.49265 3.66796 3.80665 3.75996C3.13665 3.84996 2.74998 4.01929 2.46798 4.30129C2.18598 4.58329 2.01732 4.96996 1.92732 5.63996C1.83532 6.32529 1.83398 7.22796 1.83398 8.49929C1.83398 9.77063 1.83532 10.674 1.92732 11.3593C2.01732 12.0293 2.18665 12.416 2.46865 12.698C2.75065 12.98 3.13732 13.1493 3.80798 13.2393C4.49332 13.3313 5.39598 13.3326 6.66732 13.3326H8.66732C9.93865 13.3326 10.842 13.3313 11.5273 13.2393C12.1973 13.1493 12.584 12.98 12.866 12.698C13.1987 12.366 13.37 11.894 13.446 10.9993M13.95 6.99929H12.154C11.2046 6.99929 10.5 7.70529 10.5 8.49929C10.5 9.29329 11.2047 9.99929 12.1533 9.99929H13.9653C14.1027 9.99063 14.162 9.89796 14.1667 9.84196V7.15729C14.162 7.10129 14.1027 7.00863 13.9653 7.00063L13.95 6.99929ZM4.66732 5.99996C4.79993 5.99996 4.9271 6.05264 5.02087 6.14641C5.11464 6.24017 5.16732 6.36735 5.16732 6.49996V10.5C5.16732 10.6326 5.11464 10.7597 5.02087 10.8535C4.9271 10.9473 4.79993 11 4.66732 11C4.53471 11 4.40753 10.9473 4.31376 10.8535C4.22 10.7597 4.16732 10.6326 4.16732 10.5V6.49996C4.16732 6.36735 4.22 6.24017 4.31376 6.14641C4.40753 6.05264 4.53471 5.99996 4.66732 5.99996Z" fill="white"/>
</svg>
