<svg width="16" height="17" viewBox="0 0 16 17" fill="none" xmlns="http://www.w3.org/2000/svg">
<path d="M2.66602 12.4999C2.66602 11.7927 2.94697 11.1144 3.44706 10.6143C3.94716 10.1142 4.62544 9.83325 5.33268 9.83325H10.666C11.3733 9.83325 12.0515 10.1142 12.5516 10.6143C13.0517 11.1144 13.3327 11.7927 13.3327 12.4999C13.3327 12.8535 13.1922 13.1927 12.9422 13.4427C12.6921 13.6928 12.353 13.8333 11.9993 13.8333H3.99935C3.64573 13.8333 3.30659 13.6928 3.05654 13.4427C2.80649 13.1927 2.66602 12.8535 2.66602 12.4999Z" stroke="white" stroke-linejoin="round"/>
<path d="M8 7.16663C9.10457 7.16663 10 6.2712 10 5.16663C10 4.06206 9.10457 3.16663 8 3.16663C6.89543 3.16663 6 4.06206 6 5.16663C6 6.2712 6.89543 7.16663 8 7.16663Z" stroke="white"/>
</svg>
