<svg width="32" height="32" viewBox="0 0 32 32" fill="none" xmlns="http://www.w3.org/2000/svg">
<rect width="32" height="32" rx="16" fill="white"/>
<g clip-path="url(#clip0_1792_2418)">
<path fill-rule="evenodd" clip-rule="evenodd" d="M10.6409 7.85352L21.3045 7.85352C22.7712 7.85352 23.9727 9.05484 23.9727 10.5217V21.1854C23.9727 22.6521 22.7712 23.8535 21.3045 23.8535H10.6409C9.17398 23.8535 7.97266 22.6521 7.97266 21.1854L7.97266 10.5217C7.97266 9.05484 9.17398 7.85352 10.6409 7.85352Z" fill="url(#paint0_linear_1792_2418)"/>
<path fill-rule="evenodd" clip-rule="evenodd" d="M19.6955 15.8533C19.6955 13.7967 18.029 12.1302 15.9724 12.1302C13.9157 12.1302 12.2493 13.7967 12.2493 15.8533C12.2493 17.9099 13.9157 19.5764 15.9724 19.5764C18.029 19.5764 19.6955 17.9099 19.6955 15.8533ZM19.625 11.6242C19.2927 11.6242 19.0259 11.8936 19.0259 12.2233C19.0259 12.5556 19.2927 12.8225 19.625 12.8225C19.9548 12.8225 20.2241 12.5556 20.2241 12.2233C20.2241 11.8936 19.9548 11.6242 19.625 11.6242ZM12.929 10.7633H19.0158C20.1436 10.7633 21.0624 11.6846 21.0624 12.8098V18.8966C21.0624 20.0244 20.1437 20.9433 19.0158 20.9433H12.929C11.8037 20.9433 10.8824 20.0244 10.8824 18.8966V12.8098C10.8824 11.6846 11.8038 10.7633 12.929 10.7633ZM19.0158 10.0811H12.929C11.4286 10.0811 10.2002 11.3095 10.2002 12.8098V18.8966C10.2002 20.3995 11.4286 21.6254 12.929 21.6254H19.0158C20.5187 21.6254 21.7445 20.3995 21.7445 18.8966V12.8098C21.7445 11.3095 20.5187 10.0811 19.0158 10.0811ZM13.0221 15.8533C13.0221 14.2245 14.3437 12.9029 15.9724 12.9029C17.6011 12.9029 18.9227 14.2245 18.9227 15.8533C18.9227 17.482 17.6011 18.8035 15.9724 18.8035C14.3437 18.8035 13.0221 17.482 13.0221 15.8533Z" fill="white"/>
</g>
<defs>
<linearGradient id="paint0_linear_1792_2418" x1="21.3318" y1="20.7086" x2="10.3834" y2="10.79" gradientUnits="userSpaceOnUse">
<stop stop-color="#FEC053"/>
<stop offset="0.3273" stop-color="#F2203E"/>
<stop offset="0.6485" stop-color="#B729A8"/>
<stop offset="1" stop-color="#5342D6"/>
</linearGradient>
<clipPath id="clip0_1792_2418">
<rect width="16" height="16" fill="white" transform="translate(8 8)"/>
</clipPath>
</defs>
</svg>
