<svg width="16" height="16" viewBox="0 0 16 16" fill="none" xmlns="http://www.w3.org/2000/svg">
<g clip-path="url(#clip0_2506_12351)">
<path fill-rule="evenodd" clip-rule="evenodd" d="M2.6409 -0.148438L13.3045 -0.148438C14.7712 -0.148438 15.9727 1.05289 15.9727 2.51972V13.1834C15.9727 14.6502 14.7712 15.8516 13.3045 15.8516H2.6409C1.17398 15.8516 -0.0273437 14.6502 -0.0273437 13.1834L-0.0273437 2.51972C-0.0273437 1.05289 1.17398 -0.148438 2.6409 -0.148438Z" fill="url(#paint0_linear_2506_12351)"/>
<path fill-rule="evenodd" clip-rule="evenodd" d="M11.6945 7.85039C11.6945 5.79374 10.028 4.12723 7.9714 4.12723C5.91475 4.12723 4.24832 5.79374 4.24832 7.85039C4.24832 9.90693 5.91475 11.5735 7.9714 11.5735C10.028 11.5734 11.6945 9.90693 11.6945 7.85039ZM11.624 3.62125C11.2917 3.62125 11.0249 3.89063 11.0249 4.22036C11.0249 4.55271 11.2917 4.81956 11.624 4.81956C11.9538 4.81956 12.2231 4.55271 12.2231 4.22036C12.2232 3.89063 11.9539 3.62125 11.624 3.62125ZM4.92802 2.76038H11.0148C12.1427 2.76038 13.0614 3.6817 13.0614 4.80687V10.8937C13.0614 12.0215 12.1427 12.9404 11.0148 12.9404H4.92802C3.80276 12.9404 2.88138 12.0215 2.88138 10.8937V4.80687C2.88138 3.6817 3.80279 2.76038 4.92802 2.76038ZM11.0148 2.07812H4.92802C3.42762 2.07812 2.19922 3.30653 2.19922 4.80684V10.8936C2.19922 12.3966 3.42762 13.6225 4.92802 13.6225H11.0148C12.5177 13.6225 13.7435 12.3966 13.7435 10.8936V4.80687C13.7435 3.30653 12.5177 2.07812 11.0148 2.07812ZM5.02109 7.85039C5.02109 6.22159 6.34269 4.9 7.9714 4.9C9.60011 4.9 10.9217 6.22159 10.9217 7.85039C10.9217 9.4791 9.60011 10.8005 7.9714 10.8005C6.34269 10.8005 5.02109 9.4791 5.02109 7.85039Z" fill="white"/>
</g>
<defs>
<linearGradient id="paint0_linear_2506_12351" x1="13.3318" y1="12.7066" x2="2.38335" y2="2.78803" gradientUnits="userSpaceOnUse">
<stop stop-color="#FEC053"/>
<stop offset="0.3273" stop-color="#F2203E"/>
<stop offset="0.6485" stop-color="#B729A8"/>
<stop offset="1" stop-color="#5342D6"/>
</linearGradient>
<clipPath id="clip0_2506_12351">
<rect width="16" height="16" fill="white"/>
</clipPath>
</defs>
</svg>
