<svg width="32" height="32" viewBox="0 0 32 32" fill="none" xmlns="http://www.w3.org/2000/svg">
<rect width="32" height="32" rx="16" fill="white"/>
<g clip-path="url(#clip0_1792_2471)">
<path d="M22.5 8.37506H9.5C9.20504 8.37206 8.92093 8.48619 8.71002 8.69241C8.49911 8.89863 8.37863 9.1801 8.375 9.47506V22.5276C8.37928 22.8221 8.50006 23.1029 8.7109 23.3086C8.92173 23.5143 9.20547 23.6281 9.5 23.6251H22.5C22.795 23.6274 23.0789 23.5129 23.2897 23.3065C23.5005 23.1002 23.621 22.8188 23.625 22.5238V9.47131C23.6197 9.17722 23.4986 8.89709 23.288 8.69181C23.0773 8.48654 22.7941 8.37271 22.5 8.37506Z" fill="#0076B2"/>
<path d="M10.6321 14.0913H12.8959V21.3751H10.6321V14.0913ZM11.7646 10.4663C12.0243 10.4663 12.2781 10.5433 12.494 10.6876C12.7098 10.8319 12.8781 11.0369 12.9774 11.2768C13.0767 11.5167 13.1026 11.7807 13.0518 12.0353C13.0011 12.29 12.876 12.5238 12.6923 12.7073C12.5086 12.8908 12.2746 13.0157 12.0199 13.0662C11.7653 13.1167 11.5013 13.0906 11.2615 12.991C11.0217 12.8915 10.8168 12.7231 10.6727 12.5071C10.5287 12.2911 10.4519 12.0372 10.4521 11.7776C10.4525 11.4297 10.5909 11.0962 10.837 10.8503C11.0831 10.6044 11.4168 10.4663 11.7646 10.4663ZM14.3159 14.0913H16.4859V15.0913H16.5159C16.8184 14.5188 17.5559 13.9151 18.6571 13.9151C20.9496 13.9101 21.3746 15.4188 21.3746 17.3751V21.3751H19.1109V17.8313C19.1109 16.9876 19.0959 15.9013 17.9346 15.9013C16.7734 15.9013 16.5759 16.8213 16.5759 17.7763V21.3751H14.3159V14.0913Z" fill="white"/>
</g>
<defs>
<clipPath id="clip0_1792_2471">
<rect width="16" height="16" fill="white" transform="translate(8 8)"/>
</clipPath>
</defs>
</svg>
