<svg width="24" height="24" viewBox="0 0 24 24" fill="none" xmlns="http://www.w3.org/2000/svg">
<path d="M12.0011 6.08686C12.2779 6.08686 12.5433 5.97692 12.739 5.78124C12.9346 5.58556 13.0446 5.32016 13.0446 5.04343C13.0446 4.76669 12.9346 4.50129 12.739 4.30561C12.5433 4.10993 12.2779 4 12.0011 4C11.7244 4 11.459 4.10993 11.2633 4.30561C11.0676 4.50129 10.9577 4.76669 10.9577 5.04343C10.9577 5.32016 11.0676 5.58556 11.2633 5.78124C11.459 5.97692 11.7244 6.08686 12.0011 6.08686ZM18.9589 6.08686C19.0959 6.08686 19.2316 6.05987 19.3582 6.00743C19.4848 5.95499 19.5998 5.87814 19.6967 5.78124C19.7936 5.68435 19.8704 5.56933 19.9229 5.44273C19.9753 5.31614 20.0023 5.18045 20.0023 5.04343C20.0023 4.9064 19.9753 4.77072 19.9229 4.64413C19.8704 4.51753 19.7936 4.4025 19.6967 4.30561C19.5998 4.20872 19.4848 4.13186 19.3582 4.07943C19.2316 4.02699 19.0959 4 18.9589 4C18.6821 4 18.4167 4.10993 18.221 4.30561C18.0254 4.50129 17.9154 4.76669 17.9154 5.04343C17.9154 5.32016 18.0254 5.58556 18.221 5.78124C18.4167 5.97692 18.6821 6.08686 18.9589 6.08686ZM5.04343 6.08686C5.18045 6.08686 5.31614 6.05987 5.44273 6.00743C5.56933 5.95499 5.68435 5.87814 5.78124 5.78124C5.87814 5.68435 5.95499 5.56933 6.00743 5.44273C6.05987 5.31614 6.08686 5.18045 6.08686 5.04343C6.08686 4.9064 6.05987 4.77072 6.00743 4.64413C5.95499 4.51753 5.87814 4.4025 5.78124 4.30561C5.68435 4.20872 5.56933 4.13186 5.44273 4.07943C5.31614 4.02699 5.18045 4 5.04343 4C4.76669 4 4.50129 4.10993 4.30561 4.30561C4.10993 4.50129 4 4.76669 4 5.04343C4 5.32016 4.10993 5.58556 4.30561 5.78124C4.50129 5.97692 4.76669 6.08686 5.04343 6.08686ZM12.0011 13.0434C12.2779 13.0434 12.5433 12.9335 12.739 12.7378C12.9346 12.5421 13.0446 12.2767 13.0446 12C13.0446 11.7233 12.9346 11.4579 12.739 11.2622C12.5433 11.0665 12.2779 10.9566 12.0011 10.9566C11.7244 10.9566 11.459 11.0665 11.2633 11.2622C11.0676 11.4579 10.9577 11.7233 10.9577 12C10.9577 12.2767 11.0676 12.5421 11.2633 12.7378C11.459 12.9335 11.7244 13.0434 12.0011 13.0434ZM18.9589 13.0434C19.2356 13.0434 19.501 12.9335 19.6967 12.7378C19.8924 12.5421 20.0023 12.2767 20.0023 12C20.0023 11.7233 19.8924 11.4579 19.6967 11.2622C19.501 11.0665 19.2356 10.9566 18.9589 10.9566C18.6821 10.9566 18.4167 11.0665 18.221 11.2622C18.0254 11.4579 17.9154 11.7233 17.9154 12C17.9154 12.2767 18.0254 12.5421 18.221 12.7378C18.4167 12.9335 18.6821 13.0434 18.9589 13.0434ZM5.04343 13.0434C5.32016 13.0434 5.58556 12.9335 5.78124 12.7378C5.97692 12.5421 6.08686 12.2767 6.08686 12C6.08686 11.7233 5.97692 11.4579 5.78124 11.2622C5.58556 11.0665 5.32016 10.9566 5.04343 10.9566C4.76669 10.9566 4.50129 11.0665 4.30561 11.2622C4.10993 11.4579 4 11.7233 4 12C4 12.2767 4.10993 12.5421 4.30561 12.7378C4.50129 12.9335 4.76669 13.0434 5.04343 13.0434ZM12.0011 20C12.2779 20 12.5433 19.8901 12.739 19.6944C12.9346 19.4987 13.0446 19.2333 13.0446 18.9566C13.0446 18.6798 12.9346 18.4144 12.739 18.2188C12.5433 18.0231 12.2779 17.9131 12.0011 17.9131C11.7244 17.9131 11.459 18.0231 11.2633 18.2188C11.0676 18.4144 10.9577 18.6798 10.9577 18.9566C10.9577 19.2333 11.0676 19.4987 11.2633 19.6944C11.459 19.8901 11.7244 20 12.0011 20ZM18.9589 20C19.2356 20 19.501 19.8901 19.6967 19.6944C19.8924 19.4987 20.0023 19.2333 20.0023 18.9566C20.0023 18.6798 19.8924 18.4144 19.6967 18.2188C19.501 18.0231 19.2356 17.9131 18.9589 17.9131C18.6821 17.9131 18.4167 18.0231 18.221 18.2188C18.0254 18.4144 17.9154 18.6798 17.9154 18.9566C17.9154 19.2333 18.0254 19.4987 18.221 19.6944C18.4167 19.8901 18.6821 20 18.9589 20ZM5.04343 20C5.32016 20 5.58556 19.8901 5.78124 19.6944C5.97692 19.4987 6.08686 19.2333 6.08686 18.9566C6.08686 18.6798 5.97692 18.4144 5.78124 18.2188C5.58556 18.0231 5.32016 17.9131 5.04343 17.9131C4.76669 17.9131 4.50129 18.0231 4.30561 18.2188C4.10993 18.4144 4 18.6798 4 18.9566C4 19.2333 4.10993 19.4987 4.30561 19.6944C4.50129 19.8901 4.76669 20 5.04343 20Z" stroke="white" stroke-width="1.5" stroke-linecap="round" stroke-linejoin="round"/>
</svg>
