<svg width="14" height="14" viewBox="0 0 14 14" fill="none" xmlns="http://www.w3.org/2000/svg">
<path d="M6.9987 1.66671C9.93936 1.66671 12.332 4.05937 12.332 7.00004C12.332 9.94071 9.93936 12.3334 6.9987 12.3334C4.05803 12.3334 1.66536 9.94071 1.66536 7.00004C1.66536 4.05937 4.05803 1.66671 6.9987 1.66671ZM6.9987 0.333374C3.3167 0.333374 0.332031 3.31804 0.332031 7.00004C0.332031 10.682 3.3167 13.6667 6.9987 13.6667C10.6807 13.6667 13.6654 10.682 13.6654 7.00004C13.6654 3.31804 10.6807 0.333374 6.9987 0.333374ZM7.66536 9.00004H6.33203V10.3334H7.66536V9.00004ZM6.33203 7.66671H7.66536L7.9987 3.66671H5.9987L6.33203 7.66671Z" fill="white"/>
</svg>
