<svg width="16" height="16" viewBox="0 0 16 16" fill="none" xmlns="http://www.w3.org/2000/svg">
<g clip-path="url(#clip0_2506_12420)">
<path d="M16 2.66797H13.3233C11.0233 2.66797 9.79 2.7993 8.82467 3.97264C7.97539 3.23631 6.9151 2.78729 5.79531 2.68973C4.67552 2.59218 3.55356 2.8511 2.58975 3.42947C1.62594 4.00785 0.869627 4.87608 0.428889 5.9101C-0.0118502 6.94412 -0.114455 8.09099 0.135739 9.18682C0.385932 10.2827 0.976118 11.2714 1.82195 12.0116C2.66779 12.7519 3.72598 13.2059 4.8453 13.3086C5.96462 13.4114 7.08778 13.1577 8.05427 12.5838C9.02076 12.01 9.78112 11.1453 10.2267 10.1133C12.348 9.9593 13.82 8.69064 14.2833 6.66464C14.2833 6.66464 12.684 7.05464 11.33 6.66464C14.0087 6.14664 15.552 4.63997 16 2.66797ZM3.74 7.99864C3.73894 7.71281 3.81476 7.43196 3.95951 7.1855C4.10425 6.93904 4.31261 6.73603 4.56275 6.59773C4.81289 6.45944 5.09562 6.39095 5.38132 6.39944C5.66702 6.40792 5.94518 6.49307 6.18667 6.64597C6.25763 6.16993 6.49978 5.73612 6.86773 5.42586C7.23567 5.11559 7.70415 4.95018 8.18534 4.96064H8.19067C7.57734 6.14597 7.25267 7.1953 6.85867 8.4693C6.74626 8.83423 6.50663 9.1467 6.18335 9.34992C5.86008 9.55314 5.47461 9.63361 5.09703 9.57671C4.71944 9.51981 4.37482 9.32931 4.12579 9.03984C3.87676 8.75037 3.73987 8.38115 3.74 7.9993V7.99864ZM5.33067 2.66797C4.27636 2.66797 3.24573 2.98061 2.36911 3.56635C1.49249 4.15209 0.809241 4.98463 0.405775 5.95868C0.00230968 6.93273 -0.103255 8.00455 0.10243 9.0386C0.308115 10.0726 0.815811 11.0225 1.56132 11.768C2.30683 12.5135 3.25666 13.0212 4.29071 13.2269C5.32476 13.4326 6.39657 13.327 7.37063 12.9235C8.34468 12.5201 9.17721 11.8368 9.76296 10.9602C10.3487 10.0836 10.6613 9.05294 10.6613 7.99864C10.6613 6.58485 10.0997 5.22898 9.10002 4.22929C8.10032 3.22959 6.74445 2.66797 5.33067 2.66797ZM5.33067 9.5973C5.01429 9.5973 4.70503 9.50347 4.44199 9.32767C4.17895 9.15188 3.97396 8.90202 3.85295 8.6097C3.73194 8.31738 3.70035 7.99574 3.76216 7.68546C3.82398 7.37519 3.97644 7.09022 4.20024 6.8666C4.42405 6.64298 4.70914 6.49076 5.01947 6.4292C5.3298 6.36764 5.65142 6.39951 5.94363 6.52076C6.23585 6.64201 6.48554 6.84721 6.66111 7.1104C6.83669 7.37358 6.93027 7.68293 6.93 7.9993C6.93018 8.20935 6.88893 8.41737 6.8086 8.61145C6.72828 8.80553 6.61048 8.98186 6.46192 9.13036C6.31336 9.27885 6.13698 9.39659 5.94286 9.47683C5.74875 9.55707 5.54071 9.59757 5.33067 9.5973Z" fill="url(#paint0_linear_2506_12420)"/>
</g>
<defs>
<linearGradient id="paint0_linear_2506_12420" x1="16" y1="3.33268" x2="0.333333" y2="5.66601" gradientUnits="userSpaceOnUse">
<stop stop-color="#003256"/>
<stop offset="0.491666" stop-color="#6FA9F5"/>
</linearGradient>
<clipPath id="clip0_2506_12420">
<rect width="16" height="16" fill="white"/>
</clipPath>
</defs>
</svg>
