<svg width="16" height="16" viewBox="0 0 16 16" fill="none" xmlns="http://www.w3.org/2000/svg">
<g clip-path="url(#clip0_2506_12402)">
<path d="M0 8.00012C0 11.276 1.96988 14.0903 4.78869 15.3276C4.76619 14.7689 4.78469 14.0983 4.92794 13.4905C5.08175 12.8411 5.95731 9.13125 5.95731 9.13125C5.95731 9.13125 5.70175 8.62044 5.70175 7.8655C5.70175 6.67994 6.38888 5.7945 7.24463 5.7945C7.97231 5.7945 8.32388 6.34106 8.32388 6.99556C8.32388 7.72706 7.85731 8.82125 7.61737 9.83469C7.41694 10.6833 8.04287 11.3755 8.88006 11.3755C10.3958 11.3755 11.4167 9.42869 11.4167 7.12206C11.4167 5.36869 10.2358 4.05631 8.08781 4.05631C5.66106 4.05631 4.14925 5.86606 4.14925 7.88756C4.14925 8.58456 4.35475 9.07606 4.67662 9.45669C4.82463 9.6315 4.84519 9.70181 4.79163 9.90256C4.75325 10.0497 4.66512 10.4041 4.62862 10.5446C4.57538 10.7472 4.41119 10.8196 4.22806 10.7448C3.11031 10.2885 2.58975 9.06444 2.58975 7.68844C2.58975 5.41587 4.50637 2.69088 8.30737 2.69088C11.3617 2.69088 13.3721 4.90112 13.3721 7.27369C13.3721 10.412 11.6273 12.7566 9.05544 12.7566C8.19175 12.7566 7.37931 12.2897 7.101 11.7594C7.101 11.7594 6.63656 13.6026 6.53819 13.9586C6.36856 14.5754 6.03656 15.1919 5.733 15.6724C6.4691 15.89 7.23271 16.0005 8.00031 16.0004C12.4181 16.0004 16.0001 12.4186 16.0001 8.00012C16.0001 3.58181 12.4181 0 8.00031 0C3.58213 0 0 3.58181 0 8.00012Z" fill="#CB1F27"/>
</g>
<defs>
<clipPath id="clip0_2506_12402">
<rect width="16" height="16" fill="white"/>
</clipPath>
</defs>
</svg>
