<svg width="64" height="64" viewBox="0 0 64 64" fill="none" xmlns="http://www.w3.org/2000/svg">
<path d="M53.498 49.86C56.3703 46.4042 58.3679 42.3075 59.322 37.9164C60.2761 33.5252 60.1586 28.9689 58.9794 24.6328C57.8001 20.2967 55.5939 16.3085 52.5473 13.0054C49.5007 9.70225 45.7034 7.18151 41.4765 5.65637C37.2497 4.13123 32.7177 3.64656 28.2639 4.24336C23.8102 4.84016 19.5656 6.50087 15.8894 9.08501C12.2132 11.6691 9.2135 15.1007 7.14399 19.0893C5.07448 23.078 3.99607 27.5064 4.00001 32C4.00169 38.5323 6.30365 44.8555 10.502 49.86L10.462 49.894C10.602 50.062 10.762 50.206 10.906 50.372C11.086 50.578 11.28 50.772 11.466 50.972C12.0233 51.5813 12.6033 52.1613 13.206 52.712C13.3927 52.8773 13.5793 53.0387 13.766 53.196C14.406 53.7493 15.066 54.2707 15.746 54.76C15.834 54.82 15.914 54.898 16.002 54.96V54.936C20.6861 58.2326 26.2741 60.0019 32.002 60.0019C37.7299 60.0019 43.3179 58.2326 48.002 54.936V54.96C48.09 54.898 48.168 54.82 48.258 54.76C48.938 54.2693 49.598 53.748 50.238 53.196C50.4247 53.0373 50.6113 52.876 50.798 52.712C51.3993 52.1613 51.9793 51.5813 52.538 50.972C52.724 50.772 52.916 50.578 53.098 50.372C53.24 50.206 53.402 50.062 53.542 49.892L53.498 49.86ZM32 16C33.78 16 35.5201 16.5278 37.0001 17.5168C38.4802 18.5057 39.6337 19.9113 40.3149 21.5558C40.9961 23.2004 41.1743 25.01 40.8271 26.7558C40.4798 28.5016 39.6226 30.1053 38.364 31.364C37.1053 32.6226 35.5017 33.4798 33.7558 33.8271C32.01 34.1743 30.2004 33.9961 28.5559 33.3149C26.9113 32.6337 25.5057 31.4802 24.5168 30.0001C23.5279 28.5201 23 26.78 23 25C23 22.613 23.9482 20.3239 25.6361 18.636C27.3239 16.9482 29.6131 16 32 16ZM16.014 49.86C16.0487 47.2339 17.1159 44.7271 18.9847 42.8819C20.8535 41.0366 23.3737 40.0013 26 40H38C40.6263 40.0013 43.1465 41.0366 45.0153 42.8819C46.8841 44.7271 47.9513 47.2339 47.986 49.86C43.5997 53.8127 37.9045 56.0001 32 56.0001C26.0955 56.0001 20.4003 53.8127 16.014 49.86Z" fill="#DCD0FF"/>
</svg>
