<svg width="24" height="24" viewBox="0 0 24 24" fill="none" xmlns="http://www.w3.org/2000/svg">
<path d="M10.9497 13.4298L9.15375 11.6398C9.06042 11.5464 8.94675 11.4964 8.81275 11.4898C8.67808 11.4831 8.55575 11.5351 8.44575 11.6458C8.33908 11.7524 8.28575 11.8704 8.28575 11.9998C8.28575 12.1291 8.33908 12.2471 8.44575 12.3538L10.3837 14.2918C10.5458 14.4531 10.7344 14.5338 10.9497 14.5338C11.1651 14.5338 11.3538 14.4531 11.5157 14.2918L15.5538 10.2538C15.6511 10.1564 15.7021 10.0418 15.7067 9.90977C15.7114 9.7771 15.6604 9.65577 15.5538 9.54577C15.4438 9.43577 15.3247 9.37977 15.1967 9.37777C15.0687 9.37577 14.9501 9.42977 14.8407 9.53977L10.9497 13.4298ZM8.66975 20.6158L7.35375 18.4158L4.87275 17.8918C4.67408 17.8551 4.51575 17.7484 4.39775 17.5718C4.27975 17.3958 4.23108 17.2084 4.25175 17.0098L4.48875 14.4538L2.80575 12.5338C2.66442 12.3891 2.59375 12.2111 2.59375 11.9998C2.59375 11.7884 2.66442 11.6104 2.80575 11.4658L4.48875 9.54577L4.25175 6.99077C4.23175 6.79144 4.28042 6.60377 4.39775 6.42777C4.51575 6.25177 4.67408 6.1451 4.87275 6.10777L7.35275 5.58477L8.66875 3.38477C8.77675 3.2061 8.92175 3.08277 9.10375 3.01477C9.28575 2.9461 9.47408 2.9551 9.66875 3.04177L11.9998 4.02677L14.3298 3.04177C14.5251 2.9551 14.7137 2.9461 14.8958 3.01477C15.0778 3.08277 15.2228 3.2061 15.3308 3.38477L16.6458 5.58477L19.1268 6.10777C19.3254 6.1451 19.4837 6.25177 19.6017 6.42777C19.7197 6.60377 19.7684 6.79144 19.7477 6.99077L19.5117 9.54577L21.1938 11.4658C21.3351 11.6104 21.4058 11.7884 21.4058 11.9998C21.4058 12.2111 21.3351 12.3894 21.1938 12.5348L19.5117 14.4538L19.7477 17.0088C19.7677 17.2081 19.7191 17.3958 19.6017 17.5718C19.4837 17.7484 19.3254 17.8551 19.1268 17.8918L16.6467 18.4158L15.3308 20.6158C15.2228 20.7938 15.0778 20.9171 14.8958 20.9858C14.7137 21.0544 14.5254 21.0451 14.3308 20.9578L11.9998 19.9728L9.66975 20.9578C9.47442 21.0444 9.28575 21.0534 9.10375 20.9848C8.92175 20.9168 8.77675 20.7934 8.66875 20.6148" fill="#603CD0"/>
</svg>
