<svg width="16" height="16" viewBox="0 0 16 16" fill="none" xmlns="http://www.w3.org/2000/svg">
<path d="M15.9925 12.6682H14.9127C14.8543 13.1576 14.5236 13.7694 13.6967 13.7694C12.938 13.7694 12.3932 13.2612 11.8679 12.4894C12.7355 11.848 13.4369 11.0199 13.9164 10.0708C14.3959 9.12169 14.6404 8.07758 14.6306 7.02118C14.6306 2.82353 11.0508 0 7.30557 0C3.60901 0 0 2.85176 0 7.03059C0 11.1718 3.60901 14.0235 7.30557 14.0235C7.9476 14.0235 8.58964 13.9388 9.20249 13.7788C9.92234 14.9741 10.8854 16 12.7045 16C15.7201 16 16.0606 13.3082 15.9925 12.6682ZM10.6908 10.6165C9.98071 9.57176 9.07603 8.75294 7.32502 8.75294C6.1966 8.75294 5.3211 9.11059 4.77634 9.56235L5.22382 10.4282C5.45729 10.3247 5.70048 10.2871 5.95341 10.2871C7.26666 10.2871 7.93787 11.3882 8.51181 12.48C8.14216 12.5835 7.74332 12.6306 7.30557 12.6306C4.53315 12.6306 3.33663 10.7388 3.33663 7.03059C3.33663 3.30353 4.53315 1.39294 7.30557 1.39294C10.1169 1.39294 11.3231 3.30353 11.3231 7.03059C11.3134 8.51765 11.1189 9.72235 10.6908 10.6165Z" fill="#DD1010"/>
</svg>
