<svg width="16" height="16" viewBox="0 0 16 16" fill="none" xmlns="http://www.w3.org/2000/svg">
<g clip-path="url(#clip0_2506_12436)">
<path d="M8.01074 0.626953C8.04513 0.692214 8.6525 1.78518 9.24707 2.85547C9.54512 3.39199 9.84099 3.9247 10.0625 4.32324C10.1733 4.52253 10.2656 4.68876 10.3301 4.80469C10.3621 4.86222 10.3871 4.90753 10.4043 4.93848C10.4111 4.95067 10.4167 4.96116 10.4209 4.96875L10.4219 4.96973C10.4282 4.98583 10.4377 5.00739 10.4512 5.03125C10.4756 5.07455 10.5272 5.15058 10.6201 5.19824C10.6694 5.22366 10.7179 5.24092 10.751 5.25098C10.7682 5.25621 10.783 5.25998 10.7939 5.2627C10.7994 5.26405 10.8041 5.26482 10.8076 5.26562C10.8094 5.26603 10.8113 5.26633 10.8125 5.2666L10.8135 5.26758H10.8154L10.8193 5.26855H10.8203L10.8223 5.26953C10.8246 5.26997 10.8285 5.27062 10.833 5.27148C10.842 5.27321 10.8557 5.275 10.873 5.27832C10.908 5.28502 10.9593 5.29513 11.0244 5.30762C11.1549 5.33264 11.3413 5.36816 11.5654 5.41113C12.0142 5.49719 12.6146 5.6128 13.2188 5.72852C14.4237 5.95931 15.654 6.19476 15.7266 6.20703C15.7353 6.2085 15.7416 6.21032 15.7461 6.21191C15.7456 6.21609 15.7474 6.22104 15.7461 6.22559C15.7428 6.23695 15.7369 6.24748 15.7285 6.25586L15.7266 6.25781L12.1523 9.91699L12.1445 9.92578L12.1436 9.92676C12.1428 9.92766 12.1418 9.92933 12.1406 9.93066C12.1384 9.93323 12.1352 9.93637 12.1318 9.94043C12.1248 9.94879 12.1151 9.96071 12.1045 9.97461C12.1035 9.97587 12.1016 9.97719 12.1006 9.97852C11.1139 10.0358 10.0772 9.93195 9.27539 9.78223C8.85727 9.70414 8.50961 9.61504 8.27051 9.53418C8.24586 9.52584 8.22278 9.51668 8.20117 9.50879C8.25563 9.46719 8.31755 9.41828 8.38867 9.36621C8.52422 9.26698 8.68355 9.15279 8.8584 9.02734C9.03283 8.90219 9.2215 8.7653 9.41406 8.62402L9.41504 8.625C9.90877 8.26315 10.4559 7.87876 10.8691 7.56543C11.0766 7.40811 11.2604 7.26165 11.3936 7.13672C11.4597 7.07471 11.5206 7.01199 11.5664 6.95117C11.6031 6.90248 11.668 6.80724 11.668 6.69043C11.6677 6.45514 11.488 6.29172 11.3438 6.19336C11.1836 6.08419 10.9723 5.99035 10.748 5.91211C10.2963 5.75453 9.73586 5.64015 9.28027 5.5918C7.97505 5.45293 6.54399 5.70674 5.85449 5.85742L5.44434 5.95508C5.35601 5.97749 4.57674 6.16832 4.08496 6.38574C3.95408 6.44359 3.81209 6.50944 3.71094 6.5957C3.65697 6.64175 3.60191 6.70452 3.56836 6.78711C3.53325 6.87378 3.52965 6.96443 3.55078 7.05176V7.05273C3.57689 7.15888 3.6478 7.22796 3.7168 7.26758C3.78055 7.30413 3.85076 7.32092 3.91016 7.33008C3.96991 7.33928 4.03784 7.34359 4.11133 7.34375L4.34668 7.33398C4.73693 7.30773 4.91539 7.22364 6.2041 7.22363C6.81581 7.22363 7.47178 7.30397 7.97266 7.40723C8.19114 7.45228 8.37383 7.50231 8.50781 7.54785C8.50052 7.55396 8.49408 7.56196 8.48633 7.56836C8.33728 7.69147 8.12638 7.84936 7.88379 8.02539C7.40535 8.37255 6.80176 8.79155 6.37207 9.11523L4.46484 10.5527C4.291 10.6837 4.16238 10.8092 4.08398 10.9385C3.9992 11.0783 3.97359 11.2222 4.00879 11.3652V11.3662C4.06857 11.6037 4.28691 11.7006 4.44434 11.7471C4.61476 11.7974 4.83324 11.8237 5.05566 11.8467V11.8457C5.60346 11.9033 6.31128 11.8967 6.88672 11.8779L7.40723 11.8574C9.3465 11.7727 11.2868 11.3994 12.8994 10.8916C12.7347 11.033 12.5433 11.1718 12.3105 11.3154L12.168 11.4033L12.1953 11.5684L12.8145 15.3535L12.8154 15.3545C12.8171 15.3642 12.8159 15.3746 12.8125 15.3838C12.8112 15.3872 12.8075 15.3895 12.8057 15.3926C12.8011 15.3913 12.7944 15.3898 12.7861 15.3857L12.7842 15.3838L10.4639 14.2734C9.90417 14.0055 9.34854 13.7391 8.93262 13.54C8.72488 13.4406 8.55164 13.3577 8.43066 13.2998C8.37026 13.2709 8.32241 13.2479 8.29004 13.2324C8.27776 13.2265 8.26758 13.2215 8.25977 13.2178C8.2588 13.2171 8.25784 13.2165 8.25684 13.2158C8.24201 13.2063 8.22081 13.1943 8.19531 13.1826C8.16067 13.1667 8.10288 13.1451 8.03223 13.1426L7.95801 13.1475C7.90403 13.1564 7.85463 13.1713 7.82227 13.1826C7.80553 13.1885 7.7915 13.1941 7.78125 13.1982C7.77607 13.2003 7.77183 13.2027 7.76855 13.2041C7.76698 13.2048 7.76574 13.2056 7.76465 13.2061H7.7627V13.207H7.76172L7.75586 13.209V13.21C7.75532 13.2102 7.75399 13.2104 7.75293 13.2109C7.75084 13.2119 7.74808 13.2139 7.74414 13.2158C7.7358 13.2198 7.72318 13.2257 7.70703 13.2334C7.67469 13.2489 7.62683 13.2709 7.56641 13.2998C7.44544 13.3577 7.27239 13.4406 7.06445 13.54C6.64857 13.739 6.093 14.0056 5.5332 14.2734L3.21191 15.3848C3.20289 15.3892 3.19518 15.3903 3.19043 15.3916C3.18887 15.3889 3.18567 15.3867 3.18457 15.3838C3.1812 15.3746 3.181 15.3642 3.18262 15.3545V15.3506C3.19259 15.2836 3.39558 14.045 3.59668 12.8184C3.69703 12.2062 3.79646 11.5984 3.87109 11.1436C3.90839 10.9162 3.9402 10.727 3.96191 10.5947C3.97272 10.5289 3.98052 10.4768 3.98633 10.4414C3.98923 10.4237 3.99166 10.4095 3.99316 10.4004C3.99386 10.3961 3.99474 10.3929 3.99512 10.3906C3.99529 10.3896 3.99502 10.3883 3.99512 10.3877L3.99609 10.3867L3.99707 10.3799L3.99805 10.3721V10.3652C3.99835 10.3618 3.99865 10.3569 3.99902 10.3516C3.99978 10.3406 4.00059 10.3253 4.00098 10.3076C4.00172 10.2737 4.00176 10.224 3.99414 10.1709L3.9873 10.1279L3.96777 10.0908L3.89355 9.97461C3.88296 9.9607 3.87327 9.94885 3.86621 9.94043C3.86265 9.93618 3.85876 9.93234 3.85645 9.92969C3.85538 9.92847 3.85427 9.9276 3.85352 9.92676L3.85254 9.9248L3.66699 10.0908L3.85254 9.92383L3.84473 9.91699L0.271484 6.25684L0.270508 6.25586L0.25293 6.22559C0.251706 6.22118 0.252297 6.21644 0.251953 6.21191C0.256594 6.21014 0.263485 6.20779 0.273438 6.20605L0.272461 6.20508C0.347371 6.19243 1.57665 5.95795 2.78027 5.72754C3.38416 5.61194 3.98397 5.49712 4.43262 5.41113C4.65696 5.36814 4.84411 5.33264 4.97461 5.30762C5.03978 5.29512 5.09109 5.28501 5.12598 5.27832C5.14334 5.27499 5.15703 5.27321 5.16602 5.27148C5.17028 5.27067 5.17353 5.26996 5.17578 5.26953C5.17693 5.26931 5.17813 5.26867 5.17871 5.26855H5.17969L5.18555 5.2666H5.18848C5.18967 5.26633 5.19163 5.26603 5.19336 5.26562C5.19674 5.26482 5.2009 5.26304 5.20605 5.26172C5.2167 5.25899 5.23121 5.25518 5.24805 5.25C5.28051 5.24 5.3287 5.22382 5.37695 5.19922L5.37598 5.19824C5.46909 5.15114 5.52193 5.0766 5.54688 5.0332C5.56059 5.00932 5.57064 4.9878 5.57715 4.97168V4.96875C5.5814 4.9611 5.58779 4.95095 5.59473 4.93848C5.61192 4.90754 5.63695 4.86224 5.66895 4.80469C5.73339 4.68876 5.82576 4.52253 5.93652 4.32324C6.15802 3.92471 6.4539 3.392 6.75195 2.85547C7.34626 1.78565 7.95341 0.693093 7.98828 0.626953C7.9924 0.619125 7.99606 0.613311 7.99902 0.609375C8.00206 0.613332 8.00641 0.618732 8.01074 0.626953Z" fill="#F6E200" stroke="#C32525" stroke-width="0.5"/>
</g>
<defs>
<clipPath id="clip0_2506_12436">
<rect width="16" height="16" fill="white"/>
</clipPath>
</defs>
</svg>
