<svg width="16" height="16" viewBox="0 0 16 16" fill="none" xmlns="http://www.w3.org/2000/svg">
<g clip-path="url(#clip0_2506_12413)">
<path d="M8 16C12.4183 16 16 12.4183 16 8C16 3.58172 12.4183 0 8 0C3.58172 0 0 3.58172 0 8C0 12.4183 3.58172 16 8 16Z" fill="#FF4500"/>
<path d="M13.3215 8.07594C13.3215 7.42744 12.797 6.91237 12.1579 6.91237C11.856 6.91196 11.5656 7.02815 11.3473 7.23669C10.5462 6.66437 9.4493 6.2925 8.22855 6.24481L8.76255 3.746L10.4984 4.11787C10.5175 4.55662 10.8799 4.90956 11.3282 4.90956C11.786 4.90956 12.1579 4.53769 12.1579 4.07969C12.1579 3.62194 11.786 3.25 11.3282 3.25C11.004 3.25 10.7177 3.44075 10.5842 3.71738L8.64823 3.30725C8.59098 3.29763 8.53373 3.30725 8.49555 3.33588C8.44786 3.3645 8.4193 3.41212 8.40986 3.46937L7.81836 6.25425C6.57855 6.2925 5.46261 6.66437 4.65198 7.24625C4.43365 7.03772 4.14322 6.92156 3.8413 6.922C3.19273 6.922 2.67773 7.44644 2.67773 8.08556C2.67773 8.56237 2.9638 8.96287 3.36448 9.14425C3.34503 9.26086 3.33545 9.3789 3.33586 9.49712C3.33586 11.29 5.42461 12.7494 7.99967 12.7494C10.5748 12.7494 12.6635 11.2996 12.6635 9.49712C12.6636 9.37892 12.654 9.26091 12.6349 9.14425C13.0354 8.96287 13.3215 8.55275 13.3215 8.07594ZM5.32911 8.90562C5.32911 8.44787 5.70098 8.07594 6.15898 8.07594C6.61673 8.07594 6.98867 8.44781 6.98867 8.90562C6.98867 9.36344 6.6168 9.7355 6.15898 9.7355C5.70105 9.74487 5.32911 9.36344 5.32911 8.90562ZM9.97392 11.1088C9.40167 11.6811 8.31436 11.7193 7.99967 11.7193C7.67542 11.7193 6.58817 11.6715 6.0253 11.1088C5.93961 11.023 5.93961 10.8894 6.0253 10.8036C6.11117 10.7179 6.24467 10.7179 6.33055 10.8036C6.69305 11.1661 7.45605 11.29 7.99967 11.29C8.5433 11.29 9.3158 11.1661 9.66867 10.8036C9.75455 10.7179 9.88805 10.7179 9.97392 10.8036C10.0502 10.8894 10.0502 11.023 9.97392 11.1088ZM9.82123 9.74494C9.36342 9.74494 8.99155 9.37306 8.99155 8.91525C8.99155 8.45744 9.36342 8.08556 9.82123 8.08556C10.2792 8.08556 10.651 8.45744 10.651 8.91525C10.651 9.36337 10.2792 9.74494 9.82123 9.74494Z" fill="white"/>
</g>
<defs>
<clipPath id="clip0_2506_12413">
<rect width="16" height="16" fill="white"/>
</clipPath>
</defs>
</svg>
