<svg width="25" height="24" viewBox="0 0 25 24" fill="none" xmlns="http://www.w3.org/2000/svg">
<path d="M11.524 3C9.23108 3.25659 7.12339 4.38133 5.63377 6.14326C4.14414 7.9052 3.38563 10.1706 3.51399 12.4743C3.64236 14.778 4.64786 16.9451 6.32402 18.5306C8.00017 20.1161 10.2198 20.9997 12.527 21C14.7436 21 16.8827 20.1847 18.537 18.7095C20.1913 17.2342 21.2452 15.2021 21.498 13" stroke="white" stroke-width="1.5" stroke-linecap="round" stroke-linejoin="round"/>
<path d="M21.5 6.025L20.5 6.023C16.763 6.013 14.895 6.008 13.582 6.953C13.145 7.266 12.762 7.648 12.447 8.084C11.5 9.395 11.5 11.264 11.5 15M21.5 6.025C21.5022 5.85141 21.4398 5.68319 21.325 5.553C20.56 4.647 18.571 3 18.571 3M21.5 6.025C21.4908 6.18116 21.4295 6.32973 21.326 6.447C20.56 7.353 18.57 9 18.57 9" stroke="white" stroke-width="1.5" stroke-linecap="round" stroke-linejoin="round"/>
</svg>
