<svg width="103" height="122" viewBox="0 0 103 122" fill="none" xmlns="http://www.w3.org/2000/svg">
<path d="M103.002 29.7389C103.002 29.7389 96.4509 82.2437 85.6844 94.0578C72.7591 108.231 63.3795 106.158 58.1607 113.466C58.1497 113.466 58.1497 113.477 58.1497 113.477C52.9309 106.158 43.5513 108.242 30.6151 94.0578C19.8485 82.2437 13.3086 29.7389 13.3086 29.7389C41.6798 15.9514 58.1497 0.5 58.1497 0.5C58.1497 0.5 58.1497 0.500002 58.1607 0.510981C58.6672 0.985103 75.0713 16.172 103.002 29.7389Z" fill="#603CD0" fill-opacity="0.5"/>
<path opacity="0.1" d="M58.1607 0.511979V113.467C58.1497 113.467 58.1497 113.478 58.1497 113.478C52.9309 106.159 43.5513 108.243 30.6151 94.0588C19.8485 82.2447 13.3086 29.7399 13.3086 29.7399C41.6798 15.9514 58.1497 0.5 58.1497 0.5C58.1497 0.5 58.1497 0.500001 58.1607 0.511979Z" fill="black"/>
<path d="M20.2656 33.9691C20.2656 33.9691 25.7985 78.322 34.8929 88.3065C45.821 100.296 53.7489 98.5356 58.159 104.711C62.5682 98.5356 70.497 100.297 81.4251 88.3065C90.5196 78.322 96.0415 33.9691 96.0415 33.9691C72.0764 22.3187 58.159 9.26685 58.159 9.26685C58.159 9.26685 44.2307 22.3187 20.2656 33.9691Z" fill="#FFC727"/>
<path opacity="0.2" d="M96.0308 33.9711C96.0308 33.9711 90.499 78.319 81.4016 88.3085C70.4834 100.289 62.5636 98.5395 58.1484 104.697V9.27979C58.5742 9.68004 72.4367 22.5003 96.0308 33.9711Z" fill="white"/>
<path d="M58.1547 74.5758C67.8576 74.5758 75.7234 66.7016 75.7234 56.9883C75.7234 47.275 67.8576 39.4009 58.1547 39.4009C48.4517 39.4009 40.5859 47.275 40.5859 56.9883C40.5859 66.7016 48.4517 74.5758 58.1547 74.5758Z" fill="#603CD0"/>
<path d="M56.1523 68.4152L48.3281 60.2692L51.2316 57.4754L55.545 61.9661L64.8429 47.6855L68.2171 49.8875L56.1523 68.4152Z" fill="white"/>
<path d="M96.0285 105.76L93.5437 106.219L92.9884 108.841L92.434 106.219L89.9492 105.758L92.423 105.153L92.9884 102.677L93.5547 105.153L96.0285 105.76Z" fill="#FFC727"/>
<path d="M22.4347 85.823L19.951 86.2822L19.3956 88.9043L18.8402 86.2822L16.3555 85.821L18.8292 85.2161L19.3956 82.7397L19.9609 85.2161L22.4347 85.823Z" fill="#FFC727"/>
<path d="M33.7756 16.7058L31.2908 17.166L30.7355 19.7881L30.1801 17.166L27.6953 16.7048L30.1691 16.0999L30.7355 13.6235L31.3018 16.0999L33.7756 16.7058Z" fill="#FFC727"/>
<path d="M91.5846 93.967L90.1967 94.2245L89.8855 95.6898L89.5754 94.2245L88.1875 93.967L89.5695 93.6286L89.8855 92.2441L90.2026 93.6286L91.5846 93.967Z" fill="#FFC727"/>
<path d="M101.187 64.7951L99.7982 65.0526L99.4881 66.5179L99.178 65.0526L97.7891 64.7951L99.172 64.4567L99.4881 63.0723L99.8042 64.4567L101.187 64.7951Z" fill="#FFC727"/>
<path d="M89.3971 13.6237L88.0091 13.8812L87.699 15.3465L87.3879 13.8812L86 13.6227L87.382 13.2843L87.699 11.9009L88.0151 13.2843L89.3971 13.6237Z" fill="#FFC727"/>
<path d="M53.9294 119.778L52.5404 120.035L52.2303 121.5L51.9202 120.035L50.5312 119.777L51.9142 119.439L52.2303 118.054L52.5464 119.439L53.9294 119.778Z" fill="#FFC727"/>
<path d="M14.7145 89.2345L13.3265 89.4921L13.0155 90.9574L12.7054 89.4921L11.3164 89.2345L12.6994 88.8962L13.0155 87.5117L13.3325 88.8962L14.7145 89.2345Z" fill="#FFC727"/>
<path d="M16.8737 48.612L15.4857 48.8685L15.1746 50.3338L14.8645 48.8685L13.4766 48.611L14.8585 48.2726L15.1746 46.8882L15.4917 48.2726L16.8737 48.612Z" fill="#FFC727"/>
<path d="M75.1271 100.543C74.6087 100.543 74.6087 101.348 75.1271 101.348C75.6456 101.348 75.6466 100.543 75.1271 100.543Z" fill="#FFC727"/>
<path d="M11.1154 27.502C10.5969 27.502 10.5969 28.3075 11.1154 28.3075C11.6329 28.3085 11.6339 27.502 11.1154 27.502Z" fill="#FFC727"/>
<path d="M87.7014 102.813C87.1829 102.813 87.1829 103.619 87.7014 103.619C88.2189 103.619 88.2199 102.813 87.7014 102.813Z" fill="#FFC727"/>
<path d="M46.9276 39.874C46.4101 39.874 46.4091 40.6795 46.9276 40.6795C47.445 40.6805 47.446 39.874 46.9276 39.874Z" fill="#FFC727"/>
<path d="M9.6623 56.105C9.14382 56.105 9.14382 56.9105 9.6623 56.9105C10.1798 56.9105 10.1808 56.105 9.6623 56.105Z" fill="#FFC727"/>
<path d="M0.274823 51.7109C-0.091109 51.7109 -0.092106 52.2809 0.274823 52.2809C0.640755 52.2809 0.641752 51.7109 0.274823 51.7109Z" fill="#FFC727"/>
<path d="M77.0873 8.36328C76.7214 8.36328 76.7204 8.93323 77.0873 8.93323C77.4533 8.93323 77.4543 8.36328 77.0873 8.36328Z" fill="#FFC727"/>
<path d="M37.3412 105.955C36.9753 105.955 36.9743 106.525 37.3412 106.525C37.7072 106.525 37.7082 105.955 37.3412 105.955Z" fill="#FFC727"/>
<path d="M28.4409 100.714C27.4478 100.714 27.4458 102.259 28.4409 102.259C29.434 102.259 29.436 100.714 28.4409 100.714Z" fill="#FFC727"/>
</svg>
