<svg width="24" height="24" viewBox="0 0 24 24" fill="none" xmlns="http://www.w3.org/2000/svg">
<path d="M11.41 13.0001L13.71 15.2901C13.8037 15.3831 13.8781 15.4937 13.9289 15.6155C13.9797 15.7374 14.0058 15.8681 14.0058 16.0001C14.0058 16.1321 13.9797 16.2628 13.9289 16.3847C13.8781 16.5065 13.8037 16.6171 13.71 16.7101C13.617 16.8038 13.5064 16.8782 13.3846 16.929C13.2627 16.9798 13.132 17.0059 13 17.0059C12.868 17.0059 12.7373 16.9798 12.6154 16.929C12.4936 16.8782 12.383 16.8038 12.29 16.7101L8.29 12.7101C8.19896 12.615 8.12759 12.5029 8.08 12.3801C7.97998 12.1366 7.97998 11.8636 8.08 11.6201C8.12759 11.4973 8.19896 11.3852 8.29 11.2901L12.29 7.2901C12.3832 7.19686 12.4939 7.1229 12.6158 7.07244C12.7376 7.02198 12.8681 6.99601 13 6.99601C13.1319 6.99601 13.2624 7.02198 13.3842 7.07244C13.5061 7.1229 13.6168 7.19686 13.71 7.2901C13.8032 7.38334 13.8772 7.49403 13.9277 7.61585C13.9781 7.73767 14.0041 7.86824 14.0041 8.0001C14.0041 8.13196 13.9781 8.26253 13.9277 8.38435C13.8772 8.50617 13.8032 8.61686 13.71 8.7101L11.41 11.0001H21C21.2652 11.0001 21.5196 11.1055 21.7071 11.293C21.8946 11.4805 22 11.7349 22 12.0001C22 12.2653 21.8946 12.5197 21.7071 12.7072C21.5196 12.8947 21.2652 13.0001 21 13.0001H11.41ZM12 2.0001C13.8689 1.99176 15.7028 2.50731 17.2935 3.48829C18.8843 4.46927 20.1683 5.87641 21 7.5501C21.1193 7.78879 21.139 8.06512 21.0546 8.3183C20.9702 8.57147 20.7887 8.78075 20.55 8.9001C20.3113 9.01945 20.035 9.03909 19.7818 8.95469C19.5286 8.8703 19.3193 8.68879 19.2 8.4501C18.5678 7.17342 17.6062 6.08872 16.4145 5.30809C15.2227 4.52746 13.8442 4.07922 12.4212 4.00969C10.9983 3.94017 9.58262 4.25188 8.32048 4.91261C7.05834 5.57334 5.99553 6.55913 5.24189 7.7681C4.48825 8.97706 4.07112 10.3653 4.0336 11.7895C3.99608 13.2136 4.33954 14.6219 5.02848 15.8689C5.71743 17.1159 6.72686 18.1563 7.95246 18.8825C9.17807 19.6088 10.5754 19.9946 12 20.0001C13.4911 20.0066 14.9538 19.5925 16.2203 18.8053C17.4868 18.0182 18.5056 16.89 19.16 15.5501C19.2793 15.3114 19.4886 15.1299 19.7418 15.0455C19.995 14.9611 20.2713 14.9808 20.51 15.1001C20.7487 15.2194 20.9302 15.4287 21.0146 15.6819C21.099 15.9351 21.0793 16.2114 20.96 16.4501C20.1672 18.0456 18.9625 19.4003 17.4705 20.3741C15.9786 21.348 14.2536 21.9055 12.4739 21.9891C10.6942 22.0727 8.92451 21.6793 7.34785 20.8496C5.77119 20.0199 4.44482 18.7841 3.50593 17.2699C2.56704 15.7558 2.04973 14.0182 2.0075 12.2371C1.96528 10.456 2.39967 8.69589 3.26576 7.13893C4.13184 5.58197 5.39816 4.28467 6.93373 3.38121C8.4693 2.47774 10.2184 2.00094 12 2.0001Z" fill="#FD5050"/>
</svg>
