<svg width="18" height="16" viewBox="0 0 18 16" fill="none" xmlns="http://www.w3.org/2000/svg">
<path d="M9.18555 0.25C9.89799 0.250054 12.2376 0.440396 13.3398 2.7832L13.3408 2.78418C13.5138 3.14869 13.5878 3.67372 13.6025 4.27637C13.6171 4.87011 13.5736 5.50687 13.5332 6.08594L13.5264 6.13477L13.5244 6.1582C13.5209 6.23305 13.5167 6.30696 13.5117 6.38281C13.5068 6.45785 13.5018 6.53537 13.498 6.61426L13.4912 6.74609L13.5967 6.8252C13.6578 6.87123 13.8539 7.01917 14.2256 7.02344H14.2344C14.536 7.01545 14.8493 6.92241 15.1816 6.78027C15.2401 6.75626 15.3036 6.74378 15.3682 6.74316C15.4448 6.74328 15.5296 6.76077 15.6123 6.78711L15.6387 6.79492C15.8524 6.87785 15.8926 6.98655 15.8926 7.00977H15.8916L15.8926 7.02148C15.8928 7.02675 15.8942 7.07129 15.8145 7.15137C15.728 7.238 15.5542 7.35476 15.2285 7.47949C15.1552 7.50559 15.088 7.53027 15.0088 7.54785L15.001 7.5498L14.9932 7.55273C14.8034 7.60784 14.5457 7.68454 14.3105 7.80176C14.0804 7.91651 13.8326 8.08837 13.7061 8.35645C13.5548 8.66658 13.6349 9.0212 13.8018 9.34473L13.8037 9.34277C13.8088 9.35309 13.8137 9.3633 13.8203 9.37305C13.9006 9.54508 14.2117 10.1555 14.7861 10.7949C15.4205 11.501 16.3892 12.2574 17.7305 12.4824C17.7114 12.5121 17.6745 12.5571 17.5967 12.6094C17.502 12.6729 17.3664 12.739 17.1846 12.8047C16.8204 12.9362 16.3025 13.0545 15.6357 13.1523H15.6348C15.4362 13.1825 15.3416 13.348 15.2959 13.4521C15.2455 13.5672 15.2073 13.7168 15.1719 13.8721V13.875C15.145 13.9983 15.1136 14.1208 15.0781 14.2422C15.0753 14.2509 15.0712 14.2562 15.0693 14.2598C15.0647 14.2606 15.0572 14.2627 15.0459 14.2627H15.0312C14.9747 14.2617 14.9184 14.2581 14.8623 14.252L14.6953 14.2266C14.349 14.1568 13.9956 14.1213 13.6416 14.1221C13.5142 14.1224 13.3867 14.1276 13.2598 14.1377L12.8818 14.1826C12.4597 14.2478 12.086 14.4492 11.7393 14.6709L11.4004 14.8955C10.7515 15.3151 10.091 15.75 9.1123 15.75H8.88379C8.14264 15.75 7.58721 15.5045 7.08594 15.2031L6.59766 14.8906C6.21077 14.631 5.80196 14.3494 5.32715 14.2227L5.12012 14.1787C4.93077 14.148 4.73964 14.129 4.54785 14.1221L4.35742 14.1191C3.912 14.1192 3.5579 14.1817 3.31348 14.2285C3.1474 14.2563 3.04774 14.2754 2.97363 14.2754C2.95817 14.2754 2.94618 14.274 2.9375 14.2725C2.93344 14.2717 2.93048 14.2701 2.92871 14.2695C2.92747 14.2669 2.92654 14.2625 2.9248 14.2568L2.92285 14.252L2.87109 14.0703C2.8562 14.0099 2.84334 13.9487 2.8291 13.8848L2.82812 13.8838L2.77246 13.6582C2.75231 13.587 2.73042 13.5205 2.70508 13.4629C2.65873 13.3576 2.56337 13.1941 2.36621 13.1631H2.36328C1.70132 13.0675 1.18425 12.9488 0.819336 12.8164C0.636833 12.7502 0.499952 12.6832 0.404297 12.6191C0.328859 12.5686 0.291375 12.5252 0.271484 12.4961C1.37746 12.3116 2.36616 11.7482 3.19434 10.8428C3.72096 10.2671 4.02982 9.70445 4.14844 9.46094L4.19922 9.3623C4.34906 9.07007 4.41515 8.7742 4.33887 8.5L4.29785 8.38379C4.17624 8.10775 3.92699 7.93388 3.69531 7.81934C3.46002 7.70305 3.19881 7.62742 3.00781 7.57129L2.99902 7.56934L2.76562 7.49707C2.60686 7.43712 2.41307 7.34938 2.27148 7.24316C2.15461 7.15544 2.11979 7.09175 2.1123 7.05176L2.11133 7.01953C2.11803 6.98538 2.15639 6.92177 2.2627 6.85938C2.36441 6.79975 2.4911 6.76465 2.59668 6.76465H2.59961C2.65507 6.7639 2.68584 6.77362 2.70117 6.78125V6.78223L2.71289 6.78711C3.07383 6.94279 3.41766 7.03124 3.72754 7.03125C4.12095 7.03125 4.33891 6.88886 4.4248 6.80762L4.50879 6.72852L4.50293 6.61328C4.49444 6.44263 4.48347 6.27198 4.4707 6.10156C4.43014 5.51861 4.38815 4.87816 4.40332 4.28223C4.41866 3.68035 4.49278 3.15606 4.66406 2.79102C5.6286 0.744489 7.54081 0.338866 8.48145 0.269531L8.82031 0.256836H8.8252L9.14551 0.25H9.18555Z" fill="#FBFF00" stroke="white" stroke-width="0.5"/>
</svg>
