<svg width="16" height="16" viewBox="0 0 16 16" fill="none" xmlns="http://www.w3.org/2000/svg">
<path d="M11.17 1.33337H4.83C4.05733 1.33337 3.67133 1.33337 3.35933 1.44204C3.06529 1.54652 2.79923 1.71728 2.58178 1.9411C2.36432 2.16491 2.2013 2.43577 2.10533 2.73271C2 3.05404 2 3.45137 2 4.24671V13.5827C2 14.1547 2.65667 14.4587 3.072 14.0787C3.18852 13.971 3.34135 13.9112 3.5 13.9112C3.65865 13.9112 3.81148 13.971 3.928 14.0787L4.25 14.3734C4.45414 14.5621 4.72196 14.667 5 14.667C5.27804 14.667 5.54586 14.5621 5.75 14.3734C5.95414 14.1846 6.22196 14.0797 6.5 14.0797C6.77804 14.0797 7.04586 14.1846 7.25 14.3734C7.45414 14.5621 7.72196 14.667 8 14.667C8.27804 14.667 8.54586 14.5621 8.75 14.3734C8.95414 14.1846 9.22196 14.0797 9.5 14.0797C9.77804 14.0797 10.0459 14.1846 10.25 14.3734C10.4541 14.5621 10.722 14.667 11 14.667C11.278 14.667 11.5459 14.5621 11.75 14.3734L12.072 14.0787C12.1885 13.971 12.3413 13.9112 12.5 13.9112C12.6587 13.9112 12.8115 13.971 12.928 14.0787C13.3433 14.4587 14 14.1547 14 13.5827V4.24671C14 3.45137 14 3.05337 13.8947 2.73337C13.7988 2.43632 13.6358 2.16532 13.4183 1.94139C13.2009 1.71745 12.9348 1.54659 12.6407 1.44204C12.3287 1.33337 11.9427 1.33337 11.17 1.33337Z" stroke="white"/>
<path d="M7.0013 7.33333H11.3346M4.66797 7.33333H5.0013M4.66797 5H5.0013M4.66797 9.66667H5.0013M7.0013 5H11.3346M7.0013 9.66667H11.3346" stroke="white" stroke-linecap="round"/>
</svg>
