<svg width="110" height="100" viewBox="0 0 110 100" fill="none" xmlns="http://www.w3.org/2000/svg">
<ellipse cx="34.5882" cy="34.6228" rx="34.5882" ry="34.6228" transform="matrix(0.818586 -0.574384 0.572143 0.820154 0.34375 39.7332)" fill="#0D0D0D"/>
<ellipse cx="72.2424" cy="59.3265" rx="37.4143" ry="37.5234" fill="#0D0D0D"/>
<path d="M55.9035 53.3726C41.2299 55.2564 27.8703 52.6175 25.1914 34.3462" stroke="#A56F62" stroke-width="7.22045" stroke-miterlimit="10"/>
<path d="M55.1589 50.1963C52.9127 50.5 49.1045 50.7465 44.7431 49.9037L44.1914 57.7338C44.1914 57.7338 49.373 58.815 55.9399 58.3829C60.1978 58.1024 59.5046 54.5819 58.4908 52.1404C57.939 50.8131 56.5795 50.0043 55.1589 50.1963Z" fill="#DCD0FF"/>
<path d="M25.4987 39.883C28.8694 41.4885 30.2766 36.2319 30.2766 36.2319L33.3137 33.9581C33.3137 33.9581 31.1767 31.3336 28.9675 33.9075C28.9675 33.9075 29.3533 29.1287 27.9515 27.597C27.2931 26.8777 23.5241 26.5963 21.6584 27.3961C21.2628 27.5657 21.0861 28.0251 21.2654 28.4174C21.6963 29.3595 22.368 31.3184 21.7226 33.3748C20.823 36.2408 21.1954 40.5115 25.4987 39.883Z" fill="#A56F62"/>
<path d="M28.9658 33.9075C28.9658 33.9075 26.2182 33.5049 24.9648 36.4936C24.9648 36.4936 26.526 34.0578 28.9461 34.1236L28.9658 33.9075Z" fill="#7C4E48"/>
<path d="M23.4336 33.8383C23.4336 33.8383 25.5152 32.9799 27.7467 33.2877C27.7467 33.2877 25.9314 31.6674 23.4336 33.8383Z" fill="#7C4E48"/>
<path d="M24.2302 33.536L24.3921 33.4492C24.3921 33.4492 24.1776 29.6272 22.0812 27.2438C22.0201 27.2626 21.9608 27.2822 21.9023 27.3028C22.5982 28.2847 24.1066 30.7196 24.2302 33.536Z" fill="#7C4E48"/>
<path d="M26.7133 32.9929L26.9997 33.0689C26.9997 33.0689 27.9297 29.3547 26.2321 27.0161C25.5229 26.9176 24.6888 26.8854 23.8828 26.9396C24.4015 27.713 25.7878 30.104 25.3989 33.0801L25.6264 33.0859C25.6264 33.0859 26.5746 29.3525 24.3155 26.9874L25.9315 26.9847C25.9315 26.9847 27.6616 29.5484 26.7133 32.9929Z" fill="#7C4E48"/>
<path d="M58.3599 79.1128H64.6021C69.2065 79.1128 72.9737 82.891 72.9737 87.5088C72.9737 92.1266 69.2065 95.9048 64.6021 95.9048H58.3599C53.7555 95.9048 49.9883 92.1266 49.9883 87.5088C49.9878 82.891 53.755 79.1128 58.3599 79.1128Z" fill="#181818"/>
<path d="M61.1574 88.0715H53.1016V97.3242H61.1574V88.0715Z" fill="#181818"/>
<path d="M70.4347 88.0715H62.3789V97.3242H70.4347V88.0715Z" fill="#181818"/>
<path d="M48.9766 85.3189C51.3793 86.4185 55.7991 88.0656 61.5507 88.0902C67.4441 88.1157 71.9687 86.4256 74.3871 85.3189C73.8987 81.3117 73.0731 57.2528 73.0731 57.2528C73.0731 53.0706 71.0066 49.6803 66.8366 49.6803H58.7108C53.3348 49.6803 50.5908 51.6392 50.5908 57.0309L48.9766 85.3189Z" fill="#603CD0"/>
<path d="M67.3949 50.2509C67.5354 52.3749 64.7789 54.2872 61.2392 54.5225C57.699 54.7578 54.716 53.2266 54.5755 51.1022C54.435 48.9783 57.191 47.0655 60.7312 46.8306C64.2713 46.5953 67.2548 48.1266 67.3949 50.2509Z" fill="#A56F62"/>
<path d="M72.3607 34.4732H48.0653C47.0024 34.4732 46.1406 33.6089 46.1406 32.5429C46.1406 31.4769 47.0024 30.6127 48.0653 30.6127H72.3607C73.4236 30.6127 74.2853 31.4769 74.2853 32.5429C74.2853 33.6089 73.4236 34.4732 72.3607 34.4732Z" fill="#A56F62"/>
<path d="M48.0626 33.55C47.5091 33.55 47.0586 33.0987 47.0586 32.5431C47.0586 31.9879 47.5091 31.5361 48.0626 31.5361H72.358C72.9116 31.5361 73.3621 31.9875 73.3621 32.5431C73.3621 33.0982 72.9116 33.55 72.358 33.55H48.0626Z" fill="#7C4E48"/>
<path d="M60.4412 30.3923C57.3015 30.531 54.8867 33.2521 54.8867 36.404V50.882C54.893 50.8927 54.9001 50.9048 54.9063 50.9151L60.4438 53.9838L66.5023 50.9151C66.5086 50.9048 66.5157 50.8936 66.5219 50.8829V36.2206C66.5219 32.9108 63.7739 30.2447 60.4412 30.3923Z" fill="#A56F62"/>
<path d="M60.2119 49.6488C54.2788 49.6488 49.4688 44.8248 49.4688 38.8744V25.8301C49.4688 20.1253 54.0803 15.5007 59.7686 15.5007H60.6557C66.344 15.5007 70.9555 20.1253 70.9555 25.8301V38.8744C70.9551 44.8252 66.1455 49.6488 60.2119 49.6488Z" fill="#252538"/>
<path d="M65.2342 35.7584H55.1841C53.0806 35.7584 51.375 34.0483 51.375 31.9382V22.2507H69.0428V31.9382C69.0433 34.0483 67.3381 35.7584 65.2342 35.7584Z" fill="#A56F62"/>
<path d="M51.3828 24.2816L69.0506 22.902V22.2516H51.3828V24.2816Z" fill="#7C4E48"/>
<path d="M58.1897 37.8592C59.3102 37.9693 60.8945 38.0489 62.4543 37.87C63.4801 37.7523 63.9864 39.1525 63.229 40.0467C62.4235 40.9982 61.2366 41.7779 59.5738 41.4996C58.2111 41.2715 57.4516 40.6989 57.0363 40.0628C56.4489 39.1628 57.1906 37.7613 58.1897 37.8592Z" fill="#252538"/>
<path d="M59.5739 41.4991C61.2367 41.7774 62.4236 40.9977 63.2292 40.0462C63.3429 39.912 63.4245 39.7662 63.4838 39.6163C62.9736 39.2057 62.2314 38.9001 61.1417 38.8581C59.4584 38.7932 58.3884 39.7183 57.7184 40.7655C57.7171 40.7677 57.7162 40.77 57.7148 40.7718C58.1546 41.0979 58.7532 41.3618 59.5739 41.4991Z" fill="#FF9292"/>
<path d="M59.1434 39.9666C59.2321 40.2834 59.8583 40.3979 60.5421 40.223C61.2259 40.0481 61.7076 39.6495 61.6188 39.3328C61.5301 39.0161 60.9038 38.9011 60.2201 39.0764C59.5363 39.2514 59.0546 39.6499 59.1434 39.9666Z" fill="#FFABAB"/>
<path d="M58.192 37.8592C59.3125 37.9693 60.8968 38.0489 62.4566 37.87C63.0868 37.7975 63.519 38.2985 63.585 38.9024C62.5596 39.4316 61.1323 39.7049 59.5774 39.5895C58.5805 39.5153 57.659 39.2907 56.8789 38.961C57.0355 38.3321 57.5622 37.7975 58.192 37.8592Z" fill="white"/>
<path d="M54.5621 32.4842C55.2565 32.4842 55.8194 31.9196 55.8194 31.2232C55.8194 30.5267 55.2565 29.9622 54.5621 29.9622C53.8676 29.9622 53.3047 30.5267 53.3047 31.2232C53.3047 31.9196 53.8676 32.4842 54.5621 32.4842Z" fill="#252538"/>
<path d="M64.0894 29.9622C63.3949 29.9622 62.832 30.5267 62.832 31.2232C62.832 31.9197 63.3949 32.4842 64.0894 32.4842C64.7839 32.4842 65.3468 31.9197 65.3468 31.2232C65.3463 30.5271 64.7834 29.9622 64.0894 29.9622Z" fill="#252538"/>
<path d="M66.4291 27.6446L64.2498 26.9562C63.7721 26.8054 63.2632 27.0711 63.1124 27.5502C62.9621 28.0293 63.227 28.5397 63.7047 28.6909L65.8841 29.3794C66.3618 29.5301 66.8707 29.2644 67.0214 28.7853C67.1722 28.3062 66.9068 27.7954 66.4291 27.6446Z" fill="#252538"/>
<path d="M54.8764 26.9563L52.6971 27.6448C52.2194 27.7955 51.954 28.3064 52.1048 28.7855C52.2551 29.2646 52.7644 29.5303 53.2421 29.3795L55.4215 28.6911C55.8992 28.5403 56.1641 28.0295 56.0138 27.5504C55.863 27.0713 55.3541 26.8051 54.8764 26.9563Z" fill="#252538"/>
<path d="M62.6796 46.2207C62.6796 46.792 61.5761 47.2554 60.2148 47.2554C58.8535 47.2554 57.75 46.792 57.75 46.2207C57.75 45.649 58.8535 45.186 60.2148 45.186C61.5761 45.1856 62.6796 45.649 62.6796 46.2207Z" fill="#464668"/>
<path d="M61.5518 36.6389H58.8649C58.4216 36.6389 58.0625 36.2788 58.0625 35.8342C58.0625 35.39 58.4216 35.0294 58.8649 35.0294H61.5518C61.9947 35.0294 62.3542 35.3895 62.3542 35.8342C62.3542 36.2784 61.9952 36.6389 61.5518 36.6389Z" fill="#7C4E48"/>
<path d="M60.2166 36.9191C59.5578 36.9191 59.0234 36.3832 59.0234 35.7225V31.1588C59.0234 30.4981 59.5578 29.9622 60.2166 29.9622C60.8754 29.9622 61.4097 30.4981 61.4097 31.1588V35.7225C61.4097 36.3836 60.8754 36.9191 60.2166 36.9191Z" fill="#8C5C53"/>
<path d="M71.5781 55.9081C85.6182 56.3589 97.6237 57.946 101.614 85.0172" stroke="#A56F62" stroke-width="7.22045" stroke-miterlimit="10"/>
<path d="M71.4751 58.5122C73.7221 58.8093 77.4724 59.5117 81.4802 61.4305L83.9836 53.9935C83.9836 53.9935 79.3348 50.9657 72.7785 50.3926C69.4743 50.1037 67.7702 52.2499 68.1369 54.8691C68.3369 56.2934 69.083 58.196 71.4751 58.5122Z" fill="#DCD0FF"/>
<path d="M101.48 83.3462C98.4855 82.2134 97.6535 86.8065 97.6535 86.8065L95.2182 88.9661C95.2182 88.9661 97.2305 91.0578 98.9372 88.7006C98.9372 88.7006 99.3295 91.5755 98.2947 93.4811C97.0313 95.8076 103.232 95.2056 105.155 93.3314C106.2 92.3136 105.068 90.4602 105.474 88.6561C106.04 86.1432 105.114 82.5036 101.48 83.3462Z" fill="#A56F62"/>
<path d="M102.26 89.1314L102.494 89.1005C102.494 89.1005 103.278 92.1325 102.537 94.6453C102.4 94.6833 102.261 94.7188 102.121 94.7507C102.511 93.7705 102.942 91.901 102.26 89.1314Z" fill="#7C4E48"/>
<path d="M104.005 89.0276C104.005 89.0276 104.741 91.7542 104.479 93.8444C104.356 93.919 104.225 93.9902 104.09 94.0583C104.22 93.17 104.346 91.3532 103.754 89.0549L104.005 89.0276Z" fill="#7C4E48"/>
<path d="M100.647 89.2145C100.647 89.2145 101.541 92.2814 100.102 94.9935C99.902 94.9933 99.7105 94.9834 99.5312 94.9645C100.124 93.9216 100.888 91.9734 100.488 89.2453L100.647 89.2145Z" fill="#7C4E48"/>
<path d="M31.5816 25.3775C30.7618 20.8474 26.9174 17.6346 22.516 17.4468L22.4732 17.2106L20.3764 17.5921C15.1386 18.5454 11.6631 23.577 12.6136 28.8301C13.5641 34.0831 18.5811 37.5687 23.8188 36.6155L25.9156 36.2339L25.8728 35.9977C29.9282 34.2705 32.4014 29.9077 31.5816 25.3775Z" fill="#AD4825"/>
<path d="M33.6754 24.9954C34.6258 30.2484 31.1504 35.2801 25.9126 36.2333C20.6748 37.1866 15.6578 33.701 14.7073 28.4479C13.7568 23.1949 17.2323 18.1633 22.4701 17.21C27.7079 16.2563 32.7249 19.7419 33.6754 24.9954Z" fill="#FFA840"/>
<path d="M31.7626 20.7358L21.2656 35.9322C21.8223 36.1107 22.3981 36.2404 22.9873 36.3147L32.7247 22.2183C32.4481 21.6909 32.1247 21.1961 31.7626 20.7358Z" fill="#FFC943"/>
<path d="M30.9252 19.8075C29.2441 18.1636 26.9872 17.154 24.5626 17.0623L15.3047 30.4644C16.2422 32.7091 17.9778 34.4734 20.1031 35.4741L30.9252 19.8075Z" fill="#FFC943"/>
<path d="M32.0435 26.8798C32.1281 22.5318 28.6823 18.9382 24.3471 18.8534C20.012 18.7686 16.4291 22.2247 16.3445 26.5727C16.26 30.9208 19.7058 34.5143 24.0409 34.5991C28.3761 34.6839 31.959 31.2279 32.0435 26.8798Z" fill="#FFC943"/>
<path d="M24.7 34.1904C28.8104 33.9136 31.9188 30.3471 31.6428 26.2244C31.3668 22.1017 27.8108 18.9841 23.7004 19.2609C19.59 19.5377 16.4816 23.1042 16.7576 27.2268C17.0336 31.3495 20.5895 34.4672 24.7 34.1904Z" fill="#FF833E"/>
<path d="M29.8044 21.8043L21.5742 33.7186C21.7531 33.7861 21.9342 33.847 22.1184 33.9007L30.1657 22.2512C30.0506 22.0973 29.9302 21.9484 29.8044 21.8043Z" fill="#FFA840"/>
<path d="M26.3494 19.5658L18.2695 31.2627C18.9462 32.1488 19.8106 32.8664 20.7923 33.3723L29.2049 21.1936C28.3882 20.4488 27.4145 19.8897 26.3494 19.5658Z" fill="#FFA840"/>
<path d="M94.7045 40.0244C91.9808 40.9086 91.3616 41.6935 90.6765 45.1782C90.6638 45.2431 90.5772 45.2431 90.5645 45.1782C89.8795 41.6935 89.2602 40.9081 86.5365 40.0244C86.4826 40.007 86.4826 39.9243 86.5365 39.907C89.2602 39.0232 89.8795 38.2378 90.5645 34.7531C90.5772 34.6882 90.6638 34.6882 90.6765 34.7531C91.3612 38.2378 91.9808 39.0232 94.7045 39.907C94.7584 39.9243 94.7584 40.0066 94.7045 40.0244Z" fill="white"/>
<path d="M27.8842 57.2864C26.1547 57.8479 25.7614 58.3464 25.3264 60.5591C25.3184 60.6003 25.2634 60.6003 25.2553 60.5591C24.8203 58.3464 24.4271 57.8476 22.6975 57.2864C22.6633 57.2754 22.6633 57.2229 22.6975 57.2119C24.4271 56.6507 24.8203 56.152 25.2553 53.9392C25.2634 53.898 25.3184 53.898 25.3264 53.9392C25.7612 56.152 26.1547 56.6507 27.8842 57.2119C27.9184 57.2229 27.9184 57.2752 27.8842 57.2864Z" fill="white"/>
</svg>
