<svg width="98" height="100" viewBox="0 0 98 100" fill="none" xmlns="http://www.w3.org/2000/svg">
<path d="M79.9754 19.7281C68.5403 11.214 54.5631 5.43221 40.322 6.10114C26.0809 6.76984 11.7927 14.7387 5.89317 27.7183C1.85379 36.6052 1.97341 46.8933 3.97316 56.4481C5.83716 65.3531 9.39044 74.1204 15.613 80.7575C21.2843 86.8065 28.9711 90.8091 37.0702 92.5851C45.1696 94.3612 53.6619 93.9767 61.733 92.0761C73.5243 89.2992 85.0011 82.803 90.9526 72.2514C95.6864 63.8596 96.4765 53.5638 94.139 44.2165C91.801 34.8697 87.4899 25.323 79.9754 19.7281Z" fill="#0D0D0D"/>
<path d="M32.3513 79.4136C26.7071 75.4316 22.8631 68.9923 22.0363 62.1342C21.4847 57.5592 22.3382 52.6242 25.3077 49.1004C27.5761 46.4088 30.9118 44.7486 34.3683 44.0834C41.2441 42.7608 48.3659 45.1879 54.3199 48.8723C60.2742 52.5566 65.3648 57.4553 70.8876 61.7594C73.5417 63.8275 76.5002 65.4535 79.704 66.4813C83.7849 67.7907 88.0689 65.0305 89.945 62.2377" stroke="white" stroke-width="1.5" stroke-miterlimit="10" stroke-linecap="round" stroke-linejoin="round" stroke-dasharray="7 8 7 8 7 8"/>
<path d="M87.75 62.5452C88.4825 62.3953 89.2153 62.2763 89.9478 62.2378C89.9758 62.9004 89.9722 63.5645 89.9372 64.2269" stroke="white" stroke-width="1.5" stroke-miterlimit="10" stroke-linecap="round" stroke-linejoin="round"/>
<mask id="mask0_2151_3887" style="mask-type:luminance" maskUnits="userSpaceOnUse" x="4" y="12" width="94" height="88">
<path d="M81.7449 25.9986C70.3098 17.4845 56.3326 11.7027 42.0915 12.3716C27.8504 13.0403 13.5623 21.0092 7.6627 33.9888C3.62332 42.8757 3.74294 53.1639 5.74269 62.7186C7.6067 71.6236 11.16 80.3909 17.3826 87.028C23.0539 93.077 30.7406 97.0796 38.8397 98.8556C46.9391 100.632 55.4314 100.247 63.5025 98.3466C75.2938 95.5697 86.7706 89.0735 92.7222 78.5219C97.456 70.1301 98.2461 59.8343 95.9085 50.487C93.5705 41.1402 89.2594 31.5935 81.7449 25.9986Z" fill="white"/>
</mask>
<g mask="url(#mask0_2151_3887)">
<path opacity="0.15" d="M84.1641 57.1371C83.6789 56.9883 83.1668 57.2253 82.7221 57.47C81.8879 57.9292 81.0857 58.4451 80.3129 59.0016C80.3257 58.983 80.3387 58.9644 80.3512 58.946C80.8801 58.1745 81.366 57.4039 81.5113 56.5394C81.6572 55.6749 81.3084 54.6598 80.4972 54.3265C79.9059 54.0832 79.2497 54.2528 78.6613 54.5436C78.7117 54.4705 78.7625 54.3975 78.8122 54.3247C79.3414 53.5532 79.827 52.7826 79.9724 51.9181C80.1182 51.0536 79.7694 50.0385 78.9585 49.7052C78.3631 49.4603 77.7023 49.6335 77.1109 49.9279C77.3138 49.6796 77.5148 49.4305 77.7148 49.1819C78.179 48.6048 78.5295 47.7246 78.6906 46.8337C78.8519 45.9423 78.5199 44.893 77.6975 44.5142C76.9646 44.1768 76.0988 44.4555 75.3871 44.8347C74.7664 45.1656 74.1949 45.5691 73.6649 46.0238C72.2068 38.387 70.563 30.7835 68.7637 23.3614C68.4808 22.1932 67.4082 21.3853 66.2075 21.4366C57.0298 21.83 48.7689 23.2839 40.8201 25.9847L40.8017 25.9612C40.4814 26.0566 40.1657 26.1668 39.8541 26.2961C37.9409 27.0891 36.854 29.1268 37.1949 31.1697C39.0986 42.5809 41.657 53.8903 44.9125 65.1104C43.105 67.0211 41.3022 68.9365 39.5101 70.8615C33.3329 77.4972 27.2481 84.219 21.2578 91.0238C21.2578 91.0238 26.432 96.3598 32.7969 99.167C39.1617 101.974 45.549 103.267 45.549 103.267C48.2485 97.9356 52.3558 93.4466 56.7332 89.3793C59.6308 86.687 62.6673 84.1441 65.6159 81.5085C68.6244 80.974 71.6268 80.3282 74.6232 79.5777C76.5228 79.1019 77.8996 77.4598 78.0275 75.5059C78.0419 75.2855 78.0553 75.0534 78.0685 74.8078C78.1346 74.524 78.153 74.2252 78.1144 73.9218C77.907 72.284 77.6855 70.6377 77.4565 68.9873C79.7296 66.1597 81.9078 63.2504 84.081 60.3459C84.4596 59.8399 84.8498 59.3076 84.9531 58.6837C85.0563 58.0598 84.768 57.3226 84.1641 57.1371Z" fill="#2E2854"/>
</g>
<mask id="mask1_2151_3887" style="mask-type:luminance" maskUnits="userSpaceOnUse" x="4" y="12" width="94" height="88">
<path d="M81.7449 25.9986C70.3098 17.4845 56.3326 11.7027 42.0915 12.3716C27.8504 13.0403 13.5623 21.0092 7.6627 33.9888C3.62332 42.8757 3.74294 53.1639 5.74269 62.7186C7.6067 71.6236 11.16 80.3909 17.3826 87.028C23.0539 93.077 30.7406 97.0796 38.8397 98.8556C46.9391 100.632 55.4314 100.247 63.5025 98.3466C75.2938 95.5697 86.7706 89.0735 92.7222 78.5219C97.456 70.1301 98.2461 59.8343 95.9085 50.487C93.5705 41.1402 89.2594 31.5935 81.7449 25.9986Z" fill="white"/>
</mask>
<g mask="url(#mask1_2151_3887)">
<path d="M71.8766 60.2872C73.7027 57.7226 76.045 55.5276 78.7228 53.8721C79.1545 53.6051 79.6538 53.3425 80.146 53.4666C80.7587 53.6214 81.0837 54.3432 81.0127 54.9712C80.9412 55.5993 80.5783 56.1509 80.226 56.6753C76.1187 62.7861 71.9931 68.9205 67.0577 74.3844C63.0521 78.8182 58.5477 82.7715 54.382 87.055C50.216 91.3385 46.3411 96.0297 43.9146 101.49C43.9146 101.49 37.4702 100.523 30.9714 98.0414C24.4726 95.56 19.0352 90.4926 19.0352 90.4926C24.6735 83.3934 30.4105 76.3726 36.244 69.4326L68.0135 48.0227L71.8766 60.2872Z" fill="#A56F62"/>
<path opacity="0.15" d="M58.8864 76.2988C58.0092 76.8703 57.1122 77.5531 56.2068 78.3206L49.1753 79.513V81.2138C49.1753 81.2138 49.8912 82.5248 52.0404 82.303C52.0545 82.3014 52.0715 82.2999 52.0861 82.2983C46.2794 88.5194 40.8252 96.7295 38.6953 100.416C41.7632 101.167 43.9143 101.49 43.9143 101.49C46.3406 96.0294 50.2158 91.3384 54.3817 87.0547C58.5475 82.7714 63.0521 78.8179 67.0574 74.3841C68.58 72.6986 70.0251 70.9487 71.4169 69.1559L71.8609 65.7205L71.8578 65.7158C71.7655 65.8343 68.4105 70.0948 58.8864 76.2988Z" fill="#2E2854"/>
<path opacity="0.15" d="M75.142 64.1116L74.181 60.0512C76.3886 58.7225 77.3606 55.9796 77.7363 54.5183C75.4693 56.0826 73.4765 58.0435 71.8786 60.2873L71.2164 58.1853L68.6367 60.6715L71.86 65.716C71.8614 65.7142 71.8645 65.7104 71.8645 65.7104L71.8632 65.7209L72.8524 67.2691C73.629 66.227 74.3911 65.1734 75.142 64.1116Z" fill="#2E2854"/>
</g>
<path d="M35.2608 24.5239C34.9458 24.6355 34.636 24.7616 34.3313 24.9063C32.4606 25.795 31.4783 27.8851 31.9221 29.9083C35.4996 46.2186 40.4258 62.2486 46.8377 78.028C47.6056 79.918 49.5563 81.0534 51.5789 80.7884C58.3638 79.899 65.0863 78.3934 71.7514 76.3608C73.6245 75.7896 74.9164 74.0801 74.9453 72.1221C74.9523 71.6535 74.952 71.1382 74.952 70.5358L35.2608 24.5239Z" fill="#2E2854"/>
<path d="M63.0524 20.5128C67.8814 36.7875 71.9965 53.9932 74.9492 70.5354C75.1678 71.7608 74.4559 72.964 73.2779 73.3654C65.9016 75.879 58.2839 77.7717 50.266 79.1707C49.0192 79.3882 47.7992 78.6514 47.4175 77.4444C42.2101 60.9639 37.5988 44.2985 33.4535 27.6217C33.1484 26.3938 33.8032 25.1355 34.9772 24.6637C42.8694 21.4927 51.139 19.5881 60.4021 18.72C61.5988 18.608 62.7106 19.3605 63.0524 20.5128Z" fill="#603CD0"/>
<path d="M60.9707 24.8744C65.201 37.7292 68.4839 50.8958 70.7834 64.2317C71.0396 65.717 70.1326 67.1552 68.6835 67.5694C63.2279 69.1284 57.788 70.5433 52.3181 71.7909C50.821 72.1323 49.3082 71.2716 48.8477 69.8067C44.7861 56.8872 41.0805 43.8991 37.8637 31.2099C37.4952 29.7563 38.2846 28.2614 39.6878 27.732C45.3591 25.593 51.2816 23.9915 57.6556 22.892C59.1007 22.6429 60.5122 23.4812 60.9707 24.8744Z" fill="#DCD0FF"/>
<path d="M60.9707 24.8744C65.201 37.7292 68.4839 50.8958 70.7834 64.2317C71.0396 65.717 70.1326 67.1552 68.6835 67.5694C63.2279 69.1284 57.788 70.5433 52.3181 71.7909C50.821 72.1323 49.3082 71.2716 48.8477 69.8067C44.7861 56.8872 41.0805 43.8991 37.8637 31.2099C37.4952 29.7563 38.2846 28.2614 39.6878 27.732C45.3591 25.593 51.2816 23.9915 57.6556 22.892C59.1007 22.6429 60.5122 23.4812 60.9707 24.8744Z" stroke="#2E2854" stroke-width="1.5" stroke-miterlimit="10" stroke-linecap="round" stroke-linejoin="round"/>
<path d="M62.7059 71.9319C62.0078 71.3493 60.8558 71.4234 60.2384 72.0912C59.6208 72.7588 59.6367 73.9132 60.272 74.5637C60.9077 75.2143 62.0614 75.2569 62.7433 74.6554C63.4249 74.0539 63.6821 72.7472 62.7059 71.9319Z" fill="#7B478F"/>
<path d="M62.7059 71.9319C62.0078 71.3493 60.8558 71.4234 60.2384 72.0912C59.6208 72.7588 59.6367 73.9132 60.272 74.5637C60.9077 75.2143 62.0614 75.2569 62.7433 74.6554C63.4249 74.0539 63.6821 72.7472 62.7059 71.9319Z" stroke="#2E2854" stroke-width="1.5" stroke-miterlimit="10" stroke-linecap="round" stroke-linejoin="round"/>
<path d="M44.8675 24.702C44.5158 24.702 44.1932 24.4685 44.0953 24.1128C43.9779 23.686 44.2286 23.2452 44.6553 23.1278L50.9465 21.3979C51.3743 21.2809 51.8141 21.5314 51.9315 21.9579C52.0488 22.3847 51.798 22.8256 51.3712 22.943L45.0801 24.6728C45.0093 24.6926 44.9378 24.702 44.8675 24.702Z" fill="#7B478F"/>
<path d="M44.8675 24.702C44.5158 24.702 44.1932 24.4685 44.0953 24.1128C43.9779 23.686 44.2286 23.2452 44.6553 23.1278L50.9465 21.3979C51.3743 21.2809 51.8141 21.5314 51.9315 21.9579C52.0488 22.3847 51.798 22.8256 51.3712 22.943L45.0801 24.6728C45.0093 24.6926 44.9378 24.702 44.8675 24.702Z" stroke="#2E2854" stroke-width="1.5" stroke-miterlimit="10" stroke-linecap="round" stroke-linejoin="round"/>
<path d="M56.5387 21.9977C56.0342 21.9977 55.8001 21.6319 55.7396 21.396C55.7081 21.2728 55.7054 21.1348 55.739 21.0004C55.8053 20.6798 56.0638 20.4215 56.4074 20.3738C57.0203 20.2878 57.2983 20.7047 57.3646 20.9641C57.396 21.0862 57.3989 21.2231 57.3664 21.3566C57.301 21.6789 57.0416 21.939 56.6966 21.9865C56.6413 21.9941 56.5889 21.9977 56.5387 21.9977Z" fill="#7B478F"/>
<path d="M56.5387 21.9977C56.0342 21.9977 55.8001 21.6319 55.7396 21.396C55.7081 21.2728 55.7054 21.1348 55.739 21.0004C55.8053 20.6798 56.0638 20.4215 56.4074 20.3738C57.0203 20.2878 57.2983 20.7047 57.3646 20.9641C57.396 21.0862 57.3989 21.2231 57.3664 21.3566C57.301 21.6789 57.0416 21.939 56.6966 21.9865C56.6413 21.9941 56.5889 21.9977 56.5387 21.9977Z" stroke="#2E2854" stroke-width="1.5" stroke-miterlimit="10" stroke-linecap="round" stroke-linejoin="round"/>
<path d="M42.971 40.4727L46.3305 53.6377C46.7142 55.1414 48.2422 56.0511 49.7469 55.6718L64.0758 52.0593C65.5811 51.6798 66.4953 50.1535 66.1192 48.6472L62.8858 35.6914C62.5128 34.197 61.0082 33.2794 59.5088 33.6324L45.054 37.0358C43.5202 37.3969 42.5814 38.946 42.971 40.4727Z" fill="#603CD0"/>
<path d="M48.2401 60.1715L49.1186 63.7054C49.2831 64.3667 49.9499 64.7718 50.6126 64.6127L67.3928 60.5826C68.0631 60.4217 68.4735 59.7454 68.3072 59.0765L67.4119 55.4774C67.247 54.8143 66.577 54.4095 65.9132 54.5716L49.15 58.6672C48.4822 58.8298 48.0743 59.5046 48.2401 60.1715Z" fill="#603CD0"/>
<path d="M52.7897 61.269C52.7897 61.5754 52.5148 61.8183 52.0003 61.939L50.9492 62.1856V60.4278L51.9467 60.1936C52.4615 60.0729 52.7017 60.2098 52.7017 60.4759C52.7017 60.6392 52.6136 60.7954 52.4429 60.9159C52.6618 60.9401 52.7897 61.0606 52.7897 61.269ZM51.5682 60.697V60.9582L51.8616 60.8895C52.003 60.8563 52.067 60.7958 52.067 60.7105C52.067 60.6251 52.003 60.5949 51.8616 60.6282L51.5682 60.697ZM52.1549 61.3503C52.1549 61.26 52.0856 61.2284 51.9467 61.2611L51.5679 61.35V61.6263L51.9467 61.5373C52.0856 61.5046 52.1549 61.4408 52.1549 61.3503ZM52.9962 60.9143V59.9474L53.6259 59.7996V60.749C53.6259 61.0176 53.7353 61.0926 53.9113 61.0512C54.0872 61.01 54.1967 60.8836 54.1967 60.615V59.6656L54.8154 59.5205V60.4873C54.8154 61.0147 54.4794 61.3975 53.9059 61.5322C53.3325 61.6666 52.9962 61.4417 52.9962 60.9143ZM56.1877 60.3182V60.9562L55.5583 61.1038V60.4584L54.854 59.5113L55.5182 59.3554L55.8997 59.8735L56.2836 59.1757L56.8918 59.033L56.1877 60.3182ZM58.3949 58.3233L58.9283 58.1981L58.0479 60.7705L57.5146 60.8957L58.3949 58.3233ZM59.631 60.007L59.8337 59.5276C60.0098 59.5843 60.2444 59.5919 60.45 59.5438C60.6288 59.5019 60.6928 59.4517 60.6928 59.3912C60.6928 59.1703 59.6606 59.5908 59.6606 58.9353C59.6606 58.6089 59.9511 58.2745 60.53 58.1385C60.7809 58.0796 61.0396 58.069 61.2343 58.1264L61.0448 58.6002C60.8606 58.5554 60.6872 58.5534 60.5246 58.5917C60.3405 58.6349 60.2818 58.699 60.2818 58.7592C60.2818 58.9703 61.314 58.552 61.314 59.1999C61.314 59.5214 61.0233 59.861 60.4444 59.9967C60.1326 60.0702 59.8176 60.0713 59.631 60.007ZM63.0541 58.8972V59.3442L61.5017 59.7086V57.9508L63.0194 57.5946V58.0415L62.1205 58.2525V58.4584L62.9101 58.2729V58.6999L62.1205 58.8851V59.1163L63.0541 58.8972ZM63.2979 57.5291L63.9273 57.3813V58.6797L64.7703 58.4819V58.9414L63.2979 59.287V57.5291ZM64.9446 57.1425L65.574 56.9946V58.2931L66.417 58.0952V58.5549L64.9446 58.9006V57.1425Z" fill="#33A1BD"/>
<path d="M52.8096 6.03784C49.7456 6.5271 47.0371 8.81301 46.0398 11.751C45.0422 14.6893 45.8001 18.1518 47.9331 20.405C50.0664 22.6584 53.4821 23.604 56.4704 22.7689C59.4587 21.9335 61.889 19.3539 62.545 16.3209L52.8096 6.03784Z" fill="#DCD0FF"/>
<path d="M61.5183 8.04654C59.0484 5.51108 54.9145 4.78189 51.7261 6.31957C48.5378 7.8568 46.5342 11.5458 46.9797 15.0573C47.4253 18.5688 50.2873 21.6401 53.7586 22.3321C57.2301 23.0241 61.0506 21.2855 62.8089 18.2131C64.5669 15.1406 64.2519 10.8526 61.5183 8.04654Z" fill="#603CD0"/>
<path d="M60.1157 8.84414C57.9522 7.01613 54.6325 6.69197 52.1697 8.0912C49.707 9.49044 48.2843 12.5282 48.8129 15.3112C49.342 18.094 51.7995 20.4054 54.6126 20.7363C57.4255 21.0672 60.3652 19.372 61.4633 16.761C62.4844 14.3324 62.5012 10.8597 60.1157 8.84414Z" stroke="#2E2854" stroke-width="1.5" stroke-miterlimit="10" stroke-linecap="round" stroke-linejoin="round"/>
<path d="M58.1992 13.8738C58.6253 14.2663 58.8954 14.8259 58.8983 15.4477L58.899 15.5676C58.9048 16.7518 57.9458 17.7155 56.7613 17.7155H56.7088L56.712 18.3493H55.3327L55.3296 17.7155H54.7644L54.7676 18.3493H53.3883L53.3852 17.7155H53.0633H52.3794L52.3726 16.3362H53.0566L53.0485 14.6794L53.0418 13.2996L53.0344 11.8074H52.3505L52.3438 10.4277H53.0277H53.3496L53.3458 9.6521H54.725L54.7288 10.4277H55.294L55.2902 9.6521H56.6694L56.6732 10.4342C57.7561 10.4998 58.6215 11.3983 58.6268 12.4969L58.6273 12.6103C58.6295 13.0859 58.4687 13.5234 58.1992 13.8738ZM57.5198 15.5674L57.5191 15.4475C57.5171 15.0235 57.1703 14.6789 56.7463 14.6789H56.5682H54.4273L54.4353 16.3358H54.7284H56.7541C57.1786 16.336 57.5218 15.991 57.5198 15.5674ZM54.4136 11.8072L54.421 13.2994H56.5619C56.942 13.2994 57.2503 12.9902 57.2483 12.6101L57.2478 12.4967C57.246 12.1166 56.9349 11.8074 56.5545 11.8074H54.7069L54.4136 11.8072Z" fill="#DCD0FF"/>
<mask id="mask2_2151_3887" style="mask-type:luminance" maskUnits="userSpaceOnUse" x="45" y="11" width="19" height="38">
<path d="M45.6094 11.8988V46.9265L45.6139 46.9258L45.6105 46.9274C45.6145 47.034 45.6295 47.142 45.6569 47.25L45.664 47.2798C45.8549 48.0348 46.5802 48.5417 47.367 48.4617C52.4491 47.9465 57.4921 47.1682 62.4929 46.1864C63.322 46.0235 63.9049 45.3111 63.9071 44.5022V11.5361L45.6094 11.8988Z" fill="white"/>
</mask>
<g mask="url(#mask2_2151_3887)">
<path d="M52.8135 37.8848C49.7495 38.374 47.041 40.6599 46.0437 43.598C45.0462 46.5365 45.804 49.9987 47.937 52.2519C50.0703 54.5053 53.486 55.4509 56.4743 54.6158C59.4626 53.7804 61.893 51.2008 62.5489 48.1678L52.8135 37.8848Z" fill="#DCD0FF"/>
<path d="M61.5222 39.8933C59.0523 37.3578 54.9184 36.6286 51.73 38.1661C48.5417 39.7033 46.5381 43.3923 46.9837 46.9038C47.4292 50.4153 50.2912 53.4867 53.7625 54.1787C57.234 54.8707 61.0545 53.132 62.8128 50.0596C64.5708 46.9874 64.2558 42.6994 61.5222 39.8933Z" fill="#603CD0"/>
<path d="M60.1196 40.6911C57.9561 38.863 54.6364 38.5389 52.1737 39.9381C49.7109 41.3374 48.2882 44.3751 48.8168 47.1581C49.3459 49.9409 51.8034 52.2523 54.6165 52.5832C57.4294 52.9141 60.3691 51.2189 61.4672 48.608C62.4883 46.1794 62.5051 42.7066 60.1196 40.6911Z" stroke="#2E2854" stroke-width="1.5" stroke-miterlimit="10" stroke-linecap="round" stroke-linejoin="round"/>
<path d="M58.2031 45.7207C58.6292 46.1132 58.8993 46.6728 58.9022 47.2947L58.9029 47.4145C58.9087 48.5987 57.9497 49.5624 56.7652 49.5624H56.7127L56.7159 50.1962H55.3366L55.3335 49.5624H54.7683L54.7715 50.1962H53.3922L53.3891 49.5624H53.0672H52.3833L52.3766 48.1831H53.0605L53.0524 46.5263L53.0457 45.1463L53.0383 43.6541H52.3544L52.3477 42.2743H53.0316H53.3535L53.3497 41.4988H54.7289L54.7327 42.2743H55.2979L55.2941 41.4988H56.6733L56.6771 42.2808C57.76 42.3465 58.6254 43.245 58.6307 44.3436L58.6312 44.457C58.6334 44.9328 58.4726 45.3703 58.2031 45.7207ZM57.5237 47.4143L57.523 47.2944C57.521 46.8704 57.1742 46.526 56.7502 46.526H56.5721H54.4312L54.4393 48.1829H54.7323H56.758C57.1825 48.1829 57.5257 47.8379 57.5237 47.4143ZM54.4175 43.6541L54.4249 45.1463H56.5658C56.9459 45.1463 57.2542 44.8371 57.2522 44.457L57.2517 44.3436C57.2499 43.9635 56.9388 43.6543 56.5584 43.6543H54.7108H54.4175" fill="#DCD0FF"/>
</g>
<path opacity="0.5" d="M63.8863 44.2592C64.0142 45.1647 63.4005 46.0077 62.4889 46.1869C57.4879 47.1688 52.4452 47.947 47.363 48.4623C46.5763 48.5423 45.8509 48.0353 45.6601 47.2803L45.6529 47.2505C45.4349 46.3878 45.9896 45.5166 46.8753 45.3401C51.8287 44.3517 56.8215 43.5166 61.9047 42.791C62.8639 42.6539 63.753 43.3145 63.8863 44.2592Z" fill="url(#paint0_linear_2151_3887)"/>
<path d="M63.9034 0L45.6055 0.36269V46.9268L45.6066 46.9266C45.6104 47.0337 45.6256 47.1419 45.653 47.2501L45.6601 47.2799C45.851 48.0348 46.5763 48.5418 47.3631 48.4618C52.4452 47.9465 57.4882 47.1683 62.489 46.1864C63.3179 46.0235 63.8987 45.3112 63.9012 44.5024L63.9032 44.5022L63.9034 0Z" fill="url(#paint1_linear_2151_3887)"/>
<path opacity="0.15" d="M54.2999 52.6751C54.2999 52.6751 55.8727 51.4988 56.9065 52.1487C57.9403 52.7985 57.4549 55.8266 53.3848 62.1187C53.3848 62.1187 56.857 75.3967 49.4968 80.5668L40.8516 70.3607L54.2999 52.6751Z" fill="#2E2854"/>
<path d="M36.2422 69.4325C41.2087 63.524 46.2452 57.6743 51.3504 51.8849C51.8139 51.3592 52.2973 50.8195 52.9333 50.5251C53.5695 50.231 54.4046 50.2471 54.8896 50.7534C55.5437 51.4356 55.2599 52.5494 54.9176 53.4307C53.8146 56.2713 52.5247 59.0388 51.266 61.6502C53.1916 67.8299 52.1204 75.596 49.1146 81.3285" fill="#A56F62"/>
<path d="M36.2422 69.4325C41.2087 63.524 46.2452 57.6743 51.3504 51.8849C51.8139 51.3592 52.2973 50.8195 52.9333 50.5251C53.5695 50.231 54.4046 50.2471 54.8896 50.7534C55.5437 51.4356 55.2599 52.5494 54.9176 53.4307C53.8146 56.2713 52.5247 59.0388 51.266 61.6502C53.1916 67.8299 52.1204 75.596 49.1146 81.3285" stroke="#2E2854" stroke-width="1.5" stroke-miterlimit="10" stroke-linecap="round" stroke-linejoin="round"/>
<path d="M76.4272 55.4657C75.3493 57.2223 74.1036 59.1128 72.1309 59.7096C71.4 59.9309 70.4779 59.8894 70.0337 59.2685C69.6854 58.7805 69.7573 58.1152 69.8953 57.5316C70.4784 55.0696 72.0066 52.8438 74.0955 51.4161C74.7577 50.9636 75.5832 50.5776 76.3394 50.8446C77.1662 51.1365 77.5661 52.1325 77.4642 53.0035C77.3627 53.874 76.9165 54.6684 76.4272 55.4657Z" fill="#A56F62"/>
<path d="M76.4272 55.4657C75.3493 57.2223 74.1036 59.1128 72.1309 59.7096C71.4 59.9309 70.4779 59.8894 70.0337 59.2685C69.6854 58.7805 69.7573 58.1152 69.8953 57.5316C70.4784 55.0696 72.0066 52.8438 74.0955 51.4161C74.7577 50.9636 75.5832 50.5776 76.3394 50.8446C77.1662 51.1365 77.5661 52.1325 77.4642 53.0035C77.3627 53.874 76.9165 54.6684 76.4272 55.4657Z" stroke="#2E2854" stroke-width="1.5" stroke-miterlimit="10" stroke-linecap="round" stroke-linejoin="round"/>
<path d="M74.6537 50.9284C73.5758 52.6847 72.3301 54.5754 70.3574 55.1725C69.6267 55.3938 68.7047 55.3523 68.2605 54.7313C67.9121 54.2434 67.9836 53.5781 68.122 52.9947C68.7049 50.5325 70.2333 48.3067 72.3222 46.879C72.9842 46.4264 73.8099 46.0405 74.5662 46.3075C75.3928 46.5994 75.7924 47.5954 75.6907 48.4664C75.5892 49.3367 75.1432 50.1309 74.6537 50.9284Z" fill="#A56F62"/>
<path d="M74.6537 50.9284C73.5758 52.6847 72.3301 54.5754 70.3574 55.1725C69.6267 55.3938 68.7047 55.3523 68.2605 54.7313C67.9121 54.2434 67.9836 53.5781 68.122 52.9947C68.7049 50.5325 70.2333 48.3067 72.3222 46.879C72.9842 46.4264 73.8099 46.0405 74.5662 46.3075C75.3928 46.5994 75.7924 47.5954 75.6907 48.4664C75.5892 49.3367 75.1432 50.1309 74.6537 50.9284Z" stroke="#2E2854" stroke-width="1.5" stroke-miterlimit="10" stroke-linecap="round" stroke-linejoin="round"/>
<path d="M73.3012 45.8474C72.0031 47.6407 70.6664 49.4717 68.8326 50.7123C68.1241 51.1917 67.2182 51.5822 66.4335 51.241C65.7422 50.9401 65.3781 50.1352 65.3869 49.3814C65.3956 48.6275 65.707 47.9127 66.0421 47.2373C67.144 45.0181 68.6321 42.898 70.7567 41.6237C71.4482 41.2089 72.299 40.8867 73.0478 41.1867C73.8883 41.5234 74.273 42.5546 74.1569 43.4529C74.0411 44.351 73.7353 45.2477 73.3012 45.8474Z" fill="#A56F62"/>
<path d="M73.3012 45.8474C72.0031 47.6407 70.6664 49.4716 68.8326 50.7123C68.1241 51.1917 67.2182 51.5822 66.4335 51.241C65.7422 50.9401 65.3781 50.1352 65.3869 49.3814C65.3956 48.6275 65.707 47.9127 66.0421 47.2373C67.144 45.0181 68.6321 42.898 70.7567 41.6237C71.4482 41.2089 72.299 40.8867 73.0478 41.1867C73.8883 41.5234 74.273 42.5546 74.1569 43.4529C74.0411 44.351 73.7353 45.2477 73.3012 45.8474Z" stroke="#2E2854" stroke-width="1.5" stroke-miterlimit="10" stroke-linecap="round" stroke-linejoin="round"/>
<path d="M81.8895 97.0928C81.4047 96.76 80.6688 96.8688 80.3046 97.3305C79.9403 97.7922 80.0089 98.5376 80.4542 98.9211C80.9 99.3051 81.6511 99.2603 82.0443 98.8232C82.4376 98.3854 82.4999 97.512 81.8895 97.0928Z" fill="#DCD0FF"/>
<path d="M5.06524 79.3907C4.58048 79.0578 3.8446 79.1667 3.48036 79.6284C3.11612 80.0901 3.18467 80.8354 3.63 81.2189C4.07578 81.6029 4.8269 81.5581 5.22004 81.121C5.6134 80.6833 5.67545 79.8101 5.06524 79.3907Z" fill="#DCD0FF"/>
<path d="M92.1238 23.2868C91.6391 22.9539 90.9032 23.0625 90.539 23.5244C90.1747 23.9862 90.2433 24.7315 90.6886 25.115C91.1344 25.499 91.8855 25.4542 92.2786 25.0171C92.672 24.5794 92.7343 23.7059 92.1238 23.2868Z" fill="#DCD0FF"/>
<path d="M29.9754 38.3944C29.4906 38.0615 28.7548 38.1703 28.3905 38.632C28.0263 39.0938 28.0948 39.8391 28.5402 40.2226C28.9859 40.6066 29.7371 40.562 30.1302 40.1247C30.5233 39.687 30.5856 38.8135 29.9754 38.3944Z" fill="white"/>
<path d="M22.8818 9.39328C22.2535 8.79918 21.2233 8.68403 20.4793 9.12468C19.7354 9.5651 19.3413 10.5239 19.5602 11.3604C19.7793 12.1971 20.5924 12.8398 21.4569 12.8596C22.3214 12.8793 23.1632 12.2742 23.4199 11.4484C23.6209 10.8019 23.482 9.9605 22.8818 9.39328Z" fill="#DCD0FF"/>
<path d="M86.3272 77.271C85.6988 76.6769 84.6686 76.5617 83.9246 77.0024C83.1807 77.4428 82.7867 78.4016 83.0055 79.2381C83.2246 80.0748 84.0378 80.7175 84.9022 80.7372C85.7667 80.757 86.6083 80.1519 86.8652 79.3261C87.066 78.6796 86.9271 77.8384 86.3272 77.271Z" fill="#603CD0"/>
<path d="M17.946 39.3428C17.9339 39.9622 17.922 40.5821 17.9102 41.2015" stroke="white" stroke-width="1.5" stroke-miterlimit="10" stroke-linecap="round" stroke-linejoin="round"/>
<path d="M16.9727 40.2445L18.8234 40.2017" stroke="white" stroke-width="1.5" stroke-miterlimit="10" stroke-linecap="round" stroke-linejoin="round"/>
<path d="M46.0827 3.65942C46.0706 4.27884 46.0587 4.89871 46.0469 5.51813" stroke="#2E2854" stroke-width="1.5" stroke-miterlimit="10" stroke-linecap="round" stroke-linejoin="round"/>
<path d="M45.1094 4.56132L46.9599 4.51831" stroke="#2E2854" stroke-width="1.5" stroke-miterlimit="10" stroke-linecap="round" stroke-linejoin="round"/>
<path d="M68.0593 13.0713C68.0472 13.6907 68.0351 14.3106 68.0234 14.93" stroke="#2E2854" stroke-width="1.5" stroke-miterlimit="10" stroke-linecap="round" stroke-linejoin="round"/>
<path d="M67.0859 13.973L68.9367 13.9302" stroke="#2E2854" stroke-width="1.5" stroke-miterlimit="10" stroke-linecap="round" stroke-linejoin="round"/>
<path d="M79.2241 12.1318C78.8811 12.0861 78.5245 12.3368 78.4515 12.6747C78.3784 13.0127 78.5995 13.3882 78.9309 13.4883C79.2619 13.588 79.654 13.3976 79.7801 13.0754C79.906 12.7531 79.785 12.2069 79.2241 12.1318Z" fill="#DCD0FF"/>
<path d="M1.61081 29.3147C1.26785 29.269 0.91122 29.5197 0.838192 29.8575C0.765164 30.1956 0.986263 30.571 1.31758 30.6712C1.64867 30.7711 2.04069 30.5804 2.1668 30.2583C2.29292 29.9359 2.17173 29.3898 1.61081 29.3147Z" fill="#DCD0FF"/>
<path d="M9.32175 89.1121C8.97878 89.0664 8.62216 89.3171 8.54913 89.6549C8.4761 89.9929 8.6972 90.3684 9.02851 90.4685C9.3596 90.5684 9.75162 90.3778 9.87774 90.0557C10.0036 89.7335 9.88267 89.1871 9.32175 89.1121Z" fill="#DCD0FF"/>
<path d="M92.6694 6.53493C92.3264 6.48923 91.9698 6.73991 91.8968 7.07773C91.8238 7.41578 92.0449 7.79124 92.3762 7.89137C92.7073 7.99106 93.0993 7.80065 93.2254 7.4785C93.3513 7.15636 93.2303 6.60997 92.6694 6.53493Z" fill="#DCD0FF"/>
<path d="M11.1499 8.16872C10.8069 8.12301 10.4503 8.37369 10.3773 8.71152C10.3042 9.04956 10.5253 9.42502 10.8566 9.52516C11.1877 9.62507 11.5797 9.43443 11.7059 9.11229C11.8318 8.79015 11.7108 8.24376 11.1499 8.16872Z" fill="#DCD0FF"/>
<path d="M31.2163 67.2034C30.8733 67.1577 30.5167 67.4084 30.4437 67.7462C30.3706 68.0842 30.5917 68.4597 30.923 68.5598C31.2541 68.6597 31.6462 68.4691 31.7723 68.147C31.8984 67.8248 31.7772 67.2784 31.2163 67.2034Z" fill="white"/>
<path d="M73.7241 30.0086C73.3811 29.9629 73.0245 30.2135 72.9515 30.5514C72.8784 30.8894 73.0995 31.2649 73.4309 31.365C73.7619 31.4649 74.154 31.2743 74.2801 30.9524C74.4062 30.63 74.285 30.0838 73.7241 30.0086Z" fill="white"/>
<path d="M75.0835 83.5977C74.7405 83.552 74.3839 83.8027 74.3108 84.1405C74.2378 84.4785 74.4589 84.854 74.7902 84.9541C75.1213 85.054 75.5133 84.8634 75.6395 84.5415C75.7654 84.2189 75.6442 83.6727 75.0835 83.5977Z" fill="white"/>
<path d="M14.2866 63.8389C13.9436 63.7932 13.587 64.0439 13.514 64.3817C13.4409 64.7197 13.662 65.0952 13.9934 65.1953C14.3244 65.295 14.7165 65.1046 14.8426 64.7825C14.9685 64.4601 14.8475 63.9139 14.2866 63.8389Z" fill="#603CD0"/>
<path d="M69.8725 88.6824C69.5296 88.6367 69.1729 88.8874 69.0999 89.2252C69.0269 89.5632 69.248 89.9387 69.5793 90.0388C69.9104 90.1387 70.3024 89.9481 70.4285 89.6262C70.5544 89.3036 70.4335 88.7574 69.8725 88.6824Z" fill="#603CD0"/>
<path d="M50.8251 26.3057C50.813 26.9251 50.8009 27.5449 50.7891 28.1644" stroke="white" stroke-width="1.5" stroke-miterlimit="10" stroke-linecap="round" stroke-linejoin="round"/>
<path d="M49.8516 27.2076L51.7023 27.1648" stroke="white" stroke-width="1.5" stroke-miterlimit="10" stroke-linecap="round" stroke-linejoin="round"/>
<path d="M61.614 48.0295C61.6019 48.649 61.5898 49.2688 61.5781 49.8882" stroke="white" stroke-width="1.5" stroke-miterlimit="10" stroke-linecap="round" stroke-linejoin="round"/>
<path d="M60.6406 48.9312L62.4912 48.8884" stroke="white" stroke-width="1.5" stroke-miterlimit="10" stroke-linecap="round" stroke-linejoin="round"/>
<path d="M42.3134 37.2717C42.3013 37.8911 42.2892 38.511 42.2773 39.1304" stroke="white" stroke-width="1.5" stroke-miterlimit="10" stroke-linecap="round" stroke-linejoin="round"/>
<path d="M41.3398 38.1736L43.1904 38.1306" stroke="white" stroke-width="1.5" stroke-miterlimit="10" stroke-linecap="round" stroke-linejoin="round"/>
<path d="M42.2624 15.4065C42.2503 16.0261 42.2384 16.6458 42.2266 17.2652" stroke="white" stroke-width="1.5" stroke-miterlimit="10" stroke-linecap="round" stroke-linejoin="round"/>
<path d="M41.2891 16.3084L43.1398 16.2656" stroke="white" stroke-width="1.5" stroke-miterlimit="10" stroke-linecap="round" stroke-linejoin="round"/>
<path d="M58.946 33.3184C58.9339 33.9378 58.9218 34.5576 58.9102 35.1771" stroke="#2E2854" stroke-width="1.5" stroke-miterlimit="10" stroke-linecap="round" stroke-linejoin="round"/>
<path d="M57.9727 34.2203L59.8234 34.1772" stroke="#2E2854" stroke-width="1.5" stroke-miterlimit="10" stroke-linecap="round" stroke-linejoin="round"/>
<path d="M18.5558 78.7367C18.5558 78.4008 18.2836 78.1287 17.9478 78.1287C17.612 78.1287 17.3398 78.4008 17.3398 78.7367C17.3398 79.0725 17.612 79.3446 17.9478 79.3446C18.2836 79.3446 18.5558 79.0725 18.5558 78.7367Z" stroke="#2E2854" stroke-width="1.5" stroke-miterlimit="10" stroke-linecap="round" stroke-linejoin="round"/>
<path d="M8.53375 19.3168C8.86952 19.3168 9.14172 19.0446 9.14172 18.7088C9.14172 18.373 8.86952 18.1008 8.53375 18.1008C8.19798 18.1008 7.92578 18.373 7.92578 18.7088C7.92578 19.0446 8.19798 19.3168 8.53375 19.3168Z" stroke="#2E2854" stroke-width="1.5" stroke-miterlimit="10" stroke-linecap="round" stroke-linejoin="round"/>
<path d="M88.858 91.1032C89.1937 91.1032 89.4659 90.831 89.4659 90.4952C89.4659 90.1594 89.1937 89.8872 88.858 89.8872C88.5222 89.8872 88.25 90.1594 88.25 90.4952C88.25 90.831 88.5222 91.1032 88.858 91.1032Z" stroke="#2E2854" stroke-width="1.5" stroke-miterlimit="10" stroke-linecap="round" stroke-linejoin="round"/>
<path d="M93.8775 34.8559C94.2133 34.8559 94.4855 34.5837 94.4855 34.2479C94.4855 33.9121 94.2133 33.6399 93.8775 33.6399C93.5417 33.6399 93.2695 33.9121 93.2695 34.2479C93.2695 34.5837 93.5417 34.8559 93.8775 34.8559Z" stroke="#2E2854" stroke-width="1.5" stroke-miterlimit="10" stroke-linecap="round" stroke-linejoin="round"/>
<defs>
<linearGradient id="paint0_linear_2151_3887" x1="55.0749" y1="47.4314" x2="54.5727" y2="44.6841" gradientUnits="userSpaceOnUse">
<stop stop-color="#2E2854"/>
<stop offset="1" stop-color="#2E2854" stop-opacity="0"/>
</linearGradient>
<linearGradient id="paint1_linear_2151_3887" x1="54.7545" y1="46.8328" x2="54.7545" y2="10.1339" gradientUnits="userSpaceOnUse">
<stop stop-color="#DCD0FF"/>
<stop offset="1" stop-color="#F7D7B4" stop-opacity="0"/>
</linearGradient>
</defs>
</svg>
