<svg width="136" height="100" viewBox="0 0 136 100" fill="none" xmlns="http://www.w3.org/2000/svg">
<path d="M12.1624 99.4021C8.35415 97.5369 -0.749869 94.9067 0.835911 83.6253C1.34427 80.0084 5.99037 74.5024 9.37919 73.1398C22.4553 67.882 19.3365 63.4627 13.6754 53.9223C9.27279 43.7535 11.3906 25.8215 21.4174 20.4477C27.8931 16.9771 39.4915 22.0565 46.2965 19.2877C53.6387 16.3002 54.3724 7.87203 61.4526 4.30758C82.6935 -6.38597 113.71 3.38504 114.676 27.4695C116.436 71.3791 150.861 54.6193 126.896 100L12.1624 99.4021Z" fill="#0D0D0D"/>
<path d="M92.8457 99.4222H33.5195C32.5854 99.4222 31.8281 98.6649 31.8281 97.7308V17.6311C31.8281 16.6969 32.5854 15.9397 33.5195 15.9397H92.8458C93.7799 15.9397 94.5372 16.6969 94.5372 17.6311V97.7308C94.5371 98.6649 93.7799 99.4222 92.8457 99.4222Z" fill="#603CD0"/>
<path d="M91.1966 95.8079H48.2036L38.1797 88.6136V18.187H91.1966V95.8079Z" fill="#5F7FCF"/>
<path d="M90.3918 95.1754H47.399L37.375 88.0405V18.1952H90.3918V95.1754Z" fill="white"/>
<path d="M47.3952 95.2059L37.375 88.0406L44.0263 86.692L47.3952 95.2059Z" fill="#CDD8FA"/>
<path d="M37.375 88.0403L48.1985 95.8078C48.1985 95.8078 40.0221 93.3918 37.375 88.0403Z" fill="#5F7FCF"/>
<path d="M79.4734 16.2722V20.1365C79.4734 20.536 79.1493 20.8601 78.7493 20.8601H49.2399C48.8398 20.8601 48.5156 20.536 48.5156 20.1365V16.2722C48.5156 14.617 49.8579 13.2748 51.5137 13.2748H76.476C77.2477 13.2748 77.9518 13.5664 78.4832 14.0459C79.0912 14.5947 79.4734 15.3888 79.4734 16.2722Z" fill="#603CD0"/>
<path d="M70.3632 14.3113H57.6328C57.6328 13.9581 57.6613 13.6123 57.7172 13.2748C58.2118 10.2521 60.8359 7.94641 63.9983 7.94641C67.1601 7.94641 69.7843 10.2521 70.2788 13.2748C70.3346 13.6123 70.3632 13.9581 70.3632 14.3113Z" fill="#603CD0"/>
<path d="M78.4832 14.0459L48.5156 19.411V16.2721C48.5156 14.6169 49.8579 13.2746 51.5137 13.2746H57.7137C58.2083 10.252 60.8324 7.94629 63.9948 7.94629C67.1566 7.94629 69.7808 10.252 70.2753 13.2746H76.4759C77.2476 13.2746 77.9517 13.5663 78.4832 14.0459Z" fill="#603CD0"/>
<path d="M65.9009 11.3757C65.9009 12.4271 65.0486 13.2793 63.9973 13.2793C62.946 13.2793 62.0938 12.4271 62.0938 11.3757C62.0938 10.3244 62.946 9.47217 63.9973 9.47217C65.0486 9.47217 65.9009 10.3244 65.9009 11.3757Z" fill="#E3E9FF"/>
<path d="M49.961 40.5917H40.9835C40.6992 40.5917 40.4688 40.3613 40.4688 40.077V31.0995C40.4688 30.8152 40.6992 30.5848 40.9835 30.5848H49.961C50.2453 30.5848 50.4758 30.8153 50.4758 31.0995V40.077C50.4757 40.3613 50.2452 40.5917 49.961 40.5917ZM41.4981 39.5623H49.4463V31.6142H41.4981V39.5623Z" fill="#8EA5ED"/>
<path d="M44.5681 39.9663L39.7578 34.3908L41.4641 32.9187L44.584 36.535L50.9391 29.3062L52.6316 30.7941L44.5681 39.9663Z" fill="#603CD0"/>
<path d="M75.3747 31.2604H54.668V33.1055H75.3747V31.2604Z" fill="#CDD8FA"/>
<path d="M87.9434 31.2604H76.7891V33.1055H87.9434V31.2604Z" fill="#CDD8FA"/>
<path d="M66.5503 34.9285H54.668V36.7737H66.5503V34.9285Z" fill="#CDD8FA"/>
<path d="M80.7187 38.5966H54.668V40.4417H80.7187V38.5966Z" fill="#CDD8FA"/>
<path d="M87.9414 34.9285H67.8828V36.7737H87.9414V34.9285Z" fill="#CDD8FA"/>
<path d="M49.961 61.0626H40.9835C40.6992 61.0626 40.4688 60.8322 40.4688 60.5479V51.5703C40.4688 51.286 40.6992 51.0557 40.9835 51.0557H49.961C50.2453 51.0557 50.4758 51.286 50.4758 51.5703V60.5479C50.4757 60.8322 50.2452 61.0626 49.961 61.0626ZM41.4981 60.0332H49.4463V52.085H41.4981V60.0332Z" fill="#8EA5ED"/>
<path d="M44.5681 60.4366L39.7578 54.861L41.4641 53.3889L44.584 57.0052L50.9391 49.7764L52.6316 51.2643L44.5681 60.4366Z" fill="#603CD0"/>
<path d="M83.7659 51.473H54.668V53.3182H83.7659V51.473Z" fill="#CDD8FA"/>
<path d="M73.0465 55.1411H54.668V56.9863H73.0465V55.1411Z" fill="#CDD8FA"/>
<path d="M61.9022 58.8092H54.668V60.6544H61.9022V58.8092Z" fill="#CDD8FA"/>
<path d="M87.7934 58.8092H63.0781V60.6544H87.7934V58.8092Z" fill="#CDD8FA"/>
<path d="M87.7957 55.1411H74.543V56.9863H87.7957V55.1411Z" fill="#CDD8FA"/>
<path d="M49.961 81.4456H40.9835C40.6992 81.4456 40.4688 81.2151 40.4688 80.9308V71.9533C40.4688 71.6691 40.6992 71.4386 40.9835 71.4386H49.961C50.2453 71.4386 50.4758 71.6691 50.4758 71.9533V80.9308C50.4757 81.2151 50.2452 81.4456 49.961 81.4456ZM41.4981 80.4162H49.4463V72.468H41.4981V80.4162Z" fill="#8EA5ED"/>
<path d="M44.5681 80.8202L39.7578 75.2446L41.4641 73.7725L44.584 77.3887L50.9391 70.1599L52.6316 71.6479L44.5681 80.8202Z" fill="#603CD0"/>
<path d="M63.5964 71.7766H54.668V73.6218H63.5964V71.7766Z" fill="#CDD8FA"/>
<path d="M87.7059 71.7766H64.582V73.6218H87.7059V71.7766Z" fill="#CDD8FA"/>
<path d="M78.8096 75.4446H54.668V77.2897H78.8096V75.4446Z" fill="#CDD8FA"/>
<path d="M70.0176 79.1127H54.668V80.9578H70.0176V79.1127Z" fill="#CDD8FA"/>
<path d="M82.9586 79.1127H71.0469V80.9578H82.9586V79.1127Z" fill="#CDD8FA"/>
<path d="M87.7927 75.4446H80.1914V77.2897H87.7927V75.4446Z" fill="#CDD8FA"/>
<path d="M124.654 77.3684C121.93 78.2526 121.311 79.0376 120.626 82.5223C120.613 82.5872 120.526 82.5872 120.514 82.5223C119.829 79.0376 119.209 78.2522 116.486 77.3684C116.432 77.3511 116.432 77.2684 116.486 77.251C119.209 76.3672 119.829 75.5818 120.514 72.0971C120.526 72.0322 120.613 72.0322 120.626 72.0971C121.31 75.5818 121.93 76.3672 124.654 77.251C124.708 77.2684 124.708 77.3506 124.654 77.3684Z" fill="white"/>
<path d="M25.1187 40.5706C23.4267 41.1199 23.042 41.6075 22.6164 43.7722C22.6085 43.8125 22.5547 43.8125 22.5469 43.7722C22.1213 41.6075 21.7366 41.1196 20.0446 40.5706C20.0112 40.5598 20.0112 40.5085 20.0446 40.4977C21.7366 39.9487 22.1213 39.4608 22.5469 37.2961C22.5547 37.2558 22.6085 37.2558 22.6164 37.2961C23.0418 39.4608 23.4267 39.9487 25.1187 40.4977C25.1521 40.5085 25.1521 40.5596 25.1187 40.5706Z" fill="white"/>
</svg>
