<svg width="100" height="101" viewBox="0 0 100 101" fill="none" xmlns="http://www.w3.org/2000/svg">
<path d="M45.8333 33.8337H54.1667V58.8337H45.8333V33.8337ZM62.5 4.66699H37.5V13.0003H62.5V4.66699ZM50 83.8337C33.875 83.8337 20.8333 70.792 20.8333 54.667C20.8333 38.542 33.875 25.5003 50 25.5003C66.125 25.5003 79.1667 38.542 79.1667 54.667C82.0833 54.667 84.8333 55.2087 87.5 56.1253V54.667C87.5 45.8337 84.4167 37.7087 79.2917 31.292L85.2083 25.3753C83.3333 23.2503 81.4583 21.3337 79.3333 19.5003L73.4167 25.5003C66.9583 20.2503 58.8333 17.167 50 17.167C40.0544 17.167 30.5161 21.1179 23.4835 28.1505C16.4509 35.1831 12.5 44.7214 12.5 54.667C12.5 64.6126 16.4509 74.1509 23.4835 81.1835C30.5161 88.2161 40.0544 92.167 50 92.167C52.4583 92.167 54.8333 91.917 57.125 91.4587C55.8333 89.042 54.9167 86.3337 54.5 83.4587C53 83.667 51.5417 83.8337 50 83.8337ZM88.9167 66.5003L73.9583 81.4587L67.3333 74.8337L62.5 79.667L73.9583 92.167L93.75 72.3753L88.9167 66.5003Z" fill="#DCD0FF"/>
</svg>
