<svg width="32" height="32" viewBox="0 0 32 32" fill="none" xmlns="http://www.w3.org/2000/svg">
<rect width="32" height="32" rx="16" fill="white"/>
<g clip-path="url(#clip0_1792_2446)">
<path d="M19.4042 13.7613C20.4347 14.4976 21.6972 14.9308 23.0607 14.9308V12.3085C22.8026 12.3086 22.5452 12.2816 22.2928 12.2281V14.2923C20.9294 14.2923 19.6671 13.8591 18.6364 13.1229V18.4744C18.6364 21.1515 16.465 23.3216 13.7867 23.3216C12.7874 23.3216 11.8585 23.0196 11.0869 22.5017C11.9676 23.4017 13.1957 23.96 14.5544 23.96C17.2329 23.96 19.4043 21.79 19.4043 19.1128V13.7613H19.4042ZM20.3515 11.1157C19.8248 10.5406 19.479 9.79745 19.4042 8.97582V8.63855H18.6765C18.8597 9.6828 19.4845 10.5749 20.3515 11.1157ZM12.7809 20.4474C12.4867 20.0619 12.3276 19.5901 12.3283 19.1051C12.3283 17.8807 13.3215 16.8879 14.5468 16.8879C14.7751 16.8878 15.0021 16.9228 15.2198 16.9918L15.2198 14.3108C14.9654 14.276 14.7088 14.2612 14.4522 14.2666L14.4522 16.3534C14.2345 16.2844 14.0074 16.2494 13.7789 16.2495C12.5537 16.2495 11.5606 17.2422 11.5606 18.4667C11.5606 19.3326 12.057 20.0822 12.7809 20.4474Z" fill="#FF004F"/>
<path d="M18.6367 13.1229C19.6675 13.8591 20.9297 14.2922 22.2931 14.2922V12.2281C21.5321 12.066 20.8583 11.6686 20.3518 11.1157C19.4848 10.5749 18.8601 9.68274 18.6769 8.63855H16.7655V19.1126C16.7612 20.3337 15.7697 21.3224 14.5471 21.3224C13.8266 21.3224 13.1865 20.9792 12.7812 20.4474C12.0573 20.0822 11.5609 19.3326 11.5609 18.4668C11.5609 17.2424 12.554 16.2496 13.7792 16.2496C14.014 16.2496 14.2403 16.2861 14.4525 16.3534V14.2667C11.8212 14.321 9.70508 16.4699 9.70508 19.1127C9.70508 20.432 10.232 21.628 11.0873 22.5018C11.8589 23.0196 12.7877 23.3217 13.7871 23.3217C16.4655 23.3217 18.6368 21.1515 18.6368 18.4744L18.6367 13.1229Z" fill="black"/>
<path d="M22.2934 12.228V11.67C21.6071 11.671 20.9344 11.4789 20.3521 11.1157C20.8675 11.6796 21.5462 12.0686 22.2934 12.2281M18.6771 8.63847C18.6596 8.53869 18.6462 8.43825 18.6369 8.33739V8.00012H15.9978L15.9978 18.4743C15.9936 19.6953 15.0022 20.684 13.7794 20.684C13.4328 20.6845 13.0909 20.6035 12.7814 20.4475C13.1867 20.9792 13.8268 21.3223 14.5473 21.3223C15.7699 21.3223 16.7614 20.3337 16.7657 19.1127V8.63852L18.6771 8.63847ZM14.4529 14.2666V13.6725C14.2323 13.6423 14.01 13.6273 13.7874 13.6273C11.1088 13.6273 8.9375 15.7975 8.9375 18.4743C8.9375 20.1526 9.79085 21.6317 11.0876 22.5017C10.2323 21.6279 9.70539 20.4318 9.70539 19.1126C9.70539 16.4699 11.8215 14.3209 14.4529 14.2666Z" fill="#00F2EA"/>
</g>
<defs>
<clipPath id="clip0_1792_2446">
<rect width="14.1241" height="16" fill="white" transform="translate(8.9375 8)"/>
</clipPath>
</defs>
</svg>
