<svg width="16" height="16" viewBox="0 0 16 16" fill="none" xmlns="http://www.w3.org/2000/svg">
<g clip-path="url(#clip0_2506_12344)">
<path d="M11.4052 5.75948C12.4357 6.49575 13.6982 6.92897 15.0616 6.92897L15.0616 4.30662C14.8036 4.30672 14.5462 4.2798 14.2937 4.22629L14.2937 6.29046C12.9304 6.29046 11.6681 5.8573 10.6374 5.12108L10.6374 10.4726C10.6374 13.1497 8.46599 15.3198 5.7877 15.3198C4.78836 15.3198 3.85948 15.0178 3.08789 14.4999C3.96855 15.3999 5.19669 15.9582 6.55537 15.9582C9.23388 15.9582 11.4053 13.7882 11.4053 11.1109L11.4053 5.75948H11.4052ZM12.3525 3.11385C11.8258 2.53879 11.48 1.79562 11.4052 0.973988V0.636719L10.6775 0.636719C10.8607 1.68097 11.4855 2.57311 12.3525 3.11385ZM4.7819 12.4456C4.48764 12.06 4.32858 11.5883 4.32933 11.1033C4.32933 9.87887 5.32248 8.8861 6.54781 8.8861C6.77612 8.88597 7.0031 8.92101 7.22075 8.98999L7.22075 6.30899C6.9664 6.27418 6.70974 6.25934 6.45319 6.2648L6.45319 8.35153C6.23543 8.28254 6.00834 8.24752 5.77992 8.2477C4.55465 8.2477 3.56155 9.24036 3.56155 10.4649C3.56155 11.3308 4.05793 12.0804 4.7819 12.4456Z" fill="#FF004F"/>
<path d="M10.6367 5.12102C11.6675 5.85724 12.9297 6.2904 14.2931 6.2904L14.2931 4.22624C13.5321 4.06419 12.8583 3.66673 12.3518 3.11385C11.4848 2.57305 10.8601 1.68091 10.6769 0.636719L8.76555 0.636719L8.76555 11.1108C8.76119 12.3319 7.76974 13.3206 6.54706 13.3206C5.82662 13.3206 5.18651 12.9774 4.78116 12.4455C4.0573 12.0804 3.56086 11.3307 3.56086 10.465C3.56086 9.24053 4.55396 8.24775 5.77923 8.24775C6.01399 8.24775 6.24025 8.28428 6.4525 8.35159V6.26486C3.82122 6.3192 1.70508 8.46806 1.70508 11.1109C1.70508 12.4302 2.23203 13.6261 3.08731 14.5C3.8589 15.0178 4.78773 15.3199 5.78712 15.3199C8.46546 15.3199 10.6368 13.1497 10.6368 10.4726L10.6367 5.12102Z" fill="white"/>
<path d="M14.2934 4.22786V3.66985C13.6071 3.67084 12.9344 3.47875 12.3521 3.11553C12.8675 3.67951 13.5462 4.06843 14.2934 4.22797M10.6771 0.638345C10.6596 0.53857 10.6462 0.438129 10.6369 0.337269V0L7.9978 0L7.9978 10.4742C7.99361 11.6952 7.00216 12.6839 5.77943 12.6839C5.4328 12.6844 5.0909 12.6034 4.78136 12.4473C5.18671 12.979 5.82682 13.3222 6.54727 13.3222C7.76989 13.3222 8.76144 12.3336 8.76575 11.1126L8.76575 0.6384L10.6771 0.638345ZM6.45287 6.26648V5.67233C6.23233 5.64222 6.01001 5.62714 5.78743 5.6272C3.10881 5.6272 0.9375 7.79735 0.9375 10.4742C0.9375 12.1525 1.79085 13.6316 3.08762 14.5016C2.23234 13.6278 1.70539 12.4317 1.70539 11.1125C1.70539 8.46974 3.82147 6.32083 6.45287 6.26648Z" fill="#00F2EA"/>
</g>
<defs>
<clipPath id="clip0_2506_12344">
<rect width="14.1241" height="16" fill="white" transform="translate(0.9375)"/>
</clipPath>
</defs>
</svg>
