<svg fill="none" height="16" viewBox="0 0 16 16" width="16" xmlns="http://www.w3.org/2000/svg" xmlns:xlink="http://www.w3.org/1999/xlink"><clipPath id="a"><path d="m0 0h16v16h-16z"/></clipPath><g clip-path="url(#a)"><path d="m8 16c4.4183 0 8-3.5817 8-8 0-4.41828-3.5817-8-8-8-4.41828 0-8 3.58172-8 8 0 4.4183 3.58172 8 8 8z" fill="#ef0027"/><path d="m10.966 4.95642-7.216-1.328 3.7975 9.55598 5.2915-6.44698zm-.116.585 1.104 1.0495-3.019.5465zm-2.571 1.4865-3.182-2.639 5.201.957zm-.2265.467-.519 4.28998-2.7975-7.04148zm.48.2275 3.3435-.605-3.835 4.67148z" fill="#fff"/></g></svg>