<svg width="16" height="16" viewBox="0 0 16 16" fill="none" xmlns="http://www.w3.org/2000/svg">
<path d="M7.29918 8.95318L6.10185 7.75985C6.03963 7.69763 5.96385 7.66429 5.87452 7.65985C5.78474 7.6554 5.70318 7.69007 5.62985 7.76385C5.55874 7.83496 5.52318 7.91362 5.52318 7.99985C5.52318 8.08607 5.55874 8.16474 5.62985 8.23585L6.92185 9.52785C7.02985 9.6354 7.15563 9.68918 7.29918 9.68918C7.44274 9.68918 7.56852 9.6354 7.67652 9.52785L10.3685 6.83585C10.4334 6.77096 10.4674 6.69451 10.4705 6.60651C10.4736 6.51807 10.4396 6.43718 10.3685 6.36385C10.2952 6.29051 10.2158 6.25318 10.1305 6.25185C10.0452 6.25051 9.96607 6.28651 9.89318 6.35985L7.29918 8.95318ZM5.77918 13.7438L4.90185 12.2772L3.24785 11.9278C3.1154 11.9034 3.00985 11.8323 2.93118 11.7145C2.85252 11.5972 2.82007 11.4723 2.83385 11.3398L2.99185 9.63585L1.86985 8.35585C1.77563 8.2594 1.72852 8.14074 1.72852 7.99985C1.72852 7.85896 1.77563 7.74029 1.86985 7.64385L2.99185 6.36385L2.83385 4.66051C2.82052 4.52762 2.85296 4.40251 2.93118 4.28518C3.00985 4.16785 3.1154 4.09674 3.24785 4.07185L4.90118 3.72318L5.77852 2.25651C5.85052 2.1374 5.94718 2.05518 6.06852 2.00985C6.18985 1.96407 6.3154 1.97007 6.44518 2.02785L7.99918 2.68451L9.55252 2.02785C9.68274 1.97007 9.80852 1.96407 9.92985 2.00985C10.0512 2.05518 10.1478 2.1374 10.2198 2.25651L11.0965 3.72318L12.7505 4.07185C12.883 4.09674 12.9885 4.16785 13.0672 4.28518C13.1458 4.40251 13.1783 4.52762 13.1645 4.66051L13.0072 6.36385L14.1285 7.64385C14.2227 7.74029 14.2698 7.85896 14.2698 7.99985C14.2698 8.14074 14.2227 8.25962 14.1285 8.35651L13.0072 9.63585L13.1645 11.3392C13.1778 11.4721 13.1454 11.5972 13.0672 11.7145C12.9885 11.8323 12.883 11.9034 12.7505 11.9278L11.0972 12.2772L10.2198 13.7438C10.1478 13.8625 10.0512 13.9447 9.92985 13.9905C9.80852 14.0363 9.68296 14.0301 9.55318 13.9718L7.99918 13.3152L6.44585 13.9718C6.31563 14.0296 6.18985 14.0356 6.06852 13.9898C5.94718 13.9445 5.85052 13.8623 5.77852 13.7432" fill="white"/>
</svg>
