<svg width="18" height="16" viewBox="0 0 18 16" fill="none" xmlns="http://www.w3.org/2000/svg">
<g clip-path="url(#clip0_2506_12431)">
<path d="M17.9913 3.23793C17.9112 4.99349 16.6873 7.3974 14.3203 10.4485C11.873 13.6355 9.80245 15.229 8.10872 15.2289C7.0598 15.2289 6.17154 14.2587 5.44648 12.3176C4.96188 10.5383 4.47792 8.75908 3.99354 6.97982C3.45473 5.03976 2.87712 4.06846 2.25956 4.06846C2.12491 4.06846 1.65368 4.35238 0.846914 4.9179L0 3.82476C0.881629 3.04916 1.75728 2.26679 2.62687 1.47772C3.81164 0.451865 4.70109 -0.0875723 5.29383 -0.142135C6.69473 -0.276947 7.557 0.682537 7.88063 2.73632C8.23036 4.95215 8.4723 6.33041 8.60836 6.86985C9.01209 8.70817 9.45633 9.62617 9.94184 9.62617C10.3186 9.62617 10.8845 9.03006 11.639 7.8377C12.3929 6.64499 12.7967 5.73761 12.8512 5.11429C12.9585 4.08505 12.5545 3.56917 11.639 3.56917C11.2082 3.56917 10.7639 3.66852 10.3069 3.8649C11.1914 0.961701 12.8816 -0.448275 15.3764 -0.367838C17.2259 -0.313486 18.0978 0.888435 17.9913 3.23793Z" fill="#32B8E8"/>
</g>
<defs>
<clipPath id="clip0_2506_12431">
<rect width="18" height="15.6797" fill="white" transform="translate(0 0.160156)"/>
</clipPath>
</defs>
</svg>
