<svg width="16" height="16" viewBox="0 0 16 16" fill="none" xmlns="http://www.w3.org/2000/svg">
<path d="M10.5668 5.42667C10.8268 5.42667 11.0802 5.44667 11.3268 5.48C10.8735 3.5 8.79349 2 6.29349 2C3.46016 2 1.16016 3.92 1.16016 6.28667C1.16016 7.65333 1.92682 8.86 3.12016 9.64667L2.44682 11L4.28682 10.2067C4.68016 10.3467 5.09349 10.46 5.53349 10.52C5.47349 10.26 5.44016 9.99333 5.44016 9.71333C5.43349 7.35333 7.73349 5.42667 10.5668 5.42667ZM8.00016 3.92667C8.0842 3.92667 8.16743 3.94322 8.24507 3.97538C8.32272 4.00755 8.39328 4.05469 8.4527 4.11412C8.51213 4.17355 8.55928 4.2441 8.59144 4.32175C8.6236 4.3994 8.64016 4.48262 8.64016 4.56667C8.64016 4.65071 8.6236 4.73394 8.59144 4.81158C8.55928 4.88923 8.51213 4.95979 8.4527 5.01922C8.39328 5.07864 8.32272 5.12579 8.24507 5.15795C8.16743 5.19011 8.0842 5.20667 8.00016 5.20667C7.83042 5.20667 7.66763 5.13924 7.54761 5.01922C7.42759 4.89919 7.36016 4.73641 7.36016 4.56667C7.36016 4.39693 7.42759 4.23414 7.54761 4.11412C7.66763 3.9941 7.83042 3.92667 8.00016 3.92667ZM4.58016 5.21333C4.41042 5.21333 4.24763 5.14591 4.12761 5.02588C4.00758 4.90586 3.94016 4.74307 3.94016 4.57333C3.94016 4.40359 4.00758 4.24081 4.12761 4.12079C4.24763 4.00076 4.41042 3.93333 4.58016 3.93333C4.7499 3.93333 4.91268 4.00076 5.0327 4.12079C5.15273 4.24081 5.22016 4.40359 5.22016 4.57333C5.22016 4.74307 5.15273 4.90586 5.0327 5.02588C4.91268 5.14591 4.7499 5.21333 4.58016 5.21333Z" fill="#63EF22"/>
<path d="M14.8396 9.71182C14.8396 7.81849 12.9263 6.28516 10.5663 6.28516C8.2063 6.28516 6.29297 7.81849 6.29297 9.71182C6.29297 11.6052 8.2063 13.1385 10.5663 13.1385C10.953 13.1385 11.3263 13.0852 11.6796 13.0052L13.9863 13.9985L13.1863 12.3985C14.1863 11.7718 14.8396 10.8118 14.8396 9.71182ZM9.27964 9.49849C9.15306 9.49849 9.02932 9.46095 8.92407 9.39063C8.81882 9.32031 8.73679 9.22035 8.68835 9.10341C8.63991 8.98646 8.62724 8.85778 8.65193 8.73363C8.67663 8.60948 8.73758 8.49545 8.82709 8.40594C8.91659 8.31644 9.03063 8.25548 9.15478 8.23079C9.27893 8.20609 9.40761 8.21877 9.52455 8.26721C9.6415 8.31565 9.74145 8.39768 9.81178 8.50292C9.8821 8.60817 9.91964 8.73191 9.91964 8.85849C9.9263 9.21182 9.63297 9.49849 9.27964 9.49849ZM11.8463 9.49849C11.6766 9.49849 11.5138 9.43106 11.3938 9.31104C11.2737 9.19101 11.2063 9.02823 11.2063 8.85849C11.2063 8.68875 11.2737 8.52596 11.3938 8.40594C11.5138 8.28592 11.6766 8.21849 11.8463 8.21849C12.016 8.21849 12.1788 8.28592 12.2989 8.40594C12.4189 8.52596 12.4863 8.68875 12.4863 8.85849C12.4863 9.02823 12.4189 9.19101 12.2989 9.31104C12.1788 9.43106 12.016 9.49849 11.8463 9.49849Z" fill="#63EF22"/>
</svg>
