<svg width="25" height="24" viewBox="0 0 25 24" fill="none" xmlns="http://www.w3.org/2000/svg">
<path d="M19.4345 13.945L18.7645 10.297C18.4745 8.721 18.3295 7.933 17.7565 7.467C17.1835 7.001 16.3595 7 14.7125 7H10.2865C8.63951 7 7.81651 7 7.24251 7.467C6.66951 7.933 6.52451 8.721 6.23451 10.297L5.56451 13.945C4.96451 17.216 4.66351 18.852 5.58851 19.925C6.51351 21 8.22351 21 11.6415 21H13.3575C16.7755 21 18.4855 21 19.4105 19.926C20.3355 18.852 20.0355 17.216 19.4345 13.946" stroke="#603CD0" stroke-width="1.5" stroke-linecap="round" stroke-linejoin="round"/>
<path d="M12.5 10.5V17M10 15L12.5 17.5L15 15M21.5 11C21.6545 10.9229 21.7946 10.8197 21.914 10.695C22.5 10.089 22.5 9.11 22.5 7.152C22.5 5.194 22.5 4.216 21.914 3.608C21.328 3 20.386 3 18.5 3H6.5C4.614 3 3.672 3 3.086 3.608C2.5 4.216 2.5 5.195 2.5 7.152C2.5 9.109 2.5 10.088 3.086 10.695C3.206 10.8203 3.344 10.922 3.5 11" stroke="#603CD0" stroke-width="1.5" stroke-linecap="round" stroke-linejoin="round"/>
</svg>
