<svg width="24" height="18" viewBox="0 0 24 18" fill="none" xmlns="http://www.w3.org/2000/svg">
<g clip-path="url(#clip0_2506_12373)">
<path d="M22.992 3.43643C22.8601 2.94889 22.6028 2.50443 22.2457 2.14728C21.8885 1.79014 21.4441 1.53278 20.9565 1.40084C19.1717 0.914062 11.9883 0.914062 11.9883 0.914062C11.9883 0.914062 4.80461 0.928797 3.01978 1.41557C2.53224 1.54752 2.08777 1.8049 1.73065 2.16206C1.37352 2.51922 1.11619 2.9637 0.984275 3.45125C0.444404 6.62255 0.234978 11.4549 0.999099 14.4993C1.13102 14.9869 1.38836 15.4313 1.74549 15.7885C2.10262 16.1456 2.54707 16.403 3.0346 16.5349C4.81944 17.0217 12.003 17.0217 12.003 17.0217C12.003 17.0217 19.1864 17.0217 20.9712 16.5349C21.4587 16.403 21.9032 16.1456 22.2603 15.7885C22.6175 15.4314 22.8748 14.9869 23.0068 14.4993C23.5762 11.3235 23.7517 6.49417 22.992 3.43643Z" fill="#FF0000"/>
<path d="M9.70117 12.4189L15.6603 8.96724L9.70117 5.51562V12.4189Z" fill="white"/>
</g>
<defs>
<clipPath id="clip0_2506_12373">
<rect width="23" height="16.1719" fill="white" transform="translate(0.5 0.914062)"/>
</clipPath>
</defs>
</svg>
